M48
;DRILL file {KiCad 4.0.7} date 11/28/17 11:15:29
;FORMAT={-:-/ absolute / inch / decimal}
FMAT,2
INCH,TZ
T1C0.020
T2C0.032
T3C0.039
T4C0.040
T5C0.051
T6C0.059
T7C0.079
T8C0.118
T9C0.118
%
G90
G05
M72
T1
X2.5984Y-5.2953
X2.5984Y-5.2953
X2.6209Y-3.7469
X2.6543Y-4.4508
X2.6665Y-3.774
X2.7047Y-3.4986
X2.7165Y-4.2913
X2.7362Y-2.7165
X2.7756Y-2.7165
X2.7953Y-4.4882
X2.815Y-2.5394
X2.834Y-3.9701
X2.8346Y-2.6378
X2.8346Y-4.4882
X2.8655Y-3.8783
X2.874Y-2.5984
X2.9134Y-2.4798
X2.9134Y-4.4094
X2.9528Y-4.5276
X2.9921Y-5.2953
X2.9921Y-5.2953
X3.0451Y-2.5536
X3.0709Y-2.4803
X3.0709Y-4.5276
X3.1177Y-2.5694
X3.1248Y-2.7127
X3.1303Y-2.6132
X3.1307Y-4.2142
X3.1441Y-3.463
X3.189Y-4.7047
X3.189Y-4.7047
X3.2168Y-4.1645
X3.2244Y-4.0452
X3.2272Y-3.8193
X3.2298Y-2.3946
X3.2634Y-3.7583
X3.2907Y-4.1477
X3.2945Y-3.5677
X3.3008Y-4.1004
X3.3071Y-4.4488
X3.3217Y-3.86
X3.3264Y-2.5197
X3.3433Y-4.1071
X3.3511Y-3.9884
X3.3706Y-3.1773
X3.3831Y-3.9378
X3.3858Y-4.4094
X3.3858Y-5.2953
X3.3858Y-5.2953
X3.3874Y-2.5205
X3.3926Y-3.6194
X3.3945Y-3.9878
X3.3966Y-4.0689
X3.4112Y-4.2553
X3.4114Y-2.461
X3.4409Y-2.6126
X3.4456Y-3.0271
X3.4583Y-4.0756
X3.4646Y-4.4882
X3.4843Y-2.7165
X3.4976Y-4.1246
X3.5219Y-3.8335
X3.5236Y-2.7165
X3.5433Y-4.4488
X3.5493Y-2.4661
X3.5586Y-4.1097
X3.5712Y-2.6146
X3.5827Y-4.7047
X3.5827Y-4.7047
X3.5926Y-2.769
X3.6134Y-4.0941
X3.622Y-4.4488
X3.6252Y-4.1555
X3.6368Y-2.4509
X3.643Y-2.6
X3.6793Y-2.4679
X3.6919Y-3.7718
X3.6976Y-4.0459
X3.7008Y-4.1548
X3.7008Y-4.302
X3.7008Y-4.4882
X3.7309Y-2.5761
X3.7386Y-2.7795
X3.7564Y-4.4023
X3.7711Y-2.7513
X3.7795Y-5.2953
X3.7795Y-5.2953
X3.7941Y-4.0522
X3.8103Y-3.6347
X3.8185Y-3.5661
X3.8189Y-4.302
X3.822Y-4.4106
X3.8252Y-3.8199
X3.8386Y-4.1732
X3.841Y-4.0474
X3.8548Y-4.4942
X3.8622Y-3.0317
X3.8835Y-3.6598
X3.8976Y-4.4488
X3.9118Y-4.2638
X3.9155Y-3.4673
X3.9199Y-3.1765
X3.9489Y-3.1447
X3.9516Y-2.0996
X3.9551Y-3.4866
X3.9698Y-3.0805
X3.9764Y-4.3701
X4.0142Y-3.1142
X4.0261Y-4.1386
X4.0484Y-2.6646
X4.0603Y-4.2004
X4.0748Y-2.9528
X4.089Y-2.1004
X4.097Y-4.1174
X4.1469Y-2.798
X4.1714Y-4.2249
X4.1732Y-4.4183
X4.1732Y-5.2953
X4.1732Y-5.2953
X4.1764Y-4.3106
X4.1766Y-4.2676
X4.1799Y-3.2691
X4.1929Y-2.6092
X4.196Y-3.7426
X4.2009Y-4.141
X4.2382Y-2.4161
X4.2441Y-2.9596
X4.2584Y-3.1462
X4.2771Y-4.0783
X4.278Y-4.534
X4.2929Y-3.8322
X4.3059Y-3.6791
X4.3081Y-4.2288
X4.3123Y-3.7298
X4.3173Y-3.5807
X4.3307Y-4.2913
X4.3412Y-3.7932
X4.3496Y-3.0592
X4.3549Y-4.0067
X4.3701Y-4.4488
X4.3701Y-4.7047
X4.3701Y-4.7047
X4.375Y-2.7236
X4.3777Y-3.4475
X4.3828Y-3.7822
X4.3972Y-3.8227
X4.4091Y-4.5563
X4.4223Y-4.1834
X4.4286Y-4.2276
X4.4445Y-2.7489
X4.4496Y-4.2672
X4.46Y-4.442
X4.4816Y-3.0818
X4.4817Y-3.7774
X4.5041Y-3.7177
X4.5055Y-2.7473
X4.5243Y-3.7719
X4.5347Y-3.4413
X4.5398Y-4.2394
X4.5414Y-3.1048
X4.5422Y-4.1423
X4.5436Y-4.0812
X4.5574Y-2.7109
X4.5577Y-3.9854
X4.5669Y-5.2953
X4.5669Y-5.2953
X4.5731Y-3.2619
X4.5805Y-4.2548
X4.5845Y-3.1181
X4.5889Y-3.4724
X4.598Y-4.418
X4.6453Y-3.0992
X4.654Y-4.536
X4.658Y-4.468
X4.6774Y-3.9076
X4.6984Y-4.3487
X4.7262Y-4.2007
X4.7263Y-3.7286
X4.7263Y-3.9719
X4.7414Y-4.3462
X4.7497Y-3.5383
X4.7638Y-4.7047
X4.7638Y-4.7047
X4.7756Y-3.4458
X4.7777Y-3.6219
X4.7927Y-3.9873
X4.802Y-2.6125
X4.8141Y-3.6759
X4.8227Y-3.4429
X4.8477Y-4.3038
X4.852Y-4.54
X4.8562Y-4.1237
X4.8773Y-4.0106
X4.8817Y-3.5913
X4.8828Y-3.6656
X4.9106Y-2.7996
X4.9236Y-3.719
X4.9352Y-2.3752
X4.9421Y-3.8488
X4.9586Y-4.1301
X4.9606Y-5.2953
X4.9606Y-5.2953
X4.9675Y-3.04
X4.9803Y-2.3622
X4.9863Y-4.318
X4.9936Y-3.793
X5.0021Y-3.9075
X5.0067Y-4.3531
X5.0086Y-3.2065
X5.0251Y-3.3965
X5.0257Y-3.3535
X5.0327Y-3.0972
X5.0341Y-4.3994
X5.0357Y-2.5788
X5.038Y-3.287
X5.0394Y-4.4882
X5.0499Y-3.9879
X5.0514Y-4.3385
X5.0571Y-4.3303
X5.0579Y-4.1256
X5.0595Y-3.4223
X5.0638Y-4.0286
X5.0771Y-3.8717
X5.0787Y-2.5787
X5.0976Y-3.2886
X5.0984Y-3.4039
X5.1032Y-4.1561
X5.1045Y-4.2171
X5.1059Y-3.7636
X5.1319Y-4.4312
X5.1434Y-3.874
X5.1575Y-4.7047
X5.1575Y-4.7047
X5.1953Y-4.1976
X5.206Y-4.474
X5.2137Y-4.2946
X5.2562Y-3.9831
X5.2717Y-2.8976
X5.2743Y-4.3732
X5.2756Y-4.4882
X5.2953Y-2.2835
X5.319Y-4.3709
X5.3205Y-2.8969
X5.3205Y-4.1519
X5.3205Y-4.0604
X5.3308Y-4.2919
X5.3333Y-4.2489
X5.3543Y-5.2953
X5.3543Y-5.2953
X5.372Y-2.7756
X5.3937Y-2.2244
X5.4003Y-4.0136
X5.4029Y-4.1326
X5.4118Y-3.5492
X5.4331Y-4.4488
X5.4386Y-3.8669
X5.4459Y-4.1326
X5.4524Y-2.6244
X5.4703Y-3.7728
X5.4846Y-2.7476
X5.4888Y-4.1311
X5.5024Y-2.5787
X5.5041Y-3.8211
X5.5213Y-3.4374
X5.5412Y-4.1385
X5.5512Y-4.4882
X5.5717Y-3.4374
X5.5861Y-4.1537
X5.5906Y-2.3819
X5.5906Y-2.4213
X5.6231Y-4.1756
X5.6299Y-2.3819
X5.6299Y-2.4213
X5.6299Y-2.4213
X5.6433Y-2.9756
X5.6538Y-4.2166
X5.6878Y-2.7933
X5.6897Y-4.2509
X5.6934Y-4.0452
X5.7087Y-4.4094
X5.748Y-5.2953
X5.748Y-5.2953
X5.7595Y-4.1207
X5.8858Y-4.0459
X5.9224Y-3.8575
X5.9449Y-4.7047
X5.9449Y-4.7047
X5.9843Y-4.4488
X5.9843Y-4.5276
X6.0236Y-4.5276
X6.0508Y-3.8657
X6.1138Y-3.7752
X6.1417Y-5.2953
X6.1417Y-5.2953
T2
X2.5591Y-2.2591
X2.5591Y-2.8591
X2.6591Y-2.2591
X2.6591Y-2.8591
X2.7591Y-2.2591
X2.7591Y-2.8591
X2.8591Y-2.2591
X2.8591Y-2.8591
X2.9591Y-2.2591
X2.9591Y-2.8591
X3.0591Y-2.2591
X3.0591Y-2.8591
X3.1591Y-2.2591
X3.1591Y-2.8591
X3.2591Y-2.2591
X3.2591Y-2.8591
X3.3591Y-2.2591
X3.3591Y-2.8591
X3.4591Y-2.2591
X3.4591Y-2.8591
X3.5591Y-2.2591
X3.5591Y-2.8591
X3.6591Y-2.2591
X3.6591Y-2.8591
X3.7591Y-2.2591
X3.7591Y-2.8591
X3.8591Y-2.2591
X3.8591Y-2.8591
X3.9591Y-2.2591
X3.9591Y-2.8591
T3
X2.5591Y-3.622
X2.6575Y-3.622
X2.7559Y-3.622
X3.0315Y-3.622
X3.1299Y-3.622
X3.2283Y-3.622
X3.5039Y-3.622
X3.6024Y-3.622
X3.7008Y-3.622
X3.9764Y-3.622
X4.0748Y-3.622
X4.1732Y-3.622
X4.4488Y-3.622
X4.5472Y-3.622
X4.6457Y-3.622
X4.9606Y-3.622
X5.0591Y-3.622
X5.1575Y-3.622
X5.4724Y-3.622
X5.5709Y-3.622
X5.6693Y-3.622
X5.8701Y-2.126
X5.8701Y-2.3622
X5.9843Y-3.622
X6.0669Y-2.2441
X6.0827Y-3.622
X6.1811Y-3.622
T4
X2.5591Y-2.185
X2.5591Y-2.9331
X2.6591Y-2.185
X2.6591Y-2.9331
X2.7591Y-2.185
X2.7591Y-2.9331
X2.8591Y-2.185
X2.8591Y-2.9331
X2.9591Y-2.185
X2.9591Y-2.9331
X3.0591Y-2.185
X3.0591Y-2.9331
X3.1591Y-2.185
X3.1591Y-2.9331
X3.2591Y-2.185
X3.2591Y-2.9331
X3.3591Y-2.185
X3.3591Y-2.9331
X3.4591Y-2.185
X3.4591Y-2.9331
X3.5591Y-2.185
X3.5591Y-2.9331
X3.6591Y-2.185
X3.6591Y-2.9331
X3.7591Y-2.185
X3.7591Y-2.9331
X3.7598Y-1.9685
X3.8591Y-2.185
X3.8591Y-2.9331
X3.8598Y-1.9685
X3.9591Y-2.185
X3.9591Y-2.9331
X4.3898Y-2.8331
X4.3898Y-2.9331
X4.4898Y-2.8331
X4.4898Y-2.9331
X4.5898Y-2.8331
X4.5898Y-2.9331
X4.6898Y-2.8331
X4.6898Y-2.9331
X5.622Y-2.0929
X5.622Y-2.1929
T5
X4.7354Y-2.063
T6
X4.2866Y-2.063
X4.6134Y-2.063
T7
X2.4606Y-3.3465
X2.8543Y-3.3465
X2.9331Y-3.3465
X3.3268Y-3.3465
X3.4055Y-3.3465
X3.7992Y-3.3465
X3.878Y-3.3465
X4.2717Y-3.3465
X4.3504Y-3.3465
X4.7441Y-3.3465
X4.8622Y-3.3465
X5.2559Y-3.3465
X5.374Y-3.3465
X5.7677Y-3.3465
X5.8858Y-3.3465
X6.2795Y-3.3465
T8
X2.5197Y-1.9685
X2.5197Y-4.3307
X6.2205Y-1.9685
X6.2205Y-4.3307
T9
X4.4803Y-2.063
T0
M30
