G04 #@! TF.FileFunction,Soldermask,Top*
%FSLAX46Y46*%
G04 Gerber Fmt 4.6, Leading zero omitted, Abs format (unit mm)*
G04 Created by KiCad (PCBNEW 4.0.1-stable) date 31/12/2015 22:44:44*
%MOMM*%
G01*
G04 APERTURE LIST*
%ADD10C,0.100000*%
G04 APERTURE END LIST*
D10*
G36*
X66436880Y-116186180D02*
X65563120Y-116186180D01*
X65563120Y-115312420D01*
X66436880Y-115312420D01*
X66436880Y-116186180D01*
X66436880Y-116186180D01*
G37*
G36*
X116436880Y-116186180D02*
X115563120Y-116186180D01*
X115563120Y-115312420D01*
X116436880Y-115312420D01*
X116436880Y-116186180D01*
X116436880Y-116186180D01*
G37*
G36*
X156436880Y-116186180D02*
X155563120Y-116186180D01*
X155563120Y-115312420D01*
X156436880Y-115312420D01*
X156436880Y-116186180D01*
X156436880Y-116186180D01*
G37*
G36*
X146436880Y-116186180D02*
X145563120Y-116186180D01*
X145563120Y-115312420D01*
X146436880Y-115312420D01*
X146436880Y-116186180D01*
X146436880Y-116186180D01*
G37*
G36*
X136436880Y-116186180D02*
X135563120Y-116186180D01*
X135563120Y-115312420D01*
X136436880Y-115312420D01*
X136436880Y-116186180D01*
X136436880Y-116186180D01*
G37*
G36*
X131436880Y-116186180D02*
X130563120Y-116186180D01*
X130563120Y-115312420D01*
X131436880Y-115312420D01*
X131436880Y-116186180D01*
X131436880Y-116186180D01*
G37*
G36*
X126436880Y-116186180D02*
X125563120Y-116186180D01*
X125563120Y-115312420D01*
X126436880Y-115312420D01*
X126436880Y-116186180D01*
X126436880Y-116186180D01*
G37*
G36*
X121436880Y-116186180D02*
X120563120Y-116186180D01*
X120563120Y-115312420D01*
X121436880Y-115312420D01*
X121436880Y-116186180D01*
X121436880Y-116186180D01*
G37*
G36*
X151436880Y-116186180D02*
X150563120Y-116186180D01*
X150563120Y-115312420D01*
X151436880Y-115312420D01*
X151436880Y-116186180D01*
X151436880Y-116186180D01*
G37*
G36*
X111436880Y-116186180D02*
X110563120Y-116186180D01*
X110563120Y-115312420D01*
X111436880Y-115312420D01*
X111436880Y-116186180D01*
X111436880Y-116186180D01*
G37*
G36*
X106436880Y-116186180D02*
X105563120Y-116186180D01*
X105563120Y-115312420D01*
X106436880Y-115312420D01*
X106436880Y-116186180D01*
X106436880Y-116186180D01*
G37*
G36*
X96436880Y-116186180D02*
X95563120Y-116186180D01*
X95563120Y-115312420D01*
X96436880Y-115312420D01*
X96436880Y-116186180D01*
X96436880Y-116186180D01*
G37*
G36*
X91436880Y-116186180D02*
X90563120Y-116186180D01*
X90563120Y-115312420D01*
X91436880Y-115312420D01*
X91436880Y-116186180D01*
X91436880Y-116186180D01*
G37*
G36*
X86436880Y-116186180D02*
X85563120Y-116186180D01*
X85563120Y-115312420D01*
X86436880Y-115312420D01*
X86436880Y-116186180D01*
X86436880Y-116186180D01*
G37*
G36*
X81436880Y-116186180D02*
X80563120Y-116186180D01*
X80563120Y-115312420D01*
X81436880Y-115312420D01*
X81436880Y-116186180D01*
X81436880Y-116186180D01*
G37*
G36*
X76436880Y-116186180D02*
X75563120Y-116186180D01*
X75563120Y-115312420D01*
X76436880Y-115312420D01*
X76436880Y-116186180D01*
X76436880Y-116186180D01*
G37*
G36*
X76436880Y-114687580D02*
X75563120Y-114687580D01*
X75563120Y-113813820D01*
X76436880Y-113813820D01*
X76436880Y-114687580D01*
X76436880Y-114687580D01*
G37*
G36*
X151436880Y-114687580D02*
X150563120Y-114687580D01*
X150563120Y-113813820D01*
X151436880Y-113813820D01*
X151436880Y-114687580D01*
X151436880Y-114687580D01*
G37*
G36*
X136436880Y-114687580D02*
X135563120Y-114687580D01*
X135563120Y-113813820D01*
X136436880Y-113813820D01*
X136436880Y-114687580D01*
X136436880Y-114687580D01*
G37*
G36*
X131436880Y-114687580D02*
X130563120Y-114687580D01*
X130563120Y-113813820D01*
X131436880Y-113813820D01*
X131436880Y-114687580D01*
X131436880Y-114687580D01*
G37*
G36*
X126436880Y-114687580D02*
X125563120Y-114687580D01*
X125563120Y-113813820D01*
X126436880Y-113813820D01*
X126436880Y-114687580D01*
X126436880Y-114687580D01*
G37*
G36*
X121436880Y-114687580D02*
X120563120Y-114687580D01*
X120563120Y-113813820D01*
X121436880Y-113813820D01*
X121436880Y-114687580D01*
X121436880Y-114687580D01*
G37*
G36*
X116436880Y-114687580D02*
X115563120Y-114687580D01*
X115563120Y-113813820D01*
X116436880Y-113813820D01*
X116436880Y-114687580D01*
X116436880Y-114687580D01*
G37*
G36*
X111436880Y-114687580D02*
X110563120Y-114687580D01*
X110563120Y-113813820D01*
X111436880Y-113813820D01*
X111436880Y-114687580D01*
X111436880Y-114687580D01*
G37*
G36*
X106436880Y-114687580D02*
X105563120Y-114687580D01*
X105563120Y-113813820D01*
X106436880Y-113813820D01*
X106436880Y-114687580D01*
X106436880Y-114687580D01*
G37*
G36*
X96436880Y-114687580D02*
X95563120Y-114687580D01*
X95563120Y-113813820D01*
X96436880Y-113813820D01*
X96436880Y-114687580D01*
X96436880Y-114687580D01*
G37*
G36*
X146436880Y-114687580D02*
X145563120Y-114687580D01*
X145563120Y-113813820D01*
X146436880Y-113813820D01*
X146436880Y-114687580D01*
X146436880Y-114687580D01*
G37*
G36*
X66436880Y-114687580D02*
X65563120Y-114687580D01*
X65563120Y-113813820D01*
X66436880Y-113813820D01*
X66436880Y-114687580D01*
X66436880Y-114687580D01*
G37*
G36*
X156436880Y-114687580D02*
X155563120Y-114687580D01*
X155563120Y-113813820D01*
X156436880Y-113813820D01*
X156436880Y-114687580D01*
X156436880Y-114687580D01*
G37*
G36*
X86436880Y-114687580D02*
X85563120Y-114687580D01*
X85563120Y-113813820D01*
X86436880Y-113813820D01*
X86436880Y-114687580D01*
X86436880Y-114687580D01*
G37*
G36*
X91436880Y-114687580D02*
X90563120Y-114687580D01*
X90563120Y-113813820D01*
X91436880Y-113813820D01*
X91436880Y-114687580D01*
X91436880Y-114687580D01*
G37*
G36*
X81436880Y-114687580D02*
X80563120Y-114687580D01*
X80563120Y-113813820D01*
X81436880Y-113813820D01*
X81436880Y-114687580D01*
X81436880Y-114687580D01*
G37*
G36*
X132438100Y-102138100D02*
X129561900Y-102138100D01*
X129561900Y-99861900D01*
X132438100Y-99861900D01*
X132438100Y-102138100D01*
X132438100Y-102138100D01*
G37*
G36*
X71438100Y-102138100D02*
X68561900Y-102138100D01*
X68561900Y-99861900D01*
X71438100Y-99861900D01*
X71438100Y-102138100D01*
X71438100Y-102138100D01*
G37*
G36*
X66638100Y-102138100D02*
X63761900Y-102138100D01*
X63761900Y-99861900D01*
X66638100Y-99861900D01*
X66638100Y-102138100D01*
X66638100Y-102138100D01*
G37*
G36*
X83438100Y-102138100D02*
X80561900Y-102138100D01*
X80561900Y-99861900D01*
X83438100Y-99861900D01*
X83438100Y-102138100D01*
X83438100Y-102138100D01*
G37*
G36*
X78638100Y-102138100D02*
X75761900Y-102138100D01*
X75761900Y-99861900D01*
X78638100Y-99861900D01*
X78638100Y-102138100D01*
X78638100Y-102138100D01*
G37*
G36*
X90638100Y-102138100D02*
X87761900Y-102138100D01*
X87761900Y-99861900D01*
X90638100Y-99861900D01*
X90638100Y-102138100D01*
X90638100Y-102138100D01*
G37*
G36*
X153638100Y-102138100D02*
X150761900Y-102138100D01*
X150761900Y-99861900D01*
X153638100Y-99861900D01*
X153638100Y-102138100D01*
X153638100Y-102138100D01*
G37*
G36*
X158438100Y-102138100D02*
X155561900Y-102138100D01*
X155561900Y-99861900D01*
X158438100Y-99861900D01*
X158438100Y-102138100D01*
X158438100Y-102138100D01*
G37*
G36*
X140638100Y-102138100D02*
X137761900Y-102138100D01*
X137761900Y-99861900D01*
X140638100Y-99861900D01*
X140638100Y-102138100D01*
X140638100Y-102138100D01*
G37*
G36*
X127638100Y-102138100D02*
X124761900Y-102138100D01*
X124761900Y-99861900D01*
X127638100Y-99861900D01*
X127638100Y-102138100D01*
X127638100Y-102138100D01*
G37*
G36*
X95438100Y-102138100D02*
X92561900Y-102138100D01*
X92561900Y-99861900D01*
X95438100Y-99861900D01*
X95438100Y-102138100D01*
X95438100Y-102138100D01*
G37*
G36*
X107438100Y-102138100D02*
X104561900Y-102138100D01*
X104561900Y-99861900D01*
X107438100Y-99861900D01*
X107438100Y-102138100D01*
X107438100Y-102138100D01*
G37*
G36*
X114638100Y-102138100D02*
X111761900Y-102138100D01*
X111761900Y-99861900D01*
X114638100Y-99861900D01*
X114638100Y-102138100D01*
X114638100Y-102138100D01*
G37*
G36*
X102638100Y-102138100D02*
X99761900Y-102138100D01*
X99761900Y-99861900D01*
X102638100Y-99861900D01*
X102638100Y-102138100D01*
X102638100Y-102138100D01*
G37*
G36*
X119438100Y-102138100D02*
X116561900Y-102138100D01*
X116561900Y-99861900D01*
X119438100Y-99861900D01*
X119438100Y-102138100D01*
X119438100Y-102138100D01*
G37*
G36*
X145438100Y-102138100D02*
X142561900Y-102138100D01*
X142561900Y-99861900D01*
X145438100Y-99861900D01*
X145438100Y-102138100D01*
X145438100Y-102138100D01*
G37*
G36*
X103287580Y-97436880D02*
X102413820Y-97436880D01*
X102413820Y-96563120D01*
X103287580Y-96563120D01*
X103287580Y-97436880D01*
X103287580Y-97436880D01*
G37*
G36*
X142786180Y-97436880D02*
X141912420Y-97436880D01*
X141912420Y-96563120D01*
X142786180Y-96563120D01*
X142786180Y-97436880D01*
X142786180Y-97436880D01*
G37*
G36*
X128287580Y-97436880D02*
X127413820Y-97436880D01*
X127413820Y-96563120D01*
X128287580Y-96563120D01*
X128287580Y-97436880D01*
X128287580Y-97436880D01*
G37*
G36*
X129786180Y-97436880D02*
X128912420Y-97436880D01*
X128912420Y-96563120D01*
X129786180Y-96563120D01*
X129786180Y-97436880D01*
X129786180Y-97436880D01*
G37*
G36*
X115287580Y-97436880D02*
X114413820Y-97436880D01*
X114413820Y-96563120D01*
X115287580Y-96563120D01*
X115287580Y-97436880D01*
X115287580Y-97436880D01*
G37*
G36*
X116786180Y-97436880D02*
X115912420Y-97436880D01*
X115912420Y-96563120D01*
X116786180Y-96563120D01*
X116786180Y-97436880D01*
X116786180Y-97436880D01*
G37*
G36*
X104786180Y-97436880D02*
X103912420Y-97436880D01*
X103912420Y-96563120D01*
X104786180Y-96563120D01*
X104786180Y-97436880D01*
X104786180Y-97436880D01*
G37*
G36*
X91287580Y-97436880D02*
X90413820Y-97436880D01*
X90413820Y-96563120D01*
X91287580Y-96563120D01*
X91287580Y-97436880D01*
X91287580Y-97436880D01*
G37*
G36*
X79287580Y-97436880D02*
X78413820Y-97436880D01*
X78413820Y-96563120D01*
X79287580Y-96563120D01*
X79287580Y-97436880D01*
X79287580Y-97436880D01*
G37*
G36*
X80786180Y-97436880D02*
X79912420Y-97436880D01*
X79912420Y-96563120D01*
X80786180Y-96563120D01*
X80786180Y-97436880D01*
X80786180Y-97436880D01*
G37*
G36*
X67287580Y-97436880D02*
X66413820Y-97436880D01*
X66413820Y-96563120D01*
X67287580Y-96563120D01*
X67287580Y-97436880D01*
X67287580Y-97436880D01*
G37*
G36*
X68786180Y-97436880D02*
X67912420Y-97436880D01*
X67912420Y-96563120D01*
X68786180Y-96563120D01*
X68786180Y-97436880D01*
X68786180Y-97436880D01*
G37*
G36*
X155786180Y-97436880D02*
X154912420Y-97436880D01*
X154912420Y-96563120D01*
X155786180Y-96563120D01*
X155786180Y-97436880D01*
X155786180Y-97436880D01*
G37*
G36*
X141287580Y-97436880D02*
X140413820Y-97436880D01*
X140413820Y-96563120D01*
X141287580Y-96563120D01*
X141287580Y-97436880D01*
X141287580Y-97436880D01*
G37*
G36*
X154287580Y-97436880D02*
X153413820Y-97436880D01*
X153413820Y-96563120D01*
X154287580Y-96563120D01*
X154287580Y-97436880D01*
X154287580Y-97436880D01*
G37*
G36*
X92786180Y-97436880D02*
X91912420Y-97436880D01*
X91912420Y-96563120D01*
X92786180Y-96563120D01*
X92786180Y-97436880D01*
X92786180Y-97436880D01*
G37*
G36*
X141683557Y-90473101D02*
X141683567Y-90473104D01*
X141683604Y-90473108D01*
X141853840Y-90525805D01*
X142010599Y-90610564D01*
X142147909Y-90724157D01*
X142260540Y-90862256D01*
X142344203Y-91019603D01*
X142395710Y-91190203D01*
X142413100Y-91367558D01*
X142413100Y-92632476D01*
X142413026Y-92643135D01*
X142413025Y-92643141D01*
X142413011Y-92645191D01*
X142393147Y-92822286D01*
X142339262Y-92992150D01*
X142253411Y-93148313D01*
X142138863Y-93284827D01*
X141999980Y-93396491D01*
X141842053Y-93479054D01*
X141671098Y-93529368D01*
X141671067Y-93529371D01*
X141671053Y-93529375D01*
X141493628Y-93545522D01*
X141316443Y-93526899D01*
X141316433Y-93526896D01*
X141316396Y-93526892D01*
X141146160Y-93474195D01*
X140989401Y-93389436D01*
X140852091Y-93275843D01*
X140739460Y-93137744D01*
X140655797Y-92980397D01*
X140604290Y-92809797D01*
X140586900Y-92632442D01*
X140586900Y-91367524D01*
X140586974Y-91356865D01*
X140586975Y-91356859D01*
X140586989Y-91354809D01*
X140606853Y-91177714D01*
X140660738Y-91007850D01*
X140746589Y-90851687D01*
X140861137Y-90715173D01*
X141000020Y-90603509D01*
X141157947Y-90520946D01*
X141328902Y-90470632D01*
X141328933Y-90470629D01*
X141328947Y-90470625D01*
X141506372Y-90454478D01*
X141683557Y-90473101D01*
X141683557Y-90473101D01*
G37*
G36*
X139183557Y-90473101D02*
X139183567Y-90473104D01*
X139183604Y-90473108D01*
X139353840Y-90525805D01*
X139510599Y-90610564D01*
X139647909Y-90724157D01*
X139760540Y-90862256D01*
X139844203Y-91019603D01*
X139895710Y-91190203D01*
X139913100Y-91367558D01*
X139913100Y-92632476D01*
X139913026Y-92643135D01*
X139913025Y-92643141D01*
X139913011Y-92645191D01*
X139893147Y-92822286D01*
X139839262Y-92992150D01*
X139753411Y-93148313D01*
X139638863Y-93284827D01*
X139499980Y-93396491D01*
X139342053Y-93479054D01*
X139171098Y-93529368D01*
X139171067Y-93529371D01*
X139171053Y-93529375D01*
X138993628Y-93545522D01*
X138816443Y-93526899D01*
X138816433Y-93526896D01*
X138816396Y-93526892D01*
X138646160Y-93474195D01*
X138489401Y-93389436D01*
X138352091Y-93275843D01*
X138239460Y-93137744D01*
X138155797Y-92980397D01*
X138104290Y-92809797D01*
X138086900Y-92632442D01*
X138086900Y-91367524D01*
X138086974Y-91356865D01*
X138086975Y-91356859D01*
X138086989Y-91354809D01*
X138106853Y-91177714D01*
X138160738Y-91007850D01*
X138246589Y-90851687D01*
X138361137Y-90715173D01*
X138500020Y-90603509D01*
X138657947Y-90520946D01*
X138828902Y-90470632D01*
X138828933Y-90470629D01*
X138828947Y-90470625D01*
X139006372Y-90454478D01*
X139183557Y-90473101D01*
X139183557Y-90473101D01*
G37*
G36*
X131183557Y-90473101D02*
X131183567Y-90473104D01*
X131183604Y-90473108D01*
X131353840Y-90525805D01*
X131510599Y-90610564D01*
X131647909Y-90724157D01*
X131760540Y-90862256D01*
X131844203Y-91019603D01*
X131895710Y-91190203D01*
X131913100Y-91367558D01*
X131913100Y-92632476D01*
X131913026Y-92643135D01*
X131913025Y-92643141D01*
X131913011Y-92645191D01*
X131893147Y-92822286D01*
X131839262Y-92992150D01*
X131753411Y-93148313D01*
X131638863Y-93284827D01*
X131499980Y-93396491D01*
X131342053Y-93479054D01*
X131171098Y-93529368D01*
X131171067Y-93529371D01*
X131171053Y-93529375D01*
X130993628Y-93545522D01*
X130816443Y-93526899D01*
X130816433Y-93526896D01*
X130816396Y-93526892D01*
X130646160Y-93474195D01*
X130489401Y-93389436D01*
X130352091Y-93275843D01*
X130239460Y-93137744D01*
X130155797Y-92980397D01*
X130104290Y-92809797D01*
X130086900Y-92632442D01*
X130086900Y-91367524D01*
X130086974Y-91356865D01*
X130086975Y-91356859D01*
X130086989Y-91354809D01*
X130106853Y-91177714D01*
X130160738Y-91007850D01*
X130246589Y-90851687D01*
X130361137Y-90715173D01*
X130500020Y-90603509D01*
X130657947Y-90520946D01*
X130828902Y-90470632D01*
X130828933Y-90470629D01*
X130828947Y-90470625D01*
X131006372Y-90454478D01*
X131183557Y-90473101D01*
X131183557Y-90473101D01*
G37*
G36*
X128683557Y-90473101D02*
X128683567Y-90473104D01*
X128683604Y-90473108D01*
X128853840Y-90525805D01*
X129010599Y-90610564D01*
X129147909Y-90724157D01*
X129260540Y-90862256D01*
X129344203Y-91019603D01*
X129395710Y-91190203D01*
X129413100Y-91367558D01*
X129413100Y-92632476D01*
X129413026Y-92643135D01*
X129413025Y-92643141D01*
X129413011Y-92645191D01*
X129393147Y-92822286D01*
X129339262Y-92992150D01*
X129253411Y-93148313D01*
X129138863Y-93284827D01*
X128999980Y-93396491D01*
X128842053Y-93479054D01*
X128671098Y-93529368D01*
X128671067Y-93529371D01*
X128671053Y-93529375D01*
X128493628Y-93545522D01*
X128316443Y-93526899D01*
X128316433Y-93526896D01*
X128316396Y-93526892D01*
X128146160Y-93474195D01*
X127989401Y-93389436D01*
X127852091Y-93275843D01*
X127739460Y-93137744D01*
X127655797Y-92980397D01*
X127604290Y-92809797D01*
X127586900Y-92632442D01*
X127586900Y-91367524D01*
X127586974Y-91356865D01*
X127586975Y-91356859D01*
X127586989Y-91354809D01*
X127606853Y-91177714D01*
X127660738Y-91007850D01*
X127746589Y-90851687D01*
X127861137Y-90715173D01*
X128000020Y-90603509D01*
X128157947Y-90520946D01*
X128328902Y-90470632D01*
X128328933Y-90470629D01*
X128328947Y-90470625D01*
X128506372Y-90454478D01*
X128683557Y-90473101D01*
X128683557Y-90473101D01*
G37*
G36*
X126183557Y-90473101D02*
X126183567Y-90473104D01*
X126183604Y-90473108D01*
X126353840Y-90525805D01*
X126510599Y-90610564D01*
X126647909Y-90724157D01*
X126760540Y-90862256D01*
X126844203Y-91019603D01*
X126895710Y-91190203D01*
X126913100Y-91367558D01*
X126913100Y-92632476D01*
X126913026Y-92643135D01*
X126913025Y-92643141D01*
X126913011Y-92645191D01*
X126893147Y-92822286D01*
X126839262Y-92992150D01*
X126753411Y-93148313D01*
X126638863Y-93284827D01*
X126499980Y-93396491D01*
X126342053Y-93479054D01*
X126171098Y-93529368D01*
X126171067Y-93529371D01*
X126171053Y-93529375D01*
X125993628Y-93545522D01*
X125816443Y-93526899D01*
X125816433Y-93526896D01*
X125816396Y-93526892D01*
X125646160Y-93474195D01*
X125489401Y-93389436D01*
X125352091Y-93275843D01*
X125239460Y-93137744D01*
X125155797Y-92980397D01*
X125104290Y-92809797D01*
X125086900Y-92632442D01*
X125086900Y-91367524D01*
X125086974Y-91356865D01*
X125086975Y-91356859D01*
X125086989Y-91354809D01*
X125106853Y-91177714D01*
X125160738Y-91007850D01*
X125246589Y-90851687D01*
X125361137Y-90715173D01*
X125500020Y-90603509D01*
X125657947Y-90520946D01*
X125828902Y-90470632D01*
X125828933Y-90470629D01*
X125828947Y-90470625D01*
X126006372Y-90454478D01*
X126183557Y-90473101D01*
X126183557Y-90473101D01*
G37*
G36*
X118183557Y-90473101D02*
X118183567Y-90473104D01*
X118183604Y-90473108D01*
X118353840Y-90525805D01*
X118510599Y-90610564D01*
X118647909Y-90724157D01*
X118760540Y-90862256D01*
X118844203Y-91019603D01*
X118895710Y-91190203D01*
X118913100Y-91367558D01*
X118913100Y-92632476D01*
X118913026Y-92643135D01*
X118913025Y-92643141D01*
X118913011Y-92645191D01*
X118893147Y-92822286D01*
X118839262Y-92992150D01*
X118753411Y-93148313D01*
X118638863Y-93284827D01*
X118499980Y-93396491D01*
X118342053Y-93479054D01*
X118171098Y-93529368D01*
X118171067Y-93529371D01*
X118171053Y-93529375D01*
X117993628Y-93545522D01*
X117816443Y-93526899D01*
X117816433Y-93526896D01*
X117816396Y-93526892D01*
X117646160Y-93474195D01*
X117489401Y-93389436D01*
X117352091Y-93275843D01*
X117239460Y-93137744D01*
X117155797Y-92980397D01*
X117104290Y-92809797D01*
X117086900Y-92632442D01*
X117086900Y-91367524D01*
X117086974Y-91356865D01*
X117086975Y-91356859D01*
X117086989Y-91354809D01*
X117106853Y-91177714D01*
X117160738Y-91007850D01*
X117246589Y-90851687D01*
X117361137Y-90715173D01*
X117500020Y-90603509D01*
X117657947Y-90520946D01*
X117828902Y-90470632D01*
X117828933Y-90470629D01*
X117828947Y-90470625D01*
X118006372Y-90454478D01*
X118183557Y-90473101D01*
X118183557Y-90473101D01*
G37*
G36*
X115683557Y-90473101D02*
X115683567Y-90473104D01*
X115683604Y-90473108D01*
X115853840Y-90525805D01*
X116010599Y-90610564D01*
X116147909Y-90724157D01*
X116260540Y-90862256D01*
X116344203Y-91019603D01*
X116395710Y-91190203D01*
X116413100Y-91367558D01*
X116413100Y-92632476D01*
X116413026Y-92643135D01*
X116413025Y-92643141D01*
X116413011Y-92645191D01*
X116393147Y-92822286D01*
X116339262Y-92992150D01*
X116253411Y-93148313D01*
X116138863Y-93284827D01*
X115999980Y-93396491D01*
X115842053Y-93479054D01*
X115671098Y-93529368D01*
X115671067Y-93529371D01*
X115671053Y-93529375D01*
X115493628Y-93545522D01*
X115316443Y-93526899D01*
X115316433Y-93526896D01*
X115316396Y-93526892D01*
X115146160Y-93474195D01*
X114989401Y-93389436D01*
X114852091Y-93275843D01*
X114739460Y-93137744D01*
X114655797Y-92980397D01*
X114604290Y-92809797D01*
X114586900Y-92632442D01*
X114586900Y-91367524D01*
X114586974Y-91356865D01*
X114586975Y-91356859D01*
X114586989Y-91354809D01*
X114606853Y-91177714D01*
X114660738Y-91007850D01*
X114746589Y-90851687D01*
X114861137Y-90715173D01*
X115000020Y-90603509D01*
X115157947Y-90520946D01*
X115328902Y-90470632D01*
X115328933Y-90470629D01*
X115328947Y-90470625D01*
X115506372Y-90454478D01*
X115683557Y-90473101D01*
X115683557Y-90473101D01*
G37*
G36*
X65183557Y-90473101D02*
X65183567Y-90473104D01*
X65183604Y-90473108D01*
X65353840Y-90525805D01*
X65510599Y-90610564D01*
X65647909Y-90724157D01*
X65760540Y-90862256D01*
X65844203Y-91019603D01*
X65895710Y-91190203D01*
X65913100Y-91367558D01*
X65913100Y-92632476D01*
X65913026Y-92643135D01*
X65913025Y-92643141D01*
X65913011Y-92645191D01*
X65893147Y-92822286D01*
X65839262Y-92992150D01*
X65753411Y-93148313D01*
X65638863Y-93284827D01*
X65499980Y-93396491D01*
X65342053Y-93479054D01*
X65171098Y-93529368D01*
X65171067Y-93529371D01*
X65171053Y-93529375D01*
X64993628Y-93545522D01*
X64816443Y-93526899D01*
X64816433Y-93526896D01*
X64816396Y-93526892D01*
X64646160Y-93474195D01*
X64489401Y-93389436D01*
X64352091Y-93275843D01*
X64239460Y-93137744D01*
X64155797Y-92980397D01*
X64104290Y-92809797D01*
X64086900Y-92632442D01*
X64086900Y-91367524D01*
X64086974Y-91356865D01*
X64086975Y-91356859D01*
X64086989Y-91354809D01*
X64106853Y-91177714D01*
X64160738Y-91007850D01*
X64246589Y-90851687D01*
X64361137Y-90715173D01*
X64500020Y-90603509D01*
X64657947Y-90520946D01*
X64828902Y-90470632D01*
X64828933Y-90470629D01*
X64828947Y-90470625D01*
X65006372Y-90454478D01*
X65183557Y-90473101D01*
X65183557Y-90473101D01*
G37*
G36*
X106183557Y-90473101D02*
X106183567Y-90473104D01*
X106183604Y-90473108D01*
X106353840Y-90525805D01*
X106510599Y-90610564D01*
X106647909Y-90724157D01*
X106760540Y-90862256D01*
X106844203Y-91019603D01*
X106895710Y-91190203D01*
X106913100Y-91367558D01*
X106913100Y-92632476D01*
X106913026Y-92643135D01*
X106913025Y-92643141D01*
X106913011Y-92645191D01*
X106893147Y-92822286D01*
X106839262Y-92992150D01*
X106753411Y-93148313D01*
X106638863Y-93284827D01*
X106499980Y-93396491D01*
X106342053Y-93479054D01*
X106171098Y-93529368D01*
X106171067Y-93529371D01*
X106171053Y-93529375D01*
X105993628Y-93545522D01*
X105816443Y-93526899D01*
X105816433Y-93526896D01*
X105816396Y-93526892D01*
X105646160Y-93474195D01*
X105489401Y-93389436D01*
X105352091Y-93275843D01*
X105239460Y-93137744D01*
X105155797Y-92980397D01*
X105104290Y-92809797D01*
X105086900Y-92632442D01*
X105086900Y-91367524D01*
X105086974Y-91356865D01*
X105086975Y-91356859D01*
X105086989Y-91354809D01*
X105106853Y-91177714D01*
X105160738Y-91007850D01*
X105246589Y-90851687D01*
X105361137Y-90715173D01*
X105500020Y-90603509D01*
X105657947Y-90520946D01*
X105828902Y-90470632D01*
X105828933Y-90470629D01*
X105828947Y-90470625D01*
X106006372Y-90454478D01*
X106183557Y-90473101D01*
X106183557Y-90473101D01*
G37*
G36*
X103683557Y-90473101D02*
X103683567Y-90473104D01*
X103683604Y-90473108D01*
X103853840Y-90525805D01*
X104010599Y-90610564D01*
X104147909Y-90724157D01*
X104260540Y-90862256D01*
X104344203Y-91019603D01*
X104395710Y-91190203D01*
X104413100Y-91367558D01*
X104413100Y-92632476D01*
X104413026Y-92643135D01*
X104413025Y-92643141D01*
X104413011Y-92645191D01*
X104393147Y-92822286D01*
X104339262Y-92992150D01*
X104253411Y-93148313D01*
X104138863Y-93284827D01*
X103999980Y-93396491D01*
X103842053Y-93479054D01*
X103671098Y-93529368D01*
X103671067Y-93529371D01*
X103671053Y-93529375D01*
X103493628Y-93545522D01*
X103316443Y-93526899D01*
X103316433Y-93526896D01*
X103316396Y-93526892D01*
X103146160Y-93474195D01*
X102989401Y-93389436D01*
X102852091Y-93275843D01*
X102739460Y-93137744D01*
X102655797Y-92980397D01*
X102604290Y-92809797D01*
X102586900Y-92632442D01*
X102586900Y-91367524D01*
X102586974Y-91356865D01*
X102586975Y-91356859D01*
X102586989Y-91354809D01*
X102606853Y-91177714D01*
X102660738Y-91007850D01*
X102746589Y-90851687D01*
X102861137Y-90715173D01*
X103000020Y-90603509D01*
X103157947Y-90520946D01*
X103328902Y-90470632D01*
X103328933Y-90470629D01*
X103328947Y-90470625D01*
X103506372Y-90454478D01*
X103683557Y-90473101D01*
X103683557Y-90473101D01*
G37*
G36*
X101183557Y-90473101D02*
X101183567Y-90473104D01*
X101183604Y-90473108D01*
X101353840Y-90525805D01*
X101510599Y-90610564D01*
X101647909Y-90724157D01*
X101760540Y-90862256D01*
X101844203Y-91019603D01*
X101895710Y-91190203D01*
X101913100Y-91367558D01*
X101913100Y-92632476D01*
X101913026Y-92643135D01*
X101913025Y-92643141D01*
X101913011Y-92645191D01*
X101893147Y-92822286D01*
X101839262Y-92992150D01*
X101753411Y-93148313D01*
X101638863Y-93284827D01*
X101499980Y-93396491D01*
X101342053Y-93479054D01*
X101171098Y-93529368D01*
X101171067Y-93529371D01*
X101171053Y-93529375D01*
X100993628Y-93545522D01*
X100816443Y-93526899D01*
X100816433Y-93526896D01*
X100816396Y-93526892D01*
X100646160Y-93474195D01*
X100489401Y-93389436D01*
X100352091Y-93275843D01*
X100239460Y-93137744D01*
X100155797Y-92980397D01*
X100104290Y-92809797D01*
X100086900Y-92632442D01*
X100086900Y-91367524D01*
X100086974Y-91356865D01*
X100086975Y-91356859D01*
X100086989Y-91354809D01*
X100106853Y-91177714D01*
X100160738Y-91007850D01*
X100246589Y-90851687D01*
X100361137Y-90715173D01*
X100500020Y-90603509D01*
X100657947Y-90520946D01*
X100828902Y-90470632D01*
X100828933Y-90470629D01*
X100828947Y-90470625D01*
X101006372Y-90454478D01*
X101183557Y-90473101D01*
X101183557Y-90473101D01*
G37*
G36*
X91683557Y-90473101D02*
X91683567Y-90473104D01*
X91683604Y-90473108D01*
X91853840Y-90525805D01*
X92010599Y-90610564D01*
X92147909Y-90724157D01*
X92260540Y-90862256D01*
X92344203Y-91019603D01*
X92395710Y-91190203D01*
X92413100Y-91367558D01*
X92413100Y-92632476D01*
X92413026Y-92643135D01*
X92413025Y-92643141D01*
X92413011Y-92645191D01*
X92393147Y-92822286D01*
X92339262Y-92992150D01*
X92253411Y-93148313D01*
X92138863Y-93284827D01*
X91999980Y-93396491D01*
X91842053Y-93479054D01*
X91671098Y-93529368D01*
X91671067Y-93529371D01*
X91671053Y-93529375D01*
X91493628Y-93545522D01*
X91316443Y-93526899D01*
X91316433Y-93526896D01*
X91316396Y-93526892D01*
X91146160Y-93474195D01*
X90989401Y-93389436D01*
X90852091Y-93275843D01*
X90739460Y-93137744D01*
X90655797Y-92980397D01*
X90604290Y-92809797D01*
X90586900Y-92632442D01*
X90586900Y-91367524D01*
X90586974Y-91356865D01*
X90586975Y-91356859D01*
X90586989Y-91354809D01*
X90606853Y-91177714D01*
X90660738Y-91007850D01*
X90746589Y-90851687D01*
X90861137Y-90715173D01*
X91000020Y-90603509D01*
X91157947Y-90520946D01*
X91328902Y-90470632D01*
X91328933Y-90470629D01*
X91328947Y-90470625D01*
X91506372Y-90454478D01*
X91683557Y-90473101D01*
X91683557Y-90473101D01*
G37*
G36*
X152183557Y-90473101D02*
X152183567Y-90473104D01*
X152183604Y-90473108D01*
X152353840Y-90525805D01*
X152510599Y-90610564D01*
X152647909Y-90724157D01*
X152760540Y-90862256D01*
X152844203Y-91019603D01*
X152895710Y-91190203D01*
X152913100Y-91367558D01*
X152913100Y-92632476D01*
X152913026Y-92643135D01*
X152913025Y-92643141D01*
X152913011Y-92645191D01*
X152893147Y-92822286D01*
X152839262Y-92992150D01*
X152753411Y-93148313D01*
X152638863Y-93284827D01*
X152499980Y-93396491D01*
X152342053Y-93479054D01*
X152171098Y-93529368D01*
X152171067Y-93529371D01*
X152171053Y-93529375D01*
X151993628Y-93545522D01*
X151816443Y-93526899D01*
X151816433Y-93526896D01*
X151816396Y-93526892D01*
X151646160Y-93474195D01*
X151489401Y-93389436D01*
X151352091Y-93275843D01*
X151239460Y-93137744D01*
X151155797Y-92980397D01*
X151104290Y-92809797D01*
X151086900Y-92632442D01*
X151086900Y-91367524D01*
X151086974Y-91356865D01*
X151086975Y-91356859D01*
X151086989Y-91354809D01*
X151106853Y-91177714D01*
X151160738Y-91007850D01*
X151246589Y-90851687D01*
X151361137Y-90715173D01*
X151500020Y-90603509D01*
X151657947Y-90520946D01*
X151828902Y-90470632D01*
X151828933Y-90470629D01*
X151828947Y-90470625D01*
X152006372Y-90454478D01*
X152183557Y-90473101D01*
X152183557Y-90473101D01*
G37*
G36*
X144183557Y-90473101D02*
X144183567Y-90473104D01*
X144183604Y-90473108D01*
X144353840Y-90525805D01*
X144510599Y-90610564D01*
X144647909Y-90724157D01*
X144760540Y-90862256D01*
X144844203Y-91019603D01*
X144895710Y-91190203D01*
X144913100Y-91367558D01*
X144913100Y-92632476D01*
X144913026Y-92643135D01*
X144913025Y-92643141D01*
X144913011Y-92645191D01*
X144893147Y-92822286D01*
X144839262Y-92992150D01*
X144753411Y-93148313D01*
X144638863Y-93284827D01*
X144499980Y-93396491D01*
X144342053Y-93479054D01*
X144171098Y-93529368D01*
X144171067Y-93529371D01*
X144171053Y-93529375D01*
X143993628Y-93545522D01*
X143816443Y-93526899D01*
X143816433Y-93526896D01*
X143816396Y-93526892D01*
X143646160Y-93474195D01*
X143489401Y-93389436D01*
X143352091Y-93275843D01*
X143239460Y-93137744D01*
X143155797Y-92980397D01*
X143104290Y-92809797D01*
X143086900Y-92632442D01*
X143086900Y-91367524D01*
X143086974Y-91356865D01*
X143086975Y-91356859D01*
X143086989Y-91354809D01*
X143106853Y-91177714D01*
X143160738Y-91007850D01*
X143246589Y-90851687D01*
X143361137Y-90715173D01*
X143500020Y-90603509D01*
X143657947Y-90520946D01*
X143828902Y-90470632D01*
X143828933Y-90470629D01*
X143828947Y-90470625D01*
X144006372Y-90454478D01*
X144183557Y-90473101D01*
X144183557Y-90473101D01*
G37*
G36*
X79683557Y-90473101D02*
X79683567Y-90473104D01*
X79683604Y-90473108D01*
X79853840Y-90525805D01*
X80010599Y-90610564D01*
X80147909Y-90724157D01*
X80260540Y-90862256D01*
X80344203Y-91019603D01*
X80395710Y-91190203D01*
X80413100Y-91367558D01*
X80413100Y-92632476D01*
X80413026Y-92643135D01*
X80413025Y-92643141D01*
X80413011Y-92645191D01*
X80393147Y-92822286D01*
X80339262Y-92992150D01*
X80253411Y-93148313D01*
X80138863Y-93284827D01*
X79999980Y-93396491D01*
X79842053Y-93479054D01*
X79671098Y-93529368D01*
X79671067Y-93529371D01*
X79671053Y-93529375D01*
X79493628Y-93545522D01*
X79316443Y-93526899D01*
X79316433Y-93526896D01*
X79316396Y-93526892D01*
X79146160Y-93474195D01*
X78989401Y-93389436D01*
X78852091Y-93275843D01*
X78739460Y-93137744D01*
X78655797Y-92980397D01*
X78604290Y-92809797D01*
X78586900Y-92632442D01*
X78586900Y-91367524D01*
X78586974Y-91356865D01*
X78586975Y-91356859D01*
X78586989Y-91354809D01*
X78606853Y-91177714D01*
X78660738Y-91007850D01*
X78746589Y-90851687D01*
X78861137Y-90715173D01*
X79000020Y-90603509D01*
X79157947Y-90520946D01*
X79328902Y-90470632D01*
X79328933Y-90470629D01*
X79328947Y-90470625D01*
X79506372Y-90454478D01*
X79683557Y-90473101D01*
X79683557Y-90473101D01*
G37*
G36*
X67683557Y-90473101D02*
X67683567Y-90473104D01*
X67683604Y-90473108D01*
X67853840Y-90525805D01*
X68010599Y-90610564D01*
X68147909Y-90724157D01*
X68260540Y-90862256D01*
X68344203Y-91019603D01*
X68395710Y-91190203D01*
X68413100Y-91367558D01*
X68413100Y-92632476D01*
X68413026Y-92643135D01*
X68413025Y-92643141D01*
X68413011Y-92645191D01*
X68393147Y-92822286D01*
X68339262Y-92992150D01*
X68253411Y-93148313D01*
X68138863Y-93284827D01*
X67999980Y-93396491D01*
X67842053Y-93479054D01*
X67671098Y-93529368D01*
X67671067Y-93529371D01*
X67671053Y-93529375D01*
X67493628Y-93545522D01*
X67316443Y-93526899D01*
X67316433Y-93526896D01*
X67316396Y-93526892D01*
X67146160Y-93474195D01*
X66989401Y-93389436D01*
X66852091Y-93275843D01*
X66739460Y-93137744D01*
X66655797Y-92980397D01*
X66604290Y-92809797D01*
X66586900Y-92632442D01*
X66586900Y-91367524D01*
X66586974Y-91356865D01*
X66586975Y-91356859D01*
X66586989Y-91354809D01*
X66606853Y-91177714D01*
X66660738Y-91007850D01*
X66746589Y-90851687D01*
X66861137Y-90715173D01*
X67000020Y-90603509D01*
X67157947Y-90520946D01*
X67328902Y-90470632D01*
X67328933Y-90470629D01*
X67328947Y-90470625D01*
X67506372Y-90454478D01*
X67683557Y-90473101D01*
X67683557Y-90473101D01*
G37*
G36*
X70183557Y-90473101D02*
X70183567Y-90473104D01*
X70183604Y-90473108D01*
X70353840Y-90525805D01*
X70510599Y-90610564D01*
X70647909Y-90724157D01*
X70760540Y-90862256D01*
X70844203Y-91019603D01*
X70895710Y-91190203D01*
X70913100Y-91367558D01*
X70913100Y-92632476D01*
X70913026Y-92643135D01*
X70913025Y-92643141D01*
X70913011Y-92645191D01*
X70893147Y-92822286D01*
X70839262Y-92992150D01*
X70753411Y-93148313D01*
X70638863Y-93284827D01*
X70499980Y-93396491D01*
X70342053Y-93479054D01*
X70171098Y-93529368D01*
X70171067Y-93529371D01*
X70171053Y-93529375D01*
X69993628Y-93545522D01*
X69816443Y-93526899D01*
X69816433Y-93526896D01*
X69816396Y-93526892D01*
X69646160Y-93474195D01*
X69489401Y-93389436D01*
X69352091Y-93275843D01*
X69239460Y-93137744D01*
X69155797Y-92980397D01*
X69104290Y-92809797D01*
X69086900Y-92632442D01*
X69086900Y-91367524D01*
X69086974Y-91356865D01*
X69086975Y-91356859D01*
X69086989Y-91354809D01*
X69106853Y-91177714D01*
X69160738Y-91007850D01*
X69246589Y-90851687D01*
X69361137Y-90715173D01*
X69500020Y-90603509D01*
X69657947Y-90520946D01*
X69828902Y-90470632D01*
X69828933Y-90470629D01*
X69828947Y-90470625D01*
X70006372Y-90454478D01*
X70183557Y-90473101D01*
X70183557Y-90473101D01*
G37*
G36*
X77183557Y-90473101D02*
X77183567Y-90473104D01*
X77183604Y-90473108D01*
X77353840Y-90525805D01*
X77510599Y-90610564D01*
X77647909Y-90724157D01*
X77760540Y-90862256D01*
X77844203Y-91019603D01*
X77895710Y-91190203D01*
X77913100Y-91367558D01*
X77913100Y-92632476D01*
X77913026Y-92643135D01*
X77913025Y-92643141D01*
X77913011Y-92645191D01*
X77893147Y-92822286D01*
X77839262Y-92992150D01*
X77753411Y-93148313D01*
X77638863Y-93284827D01*
X77499980Y-93396491D01*
X77342053Y-93479054D01*
X77171098Y-93529368D01*
X77171067Y-93529371D01*
X77171053Y-93529375D01*
X76993628Y-93545522D01*
X76816443Y-93526899D01*
X76816433Y-93526896D01*
X76816396Y-93526892D01*
X76646160Y-93474195D01*
X76489401Y-93389436D01*
X76352091Y-93275843D01*
X76239460Y-93137744D01*
X76155797Y-92980397D01*
X76104290Y-92809797D01*
X76086900Y-92632442D01*
X76086900Y-91367524D01*
X76086974Y-91356865D01*
X76086975Y-91356859D01*
X76086989Y-91354809D01*
X76106853Y-91177714D01*
X76160738Y-91007850D01*
X76246589Y-90851687D01*
X76361137Y-90715173D01*
X76500020Y-90603509D01*
X76657947Y-90520946D01*
X76828902Y-90470632D01*
X76828933Y-90470629D01*
X76828947Y-90470625D01*
X77006372Y-90454478D01*
X77183557Y-90473101D01*
X77183557Y-90473101D01*
G37*
G36*
X82183557Y-90473101D02*
X82183567Y-90473104D01*
X82183604Y-90473108D01*
X82353840Y-90525805D01*
X82510599Y-90610564D01*
X82647909Y-90724157D01*
X82760540Y-90862256D01*
X82844203Y-91019603D01*
X82895710Y-91190203D01*
X82913100Y-91367558D01*
X82913100Y-92632476D01*
X82913026Y-92643135D01*
X82913025Y-92643141D01*
X82913011Y-92645191D01*
X82893147Y-92822286D01*
X82839262Y-92992150D01*
X82753411Y-93148313D01*
X82638863Y-93284827D01*
X82499980Y-93396491D01*
X82342053Y-93479054D01*
X82171098Y-93529368D01*
X82171067Y-93529371D01*
X82171053Y-93529375D01*
X81993628Y-93545522D01*
X81816443Y-93526899D01*
X81816433Y-93526896D01*
X81816396Y-93526892D01*
X81646160Y-93474195D01*
X81489401Y-93389436D01*
X81352091Y-93275843D01*
X81239460Y-93137744D01*
X81155797Y-92980397D01*
X81104290Y-92809797D01*
X81086900Y-92632442D01*
X81086900Y-91367524D01*
X81086974Y-91356865D01*
X81086975Y-91356859D01*
X81086989Y-91354809D01*
X81106853Y-91177714D01*
X81160738Y-91007850D01*
X81246589Y-90851687D01*
X81361137Y-90715173D01*
X81500020Y-90603509D01*
X81657947Y-90520946D01*
X81828902Y-90470632D01*
X81828933Y-90470629D01*
X81828947Y-90470625D01*
X82006372Y-90454478D01*
X82183557Y-90473101D01*
X82183557Y-90473101D01*
G37*
G36*
X94183557Y-90473101D02*
X94183567Y-90473104D01*
X94183604Y-90473108D01*
X94353840Y-90525805D01*
X94510599Y-90610564D01*
X94647909Y-90724157D01*
X94760540Y-90862256D01*
X94844203Y-91019603D01*
X94895710Y-91190203D01*
X94913100Y-91367558D01*
X94913100Y-92632476D01*
X94913026Y-92643135D01*
X94913025Y-92643141D01*
X94913011Y-92645191D01*
X94893147Y-92822286D01*
X94839262Y-92992150D01*
X94753411Y-93148313D01*
X94638863Y-93284827D01*
X94499980Y-93396491D01*
X94342053Y-93479054D01*
X94171098Y-93529368D01*
X94171067Y-93529371D01*
X94171053Y-93529375D01*
X93993628Y-93545522D01*
X93816443Y-93526899D01*
X93816433Y-93526896D01*
X93816396Y-93526892D01*
X93646160Y-93474195D01*
X93489401Y-93389436D01*
X93352091Y-93275843D01*
X93239460Y-93137744D01*
X93155797Y-92980397D01*
X93104290Y-92809797D01*
X93086900Y-92632442D01*
X93086900Y-91367524D01*
X93086974Y-91356865D01*
X93086975Y-91356859D01*
X93086989Y-91354809D01*
X93106853Y-91177714D01*
X93160738Y-91007850D01*
X93246589Y-90851687D01*
X93361137Y-90715173D01*
X93500020Y-90603509D01*
X93657947Y-90520946D01*
X93828902Y-90470632D01*
X93828933Y-90470629D01*
X93828947Y-90470625D01*
X94006372Y-90454478D01*
X94183557Y-90473101D01*
X94183557Y-90473101D01*
G37*
G36*
X113183557Y-90473101D02*
X113183567Y-90473104D01*
X113183604Y-90473108D01*
X113353840Y-90525805D01*
X113510599Y-90610564D01*
X113647909Y-90724157D01*
X113760540Y-90862256D01*
X113844203Y-91019603D01*
X113895710Y-91190203D01*
X113913100Y-91367558D01*
X113913100Y-92632476D01*
X113913026Y-92643135D01*
X113913025Y-92643141D01*
X113913011Y-92645191D01*
X113893147Y-92822286D01*
X113839262Y-92992150D01*
X113753411Y-93148313D01*
X113638863Y-93284827D01*
X113499980Y-93396491D01*
X113342053Y-93479054D01*
X113171098Y-93529368D01*
X113171067Y-93529371D01*
X113171053Y-93529375D01*
X112993628Y-93545522D01*
X112816443Y-93526899D01*
X112816433Y-93526896D01*
X112816396Y-93526892D01*
X112646160Y-93474195D01*
X112489401Y-93389436D01*
X112352091Y-93275843D01*
X112239460Y-93137744D01*
X112155797Y-92980397D01*
X112104290Y-92809797D01*
X112086900Y-92632442D01*
X112086900Y-91367524D01*
X112086974Y-91356865D01*
X112086975Y-91356859D01*
X112086989Y-91354809D01*
X112106853Y-91177714D01*
X112160738Y-91007850D01*
X112246589Y-90851687D01*
X112361137Y-90715173D01*
X112500020Y-90603509D01*
X112657947Y-90520946D01*
X112828902Y-90470632D01*
X112828933Y-90470629D01*
X112828947Y-90470625D01*
X113006372Y-90454478D01*
X113183557Y-90473101D01*
X113183557Y-90473101D01*
G37*
G36*
X157183557Y-90473101D02*
X157183567Y-90473104D01*
X157183604Y-90473108D01*
X157353840Y-90525805D01*
X157510599Y-90610564D01*
X157647909Y-90724157D01*
X157760540Y-90862256D01*
X157844203Y-91019603D01*
X157895710Y-91190203D01*
X157913100Y-91367558D01*
X157913100Y-92632476D01*
X157913026Y-92643135D01*
X157913025Y-92643141D01*
X157913011Y-92645191D01*
X157893147Y-92822286D01*
X157839262Y-92992150D01*
X157753411Y-93148313D01*
X157638863Y-93284827D01*
X157499980Y-93396491D01*
X157342053Y-93479054D01*
X157171098Y-93529368D01*
X157171067Y-93529371D01*
X157171053Y-93529375D01*
X156993628Y-93545522D01*
X156816443Y-93526899D01*
X156816433Y-93526896D01*
X156816396Y-93526892D01*
X156646160Y-93474195D01*
X156489401Y-93389436D01*
X156352091Y-93275843D01*
X156239460Y-93137744D01*
X156155797Y-92980397D01*
X156104290Y-92809797D01*
X156086900Y-92632442D01*
X156086900Y-91367524D01*
X156086974Y-91356865D01*
X156086975Y-91356859D01*
X156086989Y-91354809D01*
X156106853Y-91177714D01*
X156160738Y-91007850D01*
X156246589Y-90851687D01*
X156361137Y-90715173D01*
X156500020Y-90603509D01*
X156657947Y-90520946D01*
X156828902Y-90470632D01*
X156828933Y-90470629D01*
X156828947Y-90470625D01*
X157006372Y-90454478D01*
X157183557Y-90473101D01*
X157183557Y-90473101D01*
G37*
G36*
X154683557Y-90473101D02*
X154683567Y-90473104D01*
X154683604Y-90473108D01*
X154853840Y-90525805D01*
X155010599Y-90610564D01*
X155147909Y-90724157D01*
X155260540Y-90862256D01*
X155344203Y-91019603D01*
X155395710Y-91190203D01*
X155413100Y-91367558D01*
X155413100Y-92632476D01*
X155413026Y-92643135D01*
X155413025Y-92643141D01*
X155413011Y-92645191D01*
X155393147Y-92822286D01*
X155339262Y-92992150D01*
X155253411Y-93148313D01*
X155138863Y-93284827D01*
X154999980Y-93396491D01*
X154842053Y-93479054D01*
X154671098Y-93529368D01*
X154671067Y-93529371D01*
X154671053Y-93529375D01*
X154493628Y-93545522D01*
X154316443Y-93526899D01*
X154316433Y-93526896D01*
X154316396Y-93526892D01*
X154146160Y-93474195D01*
X153989401Y-93389436D01*
X153852091Y-93275843D01*
X153739460Y-93137744D01*
X153655797Y-92980397D01*
X153604290Y-92809797D01*
X153586900Y-92632442D01*
X153586900Y-91367524D01*
X153586974Y-91356865D01*
X153586975Y-91356859D01*
X153586989Y-91354809D01*
X153606853Y-91177714D01*
X153660738Y-91007850D01*
X153746589Y-90851687D01*
X153861137Y-90715173D01*
X154000020Y-90603509D01*
X154157947Y-90520946D01*
X154328902Y-90470632D01*
X154328933Y-90470629D01*
X154328947Y-90470625D01*
X154506372Y-90454478D01*
X154683557Y-90473101D01*
X154683557Y-90473101D01*
G37*
G36*
X89183557Y-90473101D02*
X89183567Y-90473104D01*
X89183604Y-90473108D01*
X89353840Y-90525805D01*
X89510599Y-90610564D01*
X89647909Y-90724157D01*
X89760540Y-90862256D01*
X89844203Y-91019603D01*
X89895710Y-91190203D01*
X89913100Y-91367558D01*
X89913100Y-92632476D01*
X89913026Y-92643135D01*
X89913025Y-92643141D01*
X89913011Y-92645191D01*
X89893147Y-92822286D01*
X89839262Y-92992150D01*
X89753411Y-93148313D01*
X89638863Y-93284827D01*
X89499980Y-93396491D01*
X89342053Y-93479054D01*
X89171098Y-93529368D01*
X89171067Y-93529371D01*
X89171053Y-93529375D01*
X88993628Y-93545522D01*
X88816443Y-93526899D01*
X88816433Y-93526896D01*
X88816396Y-93526892D01*
X88646160Y-93474195D01*
X88489401Y-93389436D01*
X88352091Y-93275843D01*
X88239460Y-93137744D01*
X88155797Y-92980397D01*
X88104290Y-92809797D01*
X88086900Y-92632442D01*
X88086900Y-91367524D01*
X88086974Y-91356865D01*
X88086975Y-91356859D01*
X88086989Y-91354809D01*
X88106853Y-91177714D01*
X88160738Y-91007850D01*
X88246589Y-90851687D01*
X88361137Y-90715173D01*
X88500020Y-90603509D01*
X88657947Y-90520946D01*
X88828902Y-90470632D01*
X88828933Y-90470629D01*
X88828947Y-90470625D01*
X89006372Y-90454478D01*
X89183557Y-90473101D01*
X89183557Y-90473101D01*
G37*
G36*
X62769015Y-82979363D02*
X62769020Y-82979365D01*
X62769062Y-82979369D01*
X63018535Y-83056594D01*
X63248256Y-83180804D01*
X63449477Y-83347268D01*
X63614532Y-83549646D01*
X63737135Y-83780229D01*
X63812616Y-84030234D01*
X63838100Y-84290139D01*
X63838100Y-85709861D01*
X63837970Y-85728544D01*
X63808859Y-85988068D01*
X63729895Y-86236995D01*
X63604084Y-86465843D01*
X63436220Y-86665897D01*
X63232694Y-86829535D01*
X63001261Y-86950526D01*
X62750735Y-87024260D01*
X62750699Y-87024263D01*
X62750690Y-87024266D01*
X62490662Y-87047930D01*
X62230985Y-87020637D01*
X62230980Y-87020635D01*
X62230938Y-87020631D01*
X61981465Y-86943406D01*
X61751744Y-86819196D01*
X61550523Y-86652732D01*
X61385468Y-86450354D01*
X61262865Y-86219771D01*
X61187384Y-85969766D01*
X61161900Y-85709861D01*
X61161900Y-84290139D01*
X61162030Y-84271456D01*
X61191141Y-84011932D01*
X61270105Y-83763005D01*
X61395916Y-83534157D01*
X61563780Y-83334103D01*
X61767306Y-83170465D01*
X61998739Y-83049474D01*
X62249265Y-82975740D01*
X62249301Y-82975737D01*
X62249310Y-82975734D01*
X62509338Y-82952070D01*
X62769015Y-82979363D01*
X62769015Y-82979363D01*
G37*
G36*
X136769015Y-82979363D02*
X136769020Y-82979365D01*
X136769062Y-82979369D01*
X137018535Y-83056594D01*
X137248256Y-83180804D01*
X137449477Y-83347268D01*
X137614532Y-83549646D01*
X137737135Y-83780229D01*
X137812616Y-84030234D01*
X137838100Y-84290139D01*
X137838100Y-85709861D01*
X137837970Y-85728544D01*
X137808859Y-85988068D01*
X137729895Y-86236995D01*
X137604084Y-86465843D01*
X137436220Y-86665897D01*
X137232694Y-86829535D01*
X137001261Y-86950526D01*
X136750735Y-87024260D01*
X136750699Y-87024263D01*
X136750690Y-87024266D01*
X136490662Y-87047930D01*
X136230985Y-87020637D01*
X136230980Y-87020635D01*
X136230938Y-87020631D01*
X135981465Y-86943406D01*
X135751744Y-86819196D01*
X135550523Y-86652732D01*
X135385468Y-86450354D01*
X135262865Y-86219771D01*
X135187384Y-85969766D01*
X135161900Y-85709861D01*
X135161900Y-84290139D01*
X135162030Y-84271456D01*
X135191141Y-84011932D01*
X135270105Y-83763005D01*
X135395916Y-83534157D01*
X135563780Y-83334103D01*
X135767306Y-83170465D01*
X135998739Y-83049474D01*
X136249265Y-82975740D01*
X136249301Y-82975737D01*
X136249310Y-82975734D01*
X136509338Y-82952070D01*
X136769015Y-82979363D01*
X136769015Y-82979363D01*
G37*
G36*
X159769015Y-82979363D02*
X159769020Y-82979365D01*
X159769062Y-82979369D01*
X160018535Y-83056594D01*
X160248256Y-83180804D01*
X160449477Y-83347268D01*
X160614532Y-83549646D01*
X160737135Y-83780229D01*
X160812616Y-84030234D01*
X160838100Y-84290139D01*
X160838100Y-85709861D01*
X160837970Y-85728544D01*
X160808859Y-85988068D01*
X160729895Y-86236995D01*
X160604084Y-86465843D01*
X160436220Y-86665897D01*
X160232694Y-86829535D01*
X160001261Y-86950526D01*
X159750735Y-87024260D01*
X159750699Y-87024263D01*
X159750690Y-87024266D01*
X159490662Y-87047930D01*
X159230985Y-87020637D01*
X159230980Y-87020635D01*
X159230938Y-87020631D01*
X158981465Y-86943406D01*
X158751744Y-86819196D01*
X158550523Y-86652732D01*
X158385468Y-86450354D01*
X158262865Y-86219771D01*
X158187384Y-85969766D01*
X158161900Y-85709861D01*
X158161900Y-84290139D01*
X158162030Y-84271456D01*
X158191141Y-84011932D01*
X158270105Y-83763005D01*
X158395916Y-83534157D01*
X158563780Y-83334103D01*
X158767306Y-83170465D01*
X158998739Y-83049474D01*
X159249265Y-82975740D01*
X159249301Y-82975737D01*
X159249310Y-82975734D01*
X159509338Y-82952070D01*
X159769015Y-82979363D01*
X159769015Y-82979363D01*
G37*
G36*
X149769015Y-82979363D02*
X149769020Y-82979365D01*
X149769062Y-82979369D01*
X150018535Y-83056594D01*
X150248256Y-83180804D01*
X150449477Y-83347268D01*
X150614532Y-83549646D01*
X150737135Y-83780229D01*
X150812616Y-84030234D01*
X150838100Y-84290139D01*
X150838100Y-85709861D01*
X150837970Y-85728544D01*
X150808859Y-85988068D01*
X150729895Y-86236995D01*
X150604084Y-86465843D01*
X150436220Y-86665897D01*
X150232694Y-86829535D01*
X150001261Y-86950526D01*
X149750735Y-87024260D01*
X149750699Y-87024263D01*
X149750690Y-87024266D01*
X149490662Y-87047930D01*
X149230985Y-87020637D01*
X149230980Y-87020635D01*
X149230938Y-87020631D01*
X148981465Y-86943406D01*
X148751744Y-86819196D01*
X148550523Y-86652732D01*
X148385468Y-86450354D01*
X148262865Y-86219771D01*
X148187384Y-85969766D01*
X148161900Y-85709861D01*
X148161900Y-84290139D01*
X148162030Y-84271456D01*
X148191141Y-84011932D01*
X148270105Y-83763005D01*
X148395916Y-83534157D01*
X148563780Y-83334103D01*
X148767306Y-83170465D01*
X148998739Y-83049474D01*
X149249265Y-82975740D01*
X149249301Y-82975737D01*
X149249310Y-82975734D01*
X149509338Y-82952070D01*
X149769015Y-82979363D01*
X149769015Y-82979363D01*
G37*
G36*
X146769015Y-82979363D02*
X146769020Y-82979365D01*
X146769062Y-82979369D01*
X147018535Y-83056594D01*
X147248256Y-83180804D01*
X147449477Y-83347268D01*
X147614532Y-83549646D01*
X147737135Y-83780229D01*
X147812616Y-84030234D01*
X147838100Y-84290139D01*
X147838100Y-85709861D01*
X147837970Y-85728544D01*
X147808859Y-85988068D01*
X147729895Y-86236995D01*
X147604084Y-86465843D01*
X147436220Y-86665897D01*
X147232694Y-86829535D01*
X147001261Y-86950526D01*
X146750735Y-87024260D01*
X146750699Y-87024263D01*
X146750690Y-87024266D01*
X146490662Y-87047930D01*
X146230985Y-87020637D01*
X146230980Y-87020635D01*
X146230938Y-87020631D01*
X145981465Y-86943406D01*
X145751744Y-86819196D01*
X145550523Y-86652732D01*
X145385468Y-86450354D01*
X145262865Y-86219771D01*
X145187384Y-85969766D01*
X145161900Y-85709861D01*
X145161900Y-84290139D01*
X145162030Y-84271456D01*
X145191141Y-84011932D01*
X145270105Y-83763005D01*
X145395916Y-83534157D01*
X145563780Y-83334103D01*
X145767306Y-83170465D01*
X145998739Y-83049474D01*
X146249265Y-82975740D01*
X146249301Y-82975737D01*
X146249310Y-82975734D01*
X146509338Y-82952070D01*
X146769015Y-82979363D01*
X146769015Y-82979363D01*
G37*
G36*
X74769015Y-82979363D02*
X74769020Y-82979365D01*
X74769062Y-82979369D01*
X75018535Y-83056594D01*
X75248256Y-83180804D01*
X75449477Y-83347268D01*
X75614532Y-83549646D01*
X75737135Y-83780229D01*
X75812616Y-84030234D01*
X75838100Y-84290139D01*
X75838100Y-85709861D01*
X75837970Y-85728544D01*
X75808859Y-85988068D01*
X75729895Y-86236995D01*
X75604084Y-86465843D01*
X75436220Y-86665897D01*
X75232694Y-86829535D01*
X75001261Y-86950526D01*
X74750735Y-87024260D01*
X74750699Y-87024263D01*
X74750690Y-87024266D01*
X74490662Y-87047930D01*
X74230985Y-87020637D01*
X74230980Y-87020635D01*
X74230938Y-87020631D01*
X73981465Y-86943406D01*
X73751744Y-86819196D01*
X73550523Y-86652732D01*
X73537986Y-86637360D01*
X73527939Y-86628085D01*
X73515150Y-86621699D01*
X73501089Y-86619128D01*
X73486867Y-86620577D01*
X73473613Y-86625930D01*
X73460536Y-86636918D01*
X73436220Y-86665897D01*
X73232694Y-86829535D01*
X73001261Y-86950526D01*
X72750735Y-87024260D01*
X72750699Y-87024263D01*
X72750690Y-87024266D01*
X72490662Y-87047930D01*
X72230985Y-87020637D01*
X72230980Y-87020635D01*
X72230938Y-87020631D01*
X71981465Y-86943406D01*
X71751744Y-86819196D01*
X71550523Y-86652732D01*
X71385468Y-86450354D01*
X71262865Y-86219771D01*
X71187384Y-85969766D01*
X71161900Y-85709861D01*
X71161900Y-84290139D01*
X71162030Y-84271456D01*
X71191141Y-84011932D01*
X71270105Y-83763005D01*
X71395916Y-83534157D01*
X71563780Y-83334103D01*
X71767306Y-83170465D01*
X71998739Y-83049474D01*
X72249265Y-82975740D01*
X72249301Y-82975737D01*
X72249310Y-82975734D01*
X72509338Y-82952070D01*
X72769015Y-82979363D01*
X72769020Y-82979365D01*
X72769062Y-82979369D01*
X73018535Y-83056594D01*
X73248256Y-83180804D01*
X73449477Y-83347268D01*
X73462014Y-83362640D01*
X73472061Y-83371915D01*
X73484850Y-83378301D01*
X73498911Y-83380872D01*
X73513133Y-83379423D01*
X73526387Y-83374070D01*
X73539464Y-83363082D01*
X73563780Y-83334103D01*
X73767306Y-83170465D01*
X73998739Y-83049474D01*
X74249265Y-82975740D01*
X74249301Y-82975737D01*
X74249310Y-82975734D01*
X74509338Y-82952070D01*
X74769015Y-82979363D01*
X74769015Y-82979363D01*
G37*
G36*
X86769015Y-82979363D02*
X86769020Y-82979365D01*
X86769062Y-82979369D01*
X87018535Y-83056594D01*
X87248256Y-83180804D01*
X87449477Y-83347268D01*
X87614532Y-83549646D01*
X87737135Y-83780229D01*
X87812616Y-84030234D01*
X87838100Y-84290139D01*
X87838100Y-85709861D01*
X87837970Y-85728544D01*
X87808859Y-85988068D01*
X87729895Y-86236995D01*
X87604084Y-86465843D01*
X87436220Y-86665897D01*
X87232694Y-86829535D01*
X87001261Y-86950526D01*
X86750735Y-87024260D01*
X86750699Y-87024263D01*
X86750690Y-87024266D01*
X86490662Y-87047930D01*
X86230985Y-87020637D01*
X86230980Y-87020635D01*
X86230938Y-87020631D01*
X85981465Y-86943406D01*
X85751744Y-86819196D01*
X85550523Y-86652732D01*
X85537986Y-86637360D01*
X85527939Y-86628085D01*
X85515150Y-86621699D01*
X85501089Y-86619128D01*
X85486867Y-86620577D01*
X85473613Y-86625930D01*
X85460536Y-86636918D01*
X85436220Y-86665897D01*
X85232694Y-86829535D01*
X85001261Y-86950526D01*
X84750735Y-87024260D01*
X84750699Y-87024263D01*
X84750690Y-87024266D01*
X84490662Y-87047930D01*
X84230985Y-87020637D01*
X84230980Y-87020635D01*
X84230938Y-87020631D01*
X83981465Y-86943406D01*
X83751744Y-86819196D01*
X83550523Y-86652732D01*
X83385468Y-86450354D01*
X83262865Y-86219771D01*
X83187384Y-85969766D01*
X83161900Y-85709861D01*
X83161900Y-84290139D01*
X83162030Y-84271456D01*
X83191141Y-84011932D01*
X83270105Y-83763005D01*
X83395916Y-83534157D01*
X83563780Y-83334103D01*
X83767306Y-83170465D01*
X83998739Y-83049474D01*
X84249265Y-82975740D01*
X84249301Y-82975737D01*
X84249310Y-82975734D01*
X84509338Y-82952070D01*
X84769015Y-82979363D01*
X84769020Y-82979365D01*
X84769062Y-82979369D01*
X85018535Y-83056594D01*
X85248256Y-83180804D01*
X85449477Y-83347268D01*
X85462014Y-83362640D01*
X85472061Y-83371915D01*
X85484850Y-83378301D01*
X85498911Y-83380872D01*
X85513133Y-83379423D01*
X85526387Y-83374070D01*
X85539464Y-83363082D01*
X85563780Y-83334103D01*
X85767306Y-83170465D01*
X85998739Y-83049474D01*
X86249265Y-82975740D01*
X86249301Y-82975737D01*
X86249310Y-82975734D01*
X86509338Y-82952070D01*
X86769015Y-82979363D01*
X86769015Y-82979363D01*
G37*
G36*
X98769015Y-82979363D02*
X98769020Y-82979365D01*
X98769062Y-82979369D01*
X99018535Y-83056594D01*
X99248256Y-83180804D01*
X99449477Y-83347268D01*
X99614532Y-83549646D01*
X99737135Y-83780229D01*
X99812616Y-84030234D01*
X99838100Y-84290139D01*
X99838100Y-85709861D01*
X99837970Y-85728544D01*
X99808859Y-85988068D01*
X99729895Y-86236995D01*
X99604084Y-86465843D01*
X99436220Y-86665897D01*
X99232694Y-86829535D01*
X99001261Y-86950526D01*
X98750735Y-87024260D01*
X98750699Y-87024263D01*
X98750690Y-87024266D01*
X98490662Y-87047930D01*
X98230985Y-87020637D01*
X98230980Y-87020635D01*
X98230938Y-87020631D01*
X97981465Y-86943406D01*
X97751744Y-86819196D01*
X97550523Y-86652732D01*
X97537986Y-86637360D01*
X97527939Y-86628085D01*
X97515150Y-86621699D01*
X97501089Y-86619128D01*
X97486867Y-86620577D01*
X97473613Y-86625930D01*
X97460536Y-86636918D01*
X97436220Y-86665897D01*
X97232694Y-86829535D01*
X97001261Y-86950526D01*
X96750735Y-87024260D01*
X96750699Y-87024263D01*
X96750690Y-87024266D01*
X96490662Y-87047930D01*
X96230985Y-87020637D01*
X96230980Y-87020635D01*
X96230938Y-87020631D01*
X95981465Y-86943406D01*
X95751744Y-86819196D01*
X95550523Y-86652732D01*
X95385468Y-86450354D01*
X95262865Y-86219771D01*
X95187384Y-85969766D01*
X95161900Y-85709861D01*
X95161900Y-84290139D01*
X95162030Y-84271456D01*
X95191141Y-84011932D01*
X95270105Y-83763005D01*
X95395916Y-83534157D01*
X95563780Y-83334103D01*
X95767306Y-83170465D01*
X95998739Y-83049474D01*
X96249265Y-82975740D01*
X96249301Y-82975737D01*
X96249310Y-82975734D01*
X96509338Y-82952070D01*
X96769015Y-82979363D01*
X96769020Y-82979365D01*
X96769062Y-82979369D01*
X97018535Y-83056594D01*
X97248256Y-83180804D01*
X97449477Y-83347268D01*
X97462014Y-83362640D01*
X97472061Y-83371915D01*
X97484850Y-83378301D01*
X97498911Y-83380872D01*
X97513133Y-83379423D01*
X97526387Y-83374070D01*
X97539464Y-83363082D01*
X97563780Y-83334103D01*
X97767306Y-83170465D01*
X97998739Y-83049474D01*
X98249265Y-82975740D01*
X98249301Y-82975737D01*
X98249310Y-82975734D01*
X98509338Y-82952070D01*
X98769015Y-82979363D01*
X98769015Y-82979363D01*
G37*
G36*
X110769015Y-82979363D02*
X110769020Y-82979365D01*
X110769062Y-82979369D01*
X111018535Y-83056594D01*
X111248256Y-83180804D01*
X111449477Y-83347268D01*
X111614532Y-83549646D01*
X111737135Y-83780229D01*
X111812616Y-84030234D01*
X111838100Y-84290139D01*
X111838100Y-85709861D01*
X111837970Y-85728544D01*
X111808859Y-85988068D01*
X111729895Y-86236995D01*
X111604084Y-86465843D01*
X111436220Y-86665897D01*
X111232694Y-86829535D01*
X111001261Y-86950526D01*
X110750735Y-87024260D01*
X110750699Y-87024263D01*
X110750690Y-87024266D01*
X110490662Y-87047930D01*
X110230985Y-87020637D01*
X110230980Y-87020635D01*
X110230938Y-87020631D01*
X109981465Y-86943406D01*
X109751744Y-86819196D01*
X109550523Y-86652732D01*
X109537986Y-86637360D01*
X109527939Y-86628085D01*
X109515150Y-86621699D01*
X109501089Y-86619128D01*
X109486867Y-86620577D01*
X109473613Y-86625930D01*
X109460536Y-86636918D01*
X109436220Y-86665897D01*
X109232694Y-86829535D01*
X109001261Y-86950526D01*
X108750735Y-87024260D01*
X108750699Y-87024263D01*
X108750690Y-87024266D01*
X108490662Y-87047930D01*
X108230985Y-87020637D01*
X108230980Y-87020635D01*
X108230938Y-87020631D01*
X107981465Y-86943406D01*
X107751744Y-86819196D01*
X107550523Y-86652732D01*
X107385468Y-86450354D01*
X107262865Y-86219771D01*
X107187384Y-85969766D01*
X107161900Y-85709861D01*
X107161900Y-84290139D01*
X107162030Y-84271456D01*
X107191141Y-84011932D01*
X107270105Y-83763005D01*
X107395916Y-83534157D01*
X107563780Y-83334103D01*
X107767306Y-83170465D01*
X107998739Y-83049474D01*
X108249265Y-82975740D01*
X108249301Y-82975737D01*
X108249310Y-82975734D01*
X108509338Y-82952070D01*
X108769015Y-82979363D01*
X108769020Y-82979365D01*
X108769062Y-82979369D01*
X109018535Y-83056594D01*
X109248256Y-83180804D01*
X109449477Y-83347268D01*
X109462014Y-83362640D01*
X109472061Y-83371915D01*
X109484850Y-83378301D01*
X109498911Y-83380872D01*
X109513133Y-83379423D01*
X109526387Y-83374070D01*
X109539464Y-83363082D01*
X109563780Y-83334103D01*
X109767306Y-83170465D01*
X109998739Y-83049474D01*
X110249265Y-82975740D01*
X110249301Y-82975737D01*
X110249310Y-82975734D01*
X110509338Y-82952070D01*
X110769015Y-82979363D01*
X110769015Y-82979363D01*
G37*
G36*
X120769015Y-82979363D02*
X120769020Y-82979365D01*
X120769062Y-82979369D01*
X121018535Y-83056594D01*
X121248256Y-83180804D01*
X121449477Y-83347268D01*
X121614532Y-83549646D01*
X121737135Y-83780229D01*
X121812616Y-84030234D01*
X121838100Y-84290139D01*
X121838100Y-85709861D01*
X121837970Y-85728544D01*
X121808859Y-85988068D01*
X121729895Y-86236995D01*
X121604084Y-86465843D01*
X121436220Y-86665897D01*
X121232694Y-86829535D01*
X121001261Y-86950526D01*
X120750735Y-87024260D01*
X120750699Y-87024263D01*
X120750690Y-87024266D01*
X120490662Y-87047930D01*
X120230985Y-87020637D01*
X120230980Y-87020635D01*
X120230938Y-87020631D01*
X119981465Y-86943406D01*
X119751744Y-86819196D01*
X119550523Y-86652732D01*
X119385468Y-86450354D01*
X119262865Y-86219771D01*
X119187384Y-85969766D01*
X119161900Y-85709861D01*
X119161900Y-84290139D01*
X119162030Y-84271456D01*
X119191141Y-84011932D01*
X119270105Y-83763005D01*
X119395916Y-83534157D01*
X119563780Y-83334103D01*
X119767306Y-83170465D01*
X119998739Y-83049474D01*
X120249265Y-82975740D01*
X120249301Y-82975737D01*
X120249310Y-82975734D01*
X120509338Y-82952070D01*
X120769015Y-82979363D01*
X120769015Y-82979363D01*
G37*
G36*
X123769015Y-82979363D02*
X123769020Y-82979365D01*
X123769062Y-82979369D01*
X124018535Y-83056594D01*
X124248256Y-83180804D01*
X124449477Y-83347268D01*
X124614532Y-83549646D01*
X124737135Y-83780229D01*
X124812616Y-84030234D01*
X124838100Y-84290139D01*
X124838100Y-85709861D01*
X124837970Y-85728544D01*
X124808859Y-85988068D01*
X124729895Y-86236995D01*
X124604084Y-86465843D01*
X124436220Y-86665897D01*
X124232694Y-86829535D01*
X124001261Y-86950526D01*
X123750735Y-87024260D01*
X123750699Y-87024263D01*
X123750690Y-87024266D01*
X123490662Y-87047930D01*
X123230985Y-87020637D01*
X123230980Y-87020635D01*
X123230938Y-87020631D01*
X122981465Y-86943406D01*
X122751744Y-86819196D01*
X122550523Y-86652732D01*
X122385468Y-86450354D01*
X122262865Y-86219771D01*
X122187384Y-85969766D01*
X122161900Y-85709861D01*
X122161900Y-84290139D01*
X122162030Y-84271456D01*
X122191141Y-84011932D01*
X122270105Y-83763005D01*
X122395916Y-83534157D01*
X122563780Y-83334103D01*
X122767306Y-83170465D01*
X122998739Y-83049474D01*
X123249265Y-82975740D01*
X123249301Y-82975737D01*
X123249310Y-82975734D01*
X123509338Y-82952070D01*
X123769015Y-82979363D01*
X123769015Y-82979363D01*
G37*
G36*
X133769015Y-82979363D02*
X133769020Y-82979365D01*
X133769062Y-82979369D01*
X134018535Y-83056594D01*
X134248256Y-83180804D01*
X134449477Y-83347268D01*
X134614532Y-83549646D01*
X134737135Y-83780229D01*
X134812616Y-84030234D01*
X134838100Y-84290139D01*
X134838100Y-85709861D01*
X134837970Y-85728544D01*
X134808859Y-85988068D01*
X134729895Y-86236995D01*
X134604084Y-86465843D01*
X134436220Y-86665897D01*
X134232694Y-86829535D01*
X134001261Y-86950526D01*
X133750735Y-87024260D01*
X133750699Y-87024263D01*
X133750690Y-87024266D01*
X133490662Y-87047930D01*
X133230985Y-87020637D01*
X133230980Y-87020635D01*
X133230938Y-87020631D01*
X132981465Y-86943406D01*
X132751744Y-86819196D01*
X132550523Y-86652732D01*
X132385468Y-86450354D01*
X132262865Y-86219771D01*
X132187384Y-85969766D01*
X132161900Y-85709861D01*
X132161900Y-84290139D01*
X132162030Y-84271456D01*
X132191141Y-84011932D01*
X132270105Y-83763005D01*
X132395916Y-83534157D01*
X132563780Y-83334103D01*
X132767306Y-83170465D01*
X132998739Y-83049474D01*
X133249265Y-82975740D01*
X133249301Y-82975737D01*
X133249310Y-82975734D01*
X133509338Y-82952070D01*
X133769015Y-82979363D01*
X133769015Y-82979363D01*
G37*
G36*
X141853100Y-78168100D02*
X141176900Y-78168100D01*
X141176900Y-76591900D01*
X141853100Y-76591900D01*
X141853100Y-78168100D01*
X141853100Y-78168100D01*
G37*
G36*
X135503100Y-78168100D02*
X134826900Y-78168100D01*
X134826900Y-76591900D01*
X135503100Y-76591900D01*
X135503100Y-78168100D01*
X135503100Y-78168100D01*
G37*
G36*
X136773100Y-78168100D02*
X136096900Y-78168100D01*
X136096900Y-76591900D01*
X136773100Y-76591900D01*
X136773100Y-78168100D01*
X136773100Y-78168100D01*
G37*
G36*
X138043100Y-78168100D02*
X137366900Y-78168100D01*
X137366900Y-76591900D01*
X138043100Y-76591900D01*
X138043100Y-78168100D01*
X138043100Y-78168100D01*
G37*
G36*
X139313100Y-78168100D02*
X138636900Y-78168100D01*
X138636900Y-76591900D01*
X139313100Y-76591900D01*
X139313100Y-78168100D01*
X139313100Y-78168100D01*
G37*
G36*
X140583100Y-78168100D02*
X139906900Y-78168100D01*
X139906900Y-76591900D01*
X140583100Y-76591900D01*
X140583100Y-78168100D01*
X140583100Y-78168100D01*
G37*
G36*
X143123100Y-78168100D02*
X142446900Y-78168100D01*
X142446900Y-76591900D01*
X143123100Y-76591900D01*
X143123100Y-78168100D01*
X143123100Y-78168100D01*
G37*
G36*
X134233100Y-78168100D02*
X133556900Y-78168100D01*
X133556900Y-76591900D01*
X134233100Y-76591900D01*
X134233100Y-78168100D01*
X134233100Y-78168100D01*
G37*
G36*
X144893100Y-76248100D02*
X144066900Y-76248100D01*
X144066900Y-74971900D01*
X144893100Y-74971900D01*
X144893100Y-76248100D01*
X144893100Y-76248100D01*
G37*
G36*
X67705943Y-71450039D02*
X67705953Y-71450042D01*
X67705990Y-71450046D01*
X67859894Y-71497687D01*
X68001614Y-71574314D01*
X68125751Y-71677009D01*
X68227576Y-71801860D01*
X68303213Y-71944111D01*
X68349778Y-72098345D01*
X68365500Y-72258685D01*
X68365500Y-72981315D01*
X68365420Y-72992841D01*
X68347461Y-73152946D01*
X68298746Y-73306514D01*
X68221131Y-73447695D01*
X68117572Y-73571112D01*
X68113974Y-73574005D01*
X68104450Y-73584177D01*
X68097974Y-73596920D01*
X68095305Y-73610964D01*
X68096654Y-73625195D01*
X68101914Y-73638486D01*
X68113480Y-73652250D01*
X68179820Y-73707131D01*
X68291045Y-73843507D01*
X68373663Y-73998889D01*
X68424527Y-74167359D01*
X68441700Y-74342500D01*
X68441700Y-74657534D01*
X68441627Y-74668035D01*
X68441626Y-74668041D01*
X68441612Y-74670090D01*
X68421996Y-74844974D01*
X68368784Y-75012717D01*
X68284005Y-75166931D01*
X68170886Y-75301740D01*
X68033738Y-75412010D01*
X67877783Y-75493542D01*
X67708962Y-75543228D01*
X67708931Y-75543231D01*
X67708917Y-75543235D01*
X67533708Y-75559180D01*
X67358735Y-75540789D01*
X67358730Y-75540787D01*
X67358688Y-75540783D01*
X67190577Y-75488744D01*
X67035776Y-75405043D01*
X66900180Y-75292869D01*
X66788955Y-75156493D01*
X66706337Y-75001111D01*
X66655473Y-74832641D01*
X66638300Y-74657500D01*
X66638300Y-74342466D01*
X66638373Y-74331965D01*
X66638374Y-74331959D01*
X66638388Y-74329910D01*
X66658004Y-74155026D01*
X66711216Y-73987283D01*
X66795995Y-73833069D01*
X66909114Y-73698260D01*
X66966709Y-73651952D01*
X66976234Y-73641779D01*
X66982709Y-73629035D01*
X66985378Y-73614992D01*
X66984028Y-73600761D01*
X66978768Y-73587469D01*
X66967205Y-73573709D01*
X66954249Y-73562991D01*
X66852424Y-73438140D01*
X66776787Y-73295889D01*
X66730222Y-73141655D01*
X66714500Y-72981315D01*
X66714500Y-72258685D01*
X66714580Y-72247159D01*
X66732539Y-72087054D01*
X66781254Y-71933486D01*
X66858869Y-71792305D01*
X66962428Y-71668888D01*
X67087987Y-71567936D01*
X67230762Y-71493295D01*
X67385317Y-71447807D01*
X67385353Y-71447804D01*
X67385362Y-71447801D01*
X67545761Y-71433203D01*
X67705943Y-71450039D01*
X67705943Y-71450039D01*
G37*
G36*
X70245943Y-71450039D02*
X70245953Y-71450042D01*
X70245990Y-71450046D01*
X70399894Y-71497687D01*
X70541614Y-71574314D01*
X70665751Y-71677009D01*
X70767576Y-71801860D01*
X70843213Y-71944111D01*
X70889778Y-72098345D01*
X70905500Y-72258685D01*
X70905500Y-72981315D01*
X70905420Y-72992841D01*
X70887461Y-73152946D01*
X70838746Y-73306514D01*
X70761131Y-73447695D01*
X70657572Y-73571112D01*
X70653974Y-73574005D01*
X70644450Y-73584177D01*
X70637974Y-73596920D01*
X70635305Y-73610964D01*
X70636654Y-73625195D01*
X70641914Y-73638486D01*
X70653480Y-73652250D01*
X70719820Y-73707131D01*
X70831045Y-73843507D01*
X70913663Y-73998889D01*
X70964527Y-74167359D01*
X70981700Y-74342500D01*
X70981700Y-74657534D01*
X70981627Y-74668035D01*
X70981626Y-74668041D01*
X70981612Y-74670090D01*
X70961996Y-74844974D01*
X70908784Y-75012717D01*
X70824005Y-75166931D01*
X70710886Y-75301740D01*
X70573738Y-75412010D01*
X70417783Y-75493542D01*
X70248962Y-75543228D01*
X70248931Y-75543231D01*
X70248917Y-75543235D01*
X70073708Y-75559180D01*
X69898735Y-75540789D01*
X69898730Y-75540787D01*
X69898688Y-75540783D01*
X69730577Y-75488744D01*
X69575776Y-75405043D01*
X69440180Y-75292869D01*
X69328955Y-75156493D01*
X69246337Y-75001111D01*
X69195473Y-74832641D01*
X69178300Y-74657500D01*
X69178300Y-74342466D01*
X69178373Y-74331965D01*
X69178374Y-74331959D01*
X69178388Y-74329910D01*
X69198004Y-74155026D01*
X69251216Y-73987283D01*
X69335995Y-73833069D01*
X69449114Y-73698260D01*
X69506709Y-73651952D01*
X69516234Y-73641779D01*
X69522709Y-73629035D01*
X69525378Y-73614992D01*
X69524028Y-73600761D01*
X69518768Y-73587469D01*
X69507205Y-73573709D01*
X69494249Y-73562991D01*
X69392424Y-73438140D01*
X69316787Y-73295889D01*
X69270222Y-73141655D01*
X69254500Y-72981315D01*
X69254500Y-72258685D01*
X69254580Y-72247159D01*
X69272539Y-72087054D01*
X69321254Y-71933486D01*
X69398869Y-71792305D01*
X69502428Y-71668888D01*
X69627987Y-71567936D01*
X69770762Y-71493295D01*
X69925317Y-71447807D01*
X69925353Y-71447804D01*
X69925362Y-71447801D01*
X70085761Y-71433203D01*
X70245943Y-71450039D01*
X70245943Y-71450039D01*
G37*
G36*
X72785943Y-71450039D02*
X72785953Y-71450042D01*
X72785990Y-71450046D01*
X72939894Y-71497687D01*
X73081614Y-71574314D01*
X73205751Y-71677009D01*
X73307576Y-71801860D01*
X73383213Y-71944111D01*
X73429778Y-72098345D01*
X73445500Y-72258685D01*
X73445500Y-72981315D01*
X73445420Y-72992841D01*
X73427461Y-73152946D01*
X73378746Y-73306514D01*
X73301131Y-73447695D01*
X73197572Y-73571112D01*
X73193974Y-73574005D01*
X73184450Y-73584177D01*
X73177974Y-73596920D01*
X73175305Y-73610964D01*
X73176654Y-73625195D01*
X73181914Y-73638486D01*
X73193480Y-73652250D01*
X73259820Y-73707131D01*
X73371045Y-73843507D01*
X73453663Y-73998889D01*
X73504527Y-74167359D01*
X73521700Y-74342500D01*
X73521700Y-74657534D01*
X73521627Y-74668035D01*
X73521626Y-74668041D01*
X73521612Y-74670090D01*
X73501996Y-74844974D01*
X73448784Y-75012717D01*
X73364005Y-75166931D01*
X73250886Y-75301740D01*
X73113738Y-75412010D01*
X72957783Y-75493542D01*
X72788962Y-75543228D01*
X72788931Y-75543231D01*
X72788917Y-75543235D01*
X72613708Y-75559180D01*
X72438735Y-75540789D01*
X72438730Y-75540787D01*
X72438688Y-75540783D01*
X72270577Y-75488744D01*
X72115776Y-75405043D01*
X71980180Y-75292869D01*
X71868955Y-75156493D01*
X71786337Y-75001111D01*
X71735473Y-74832641D01*
X71718300Y-74657500D01*
X71718300Y-74342466D01*
X71718373Y-74331965D01*
X71718374Y-74331959D01*
X71718388Y-74329910D01*
X71738004Y-74155026D01*
X71791216Y-73987283D01*
X71875995Y-73833069D01*
X71989114Y-73698260D01*
X72046709Y-73651952D01*
X72056234Y-73641779D01*
X72062709Y-73629035D01*
X72065378Y-73614992D01*
X72064028Y-73600761D01*
X72058768Y-73587469D01*
X72047205Y-73573709D01*
X72034249Y-73562991D01*
X71932424Y-73438140D01*
X71856787Y-73295889D01*
X71810222Y-73141655D01*
X71794500Y-72981315D01*
X71794500Y-72258685D01*
X71794580Y-72247159D01*
X71812539Y-72087054D01*
X71861254Y-71933486D01*
X71938869Y-71792305D01*
X72042428Y-71668888D01*
X72167987Y-71567936D01*
X72310762Y-71493295D01*
X72465317Y-71447807D01*
X72465353Y-71447804D01*
X72465362Y-71447801D01*
X72625761Y-71433203D01*
X72785943Y-71450039D01*
X72785943Y-71450039D01*
G37*
G36*
X75325943Y-71450039D02*
X75325953Y-71450042D01*
X75325990Y-71450046D01*
X75479894Y-71497687D01*
X75621614Y-71574314D01*
X75745751Y-71677009D01*
X75847576Y-71801860D01*
X75923213Y-71944111D01*
X75969778Y-72098345D01*
X75985500Y-72258685D01*
X75985500Y-72981315D01*
X75985420Y-72992841D01*
X75967461Y-73152946D01*
X75918746Y-73306514D01*
X75841131Y-73447695D01*
X75737572Y-73571112D01*
X75733974Y-73574005D01*
X75724450Y-73584177D01*
X75717974Y-73596920D01*
X75715305Y-73610964D01*
X75716654Y-73625195D01*
X75721914Y-73638486D01*
X75733480Y-73652250D01*
X75799820Y-73707131D01*
X75911045Y-73843507D01*
X75993663Y-73998889D01*
X76044527Y-74167359D01*
X76061700Y-74342500D01*
X76061700Y-74657534D01*
X76061627Y-74668035D01*
X76061626Y-74668041D01*
X76061612Y-74670090D01*
X76041996Y-74844974D01*
X75988784Y-75012717D01*
X75904005Y-75166931D01*
X75790886Y-75301740D01*
X75653738Y-75412010D01*
X75497783Y-75493542D01*
X75328962Y-75543228D01*
X75328931Y-75543231D01*
X75328917Y-75543235D01*
X75153708Y-75559180D01*
X74978735Y-75540789D01*
X74978730Y-75540787D01*
X74978688Y-75540783D01*
X74810577Y-75488744D01*
X74655776Y-75405043D01*
X74520180Y-75292869D01*
X74408955Y-75156493D01*
X74326337Y-75001111D01*
X74275473Y-74832641D01*
X74258300Y-74657500D01*
X74258300Y-74342466D01*
X74258373Y-74331965D01*
X74258374Y-74331959D01*
X74258388Y-74329910D01*
X74278004Y-74155026D01*
X74331216Y-73987283D01*
X74415995Y-73833069D01*
X74529114Y-73698260D01*
X74586709Y-73651952D01*
X74596234Y-73641779D01*
X74602709Y-73629035D01*
X74605378Y-73614992D01*
X74604028Y-73600761D01*
X74598768Y-73587469D01*
X74587205Y-73573709D01*
X74574249Y-73562991D01*
X74472424Y-73438140D01*
X74396787Y-73295889D01*
X74350222Y-73141655D01*
X74334500Y-72981315D01*
X74334500Y-72258685D01*
X74334580Y-72247159D01*
X74352539Y-72087054D01*
X74401254Y-71933486D01*
X74478869Y-71792305D01*
X74582428Y-71668888D01*
X74707987Y-71567936D01*
X74850762Y-71493295D01*
X75005317Y-71447807D01*
X75005353Y-71447804D01*
X75005362Y-71447801D01*
X75165761Y-71433203D01*
X75325943Y-71450039D01*
X75325943Y-71450039D01*
G37*
G36*
X77865943Y-71450039D02*
X77865953Y-71450042D01*
X77865990Y-71450046D01*
X78019894Y-71497687D01*
X78161614Y-71574314D01*
X78285751Y-71677009D01*
X78387576Y-71801860D01*
X78463213Y-71944111D01*
X78509778Y-72098345D01*
X78525500Y-72258685D01*
X78525500Y-72981315D01*
X78525420Y-72992841D01*
X78507461Y-73152946D01*
X78458746Y-73306514D01*
X78381131Y-73447695D01*
X78277572Y-73571112D01*
X78273974Y-73574005D01*
X78264450Y-73584177D01*
X78257974Y-73596920D01*
X78255305Y-73610964D01*
X78256654Y-73625195D01*
X78261914Y-73638486D01*
X78273480Y-73652250D01*
X78339820Y-73707131D01*
X78451045Y-73843507D01*
X78533663Y-73998889D01*
X78584527Y-74167359D01*
X78601700Y-74342500D01*
X78601700Y-74657534D01*
X78601627Y-74668035D01*
X78601626Y-74668041D01*
X78601612Y-74670090D01*
X78581996Y-74844974D01*
X78528784Y-75012717D01*
X78444005Y-75166931D01*
X78330886Y-75301740D01*
X78193738Y-75412010D01*
X78037783Y-75493542D01*
X77868962Y-75543228D01*
X77868931Y-75543231D01*
X77868917Y-75543235D01*
X77693708Y-75559180D01*
X77518735Y-75540789D01*
X77518730Y-75540787D01*
X77518688Y-75540783D01*
X77350577Y-75488744D01*
X77195776Y-75405043D01*
X77060180Y-75292869D01*
X76948955Y-75156493D01*
X76866337Y-75001111D01*
X76815473Y-74832641D01*
X76798300Y-74657500D01*
X76798300Y-74342466D01*
X76798373Y-74331965D01*
X76798374Y-74331959D01*
X76798388Y-74329910D01*
X76818004Y-74155026D01*
X76871216Y-73987283D01*
X76955995Y-73833069D01*
X77069114Y-73698260D01*
X77126709Y-73651952D01*
X77136234Y-73641779D01*
X77142709Y-73629035D01*
X77145378Y-73614992D01*
X77144028Y-73600761D01*
X77138768Y-73587469D01*
X77127205Y-73573709D01*
X77114249Y-73562991D01*
X77012424Y-73438140D01*
X76936787Y-73295889D01*
X76890222Y-73141655D01*
X76874500Y-72981315D01*
X76874500Y-72258685D01*
X76874580Y-72247159D01*
X76892539Y-72087054D01*
X76941254Y-71933486D01*
X77018869Y-71792305D01*
X77122428Y-71668888D01*
X77247987Y-71567936D01*
X77390762Y-71493295D01*
X77545317Y-71447807D01*
X77545353Y-71447804D01*
X77545362Y-71447801D01*
X77705761Y-71433203D01*
X77865943Y-71450039D01*
X77865943Y-71450039D01*
G37*
G36*
X80405943Y-71450039D02*
X80405953Y-71450042D01*
X80405990Y-71450046D01*
X80559894Y-71497687D01*
X80701614Y-71574314D01*
X80825751Y-71677009D01*
X80927576Y-71801860D01*
X81003213Y-71944111D01*
X81049778Y-72098345D01*
X81065500Y-72258685D01*
X81065500Y-72981315D01*
X81065420Y-72992841D01*
X81047461Y-73152946D01*
X80998746Y-73306514D01*
X80921131Y-73447695D01*
X80817572Y-73571112D01*
X80813974Y-73574005D01*
X80804450Y-73584177D01*
X80797974Y-73596920D01*
X80795305Y-73610964D01*
X80796654Y-73625195D01*
X80801914Y-73638486D01*
X80813480Y-73652250D01*
X80879820Y-73707131D01*
X80991045Y-73843507D01*
X81073663Y-73998889D01*
X81124527Y-74167359D01*
X81141700Y-74342500D01*
X81141700Y-74657534D01*
X81141627Y-74668035D01*
X81141626Y-74668041D01*
X81141612Y-74670090D01*
X81121996Y-74844974D01*
X81068784Y-75012717D01*
X80984005Y-75166931D01*
X80870886Y-75301740D01*
X80733738Y-75412010D01*
X80577783Y-75493542D01*
X80408962Y-75543228D01*
X80408931Y-75543231D01*
X80408917Y-75543235D01*
X80233708Y-75559180D01*
X80058735Y-75540789D01*
X80058730Y-75540787D01*
X80058688Y-75540783D01*
X79890577Y-75488744D01*
X79735776Y-75405043D01*
X79600180Y-75292869D01*
X79488955Y-75156493D01*
X79406337Y-75001111D01*
X79355473Y-74832641D01*
X79338300Y-74657500D01*
X79338300Y-74342466D01*
X79338373Y-74331965D01*
X79338374Y-74331959D01*
X79338388Y-74329910D01*
X79358004Y-74155026D01*
X79411216Y-73987283D01*
X79495995Y-73833069D01*
X79609114Y-73698260D01*
X79666709Y-73651952D01*
X79676234Y-73641779D01*
X79682709Y-73629035D01*
X79685378Y-73614992D01*
X79684028Y-73600761D01*
X79678768Y-73587469D01*
X79667205Y-73573709D01*
X79654249Y-73562991D01*
X79552424Y-73438140D01*
X79476787Y-73295889D01*
X79430222Y-73141655D01*
X79414500Y-72981315D01*
X79414500Y-72258685D01*
X79414580Y-72247159D01*
X79432539Y-72087054D01*
X79481254Y-71933486D01*
X79558869Y-71792305D01*
X79662428Y-71668888D01*
X79787987Y-71567936D01*
X79930762Y-71493295D01*
X80085317Y-71447807D01*
X80085353Y-71447804D01*
X80085362Y-71447801D01*
X80245761Y-71433203D01*
X80405943Y-71450039D01*
X80405943Y-71450039D01*
G37*
G36*
X82945943Y-71450039D02*
X82945953Y-71450042D01*
X82945990Y-71450046D01*
X83099894Y-71497687D01*
X83241614Y-71574314D01*
X83365751Y-71677009D01*
X83467576Y-71801860D01*
X83543213Y-71944111D01*
X83589778Y-72098345D01*
X83605500Y-72258685D01*
X83605500Y-72981315D01*
X83605420Y-72992841D01*
X83587461Y-73152946D01*
X83538746Y-73306514D01*
X83461131Y-73447695D01*
X83357572Y-73571112D01*
X83353974Y-73574005D01*
X83344450Y-73584177D01*
X83337974Y-73596920D01*
X83335305Y-73610964D01*
X83336654Y-73625195D01*
X83341914Y-73638486D01*
X83353480Y-73652250D01*
X83419820Y-73707131D01*
X83531045Y-73843507D01*
X83613663Y-73998889D01*
X83664527Y-74167359D01*
X83681700Y-74342500D01*
X83681700Y-74657534D01*
X83681627Y-74668035D01*
X83681626Y-74668041D01*
X83681612Y-74670090D01*
X83661996Y-74844974D01*
X83608784Y-75012717D01*
X83524005Y-75166931D01*
X83410886Y-75301740D01*
X83273738Y-75412010D01*
X83117783Y-75493542D01*
X82948962Y-75543228D01*
X82948931Y-75543231D01*
X82948917Y-75543235D01*
X82773708Y-75559180D01*
X82598735Y-75540789D01*
X82598730Y-75540787D01*
X82598688Y-75540783D01*
X82430577Y-75488744D01*
X82275776Y-75405043D01*
X82140180Y-75292869D01*
X82028955Y-75156493D01*
X81946337Y-75001111D01*
X81895473Y-74832641D01*
X81878300Y-74657500D01*
X81878300Y-74342466D01*
X81878373Y-74331965D01*
X81878374Y-74331959D01*
X81878388Y-74329910D01*
X81898004Y-74155026D01*
X81951216Y-73987283D01*
X82035995Y-73833069D01*
X82149114Y-73698260D01*
X82206709Y-73651952D01*
X82216234Y-73641779D01*
X82222709Y-73629035D01*
X82225378Y-73614992D01*
X82224028Y-73600761D01*
X82218768Y-73587469D01*
X82207205Y-73573709D01*
X82194249Y-73562991D01*
X82092424Y-73438140D01*
X82016787Y-73295889D01*
X81970222Y-73141655D01*
X81954500Y-72981315D01*
X81954500Y-72258685D01*
X81954580Y-72247159D01*
X81972539Y-72087054D01*
X82021254Y-71933486D01*
X82098869Y-71792305D01*
X82202428Y-71668888D01*
X82327987Y-71567936D01*
X82470762Y-71493295D01*
X82625317Y-71447807D01*
X82625353Y-71447804D01*
X82625362Y-71447801D01*
X82785761Y-71433203D01*
X82945943Y-71450039D01*
X82945943Y-71450039D01*
G37*
G36*
X88025943Y-71450039D02*
X88025953Y-71450042D01*
X88025990Y-71450046D01*
X88179894Y-71497687D01*
X88321614Y-71574314D01*
X88445751Y-71677009D01*
X88547576Y-71801860D01*
X88623213Y-71944111D01*
X88669778Y-72098345D01*
X88685500Y-72258685D01*
X88685500Y-72981315D01*
X88685420Y-72992841D01*
X88667461Y-73152946D01*
X88618746Y-73306514D01*
X88541131Y-73447695D01*
X88437572Y-73571112D01*
X88433974Y-73574005D01*
X88424450Y-73584177D01*
X88417974Y-73596920D01*
X88415305Y-73610964D01*
X88416654Y-73625195D01*
X88421914Y-73638486D01*
X88433480Y-73652250D01*
X88499820Y-73707131D01*
X88611045Y-73843507D01*
X88693663Y-73998889D01*
X88744527Y-74167359D01*
X88761700Y-74342500D01*
X88761700Y-74657534D01*
X88761627Y-74668035D01*
X88761626Y-74668041D01*
X88761612Y-74670090D01*
X88741996Y-74844974D01*
X88688784Y-75012717D01*
X88604005Y-75166931D01*
X88490886Y-75301740D01*
X88353738Y-75412010D01*
X88197783Y-75493542D01*
X88028962Y-75543228D01*
X88028931Y-75543231D01*
X88028917Y-75543235D01*
X87853708Y-75559180D01*
X87678735Y-75540789D01*
X87678730Y-75540787D01*
X87678688Y-75540783D01*
X87510577Y-75488744D01*
X87355776Y-75405043D01*
X87220180Y-75292869D01*
X87108955Y-75156493D01*
X87026337Y-75001111D01*
X86975473Y-74832641D01*
X86958300Y-74657500D01*
X86958300Y-74342466D01*
X86958373Y-74331965D01*
X86958374Y-74331959D01*
X86958388Y-74329910D01*
X86978004Y-74155026D01*
X87031216Y-73987283D01*
X87115995Y-73833069D01*
X87229114Y-73698260D01*
X87286709Y-73651952D01*
X87296234Y-73641779D01*
X87302709Y-73629035D01*
X87305378Y-73614992D01*
X87304028Y-73600761D01*
X87298768Y-73587469D01*
X87287205Y-73573709D01*
X87274249Y-73562991D01*
X87172424Y-73438140D01*
X87096787Y-73295889D01*
X87050222Y-73141655D01*
X87034500Y-72981315D01*
X87034500Y-72258685D01*
X87034580Y-72247159D01*
X87052539Y-72087054D01*
X87101254Y-71933486D01*
X87178869Y-71792305D01*
X87282428Y-71668888D01*
X87407987Y-71567936D01*
X87550762Y-71493295D01*
X87705317Y-71447807D01*
X87705353Y-71447804D01*
X87705362Y-71447801D01*
X87865761Y-71433203D01*
X88025943Y-71450039D01*
X88025943Y-71450039D01*
G37*
G36*
X90565943Y-71450039D02*
X90565953Y-71450042D01*
X90565990Y-71450046D01*
X90719894Y-71497687D01*
X90861614Y-71574314D01*
X90985751Y-71677009D01*
X91087576Y-71801860D01*
X91163213Y-71944111D01*
X91209778Y-72098345D01*
X91225500Y-72258685D01*
X91225500Y-72981315D01*
X91225420Y-72992841D01*
X91207461Y-73152946D01*
X91158746Y-73306514D01*
X91081131Y-73447695D01*
X90977572Y-73571112D01*
X90973974Y-73574005D01*
X90964450Y-73584177D01*
X90957974Y-73596920D01*
X90955305Y-73610964D01*
X90956654Y-73625195D01*
X90961914Y-73638486D01*
X90973480Y-73652250D01*
X91039820Y-73707131D01*
X91151045Y-73843507D01*
X91233663Y-73998889D01*
X91284527Y-74167359D01*
X91301700Y-74342500D01*
X91301700Y-74657534D01*
X91301627Y-74668035D01*
X91301626Y-74668041D01*
X91301612Y-74670090D01*
X91281996Y-74844974D01*
X91228784Y-75012717D01*
X91144005Y-75166931D01*
X91030886Y-75301740D01*
X90893738Y-75412010D01*
X90737783Y-75493542D01*
X90568962Y-75543228D01*
X90568931Y-75543231D01*
X90568917Y-75543235D01*
X90393708Y-75559180D01*
X90218735Y-75540789D01*
X90218730Y-75540787D01*
X90218688Y-75540783D01*
X90050577Y-75488744D01*
X89895776Y-75405043D01*
X89760180Y-75292869D01*
X89648955Y-75156493D01*
X89566337Y-75001111D01*
X89515473Y-74832641D01*
X89498300Y-74657500D01*
X89498300Y-74342466D01*
X89498373Y-74331965D01*
X89498374Y-74331959D01*
X89498388Y-74329910D01*
X89518004Y-74155026D01*
X89571216Y-73987283D01*
X89655995Y-73833069D01*
X89769114Y-73698260D01*
X89826709Y-73651952D01*
X89836234Y-73641779D01*
X89842709Y-73629035D01*
X89845378Y-73614992D01*
X89844028Y-73600761D01*
X89838768Y-73587469D01*
X89827205Y-73573709D01*
X89814249Y-73562991D01*
X89712424Y-73438140D01*
X89636787Y-73295889D01*
X89590222Y-73141655D01*
X89574500Y-72981315D01*
X89574500Y-72258685D01*
X89574580Y-72247159D01*
X89592539Y-72087054D01*
X89641254Y-71933486D01*
X89718869Y-71792305D01*
X89822428Y-71668888D01*
X89947987Y-71567936D01*
X90090762Y-71493295D01*
X90245317Y-71447807D01*
X90245353Y-71447804D01*
X90245362Y-71447801D01*
X90405761Y-71433203D01*
X90565943Y-71450039D01*
X90565943Y-71450039D01*
G37*
G36*
X93105943Y-71450039D02*
X93105953Y-71450042D01*
X93105990Y-71450046D01*
X93259894Y-71497687D01*
X93401614Y-71574314D01*
X93525751Y-71677009D01*
X93627576Y-71801860D01*
X93703213Y-71944111D01*
X93749778Y-72098345D01*
X93765500Y-72258685D01*
X93765500Y-72981315D01*
X93765420Y-72992841D01*
X93747461Y-73152946D01*
X93698746Y-73306514D01*
X93621131Y-73447695D01*
X93517572Y-73571112D01*
X93513974Y-73574005D01*
X93504450Y-73584177D01*
X93497974Y-73596920D01*
X93495305Y-73610964D01*
X93496654Y-73625195D01*
X93501914Y-73638486D01*
X93513480Y-73652250D01*
X93579820Y-73707131D01*
X93691045Y-73843507D01*
X93773663Y-73998889D01*
X93824527Y-74167359D01*
X93841700Y-74342500D01*
X93841700Y-74657534D01*
X93841627Y-74668035D01*
X93841626Y-74668041D01*
X93841612Y-74670090D01*
X93821996Y-74844974D01*
X93768784Y-75012717D01*
X93684005Y-75166931D01*
X93570886Y-75301740D01*
X93433738Y-75412010D01*
X93277783Y-75493542D01*
X93108962Y-75543228D01*
X93108931Y-75543231D01*
X93108917Y-75543235D01*
X92933708Y-75559180D01*
X92758735Y-75540789D01*
X92758730Y-75540787D01*
X92758688Y-75540783D01*
X92590577Y-75488744D01*
X92435776Y-75405043D01*
X92300180Y-75292869D01*
X92188955Y-75156493D01*
X92106337Y-75001111D01*
X92055473Y-74832641D01*
X92038300Y-74657500D01*
X92038300Y-74342466D01*
X92038373Y-74331965D01*
X92038374Y-74331959D01*
X92038388Y-74329910D01*
X92058004Y-74155026D01*
X92111216Y-73987283D01*
X92195995Y-73833069D01*
X92309114Y-73698260D01*
X92366709Y-73651952D01*
X92376234Y-73641779D01*
X92382709Y-73629035D01*
X92385378Y-73614992D01*
X92384028Y-73600761D01*
X92378768Y-73587469D01*
X92367205Y-73573709D01*
X92354249Y-73562991D01*
X92252424Y-73438140D01*
X92176787Y-73295889D01*
X92130222Y-73141655D01*
X92114500Y-72981315D01*
X92114500Y-72258685D01*
X92114580Y-72247159D01*
X92132539Y-72087054D01*
X92181254Y-71933486D01*
X92258869Y-71792305D01*
X92362428Y-71668888D01*
X92487987Y-71567936D01*
X92630762Y-71493295D01*
X92785317Y-71447807D01*
X92785353Y-71447804D01*
X92785362Y-71447801D01*
X92945761Y-71433203D01*
X93105943Y-71450039D01*
X93105943Y-71450039D01*
G37*
G36*
X95645943Y-71450039D02*
X95645953Y-71450042D01*
X95645990Y-71450046D01*
X95799894Y-71497687D01*
X95941614Y-71574314D01*
X96065751Y-71677009D01*
X96167576Y-71801860D01*
X96243213Y-71944111D01*
X96289778Y-72098345D01*
X96305500Y-72258685D01*
X96305500Y-72981315D01*
X96305420Y-72992841D01*
X96287461Y-73152946D01*
X96238746Y-73306514D01*
X96161131Y-73447695D01*
X96057572Y-73571112D01*
X96053974Y-73574005D01*
X96044450Y-73584177D01*
X96037974Y-73596920D01*
X96035305Y-73610964D01*
X96036654Y-73625195D01*
X96041914Y-73638486D01*
X96053480Y-73652250D01*
X96119820Y-73707131D01*
X96231045Y-73843507D01*
X96313663Y-73998889D01*
X96364527Y-74167359D01*
X96381700Y-74342500D01*
X96381700Y-74657534D01*
X96381627Y-74668035D01*
X96381626Y-74668041D01*
X96381612Y-74670090D01*
X96361996Y-74844974D01*
X96308784Y-75012717D01*
X96224005Y-75166931D01*
X96110886Y-75301740D01*
X95973738Y-75412010D01*
X95817783Y-75493542D01*
X95648962Y-75543228D01*
X95648931Y-75543231D01*
X95648917Y-75543235D01*
X95473708Y-75559180D01*
X95298735Y-75540789D01*
X95298730Y-75540787D01*
X95298688Y-75540783D01*
X95130577Y-75488744D01*
X94975776Y-75405043D01*
X94840180Y-75292869D01*
X94728955Y-75156493D01*
X94646337Y-75001111D01*
X94595473Y-74832641D01*
X94578300Y-74657500D01*
X94578300Y-74342466D01*
X94578373Y-74331965D01*
X94578374Y-74331959D01*
X94578388Y-74329910D01*
X94598004Y-74155026D01*
X94651216Y-73987283D01*
X94735995Y-73833069D01*
X94849114Y-73698260D01*
X94906709Y-73651952D01*
X94916234Y-73641779D01*
X94922709Y-73629035D01*
X94925378Y-73614992D01*
X94924028Y-73600761D01*
X94918768Y-73587469D01*
X94907205Y-73573709D01*
X94894249Y-73562991D01*
X94792424Y-73438140D01*
X94716787Y-73295889D01*
X94670222Y-73141655D01*
X94654500Y-72981315D01*
X94654500Y-72258685D01*
X94654580Y-72247159D01*
X94672539Y-72087054D01*
X94721254Y-71933486D01*
X94798869Y-71792305D01*
X94902428Y-71668888D01*
X95027987Y-71567936D01*
X95170762Y-71493295D01*
X95325317Y-71447807D01*
X95325353Y-71447804D01*
X95325362Y-71447801D01*
X95485761Y-71433203D01*
X95645943Y-71450039D01*
X95645943Y-71450039D01*
G37*
G36*
X98185943Y-71450039D02*
X98185953Y-71450042D01*
X98185990Y-71450046D01*
X98339894Y-71497687D01*
X98481614Y-71574314D01*
X98605751Y-71677009D01*
X98707576Y-71801860D01*
X98783213Y-71944111D01*
X98829778Y-72098345D01*
X98845500Y-72258685D01*
X98845500Y-72981315D01*
X98845420Y-72992841D01*
X98827461Y-73152946D01*
X98778746Y-73306514D01*
X98701131Y-73447695D01*
X98597572Y-73571112D01*
X98593974Y-73574005D01*
X98584450Y-73584177D01*
X98577974Y-73596920D01*
X98575305Y-73610964D01*
X98576654Y-73625195D01*
X98581914Y-73638486D01*
X98593480Y-73652250D01*
X98659820Y-73707131D01*
X98771045Y-73843507D01*
X98853663Y-73998889D01*
X98904527Y-74167359D01*
X98921700Y-74342500D01*
X98921700Y-74657534D01*
X98921627Y-74668035D01*
X98921626Y-74668041D01*
X98921612Y-74670090D01*
X98901996Y-74844974D01*
X98848784Y-75012717D01*
X98764005Y-75166931D01*
X98650886Y-75301740D01*
X98513738Y-75412010D01*
X98357783Y-75493542D01*
X98188962Y-75543228D01*
X98188931Y-75543231D01*
X98188917Y-75543235D01*
X98013708Y-75559180D01*
X97838735Y-75540789D01*
X97838730Y-75540787D01*
X97838688Y-75540783D01*
X97670577Y-75488744D01*
X97515776Y-75405043D01*
X97380180Y-75292869D01*
X97268955Y-75156493D01*
X97186337Y-75001111D01*
X97135473Y-74832641D01*
X97118300Y-74657500D01*
X97118300Y-74342466D01*
X97118373Y-74331965D01*
X97118374Y-74331959D01*
X97118388Y-74329910D01*
X97138004Y-74155026D01*
X97191216Y-73987283D01*
X97275995Y-73833069D01*
X97389114Y-73698260D01*
X97446709Y-73651952D01*
X97456234Y-73641779D01*
X97462709Y-73629035D01*
X97465378Y-73614992D01*
X97464028Y-73600761D01*
X97458768Y-73587469D01*
X97447205Y-73573709D01*
X97434249Y-73562991D01*
X97332424Y-73438140D01*
X97256787Y-73295889D01*
X97210222Y-73141655D01*
X97194500Y-72981315D01*
X97194500Y-72258685D01*
X97194580Y-72247159D01*
X97212539Y-72087054D01*
X97261254Y-71933486D01*
X97338869Y-71792305D01*
X97442428Y-71668888D01*
X97567987Y-71567936D01*
X97710762Y-71493295D01*
X97865317Y-71447807D01*
X97865353Y-71447804D01*
X97865362Y-71447801D01*
X98025761Y-71433203D01*
X98185943Y-71450039D01*
X98185943Y-71450039D01*
G37*
G36*
X100725943Y-71450039D02*
X100725953Y-71450042D01*
X100725990Y-71450046D01*
X100879894Y-71497687D01*
X101021614Y-71574314D01*
X101145751Y-71677009D01*
X101247576Y-71801860D01*
X101323213Y-71944111D01*
X101369778Y-72098345D01*
X101385500Y-72258685D01*
X101385500Y-72981315D01*
X101385420Y-72992841D01*
X101367461Y-73152946D01*
X101318746Y-73306514D01*
X101241131Y-73447695D01*
X101137572Y-73571112D01*
X101133974Y-73574005D01*
X101124450Y-73584177D01*
X101117974Y-73596920D01*
X101115305Y-73610964D01*
X101116654Y-73625195D01*
X101121914Y-73638486D01*
X101133480Y-73652250D01*
X101199820Y-73707131D01*
X101311045Y-73843507D01*
X101393663Y-73998889D01*
X101444527Y-74167359D01*
X101461700Y-74342500D01*
X101461700Y-74657534D01*
X101461627Y-74668035D01*
X101461626Y-74668041D01*
X101461612Y-74670090D01*
X101441996Y-74844974D01*
X101388784Y-75012717D01*
X101304005Y-75166931D01*
X101190886Y-75301740D01*
X101053738Y-75412010D01*
X100897783Y-75493542D01*
X100728962Y-75543228D01*
X100728931Y-75543231D01*
X100728917Y-75543235D01*
X100553708Y-75559180D01*
X100378735Y-75540789D01*
X100378730Y-75540787D01*
X100378688Y-75540783D01*
X100210577Y-75488744D01*
X100055776Y-75405043D01*
X99920180Y-75292869D01*
X99808955Y-75156493D01*
X99726337Y-75001111D01*
X99675473Y-74832641D01*
X99658300Y-74657500D01*
X99658300Y-74342466D01*
X99658373Y-74331965D01*
X99658374Y-74331959D01*
X99658388Y-74329910D01*
X99678004Y-74155026D01*
X99731216Y-73987283D01*
X99815995Y-73833069D01*
X99929114Y-73698260D01*
X99986709Y-73651952D01*
X99996234Y-73641779D01*
X100002709Y-73629035D01*
X100005378Y-73614992D01*
X100004028Y-73600761D01*
X99998768Y-73587469D01*
X99987205Y-73573709D01*
X99974249Y-73562991D01*
X99872424Y-73438140D01*
X99796787Y-73295889D01*
X99750222Y-73141655D01*
X99734500Y-72981315D01*
X99734500Y-72258685D01*
X99734580Y-72247159D01*
X99752539Y-72087054D01*
X99801254Y-71933486D01*
X99878869Y-71792305D01*
X99982428Y-71668888D01*
X100107987Y-71567936D01*
X100250762Y-71493295D01*
X100405317Y-71447807D01*
X100405353Y-71447804D01*
X100405362Y-71447801D01*
X100565761Y-71433203D01*
X100725943Y-71450039D01*
X100725943Y-71450039D01*
G37*
G36*
X85485943Y-71450039D02*
X85485953Y-71450042D01*
X85485990Y-71450046D01*
X85639894Y-71497687D01*
X85781614Y-71574314D01*
X85905751Y-71677009D01*
X86007576Y-71801860D01*
X86083213Y-71944111D01*
X86129778Y-72098345D01*
X86145500Y-72258685D01*
X86145500Y-72981315D01*
X86145420Y-72992841D01*
X86127461Y-73152946D01*
X86078746Y-73306514D01*
X86001131Y-73447695D01*
X85897572Y-73571112D01*
X85893974Y-73574005D01*
X85884450Y-73584177D01*
X85877974Y-73596920D01*
X85875305Y-73610964D01*
X85876654Y-73625195D01*
X85881914Y-73638486D01*
X85893480Y-73652250D01*
X85959820Y-73707131D01*
X86071045Y-73843507D01*
X86153663Y-73998889D01*
X86204527Y-74167359D01*
X86221700Y-74342500D01*
X86221700Y-74657534D01*
X86221627Y-74668035D01*
X86221626Y-74668041D01*
X86221612Y-74670090D01*
X86201996Y-74844974D01*
X86148784Y-75012717D01*
X86064005Y-75166931D01*
X85950886Y-75301740D01*
X85813738Y-75412010D01*
X85657783Y-75493542D01*
X85488962Y-75543228D01*
X85488931Y-75543231D01*
X85488917Y-75543235D01*
X85313708Y-75559180D01*
X85138735Y-75540789D01*
X85138730Y-75540787D01*
X85138688Y-75540783D01*
X84970577Y-75488744D01*
X84815776Y-75405043D01*
X84680180Y-75292869D01*
X84568955Y-75156493D01*
X84486337Y-75001111D01*
X84435473Y-74832641D01*
X84418300Y-74657500D01*
X84418300Y-74342466D01*
X84418373Y-74331965D01*
X84418374Y-74331959D01*
X84418388Y-74329910D01*
X84438004Y-74155026D01*
X84491216Y-73987283D01*
X84575995Y-73833069D01*
X84689114Y-73698260D01*
X84746709Y-73651952D01*
X84756234Y-73641779D01*
X84762709Y-73629035D01*
X84765378Y-73614992D01*
X84764028Y-73600761D01*
X84758768Y-73587469D01*
X84747205Y-73573709D01*
X84734249Y-73562991D01*
X84632424Y-73438140D01*
X84556787Y-73295889D01*
X84510222Y-73141655D01*
X84494500Y-72981315D01*
X84494500Y-72258685D01*
X84494580Y-72247159D01*
X84512539Y-72087054D01*
X84561254Y-71933486D01*
X84638869Y-71792305D01*
X84742428Y-71668888D01*
X84867987Y-71567936D01*
X85010762Y-71493295D01*
X85165317Y-71447807D01*
X85165353Y-71447804D01*
X85165362Y-71447801D01*
X85325761Y-71433203D01*
X85485943Y-71450039D01*
X85485943Y-71450039D01*
G37*
G36*
X65165943Y-71450039D02*
X65165953Y-71450042D01*
X65165990Y-71450046D01*
X65319894Y-71497687D01*
X65461614Y-71574314D01*
X65585751Y-71677009D01*
X65687576Y-71801860D01*
X65763213Y-71944111D01*
X65809778Y-72098345D01*
X65825500Y-72258685D01*
X65825500Y-72981315D01*
X65825420Y-72992841D01*
X65807461Y-73152946D01*
X65758746Y-73306514D01*
X65723046Y-73371451D01*
X65718303Y-73383998D01*
X65717173Y-73398248D01*
X65720057Y-73412249D01*
X65726728Y-73424892D01*
X65736657Y-73435176D01*
X65749057Y-73442286D01*
X65767875Y-73445900D01*
X65901700Y-73445900D01*
X65901700Y-75554100D01*
X64098300Y-75554100D01*
X64098300Y-73445900D01*
X64232148Y-73445900D01*
X64246301Y-73443889D01*
X64259332Y-73438014D01*
X64270212Y-73428742D01*
X64278077Y-73416806D01*
X64282306Y-73403151D01*
X64282563Y-73388858D01*
X64277213Y-73371918D01*
X64236787Y-73295889D01*
X64190222Y-73141655D01*
X64174500Y-72981315D01*
X64174500Y-72258685D01*
X64174580Y-72247159D01*
X64192539Y-72087054D01*
X64241254Y-71933486D01*
X64318869Y-71792305D01*
X64422428Y-71668888D01*
X64547987Y-71567936D01*
X64690762Y-71493295D01*
X64845317Y-71447807D01*
X64845353Y-71447804D01*
X64845362Y-71447801D01*
X65005761Y-71433203D01*
X65165943Y-71450039D01*
X65165943Y-71450039D01*
G37*
G36*
X114221265Y-73612348D02*
X114221270Y-73612350D01*
X114221312Y-73612354D01*
X114389423Y-73664393D01*
X114544224Y-73748094D01*
X114679820Y-73860268D01*
X114791045Y-73996644D01*
X114873663Y-74152026D01*
X114924527Y-74320496D01*
X114941700Y-74495637D01*
X114941700Y-74504397D01*
X114941627Y-74514898D01*
X114941626Y-74514904D01*
X114941612Y-74516953D01*
X114921996Y-74691837D01*
X114868784Y-74859580D01*
X114784005Y-75013794D01*
X114670886Y-75148603D01*
X114533738Y-75258873D01*
X114377783Y-75340405D01*
X114208962Y-75390091D01*
X114208931Y-75390094D01*
X114208917Y-75390098D01*
X114033708Y-75406043D01*
X113858735Y-75387652D01*
X113858730Y-75387650D01*
X113858688Y-75387646D01*
X113690577Y-75335607D01*
X113535776Y-75251906D01*
X113400180Y-75139732D01*
X113288955Y-75003356D01*
X113206337Y-74847974D01*
X113155473Y-74679504D01*
X113138300Y-74504363D01*
X113138300Y-74495603D01*
X113138373Y-74485102D01*
X113138374Y-74485096D01*
X113138388Y-74483047D01*
X113158004Y-74308163D01*
X113211216Y-74140420D01*
X113295995Y-73986206D01*
X113409114Y-73851397D01*
X113546262Y-73741127D01*
X113702217Y-73659595D01*
X113871038Y-73609909D01*
X113871069Y-73609906D01*
X113871083Y-73609902D01*
X114046292Y-73593957D01*
X114221265Y-73612348D01*
X114221265Y-73612348D01*
G37*
G36*
X116761265Y-73612348D02*
X116761270Y-73612350D01*
X116761312Y-73612354D01*
X116929423Y-73664393D01*
X117084224Y-73748094D01*
X117219820Y-73860268D01*
X117331045Y-73996644D01*
X117413663Y-74152026D01*
X117464527Y-74320496D01*
X117481700Y-74495637D01*
X117481700Y-74504397D01*
X117481627Y-74514898D01*
X117481626Y-74514904D01*
X117481612Y-74516953D01*
X117461996Y-74691837D01*
X117408784Y-74859580D01*
X117324005Y-75013794D01*
X117210886Y-75148603D01*
X117073738Y-75258873D01*
X116917783Y-75340405D01*
X116748962Y-75390091D01*
X116748931Y-75390094D01*
X116748917Y-75390098D01*
X116573708Y-75406043D01*
X116398735Y-75387652D01*
X116398730Y-75387650D01*
X116398688Y-75387646D01*
X116230577Y-75335607D01*
X116075776Y-75251906D01*
X115940180Y-75139732D01*
X115828955Y-75003356D01*
X115746337Y-74847974D01*
X115695473Y-74679504D01*
X115678300Y-74504363D01*
X115678300Y-74495603D01*
X115678373Y-74485102D01*
X115678374Y-74485096D01*
X115678388Y-74483047D01*
X115698004Y-74308163D01*
X115751216Y-74140420D01*
X115835995Y-73986206D01*
X115949114Y-73851397D01*
X116086262Y-73741127D01*
X116242217Y-73659595D01*
X116411038Y-73609909D01*
X116411069Y-73609906D01*
X116411083Y-73609902D01*
X116586292Y-73593957D01*
X116761265Y-73612348D01*
X116761265Y-73612348D01*
G37*
G36*
X119301265Y-73612348D02*
X119301270Y-73612350D01*
X119301312Y-73612354D01*
X119469423Y-73664393D01*
X119624224Y-73748094D01*
X119759820Y-73860268D01*
X119871045Y-73996644D01*
X119953663Y-74152026D01*
X120004527Y-74320496D01*
X120021700Y-74495637D01*
X120021700Y-74504397D01*
X120021627Y-74514898D01*
X120021626Y-74514904D01*
X120021612Y-74516953D01*
X120001996Y-74691837D01*
X119948784Y-74859580D01*
X119864005Y-75013794D01*
X119750886Y-75148603D01*
X119613738Y-75258873D01*
X119457783Y-75340405D01*
X119288962Y-75390091D01*
X119288931Y-75390094D01*
X119288917Y-75390098D01*
X119113708Y-75406043D01*
X118938735Y-75387652D01*
X118938730Y-75387650D01*
X118938688Y-75387646D01*
X118770577Y-75335607D01*
X118615776Y-75251906D01*
X118480180Y-75139732D01*
X118368955Y-75003356D01*
X118286337Y-74847974D01*
X118235473Y-74679504D01*
X118218300Y-74504363D01*
X118218300Y-74495603D01*
X118218373Y-74485102D01*
X118218374Y-74485096D01*
X118218388Y-74483047D01*
X118238004Y-74308163D01*
X118291216Y-74140420D01*
X118375995Y-73986206D01*
X118489114Y-73851397D01*
X118626262Y-73741127D01*
X118782217Y-73659595D01*
X118951038Y-73609909D01*
X118951069Y-73609906D01*
X118951083Y-73609902D01*
X119126292Y-73593957D01*
X119301265Y-73612348D01*
X119301265Y-73612348D01*
G37*
G36*
X112401700Y-75401700D02*
X110598300Y-75401700D01*
X110598300Y-73598300D01*
X112401700Y-73598300D01*
X112401700Y-75401700D01*
X112401700Y-75401700D01*
G37*
G36*
X144893100Y-74348100D02*
X144066900Y-74348100D01*
X144066900Y-73071900D01*
X144893100Y-73071900D01*
X144893100Y-74348100D01*
X144893100Y-74348100D01*
G37*
G36*
X111681265Y-71072348D02*
X111681270Y-71072350D01*
X111681312Y-71072354D01*
X111849423Y-71124393D01*
X112004224Y-71208094D01*
X112139820Y-71320268D01*
X112251045Y-71456644D01*
X112333663Y-71612026D01*
X112384527Y-71780496D01*
X112401700Y-71955637D01*
X112401700Y-71964397D01*
X112401627Y-71974898D01*
X112401626Y-71974904D01*
X112401612Y-71976953D01*
X112381996Y-72151837D01*
X112328784Y-72319580D01*
X112244005Y-72473794D01*
X112130886Y-72608603D01*
X111993738Y-72718873D01*
X111837783Y-72800405D01*
X111668962Y-72850091D01*
X111668931Y-72850094D01*
X111668917Y-72850098D01*
X111493708Y-72866043D01*
X111318735Y-72847652D01*
X111318730Y-72847650D01*
X111318688Y-72847646D01*
X111150577Y-72795607D01*
X110995776Y-72711906D01*
X110860180Y-72599732D01*
X110748955Y-72463356D01*
X110666337Y-72307974D01*
X110615473Y-72139504D01*
X110598300Y-71964363D01*
X110598300Y-71955603D01*
X110598373Y-71945102D01*
X110598374Y-71945096D01*
X110598388Y-71943047D01*
X110618004Y-71768163D01*
X110671216Y-71600420D01*
X110755995Y-71446206D01*
X110869114Y-71311397D01*
X111006262Y-71201127D01*
X111162217Y-71119595D01*
X111331038Y-71069909D01*
X111331069Y-71069906D01*
X111331083Y-71069902D01*
X111506292Y-71053957D01*
X111681265Y-71072348D01*
X111681265Y-71072348D01*
G37*
G36*
X119301265Y-71072348D02*
X119301270Y-71072350D01*
X119301312Y-71072354D01*
X119469423Y-71124393D01*
X119624224Y-71208094D01*
X119759820Y-71320268D01*
X119871045Y-71456644D01*
X119953663Y-71612026D01*
X120004527Y-71780496D01*
X120021700Y-71955637D01*
X120021700Y-71964397D01*
X120021627Y-71974898D01*
X120021626Y-71974904D01*
X120021612Y-71976953D01*
X120001996Y-72151837D01*
X119948784Y-72319580D01*
X119864005Y-72473794D01*
X119750886Y-72608603D01*
X119613738Y-72718873D01*
X119457783Y-72800405D01*
X119288962Y-72850091D01*
X119288931Y-72850094D01*
X119288917Y-72850098D01*
X119113708Y-72866043D01*
X118938735Y-72847652D01*
X118938730Y-72847650D01*
X118938688Y-72847646D01*
X118770577Y-72795607D01*
X118615776Y-72711906D01*
X118480180Y-72599732D01*
X118368955Y-72463356D01*
X118286337Y-72307974D01*
X118235473Y-72139504D01*
X118218300Y-71964363D01*
X118218300Y-71955603D01*
X118218373Y-71945102D01*
X118218374Y-71945096D01*
X118218388Y-71943047D01*
X118238004Y-71768163D01*
X118291216Y-71600420D01*
X118375995Y-71446206D01*
X118489114Y-71311397D01*
X118626262Y-71201127D01*
X118782217Y-71119595D01*
X118951038Y-71069909D01*
X118951069Y-71069906D01*
X118951083Y-71069902D01*
X119126292Y-71053957D01*
X119301265Y-71072348D01*
X119301265Y-71072348D01*
G37*
G36*
X116761265Y-71072348D02*
X116761270Y-71072350D01*
X116761312Y-71072354D01*
X116929423Y-71124393D01*
X117084224Y-71208094D01*
X117219820Y-71320268D01*
X117331045Y-71456644D01*
X117413663Y-71612026D01*
X117464527Y-71780496D01*
X117481700Y-71955637D01*
X117481700Y-71964397D01*
X117481627Y-71974898D01*
X117481626Y-71974904D01*
X117481612Y-71976953D01*
X117461996Y-72151837D01*
X117408784Y-72319580D01*
X117324005Y-72473794D01*
X117210886Y-72608603D01*
X117073738Y-72718873D01*
X116917783Y-72800405D01*
X116748962Y-72850091D01*
X116748931Y-72850094D01*
X116748917Y-72850098D01*
X116573708Y-72866043D01*
X116398735Y-72847652D01*
X116398730Y-72847650D01*
X116398688Y-72847646D01*
X116230577Y-72795607D01*
X116075776Y-72711906D01*
X115940180Y-72599732D01*
X115828955Y-72463356D01*
X115746337Y-72307974D01*
X115695473Y-72139504D01*
X115678300Y-71964363D01*
X115678300Y-71955603D01*
X115678373Y-71945102D01*
X115678374Y-71945096D01*
X115678388Y-71943047D01*
X115698004Y-71768163D01*
X115751216Y-71600420D01*
X115835995Y-71446206D01*
X115949114Y-71311397D01*
X116086262Y-71201127D01*
X116242217Y-71119595D01*
X116411038Y-71069909D01*
X116411069Y-71069906D01*
X116411083Y-71069902D01*
X116586292Y-71053957D01*
X116761265Y-71072348D01*
X116761265Y-71072348D01*
G37*
G36*
X114221265Y-71072348D02*
X114221270Y-71072350D01*
X114221312Y-71072354D01*
X114389423Y-71124393D01*
X114544224Y-71208094D01*
X114679820Y-71320268D01*
X114791045Y-71456644D01*
X114873663Y-71612026D01*
X114924527Y-71780496D01*
X114941700Y-71955637D01*
X114941700Y-71964397D01*
X114941627Y-71974898D01*
X114941626Y-71974904D01*
X114941612Y-71976953D01*
X114921996Y-72151837D01*
X114868784Y-72319580D01*
X114784005Y-72473794D01*
X114670886Y-72608603D01*
X114533738Y-72718873D01*
X114377783Y-72800405D01*
X114208962Y-72850091D01*
X114208931Y-72850094D01*
X114208917Y-72850098D01*
X114033708Y-72866043D01*
X113858735Y-72847652D01*
X113858730Y-72847650D01*
X113858688Y-72847646D01*
X113690577Y-72795607D01*
X113535776Y-72711906D01*
X113400180Y-72599732D01*
X113288955Y-72463356D01*
X113206337Y-72307974D01*
X113155473Y-72139504D01*
X113138300Y-71964363D01*
X113138300Y-71955603D01*
X113138373Y-71945102D01*
X113138374Y-71945096D01*
X113138388Y-71943047D01*
X113158004Y-71768163D01*
X113211216Y-71600420D01*
X113295995Y-71446206D01*
X113409114Y-71311397D01*
X113546262Y-71201127D01*
X113702217Y-71119595D01*
X113871038Y-71069909D01*
X113871069Y-71069906D01*
X113871083Y-71069902D01*
X114046292Y-71053957D01*
X114221265Y-71072348D01*
X114221265Y-71072348D01*
G37*
G36*
X141853100Y-72768100D02*
X141176900Y-72768100D01*
X141176900Y-71191900D01*
X141853100Y-71191900D01*
X141853100Y-72768100D01*
X141853100Y-72768100D01*
G37*
G36*
X143123100Y-72768100D02*
X142446900Y-72768100D01*
X142446900Y-71191900D01*
X143123100Y-71191900D01*
X143123100Y-72768100D01*
X143123100Y-72768100D01*
G37*
G36*
X134233100Y-72768100D02*
X133556900Y-72768100D01*
X133556900Y-71191900D01*
X134233100Y-71191900D01*
X134233100Y-72768100D01*
X134233100Y-72768100D01*
G37*
G36*
X135503100Y-72768100D02*
X134826900Y-72768100D01*
X134826900Y-71191900D01*
X135503100Y-71191900D01*
X135503100Y-72768100D01*
X135503100Y-72768100D01*
G37*
G36*
X138043100Y-72768100D02*
X137366900Y-72768100D01*
X137366900Y-71191900D01*
X138043100Y-71191900D01*
X138043100Y-72768100D01*
X138043100Y-72768100D01*
G37*
G36*
X139313100Y-72768100D02*
X138636900Y-72768100D01*
X138636900Y-71191900D01*
X139313100Y-71191900D01*
X139313100Y-72768100D01*
X139313100Y-72768100D01*
G37*
G36*
X140583100Y-72768100D02*
X139906900Y-72768100D01*
X139906900Y-71191900D01*
X140583100Y-71191900D01*
X140583100Y-72768100D01*
X140583100Y-72768100D01*
G37*
G36*
X136773100Y-72768100D02*
X136096900Y-72768100D01*
X136096900Y-71191900D01*
X136773100Y-71191900D01*
X136773100Y-72768100D01*
X136773100Y-72768100D01*
G37*
G36*
X149261557Y-58462922D02*
X149557026Y-58523574D01*
X149835101Y-58640466D01*
X150085168Y-58809139D01*
X150297712Y-59023171D01*
X150464634Y-59274409D01*
X150579579Y-59553286D01*
X150638098Y-59848832D01*
X150638098Y-59848838D01*
X150638166Y-59849182D01*
X150633355Y-60193708D01*
X150633278Y-60194046D01*
X150633278Y-60194055D01*
X150566529Y-60487852D01*
X150443844Y-60763408D01*
X150269969Y-61009890D01*
X150051532Y-61217906D01*
X149796852Y-61379531D01*
X149515625Y-61488611D01*
X149218575Y-61540989D01*
X148917002Y-61534672D01*
X148622399Y-61469899D01*
X148345989Y-61349139D01*
X148098304Y-61176993D01*
X147888768Y-60960013D01*
X147725368Y-60706466D01*
X147614326Y-60426005D01*
X147559876Y-60129330D01*
X147564087Y-59827721D01*
X147626802Y-59532673D01*
X147745628Y-59255429D01*
X147916045Y-59006543D01*
X148131555Y-58795499D01*
X148383956Y-58630333D01*
X148663630Y-58517337D01*
X148959921Y-58460817D01*
X149261557Y-58462922D01*
X149261557Y-58462922D01*
G37*
G36*
X95661265Y-54459211D02*
X95661270Y-54459213D01*
X95661312Y-54459217D01*
X95829423Y-54511256D01*
X95984224Y-54594957D01*
X96119820Y-54707131D01*
X96231045Y-54843507D01*
X96313663Y-54998889D01*
X96364527Y-55167359D01*
X96381700Y-55342500D01*
X96381700Y-55657534D01*
X96381627Y-55668035D01*
X96381626Y-55668041D01*
X96381612Y-55670090D01*
X96361996Y-55844974D01*
X96308784Y-56012717D01*
X96224005Y-56166931D01*
X96110886Y-56301740D01*
X96053291Y-56348048D01*
X96043766Y-56358221D01*
X96037291Y-56370965D01*
X96034622Y-56385008D01*
X96035972Y-56399239D01*
X96041232Y-56412531D01*
X96052795Y-56426291D01*
X96065751Y-56437009D01*
X96167576Y-56561860D01*
X96243213Y-56704111D01*
X96289778Y-56858345D01*
X96305500Y-57018685D01*
X96305500Y-57741315D01*
X96305420Y-57752841D01*
X96287461Y-57912946D01*
X96238746Y-58066514D01*
X96161131Y-58207695D01*
X96057572Y-58331112D01*
X95932013Y-58432064D01*
X95789238Y-58506705D01*
X95634683Y-58552193D01*
X95634647Y-58552196D01*
X95634638Y-58552199D01*
X95474239Y-58566797D01*
X95314057Y-58549961D01*
X95314047Y-58549958D01*
X95314010Y-58549954D01*
X95160106Y-58502313D01*
X95018386Y-58425686D01*
X94894249Y-58322991D01*
X94792424Y-58198140D01*
X94716787Y-58055889D01*
X94670222Y-57901655D01*
X94654500Y-57741315D01*
X94654500Y-57018685D01*
X94654580Y-57007159D01*
X94672539Y-56847054D01*
X94721254Y-56693486D01*
X94798869Y-56552305D01*
X94902428Y-56428888D01*
X94906026Y-56425995D01*
X94915550Y-56415823D01*
X94922026Y-56403080D01*
X94924695Y-56389036D01*
X94923346Y-56374805D01*
X94918086Y-56361514D01*
X94906520Y-56347750D01*
X94840180Y-56292869D01*
X94728955Y-56156493D01*
X94646337Y-56001111D01*
X94595473Y-55832641D01*
X94578300Y-55657500D01*
X94578300Y-55342466D01*
X94578373Y-55331965D01*
X94578374Y-55331959D01*
X94578388Y-55329910D01*
X94598004Y-55155026D01*
X94651216Y-54987283D01*
X94735995Y-54833069D01*
X94849114Y-54698260D01*
X94986262Y-54587990D01*
X95142217Y-54506458D01*
X95311038Y-54456772D01*
X95311069Y-54456769D01*
X95311083Y-54456765D01*
X95486292Y-54440820D01*
X95661265Y-54459211D01*
X95661265Y-54459211D01*
G37*
G36*
X67721265Y-54459211D02*
X67721270Y-54459213D01*
X67721312Y-54459217D01*
X67889423Y-54511256D01*
X68044224Y-54594957D01*
X68179820Y-54707131D01*
X68291045Y-54843507D01*
X68373663Y-54998889D01*
X68424527Y-55167359D01*
X68441700Y-55342500D01*
X68441700Y-55657534D01*
X68441627Y-55668035D01*
X68441626Y-55668041D01*
X68441612Y-55670090D01*
X68421996Y-55844974D01*
X68368784Y-56012717D01*
X68284005Y-56166931D01*
X68170886Y-56301740D01*
X68113291Y-56348048D01*
X68103766Y-56358221D01*
X68097291Y-56370965D01*
X68094622Y-56385008D01*
X68095972Y-56399239D01*
X68101232Y-56412531D01*
X68112795Y-56426291D01*
X68125751Y-56437009D01*
X68227576Y-56561860D01*
X68303213Y-56704111D01*
X68349778Y-56858345D01*
X68365500Y-57018685D01*
X68365500Y-57741315D01*
X68365420Y-57752841D01*
X68347461Y-57912946D01*
X68298746Y-58066514D01*
X68221131Y-58207695D01*
X68117572Y-58331112D01*
X67992013Y-58432064D01*
X67849238Y-58506705D01*
X67694683Y-58552193D01*
X67694647Y-58552196D01*
X67694638Y-58552199D01*
X67534239Y-58566797D01*
X67374057Y-58549961D01*
X67374047Y-58549958D01*
X67374010Y-58549954D01*
X67220106Y-58502313D01*
X67078386Y-58425686D01*
X66954249Y-58322991D01*
X66852424Y-58198140D01*
X66776787Y-58055889D01*
X66730222Y-57901655D01*
X66714500Y-57741315D01*
X66714500Y-57018685D01*
X66714580Y-57007159D01*
X66732539Y-56847054D01*
X66781254Y-56693486D01*
X66858869Y-56552305D01*
X66962428Y-56428888D01*
X66966026Y-56425995D01*
X66975550Y-56415823D01*
X66982026Y-56403080D01*
X66984695Y-56389036D01*
X66983346Y-56374805D01*
X66978086Y-56361514D01*
X66966520Y-56347750D01*
X66900180Y-56292869D01*
X66788955Y-56156493D01*
X66706337Y-56001111D01*
X66655473Y-55832641D01*
X66638300Y-55657500D01*
X66638300Y-55342466D01*
X66638373Y-55331965D01*
X66638374Y-55331959D01*
X66638388Y-55329910D01*
X66658004Y-55155026D01*
X66711216Y-54987283D01*
X66795995Y-54833069D01*
X66909114Y-54698260D01*
X67046262Y-54587990D01*
X67202217Y-54506458D01*
X67371038Y-54456772D01*
X67371069Y-54456769D01*
X67371083Y-54456765D01*
X67546292Y-54440820D01*
X67721265Y-54459211D01*
X67721265Y-54459211D01*
G37*
G36*
X70261265Y-54459211D02*
X70261270Y-54459213D01*
X70261312Y-54459217D01*
X70429423Y-54511256D01*
X70584224Y-54594957D01*
X70719820Y-54707131D01*
X70831045Y-54843507D01*
X70913663Y-54998889D01*
X70964527Y-55167359D01*
X70981700Y-55342500D01*
X70981700Y-55657534D01*
X70981627Y-55668035D01*
X70981626Y-55668041D01*
X70981612Y-55670090D01*
X70961996Y-55844974D01*
X70908784Y-56012717D01*
X70824005Y-56166931D01*
X70710886Y-56301740D01*
X70653291Y-56348048D01*
X70643766Y-56358221D01*
X70637291Y-56370965D01*
X70634622Y-56385008D01*
X70635972Y-56399239D01*
X70641232Y-56412531D01*
X70652795Y-56426291D01*
X70665751Y-56437009D01*
X70767576Y-56561860D01*
X70843213Y-56704111D01*
X70889778Y-56858345D01*
X70905500Y-57018685D01*
X70905500Y-57741315D01*
X70905420Y-57752841D01*
X70887461Y-57912946D01*
X70838746Y-58066514D01*
X70761131Y-58207695D01*
X70657572Y-58331112D01*
X70532013Y-58432064D01*
X70389238Y-58506705D01*
X70234683Y-58552193D01*
X70234647Y-58552196D01*
X70234638Y-58552199D01*
X70074239Y-58566797D01*
X69914057Y-58549961D01*
X69914047Y-58549958D01*
X69914010Y-58549954D01*
X69760106Y-58502313D01*
X69618386Y-58425686D01*
X69494249Y-58322991D01*
X69392424Y-58198140D01*
X69316787Y-58055889D01*
X69270222Y-57901655D01*
X69254500Y-57741315D01*
X69254500Y-57018685D01*
X69254580Y-57007159D01*
X69272539Y-56847054D01*
X69321254Y-56693486D01*
X69398869Y-56552305D01*
X69502428Y-56428888D01*
X69506026Y-56425995D01*
X69515550Y-56415823D01*
X69522026Y-56403080D01*
X69524695Y-56389036D01*
X69523346Y-56374805D01*
X69518086Y-56361514D01*
X69506520Y-56347750D01*
X69440180Y-56292869D01*
X69328955Y-56156493D01*
X69246337Y-56001111D01*
X69195473Y-55832641D01*
X69178300Y-55657500D01*
X69178300Y-55342466D01*
X69178373Y-55331965D01*
X69178374Y-55331959D01*
X69178388Y-55329910D01*
X69198004Y-55155026D01*
X69251216Y-54987283D01*
X69335995Y-54833069D01*
X69449114Y-54698260D01*
X69586262Y-54587990D01*
X69742217Y-54506458D01*
X69911038Y-54456772D01*
X69911069Y-54456769D01*
X69911083Y-54456765D01*
X70086292Y-54440820D01*
X70261265Y-54459211D01*
X70261265Y-54459211D01*
G37*
G36*
X100741265Y-54459211D02*
X100741270Y-54459213D01*
X100741312Y-54459217D01*
X100909423Y-54511256D01*
X101064224Y-54594957D01*
X101199820Y-54707131D01*
X101311045Y-54843507D01*
X101393663Y-54998889D01*
X101444527Y-55167359D01*
X101461700Y-55342500D01*
X101461700Y-55657534D01*
X101461627Y-55668035D01*
X101461626Y-55668041D01*
X101461612Y-55670090D01*
X101441996Y-55844974D01*
X101388784Y-56012717D01*
X101304005Y-56166931D01*
X101190886Y-56301740D01*
X101133291Y-56348048D01*
X101123766Y-56358221D01*
X101117291Y-56370965D01*
X101114622Y-56385008D01*
X101115972Y-56399239D01*
X101121232Y-56412531D01*
X101132795Y-56426291D01*
X101145751Y-56437009D01*
X101247576Y-56561860D01*
X101323213Y-56704111D01*
X101369778Y-56858345D01*
X101385500Y-57018685D01*
X101385500Y-57741315D01*
X101385420Y-57752841D01*
X101367461Y-57912946D01*
X101318746Y-58066514D01*
X101241131Y-58207695D01*
X101137572Y-58331112D01*
X101012013Y-58432064D01*
X100869238Y-58506705D01*
X100714683Y-58552193D01*
X100714647Y-58552196D01*
X100714638Y-58552199D01*
X100554239Y-58566797D01*
X100394057Y-58549961D01*
X100394047Y-58549958D01*
X100394010Y-58549954D01*
X100240106Y-58502313D01*
X100098386Y-58425686D01*
X99974249Y-58322991D01*
X99872424Y-58198140D01*
X99796787Y-58055889D01*
X99750222Y-57901655D01*
X99734500Y-57741315D01*
X99734500Y-57018685D01*
X99734580Y-57007159D01*
X99752539Y-56847054D01*
X99801254Y-56693486D01*
X99878869Y-56552305D01*
X99982428Y-56428888D01*
X99986026Y-56425995D01*
X99995550Y-56415823D01*
X100002026Y-56403080D01*
X100004695Y-56389036D01*
X100003346Y-56374805D01*
X99998086Y-56361514D01*
X99986520Y-56347750D01*
X99920180Y-56292869D01*
X99808955Y-56156493D01*
X99726337Y-56001111D01*
X99675473Y-55832641D01*
X99658300Y-55657500D01*
X99658300Y-55342466D01*
X99658373Y-55331965D01*
X99658374Y-55331959D01*
X99658388Y-55329910D01*
X99678004Y-55155026D01*
X99731216Y-54987283D01*
X99815995Y-54833069D01*
X99929114Y-54698260D01*
X100066262Y-54587990D01*
X100222217Y-54506458D01*
X100391038Y-54456772D01*
X100391069Y-54456769D01*
X100391083Y-54456765D01*
X100566292Y-54440820D01*
X100741265Y-54459211D01*
X100741265Y-54459211D01*
G37*
G36*
X98201265Y-54459211D02*
X98201270Y-54459213D01*
X98201312Y-54459217D01*
X98369423Y-54511256D01*
X98524224Y-54594957D01*
X98659820Y-54707131D01*
X98771045Y-54843507D01*
X98853663Y-54998889D01*
X98904527Y-55167359D01*
X98921700Y-55342500D01*
X98921700Y-55657534D01*
X98921627Y-55668035D01*
X98921626Y-55668041D01*
X98921612Y-55670090D01*
X98901996Y-55844974D01*
X98848784Y-56012717D01*
X98764005Y-56166931D01*
X98650886Y-56301740D01*
X98593291Y-56348048D01*
X98583766Y-56358221D01*
X98577291Y-56370965D01*
X98574622Y-56385008D01*
X98575972Y-56399239D01*
X98581232Y-56412531D01*
X98592795Y-56426291D01*
X98605751Y-56437009D01*
X98707576Y-56561860D01*
X98783213Y-56704111D01*
X98829778Y-56858345D01*
X98845500Y-57018685D01*
X98845500Y-57741315D01*
X98845420Y-57752841D01*
X98827461Y-57912946D01*
X98778746Y-58066514D01*
X98701131Y-58207695D01*
X98597572Y-58331112D01*
X98472013Y-58432064D01*
X98329238Y-58506705D01*
X98174683Y-58552193D01*
X98174647Y-58552196D01*
X98174638Y-58552199D01*
X98014239Y-58566797D01*
X97854057Y-58549961D01*
X97854047Y-58549958D01*
X97854010Y-58549954D01*
X97700106Y-58502313D01*
X97558386Y-58425686D01*
X97434249Y-58322991D01*
X97332424Y-58198140D01*
X97256787Y-58055889D01*
X97210222Y-57901655D01*
X97194500Y-57741315D01*
X97194500Y-57018685D01*
X97194580Y-57007159D01*
X97212539Y-56847054D01*
X97261254Y-56693486D01*
X97338869Y-56552305D01*
X97442428Y-56428888D01*
X97446026Y-56425995D01*
X97455550Y-56415823D01*
X97462026Y-56403080D01*
X97464695Y-56389036D01*
X97463346Y-56374805D01*
X97458086Y-56361514D01*
X97446520Y-56347750D01*
X97380180Y-56292869D01*
X97268955Y-56156493D01*
X97186337Y-56001111D01*
X97135473Y-55832641D01*
X97118300Y-55657500D01*
X97118300Y-55342466D01*
X97118373Y-55331965D01*
X97118374Y-55331959D01*
X97118388Y-55329910D01*
X97138004Y-55155026D01*
X97191216Y-54987283D01*
X97275995Y-54833069D01*
X97389114Y-54698260D01*
X97526262Y-54587990D01*
X97682217Y-54506458D01*
X97851038Y-54456772D01*
X97851069Y-54456769D01*
X97851083Y-54456765D01*
X98026292Y-54440820D01*
X98201265Y-54459211D01*
X98201265Y-54459211D01*
G37*
G36*
X93121265Y-54459211D02*
X93121270Y-54459213D01*
X93121312Y-54459217D01*
X93289423Y-54511256D01*
X93444224Y-54594957D01*
X93579820Y-54707131D01*
X93691045Y-54843507D01*
X93773663Y-54998889D01*
X93824527Y-55167359D01*
X93841700Y-55342500D01*
X93841700Y-55657534D01*
X93841627Y-55668035D01*
X93841626Y-55668041D01*
X93841612Y-55670090D01*
X93821996Y-55844974D01*
X93768784Y-56012717D01*
X93684005Y-56166931D01*
X93570886Y-56301740D01*
X93513291Y-56348048D01*
X93503766Y-56358221D01*
X93497291Y-56370965D01*
X93494622Y-56385008D01*
X93495972Y-56399239D01*
X93501232Y-56412531D01*
X93512795Y-56426291D01*
X93525751Y-56437009D01*
X93627576Y-56561860D01*
X93703213Y-56704111D01*
X93749778Y-56858345D01*
X93765500Y-57018685D01*
X93765500Y-57741315D01*
X93765420Y-57752841D01*
X93747461Y-57912946D01*
X93698746Y-58066514D01*
X93621131Y-58207695D01*
X93517572Y-58331112D01*
X93392013Y-58432064D01*
X93249238Y-58506705D01*
X93094683Y-58552193D01*
X93094647Y-58552196D01*
X93094638Y-58552199D01*
X92934239Y-58566797D01*
X92774057Y-58549961D01*
X92774047Y-58549958D01*
X92774010Y-58549954D01*
X92620106Y-58502313D01*
X92478386Y-58425686D01*
X92354249Y-58322991D01*
X92252424Y-58198140D01*
X92176787Y-58055889D01*
X92130222Y-57901655D01*
X92114500Y-57741315D01*
X92114500Y-57018685D01*
X92114580Y-57007159D01*
X92132539Y-56847054D01*
X92181254Y-56693486D01*
X92258869Y-56552305D01*
X92362428Y-56428888D01*
X92366026Y-56425995D01*
X92375550Y-56415823D01*
X92382026Y-56403080D01*
X92384695Y-56389036D01*
X92383346Y-56374805D01*
X92378086Y-56361514D01*
X92366520Y-56347750D01*
X92300180Y-56292869D01*
X92188955Y-56156493D01*
X92106337Y-56001111D01*
X92055473Y-55832641D01*
X92038300Y-55657500D01*
X92038300Y-55342466D01*
X92038373Y-55331965D01*
X92038374Y-55331959D01*
X92038388Y-55329910D01*
X92058004Y-55155026D01*
X92111216Y-54987283D01*
X92195995Y-54833069D01*
X92309114Y-54698260D01*
X92446262Y-54587990D01*
X92602217Y-54506458D01*
X92771038Y-54456772D01*
X92771069Y-54456769D01*
X92771083Y-54456765D01*
X92946292Y-54440820D01*
X93121265Y-54459211D01*
X93121265Y-54459211D01*
G37*
G36*
X90581265Y-54459211D02*
X90581270Y-54459213D01*
X90581312Y-54459217D01*
X90749423Y-54511256D01*
X90904224Y-54594957D01*
X91039820Y-54707131D01*
X91151045Y-54843507D01*
X91233663Y-54998889D01*
X91284527Y-55167359D01*
X91301700Y-55342500D01*
X91301700Y-55657534D01*
X91301627Y-55668035D01*
X91301626Y-55668041D01*
X91301612Y-55670090D01*
X91281996Y-55844974D01*
X91228784Y-56012717D01*
X91144005Y-56166931D01*
X91030886Y-56301740D01*
X90973291Y-56348048D01*
X90963766Y-56358221D01*
X90957291Y-56370965D01*
X90954622Y-56385008D01*
X90955972Y-56399239D01*
X90961232Y-56412531D01*
X90972795Y-56426291D01*
X90985751Y-56437009D01*
X91087576Y-56561860D01*
X91163213Y-56704111D01*
X91209778Y-56858345D01*
X91225500Y-57018685D01*
X91225500Y-57741315D01*
X91225420Y-57752841D01*
X91207461Y-57912946D01*
X91158746Y-58066514D01*
X91081131Y-58207695D01*
X90977572Y-58331112D01*
X90852013Y-58432064D01*
X90709238Y-58506705D01*
X90554683Y-58552193D01*
X90554647Y-58552196D01*
X90554638Y-58552199D01*
X90394239Y-58566797D01*
X90234057Y-58549961D01*
X90234047Y-58549958D01*
X90234010Y-58549954D01*
X90080106Y-58502313D01*
X89938386Y-58425686D01*
X89814249Y-58322991D01*
X89712424Y-58198140D01*
X89636787Y-58055889D01*
X89590222Y-57901655D01*
X89574500Y-57741315D01*
X89574500Y-57018685D01*
X89574580Y-57007159D01*
X89592539Y-56847054D01*
X89641254Y-56693486D01*
X89718869Y-56552305D01*
X89822428Y-56428888D01*
X89826026Y-56425995D01*
X89835550Y-56415823D01*
X89842026Y-56403080D01*
X89844695Y-56389036D01*
X89843346Y-56374805D01*
X89838086Y-56361514D01*
X89826520Y-56347750D01*
X89760180Y-56292869D01*
X89648955Y-56156493D01*
X89566337Y-56001111D01*
X89515473Y-55832641D01*
X89498300Y-55657500D01*
X89498300Y-55342466D01*
X89498373Y-55331965D01*
X89498374Y-55331959D01*
X89498388Y-55329910D01*
X89518004Y-55155026D01*
X89571216Y-54987283D01*
X89655995Y-54833069D01*
X89769114Y-54698260D01*
X89906262Y-54587990D01*
X90062217Y-54506458D01*
X90231038Y-54456772D01*
X90231069Y-54456769D01*
X90231083Y-54456765D01*
X90406292Y-54440820D01*
X90581265Y-54459211D01*
X90581265Y-54459211D01*
G37*
G36*
X88041265Y-54459211D02*
X88041270Y-54459213D01*
X88041312Y-54459217D01*
X88209423Y-54511256D01*
X88364224Y-54594957D01*
X88499820Y-54707131D01*
X88611045Y-54843507D01*
X88693663Y-54998889D01*
X88744527Y-55167359D01*
X88761700Y-55342500D01*
X88761700Y-55657534D01*
X88761627Y-55668035D01*
X88761626Y-55668041D01*
X88761612Y-55670090D01*
X88741996Y-55844974D01*
X88688784Y-56012717D01*
X88604005Y-56166931D01*
X88490886Y-56301740D01*
X88433291Y-56348048D01*
X88423766Y-56358221D01*
X88417291Y-56370965D01*
X88414622Y-56385008D01*
X88415972Y-56399239D01*
X88421232Y-56412531D01*
X88432795Y-56426291D01*
X88445751Y-56437009D01*
X88547576Y-56561860D01*
X88623213Y-56704111D01*
X88669778Y-56858345D01*
X88685500Y-57018685D01*
X88685500Y-57741315D01*
X88685420Y-57752841D01*
X88667461Y-57912946D01*
X88618746Y-58066514D01*
X88541131Y-58207695D01*
X88437572Y-58331112D01*
X88312013Y-58432064D01*
X88169238Y-58506705D01*
X88014683Y-58552193D01*
X88014647Y-58552196D01*
X88014638Y-58552199D01*
X87854239Y-58566797D01*
X87694057Y-58549961D01*
X87694047Y-58549958D01*
X87694010Y-58549954D01*
X87540106Y-58502313D01*
X87398386Y-58425686D01*
X87274249Y-58322991D01*
X87172424Y-58198140D01*
X87096787Y-58055889D01*
X87050222Y-57901655D01*
X87034500Y-57741315D01*
X87034500Y-57018685D01*
X87034580Y-57007159D01*
X87052539Y-56847054D01*
X87101254Y-56693486D01*
X87178869Y-56552305D01*
X87282428Y-56428888D01*
X87286026Y-56425995D01*
X87295550Y-56415823D01*
X87302026Y-56403080D01*
X87304695Y-56389036D01*
X87303346Y-56374805D01*
X87298086Y-56361514D01*
X87286520Y-56347750D01*
X87220180Y-56292869D01*
X87108955Y-56156493D01*
X87026337Y-56001111D01*
X86975473Y-55832641D01*
X86958300Y-55657500D01*
X86958300Y-55342466D01*
X86958373Y-55331965D01*
X86958374Y-55331959D01*
X86958388Y-55329910D01*
X86978004Y-55155026D01*
X87031216Y-54987283D01*
X87115995Y-54833069D01*
X87229114Y-54698260D01*
X87366262Y-54587990D01*
X87522217Y-54506458D01*
X87691038Y-54456772D01*
X87691069Y-54456769D01*
X87691083Y-54456765D01*
X87866292Y-54440820D01*
X88041265Y-54459211D01*
X88041265Y-54459211D01*
G37*
G36*
X85501265Y-54459211D02*
X85501270Y-54459213D01*
X85501312Y-54459217D01*
X85669423Y-54511256D01*
X85824224Y-54594957D01*
X85959820Y-54707131D01*
X86071045Y-54843507D01*
X86153663Y-54998889D01*
X86204527Y-55167359D01*
X86221700Y-55342500D01*
X86221700Y-55657534D01*
X86221627Y-55668035D01*
X86221626Y-55668041D01*
X86221612Y-55670090D01*
X86201996Y-55844974D01*
X86148784Y-56012717D01*
X86064005Y-56166931D01*
X85950886Y-56301740D01*
X85893291Y-56348048D01*
X85883766Y-56358221D01*
X85877291Y-56370965D01*
X85874622Y-56385008D01*
X85875972Y-56399239D01*
X85881232Y-56412531D01*
X85892795Y-56426291D01*
X85905751Y-56437009D01*
X86007576Y-56561860D01*
X86083213Y-56704111D01*
X86129778Y-56858345D01*
X86145500Y-57018685D01*
X86145500Y-57741315D01*
X86145420Y-57752841D01*
X86127461Y-57912946D01*
X86078746Y-58066514D01*
X86001131Y-58207695D01*
X85897572Y-58331112D01*
X85772013Y-58432064D01*
X85629238Y-58506705D01*
X85474683Y-58552193D01*
X85474647Y-58552196D01*
X85474638Y-58552199D01*
X85314239Y-58566797D01*
X85154057Y-58549961D01*
X85154047Y-58549958D01*
X85154010Y-58549954D01*
X85000106Y-58502313D01*
X84858386Y-58425686D01*
X84734249Y-58322991D01*
X84632424Y-58198140D01*
X84556787Y-58055889D01*
X84510222Y-57901655D01*
X84494500Y-57741315D01*
X84494500Y-57018685D01*
X84494580Y-57007159D01*
X84512539Y-56847054D01*
X84561254Y-56693486D01*
X84638869Y-56552305D01*
X84742428Y-56428888D01*
X84746026Y-56425995D01*
X84755550Y-56415823D01*
X84762026Y-56403080D01*
X84764695Y-56389036D01*
X84763346Y-56374805D01*
X84758086Y-56361514D01*
X84746520Y-56347750D01*
X84680180Y-56292869D01*
X84568955Y-56156493D01*
X84486337Y-56001111D01*
X84435473Y-55832641D01*
X84418300Y-55657500D01*
X84418300Y-55342466D01*
X84418373Y-55331965D01*
X84418374Y-55331959D01*
X84418388Y-55329910D01*
X84438004Y-55155026D01*
X84491216Y-54987283D01*
X84575995Y-54833069D01*
X84689114Y-54698260D01*
X84826262Y-54587990D01*
X84982217Y-54506458D01*
X85151038Y-54456772D01*
X85151069Y-54456769D01*
X85151083Y-54456765D01*
X85326292Y-54440820D01*
X85501265Y-54459211D01*
X85501265Y-54459211D01*
G37*
G36*
X82961265Y-54459211D02*
X82961270Y-54459213D01*
X82961312Y-54459217D01*
X83129423Y-54511256D01*
X83284224Y-54594957D01*
X83419820Y-54707131D01*
X83531045Y-54843507D01*
X83613663Y-54998889D01*
X83664527Y-55167359D01*
X83681700Y-55342500D01*
X83681700Y-55657534D01*
X83681627Y-55668035D01*
X83681626Y-55668041D01*
X83681612Y-55670090D01*
X83661996Y-55844974D01*
X83608784Y-56012717D01*
X83524005Y-56166931D01*
X83410886Y-56301740D01*
X83353291Y-56348048D01*
X83343766Y-56358221D01*
X83337291Y-56370965D01*
X83334622Y-56385008D01*
X83335972Y-56399239D01*
X83341232Y-56412531D01*
X83352795Y-56426291D01*
X83365751Y-56437009D01*
X83467576Y-56561860D01*
X83543213Y-56704111D01*
X83589778Y-56858345D01*
X83605500Y-57018685D01*
X83605500Y-57741315D01*
X83605420Y-57752841D01*
X83587461Y-57912946D01*
X83538746Y-58066514D01*
X83461131Y-58207695D01*
X83357572Y-58331112D01*
X83232013Y-58432064D01*
X83089238Y-58506705D01*
X82934683Y-58552193D01*
X82934647Y-58552196D01*
X82934638Y-58552199D01*
X82774239Y-58566797D01*
X82614057Y-58549961D01*
X82614047Y-58549958D01*
X82614010Y-58549954D01*
X82460106Y-58502313D01*
X82318386Y-58425686D01*
X82194249Y-58322991D01*
X82092424Y-58198140D01*
X82016787Y-58055889D01*
X81970222Y-57901655D01*
X81954500Y-57741315D01*
X81954500Y-57018685D01*
X81954580Y-57007159D01*
X81972539Y-56847054D01*
X82021254Y-56693486D01*
X82098869Y-56552305D01*
X82202428Y-56428888D01*
X82206026Y-56425995D01*
X82215550Y-56415823D01*
X82222026Y-56403080D01*
X82224695Y-56389036D01*
X82223346Y-56374805D01*
X82218086Y-56361514D01*
X82206520Y-56347750D01*
X82140180Y-56292869D01*
X82028955Y-56156493D01*
X81946337Y-56001111D01*
X81895473Y-55832641D01*
X81878300Y-55657500D01*
X81878300Y-55342466D01*
X81878373Y-55331965D01*
X81878374Y-55331959D01*
X81878388Y-55329910D01*
X81898004Y-55155026D01*
X81951216Y-54987283D01*
X82035995Y-54833069D01*
X82149114Y-54698260D01*
X82286262Y-54587990D01*
X82442217Y-54506458D01*
X82611038Y-54456772D01*
X82611069Y-54456769D01*
X82611083Y-54456765D01*
X82786292Y-54440820D01*
X82961265Y-54459211D01*
X82961265Y-54459211D01*
G37*
G36*
X80421265Y-54459211D02*
X80421270Y-54459213D01*
X80421312Y-54459217D01*
X80589423Y-54511256D01*
X80744224Y-54594957D01*
X80879820Y-54707131D01*
X80991045Y-54843507D01*
X81073663Y-54998889D01*
X81124527Y-55167359D01*
X81141700Y-55342500D01*
X81141700Y-55657534D01*
X81141627Y-55668035D01*
X81141626Y-55668041D01*
X81141612Y-55670090D01*
X81121996Y-55844974D01*
X81068784Y-56012717D01*
X80984005Y-56166931D01*
X80870886Y-56301740D01*
X80813291Y-56348048D01*
X80803766Y-56358221D01*
X80797291Y-56370965D01*
X80794622Y-56385008D01*
X80795972Y-56399239D01*
X80801232Y-56412531D01*
X80812795Y-56426291D01*
X80825751Y-56437009D01*
X80927576Y-56561860D01*
X81003213Y-56704111D01*
X81049778Y-56858345D01*
X81065500Y-57018685D01*
X81065500Y-57741315D01*
X81065420Y-57752841D01*
X81047461Y-57912946D01*
X80998746Y-58066514D01*
X80921131Y-58207695D01*
X80817572Y-58331112D01*
X80692013Y-58432064D01*
X80549238Y-58506705D01*
X80394683Y-58552193D01*
X80394647Y-58552196D01*
X80394638Y-58552199D01*
X80234239Y-58566797D01*
X80074057Y-58549961D01*
X80074047Y-58549958D01*
X80074010Y-58549954D01*
X79920106Y-58502313D01*
X79778386Y-58425686D01*
X79654249Y-58322991D01*
X79552424Y-58198140D01*
X79476787Y-58055889D01*
X79430222Y-57901655D01*
X79414500Y-57741315D01*
X79414500Y-57018685D01*
X79414580Y-57007159D01*
X79432539Y-56847054D01*
X79481254Y-56693486D01*
X79558869Y-56552305D01*
X79662428Y-56428888D01*
X79666026Y-56425995D01*
X79675550Y-56415823D01*
X79682026Y-56403080D01*
X79684695Y-56389036D01*
X79683346Y-56374805D01*
X79678086Y-56361514D01*
X79666520Y-56347750D01*
X79600180Y-56292869D01*
X79488955Y-56156493D01*
X79406337Y-56001111D01*
X79355473Y-55832641D01*
X79338300Y-55657500D01*
X79338300Y-55342466D01*
X79338373Y-55331965D01*
X79338374Y-55331959D01*
X79338388Y-55329910D01*
X79358004Y-55155026D01*
X79411216Y-54987283D01*
X79495995Y-54833069D01*
X79609114Y-54698260D01*
X79746262Y-54587990D01*
X79902217Y-54506458D01*
X80071038Y-54456772D01*
X80071069Y-54456769D01*
X80071083Y-54456765D01*
X80246292Y-54440820D01*
X80421265Y-54459211D01*
X80421265Y-54459211D01*
G37*
G36*
X77881265Y-54459211D02*
X77881270Y-54459213D01*
X77881312Y-54459217D01*
X78049423Y-54511256D01*
X78204224Y-54594957D01*
X78339820Y-54707131D01*
X78451045Y-54843507D01*
X78533663Y-54998889D01*
X78584527Y-55167359D01*
X78601700Y-55342500D01*
X78601700Y-55657534D01*
X78601627Y-55668035D01*
X78601626Y-55668041D01*
X78601612Y-55670090D01*
X78581996Y-55844974D01*
X78528784Y-56012717D01*
X78444005Y-56166931D01*
X78330886Y-56301740D01*
X78273291Y-56348048D01*
X78263766Y-56358221D01*
X78257291Y-56370965D01*
X78254622Y-56385008D01*
X78255972Y-56399239D01*
X78261232Y-56412531D01*
X78272795Y-56426291D01*
X78285751Y-56437009D01*
X78387576Y-56561860D01*
X78463213Y-56704111D01*
X78509778Y-56858345D01*
X78525500Y-57018685D01*
X78525500Y-57741315D01*
X78525420Y-57752841D01*
X78507461Y-57912946D01*
X78458746Y-58066514D01*
X78381131Y-58207695D01*
X78277572Y-58331112D01*
X78152013Y-58432064D01*
X78009238Y-58506705D01*
X77854683Y-58552193D01*
X77854647Y-58552196D01*
X77854638Y-58552199D01*
X77694239Y-58566797D01*
X77534057Y-58549961D01*
X77534047Y-58549958D01*
X77534010Y-58549954D01*
X77380106Y-58502313D01*
X77238386Y-58425686D01*
X77114249Y-58322991D01*
X77012424Y-58198140D01*
X76936787Y-58055889D01*
X76890222Y-57901655D01*
X76874500Y-57741315D01*
X76874500Y-57018685D01*
X76874580Y-57007159D01*
X76892539Y-56847054D01*
X76941254Y-56693486D01*
X77018869Y-56552305D01*
X77122428Y-56428888D01*
X77126026Y-56425995D01*
X77135550Y-56415823D01*
X77142026Y-56403080D01*
X77144695Y-56389036D01*
X77143346Y-56374805D01*
X77138086Y-56361514D01*
X77126520Y-56347750D01*
X77060180Y-56292869D01*
X76948955Y-56156493D01*
X76866337Y-56001111D01*
X76815473Y-55832641D01*
X76798300Y-55657500D01*
X76798300Y-55342466D01*
X76798373Y-55331965D01*
X76798374Y-55331959D01*
X76798388Y-55329910D01*
X76818004Y-55155026D01*
X76871216Y-54987283D01*
X76955995Y-54833069D01*
X77069114Y-54698260D01*
X77206262Y-54587990D01*
X77362217Y-54506458D01*
X77531038Y-54456772D01*
X77531069Y-54456769D01*
X77531083Y-54456765D01*
X77706292Y-54440820D01*
X77881265Y-54459211D01*
X77881265Y-54459211D01*
G37*
G36*
X75341265Y-54459211D02*
X75341270Y-54459213D01*
X75341312Y-54459217D01*
X75509423Y-54511256D01*
X75664224Y-54594957D01*
X75799820Y-54707131D01*
X75911045Y-54843507D01*
X75993663Y-54998889D01*
X76044527Y-55167359D01*
X76061700Y-55342500D01*
X76061700Y-55657534D01*
X76061627Y-55668035D01*
X76061626Y-55668041D01*
X76061612Y-55670090D01*
X76041996Y-55844974D01*
X75988784Y-56012717D01*
X75904005Y-56166931D01*
X75790886Y-56301740D01*
X75733291Y-56348048D01*
X75723766Y-56358221D01*
X75717291Y-56370965D01*
X75714622Y-56385008D01*
X75715972Y-56399239D01*
X75721232Y-56412531D01*
X75732795Y-56426291D01*
X75745751Y-56437009D01*
X75847576Y-56561860D01*
X75923213Y-56704111D01*
X75969778Y-56858345D01*
X75985500Y-57018685D01*
X75985500Y-57741315D01*
X75985420Y-57752841D01*
X75967461Y-57912946D01*
X75918746Y-58066514D01*
X75841131Y-58207695D01*
X75737572Y-58331112D01*
X75612013Y-58432064D01*
X75469238Y-58506705D01*
X75314683Y-58552193D01*
X75314647Y-58552196D01*
X75314638Y-58552199D01*
X75154239Y-58566797D01*
X74994057Y-58549961D01*
X74994047Y-58549958D01*
X74994010Y-58549954D01*
X74840106Y-58502313D01*
X74698386Y-58425686D01*
X74574249Y-58322991D01*
X74472424Y-58198140D01*
X74396787Y-58055889D01*
X74350222Y-57901655D01*
X74334500Y-57741315D01*
X74334500Y-57018685D01*
X74334580Y-57007159D01*
X74352539Y-56847054D01*
X74401254Y-56693486D01*
X74478869Y-56552305D01*
X74582428Y-56428888D01*
X74586026Y-56425995D01*
X74595550Y-56415823D01*
X74602026Y-56403080D01*
X74604695Y-56389036D01*
X74603346Y-56374805D01*
X74598086Y-56361514D01*
X74586520Y-56347750D01*
X74520180Y-56292869D01*
X74408955Y-56156493D01*
X74326337Y-56001111D01*
X74275473Y-55832641D01*
X74258300Y-55657500D01*
X74258300Y-55342466D01*
X74258373Y-55331965D01*
X74258374Y-55331959D01*
X74258388Y-55329910D01*
X74278004Y-55155026D01*
X74331216Y-54987283D01*
X74415995Y-54833069D01*
X74529114Y-54698260D01*
X74666262Y-54587990D01*
X74822217Y-54506458D01*
X74991038Y-54456772D01*
X74991069Y-54456769D01*
X74991083Y-54456765D01*
X75166292Y-54440820D01*
X75341265Y-54459211D01*
X75341265Y-54459211D01*
G37*
G36*
X72801265Y-54459211D02*
X72801270Y-54459213D01*
X72801312Y-54459217D01*
X72969423Y-54511256D01*
X73124224Y-54594957D01*
X73259820Y-54707131D01*
X73371045Y-54843507D01*
X73453663Y-54998889D01*
X73504527Y-55167359D01*
X73521700Y-55342500D01*
X73521700Y-55657534D01*
X73521627Y-55668035D01*
X73521626Y-55668041D01*
X73521612Y-55670090D01*
X73501996Y-55844974D01*
X73448784Y-56012717D01*
X73364005Y-56166931D01*
X73250886Y-56301740D01*
X73193291Y-56348048D01*
X73183766Y-56358221D01*
X73177291Y-56370965D01*
X73174622Y-56385008D01*
X73175972Y-56399239D01*
X73181232Y-56412531D01*
X73192795Y-56426291D01*
X73205751Y-56437009D01*
X73307576Y-56561860D01*
X73383213Y-56704111D01*
X73429778Y-56858345D01*
X73445500Y-57018685D01*
X73445500Y-57741315D01*
X73445420Y-57752841D01*
X73427461Y-57912946D01*
X73378746Y-58066514D01*
X73301131Y-58207695D01*
X73197572Y-58331112D01*
X73072013Y-58432064D01*
X72929238Y-58506705D01*
X72774683Y-58552193D01*
X72774647Y-58552196D01*
X72774638Y-58552199D01*
X72614239Y-58566797D01*
X72454057Y-58549961D01*
X72454047Y-58549958D01*
X72454010Y-58549954D01*
X72300106Y-58502313D01*
X72158386Y-58425686D01*
X72034249Y-58322991D01*
X71932424Y-58198140D01*
X71856787Y-58055889D01*
X71810222Y-57901655D01*
X71794500Y-57741315D01*
X71794500Y-57018685D01*
X71794580Y-57007159D01*
X71812539Y-56847054D01*
X71861254Y-56693486D01*
X71938869Y-56552305D01*
X72042428Y-56428888D01*
X72046026Y-56425995D01*
X72055550Y-56415823D01*
X72062026Y-56403080D01*
X72064695Y-56389036D01*
X72063346Y-56374805D01*
X72058086Y-56361514D01*
X72046520Y-56347750D01*
X71980180Y-56292869D01*
X71868955Y-56156493D01*
X71786337Y-56001111D01*
X71735473Y-55832641D01*
X71718300Y-55657500D01*
X71718300Y-55342466D01*
X71718373Y-55331965D01*
X71718374Y-55331959D01*
X71718388Y-55329910D01*
X71738004Y-55155026D01*
X71791216Y-54987283D01*
X71875995Y-54833069D01*
X71989114Y-54698260D01*
X72126262Y-54587990D01*
X72282217Y-54506458D01*
X72451038Y-54456772D01*
X72451069Y-54456769D01*
X72451083Y-54456765D01*
X72626292Y-54440820D01*
X72801265Y-54459211D01*
X72801265Y-54459211D01*
G37*
G36*
X65901700Y-56554100D02*
X65876300Y-56554100D01*
X65862147Y-56556111D01*
X65849116Y-56561986D01*
X65838236Y-56571258D01*
X65830371Y-56583194D01*
X65826142Y-56596849D01*
X65825500Y-56604900D01*
X65825500Y-58561100D01*
X64174500Y-58561100D01*
X64174500Y-56604900D01*
X64172489Y-56590747D01*
X64166614Y-56577716D01*
X64157342Y-56566836D01*
X64145406Y-56558971D01*
X64131751Y-56554742D01*
X64123700Y-56554100D01*
X64098300Y-56554100D01*
X64098300Y-54445900D01*
X65901700Y-54445900D01*
X65901700Y-56554100D01*
X65901700Y-56554100D01*
G37*
G36*
X154261557Y-55462922D02*
X154557026Y-55523574D01*
X154835101Y-55640466D01*
X155085168Y-55809139D01*
X155297712Y-56023171D01*
X155464634Y-56274409D01*
X155579579Y-56553286D01*
X155638098Y-56848832D01*
X155638098Y-56848838D01*
X155638166Y-56849182D01*
X155633355Y-57193708D01*
X155633278Y-57194046D01*
X155633278Y-57194055D01*
X155566529Y-57487852D01*
X155443844Y-57763408D01*
X155269969Y-58009890D01*
X155051532Y-58217906D01*
X154796852Y-58379531D01*
X154515625Y-58488611D01*
X154218575Y-58540989D01*
X153917002Y-58534672D01*
X153622399Y-58469899D01*
X153345989Y-58349139D01*
X153098304Y-58176993D01*
X152888768Y-57960013D01*
X152725368Y-57706466D01*
X152614326Y-57426005D01*
X152559876Y-57129330D01*
X152564087Y-56827721D01*
X152626802Y-56532673D01*
X152745628Y-56255429D01*
X152916045Y-56006543D01*
X153131555Y-55795499D01*
X153383956Y-55630333D01*
X153663630Y-55517337D01*
X153959921Y-55460817D01*
X154261557Y-55462922D01*
X154261557Y-55462922D01*
G37*
G36*
X143854100Y-56754100D02*
X141745900Y-56754100D01*
X141745900Y-54645900D01*
X143854100Y-54645900D01*
X143854100Y-56754100D01*
X143854100Y-56754100D01*
G37*
G36*
X149261557Y-52462922D02*
X149557026Y-52523574D01*
X149835101Y-52640466D01*
X150085168Y-52809139D01*
X150297712Y-53023171D01*
X150464634Y-53274409D01*
X150579579Y-53553286D01*
X150638098Y-53848832D01*
X150638098Y-53848838D01*
X150638166Y-53849182D01*
X150633355Y-54193708D01*
X150633278Y-54194046D01*
X150633278Y-54194055D01*
X150566529Y-54487852D01*
X150443844Y-54763408D01*
X150269969Y-55009890D01*
X150051532Y-55217906D01*
X149796852Y-55379531D01*
X149515625Y-55488611D01*
X149218575Y-55540989D01*
X148917002Y-55534672D01*
X148622399Y-55469899D01*
X148345989Y-55349139D01*
X148098304Y-55176993D01*
X147888768Y-54960013D01*
X147725368Y-54706466D01*
X147614326Y-54426005D01*
X147559876Y-54129330D01*
X147564087Y-53827721D01*
X147626802Y-53532673D01*
X147745628Y-53255429D01*
X147916045Y-53006543D01*
X148131555Y-52795499D01*
X148383956Y-52630333D01*
X148663630Y-52517337D01*
X148959921Y-52460817D01*
X149261557Y-52462922D01*
X149261557Y-52462922D01*
G37*
G36*
X142817761Y-52105988D02*
X142817767Y-52105989D01*
X142819818Y-52106003D01*
X143024260Y-52128935D01*
X143220354Y-52191139D01*
X143400632Y-52290248D01*
X143558226Y-52422485D01*
X143687133Y-52582814D01*
X143782445Y-52765127D01*
X143840529Y-52962481D01*
X143840532Y-52962517D01*
X143840535Y-52962526D01*
X143859176Y-53167357D01*
X143837677Y-53371909D01*
X143837674Y-53371919D01*
X143837670Y-53371956D01*
X143776836Y-53568480D01*
X143678989Y-53749445D01*
X143547855Y-53907959D01*
X143388430Y-54037982D01*
X143206786Y-54134564D01*
X143009842Y-54194025D01*
X142805100Y-54214100D01*
X142794867Y-54214100D01*
X142782239Y-54214012D01*
X142782233Y-54214011D01*
X142780182Y-54213997D01*
X142575740Y-54191065D01*
X142379646Y-54128861D01*
X142199368Y-54029752D01*
X142041774Y-53897515D01*
X141912867Y-53737186D01*
X141817555Y-53554873D01*
X141759471Y-53357519D01*
X141759468Y-53357483D01*
X141759465Y-53357474D01*
X141740824Y-53152643D01*
X141762323Y-52948091D01*
X141762326Y-52948081D01*
X141762330Y-52948044D01*
X141823164Y-52751520D01*
X141921011Y-52570555D01*
X142052145Y-52412041D01*
X142211570Y-52282018D01*
X142393214Y-52185436D01*
X142590158Y-52125975D01*
X142794900Y-52105900D01*
X142805133Y-52105900D01*
X142817761Y-52105988D01*
X142817761Y-52105988D01*
G37*
G36*
X115567026Y-52462323D02*
X115689601Y-52487485D01*
X115804968Y-52535980D01*
X115908711Y-52605956D01*
X115996887Y-52694749D01*
X116066135Y-52798977D01*
X116113822Y-52914674D01*
X116138059Y-53037082D01*
X116138059Y-53037087D01*
X116138127Y-53037431D01*
X116136131Y-53180362D01*
X116136055Y-53180696D01*
X116136055Y-53180709D01*
X116108408Y-53302394D01*
X116057512Y-53416709D01*
X115985377Y-53518965D01*
X115894755Y-53605264D01*
X115789098Y-53672316D01*
X115672426Y-53717570D01*
X115549193Y-53739300D01*
X115424080Y-53736678D01*
X115301861Y-53709808D01*
X115187187Y-53659707D01*
X115084437Y-53588294D01*
X114997504Y-53498272D01*
X114929717Y-53393086D01*
X114883648Y-53276731D01*
X114861059Y-53153656D01*
X114862806Y-53028529D01*
X114888825Y-52906123D01*
X114938121Y-52791105D01*
X115008821Y-52687851D01*
X115098227Y-52600298D01*
X115202940Y-52531776D01*
X115318967Y-52484897D01*
X115441885Y-52461450D01*
X115567026Y-52462323D01*
X115567026Y-52462323D01*
G37*
G36*
X110567026Y-52462323D02*
X110689601Y-52487485D01*
X110804968Y-52535980D01*
X110908711Y-52605956D01*
X110996887Y-52694749D01*
X111066135Y-52798977D01*
X111113822Y-52914674D01*
X111138059Y-53037082D01*
X111138059Y-53037087D01*
X111138127Y-53037431D01*
X111136131Y-53180362D01*
X111136055Y-53180696D01*
X111136055Y-53180709D01*
X111108408Y-53302394D01*
X111057512Y-53416709D01*
X110985377Y-53518965D01*
X110894755Y-53605264D01*
X110789098Y-53672316D01*
X110672426Y-53717570D01*
X110549193Y-53739300D01*
X110424080Y-53736678D01*
X110301861Y-53709808D01*
X110187187Y-53659707D01*
X110084437Y-53588294D01*
X109997504Y-53498272D01*
X109929717Y-53393086D01*
X109883648Y-53276731D01*
X109861059Y-53153656D01*
X109862806Y-53028529D01*
X109888825Y-52906123D01*
X109938121Y-52791105D01*
X110008821Y-52687851D01*
X110098227Y-52600298D01*
X110202940Y-52531776D01*
X110318967Y-52484897D01*
X110441885Y-52461450D01*
X110567026Y-52462323D01*
X110567026Y-52462323D01*
G37*
G36*
X98251909Y-48962323D02*
X98251919Y-48962326D01*
X98251956Y-48962330D01*
X98448480Y-49023164D01*
X98629445Y-49121011D01*
X98787959Y-49252145D01*
X98917982Y-49411570D01*
X99014564Y-49593214D01*
X99074025Y-49790158D01*
X99094100Y-49994900D01*
X99094100Y-50005133D01*
X99094012Y-50017761D01*
X99094011Y-50017767D01*
X99093997Y-50019818D01*
X99071065Y-50224260D01*
X99008861Y-50420354D01*
X98909752Y-50600632D01*
X98777515Y-50758226D01*
X98617186Y-50887133D01*
X98434873Y-50982445D01*
X98237519Y-51040529D01*
X98237483Y-51040532D01*
X98237474Y-51040535D01*
X98032643Y-51059176D01*
X97828091Y-51037677D01*
X97828081Y-51037674D01*
X97828044Y-51037670D01*
X97631520Y-50976836D01*
X97450555Y-50878989D01*
X97292041Y-50747855D01*
X97162018Y-50588430D01*
X97065436Y-50406786D01*
X97005975Y-50209842D01*
X96985900Y-50005100D01*
X96985900Y-49994867D01*
X96985988Y-49982239D01*
X96985989Y-49982233D01*
X96986003Y-49980182D01*
X97008935Y-49775740D01*
X97071139Y-49579646D01*
X97170248Y-49399368D01*
X97302485Y-49241774D01*
X97462814Y-49112867D01*
X97645127Y-49017555D01*
X97842481Y-48959471D01*
X97842517Y-48959468D01*
X97842526Y-48959465D01*
X98047357Y-48940824D01*
X98251909Y-48962323D01*
X98251909Y-48962323D01*
G37*
G36*
X96554100Y-51054100D02*
X94445900Y-51054100D01*
X94445900Y-48945900D01*
X96554100Y-48945900D01*
X96554100Y-51054100D01*
X96554100Y-51054100D01*
G37*
M02*
