<?xml version="1.0" encoding="UTF-8" standalone="no"?>
<!-- Created with Inkscape (http://www.inkscape.org/) -->

<svg
   xmlns:dc="http://purl.org/dc/elements/1.1/"
   xmlns:cc="http://creativecommons.org/ns#"
   xmlns:rdf="http://www.w3.org/1999/02/22-rdf-syntax-ns#"
   xmlns:svg="http://www.w3.org/2000/svg"
   xmlns="http://www.w3.org/2000/svg"
   xmlns:sodipodi="http://sodipodi.sourceforge.net/DTD/sodipodi-0.dtd"
   xmlns:inkscape="http://www.inkscape.org/namespaces/inkscape"
   id="svg3701"
   sodipodi:docname="No1isRight-awesome.svg"
   viewBox="0 0 500.11 500"
   version="1.1"
   inkscape:version="0.91 r13725">
  <defs
     id="defs3703">
    <style
       id="style3891"
       type="text/css">.str0 {stroke:black;stroke-width:0.238063}
    .fil0 {fill:black}
    .fil2 {fill:#050707}
    .fil3 {fill:#881846}
    .fil5 {fill:#F6BCD6}
    .fil1 {fill:#F9DD56}
    .fil4 {fill:#FDFCFD}</style>
  </defs>
  <sodipodi:namedview
     id="base"
     fit-margin-left="0"
     inkscape:zoom="0.7"
     borderopacity="1.0"
     inkscape:current-layer="g2417"
     inkscape:cx="184.43849"
     inkscape:cy="156.48713"
     inkscape:window-maximized="1"
     showgrid="false"
     fit-margin-right="0"
     inkscape:document-units="px"
     bordercolor="#666666"
     inkscape:window-x="-8"
     inkscape:window-y="-8"
     fit-margin-bottom="0"
     inkscape:window-width="1536"
     inkscape:pageopacity="0.0"
     inkscape:pageshadow="2"
     pagecolor="#ffffff"
     inkscape:window-height="801"
     showborder="false"
     fit-margin-top="0" />
  <g
     id="layer1"
     inkscape:label="Layer 1"
     inkscape:groupmode="layer"
     transform="translate(253.91 -175.75)">
    <g
       id="g2417"
       transform="matrix(.67992 0 0 .67992 -689.76 -221.88)">
      <rect
         style="fill:#ffffff;stroke:#ffffff;stroke-width:6.05365372;stroke-linecap:butt;stroke-miterlimit:4;stroke-dasharray:none;stroke-dashoffset:0;stroke-opacity:1"
         id="rect5424"
         width="794.21112"
         height="777.4024"
         x="590.60522"
         y="551.20142" />
      <path
         id="path2409"
         d="m985.57 1319.2c-34.685-3.4716-55-7.054-78.854-13.905-36.773-10.561-70.856-26.449-103.15-48.081-42.401-28.406-79.816-67.025-107.47-110.93-9.1532-14.531-25.099-46.721-31.436-63.461-10.379-27.416-17.907-58.348-21.785-89.501-2.23-17.917-2.4886-60.595-0.47274-78 10.233-88.349 45.458-162.39 106.12-223.05 60.662-60.662 134.7-95.887 223.05-106.12 17.405-2.0159 60.083-1.7572 78 0.47274 45.382 5.6483 83.551 17.086 123 36.857 35.816 17.951 62.633 36.88 90.391 63.804 13.622 13.213 29.609 30.819 29.609 32.607 0 0.66706 0.6359 1.4568 1.413 1.7551 1.8443 0.70772 11.942 14.159 21.663 28.858 28.962 43.793 48.978 96.494 56.333 148.31 2.3621 16.644 4.5918 42.38 4.5918 53 0 16.019-3.4239 48.928-7.1267 68.5-24.515 129.58-116.45 235.94-241.37 279.24-44.285 15.351-103.63 23.528-142.5 19.637zm64-33.336c39.048-5.0455 72.155-15.061 107.5-32.521 67.276-33.234 119.29-85.248 152.52-152.52 17.567-35.562 27.456-68.354 32.652-108.27 2.5004-19.21 2.4678-63.328-0.06-81.726-10.422-75.849-41.352-140.15-92.961-193.25-75.513-77.697-182.27-113.82-290.16-98.191-110.28 15.978-205.98 86.759-254.46 188.2-34.91 73.043-42.081 157.57-20.031 236.1 32.271 114.93 126.65 206.35 242.25 234.66 18.627 4.5624 32.629 6.8144 58.243 9.3676 9.2504 0.922 52.677-0.3259 64.5-1.8535zm-37.5-40.926c-2.2-0.6157-4.45-1.404-5-1.7518s-2.4625-0.9461-4.25-1.3295-3.25-1.0538-3.25-1.4898-1.8-1.0805-4-1.4323-4-1.0332-4-1.5143c0-0.481-2.0145-1.1767-4.4767-1.5459-2.4622-0.3693-4.7212-1.0669-5.02-1.5504-0.6473-1.0474-10.919-6.0054-12.441-6.0054-0.58406 0-1.0619-0.45-1.0619-1s-0.56916-1-1.2648-1c-1.3223 0-8.8685-3.786-9.7352-4.8843-0.275-0.3484-2.1844-1.7545-4.2432-3.1246-2.0587-1.3701-3.7462-2.8286-3.75-3.2411-0.004-0.4125-0.61209-0.75-1.3518-0.75-0.73976 0-2.1595-0.9-3.155-2-0.99549-1.1-2.3368-2-2.9807-2-0.64389 0-2.2276-1.125-3.5193-2.5-1.2918-1.375-2.8754-2.5-3.5193-2.5-0.64388 0-1.9852-0.9-2.9807-2-0.99549-1.1-2.4152-2-3.155-2-0.73975 0-1.345-0.4385-1.345-0.9743 0-0.5359-1.2375-1.6355-2.75-2.4436s-4.2952-2.9571-6.1837-4.7757c-1.8885-1.8185-4.6228-4.2064-6.0762-5.3064-4.119-3.1176-33.061-35.556-34.054-38.168-0.4877-1.2828-1.2954-2.3323-1.7948-2.3323-0.49946 0-1.1725-0.7875-1.4957-1.75-0.83592-2.4896-2.9326-5.6137-4.3957-6.5497-0.6875-0.4398-1.25-1.2704-1.25-1.8456 0-0.5753-0.94202-2.3689-2.0934-3.9858-1.1514-1.617-1.8405-3.5989-1.5314-4.4044 0.97807-2.5488 3.4718-1.5892 5.17 1.9895 0.90147 1.8997 2.2726 3.9798 3.0469 4.6224 0.77434 0.6427 1.4079 1.8025 1.4079 2.5774s0.675 1.668 1.5 1.9846c0.825 0.3165 1.5 1.0436 1.5 1.6156s1.575 2.9621 3.5 5.3113 3.5 4.678 3.5 5.175c0 0.4971 1.7849 2.4013 3.9664 4.2315 2.1815 1.8303 3.766 3.6521 3.5211 4.0484-0.24496 0.3964 1.7951 2.7845 4.5336 5.3071 2.7384 2.5225 4.979 5.0015 4.979 5.5089s2.2273 2.9495 4.9496 5.4269 4.6849 4.7691 4.3613 5.0926c-0.32355 0.3236 0.48663 1.0095 1.8004 1.5243 1.3138 0.5147 4.3949 3.0023 6.8469 5.528 2.452 2.5256 4.9611 4.592 5.5757 4.592 0.61462 0 2.1744 1.125 3.4661 2.5 1.2918 1.375 2.757 2.5 3.256 2.5 1.0046 0 10.048 7.0572 10.579 8.2562 0.18448 0.4159 0.68156 0.5423 1.1046 0.2808 0.42308-0.2614 1.8131 0.6358 3.0889 1.9938 1.2758 1.3581 2.8465 2.4692 3.4904 2.4692 0.64388 0 1.9852 0.9 2.9807 2 0.99549 1.1 2.3455 2 3 2 0.65451 0 2.005 0.9005 3.0011 2.0012 1.8032 1.9926 11.415 6.9988 13.437 6.9988 0.58406 0 1.0619 0.45 1.0619 1s0.51321 1 1.1405 1c1.6411 0 9.8595 4.2208 9.8595 5.0637 0 0.3901 1.9245 0.9978 4.2766 1.3505s5.4718 1.2614 6.9326 2.0193 4.0364 1.6812 5.7234 2.0517 3.0673 1.0304 3.0673 1.4664 1.7405 1.0711 3.8677 1.4112c2.1272 0.3402 5.1647 1.2949 6.75 2.1217 1.5853 0.8267 3.5573 1.5202 4.3823 1.5411 0.825 0.021 2.3735 0.6987 3.4412 1.5062 1.7864 1.3512 1.5472 1.4578-3 1.3376-2.7177-0.072-6.7412-0.6344-8.9412-1.25zm69.042-5.3657c-3.8271-0.195-7.5198-0.8206-8.2062-1.3902-0.6863-0.5697-1.6865-0.7646-2.2226-0.4333s-1.23 0.1893-1.542-0.3155c-0.312-0.5049-3.2689-1.2315-6.5709-1.6147-3.3019-0.3832-6.2218-1.0499-6.4886-1.4815-0.2667-0.4316-2.9588-1.0939-5.9824-1.4716-3.0236-0.3778-5.73-1.0631-6.0142-1.523s-1.4187-0.6003-2.5211-0.312-2.5868 0.041-3.2986-0.55c-0.7119-0.5908-3.1845-1.3764-5.4947-1.7459-2.3102-0.3694-4.2004-1.013-4.2004-1.4303 0-0.4172-2.0145-1.0607-4.4767-1.4299-2.4621-0.3693-4.7066-1.0434-4.9876-1.498-0.2809-0.4547-3.447-1.3807-7.0357-2.0578-3.5886-0.6771-6.7627-1.6161-7.0535-2.0866s-2.7602-1.1515-5.4876-1.5133-4.9678-1.1623-4.9787-1.7789c-0.0193-1.0916-12.802-7.6212-14.919-7.6212-0.58351 0-1.0609-0.45-1.0609-1s-0.3375-0.896-0.75-0.7689c-0.75344 0.2323-2.2199-0.4255-20.895-9.3714-5.5795-2.6729-10.642-4.8597-11.25-4.8597-0.60795 0-1.1054-0.45-1.1054-1s-0.675-1-1.5-1c-1.4451 0-2.109-3.0576-0.92179-4.2449 0.31802-0.318 2.6805 0.4703 5.25 1.7519 12.327 6.148 26.073 12.493 27.066 12.493 0.60795 0 1.1054 0.45 1.1054 1s0.47883 1 1.0641 1c0.58524 0 3.6227 1.2071 6.75 2.6824 3.1272 1.4754 5.9109 2.7249 6.1859 2.7766 0.275 0.052 3.0596 1.3197 6.1881 2.8176 3.1284 1.4978 6.1659 2.7234 6.75 2.7234s1.0619 0.3989 1.0619 0.8864c0 0.4876 2.0145 1.1886 4.4767 1.5578s4.7021 1.036 4.9776 1.4818c0.2754 0.4457 2.7424 1.1077 5.4822 1.4712 2.7397 0.3634 5.2703 1.1284 5.6236 1.6999 0.3532 0.5716 1.2573 0.8032 2.0091 0.5147 0.7517-0.2884 1.5961-0.1534 1.8764 0.3001 0.2802 0.4534 2.7511 1.1218 5.4909 1.4853 2.7397 0.3634 5.2272 1.0586 5.5277 1.5448s2.4564 1.199 4.7911 1.584c2.3346 0.3851 4.8046 1.1522 5.489 1.7047 0.6843 0.5526 2.3826 0.787 3.7738 0.5211 1.3913-0.266 2.7421-0.1398 3.0018 0.2804s3.7365 1.0848 7.7262 1.4769c3.9896 0.3922 7.7926 1.1483 8.451 1.6804s2.2334 0.8653 3.5 0.7403 2.9779 0.027 3.8029 0.3374c3.3846 1.2739 20.308 1.7223 21.69 0.5748 1.0559-0.8763 1.6754-0.8762 2.552 0.0004 1.4333 1.4333 17.384 1.571 18.258 0.1576 0.3399-0.55 1.8901-1 3.4447-1 3.6659 0 7.5047-2.0302 10.116-5.3503 1.1463-1.4573 2.6634-2.6497 3.3712-2.6497 1.3993 0 11.505-10.973 12.971-14.084 0.4966-1.054 1.2841-1.9163 1.75-1.9163 0.466 0 0.8472-0.4779 0.8472-1.0619 0-0.9541 3.8773-10.081 5.9349-13.971 0.4459-0.8431 1.1288-2.9806 1.5174-4.75 0.3887-1.7695 1.1156-3.2172 1.6154-3.2172s1.1965-1.8 1.5483-4 0.9803-4 1.3966-4 1.0788-2.5875 1.4721-5.75c0.3934-3.1625 0.9766-6.1762 1.296-6.697 0.3195-0.5209 0.4685-3.0648 0.3311-5.6531-0.1374-2.5884 0.3109-5.6039 0.9962-6.7012 0.9983-1.5986 0.9786-3.7138-0.099-10.642-0.7398-4.7557-1.7195-8.8781-2.177-9.1608-0.4575-0.2828-0.8319-2.036-0.8319-3.8961s-0.4292-3.6472-0.9538-3.9715c-0.5245-0.3242-1.2588-3.2858-1.6317-6.5813-0.3728-3.2956-1.0686-6.2335-1.5462-6.5286-0.4775-0.2952-0.8683-1.8601-0.8683-3.4776 0-1.6176-0.45-2.941-1-2.941-1.3249 0-1.2891-3.7033 0.044-4.5271 1.7172-1.0613 3.9562 1.5701 3.9562 4.6495 0 1.5827 0.45 2.8776 1 2.8776s1 1.5484 1 3.441c0 1.8925 0.4924 3.7453 1.0942 4.1172s0.8871 1.7592 0.6341 3.0829c-0.253 1.3236-0.07 2.6474 0.4058 2.9418 0.4763 0.2943 0.8659 2.0086 0.8659 3.8094 0 1.8009 0.3375 3.6112 0.75 4.0229s1.4992 3.7492 2.4149 7.4167l1.6648 6.6681 0.085-10.25c0.073-8.8122 0.3159-10.25 1.7304-10.25 1.4771 0 1.5912 1.5239 1.1169 14.906-0.2906 8.1985-0.9046 15.511-1.3644 16.25s-0.7021 2.38-0.5384 3.6466c0.1637 1.2667-0.1267 2.8417-0.6454 3.5-0.5186 0.6584-1.1996 3.8153-1.5133 7.0154-0.4759 4.8555-0.3435 5.6301 0.8002 4.6809 0.7538-0.6256 1.6602-2.4563 2.0143-4.0683s1.0069-2.9309 1.4507-2.9309c0.4439 0 1.1091-2.0145 1.4784-4.4767 0.3692-2.4622 1.0359-4.7021 1.4816-4.9775s0.5824-3.6866 0.3038-7.5804c-0.3392-4.7401-0.083-7.8717 0.7765-9.477 0.8292-1.5494 1.0729-4.1727 0.6889-7.4151-0.3306-2.7914-0.1729-5.278 0.3553-5.6045 0.5223-0.3228 0.9496-1.9103 0.9496-3.5278 0-2.0034 0.4996-2.941 1.5669-2.941 1.3652 0 1.4841 1.3834 0.9235 10.75-0.3539 5.9125-0.8815 11.425-1.1725 12.25-0.2909 0.825-0.4529 4.9875-0.3599 9.25 0.1175 5.3843-0.1912 7.75-1.0111 7.75-0.6876 0-0.962 0.8342-0.6574 1.999 0.2875 1.0994 0.1731 2.2151-0.2542 2.4792s-1.0638 1.9144-1.4144 3.6675c-0.3506 1.753-1.7347 4.6258-3.0758 6.3841s-2.7315 4.3649-3.0898 5.7925-1.2824 3.1192-2.0534 3.7591-1.4019 1.7834-1.4019 2.541c0 0.7577-0.45 1.3776-1 1.3776s-1 0.6199-1 1.3775c0 0.7577-0.646 1.9138-1.4357 2.5691-0.7896 0.6554-1.7254 2.5105-2.0795 4.1225-0.354 1.612-1.0467 2.9309-1.5392 2.9309-0.4926 0-1.8181 2.025-2.9456 4.5s-2.6612 4.5-3.4083 4.5-1.6471 0.7875-1.9999 1.75c-0.3529 0.9625-1.3215 2.9699-2.1525 4.4609-1.7934 3.2177-19.256 19.4-20.546 19.039-0.4916-0.1375-0.8938 0.2-0.8938 0.75s-1.3234 1-2.941 1c-1.6175 0-3.2191 0.45-3.559 1s-3.7149 1-7.5 1-7.1601 0.45-7.5 1c-0.5894 0.9537-14.916 1.0711-30.958 0.2537zm92.426-61.004c-0.03-2.6341-0.094-2.6682-1.5-0.8089-1.8708 2.4734-1.8611 3.5589 0.032 3.5589 0.9774 0 1.4889-0.9581 1.4682-2.75zm-18.968 60.632c0-0.6149 1.3657-2.7524 3.0348-4.75 4.0573-4.8558 4.4494-5.3857 5.2767-7.132 0.3908-0.825 1.6006-2.85 2.6885-4.5s2.2827-3.675 2.6552-4.5c0.3724-0.825 1.9523-3.1398 3.511-5.1439 1.5586-2.0042 2.8338-4.0866 2.8338-4.6276s0.6461-1.5198 1.4357-2.1752c0.7897-0.6553 1.7254-2.5104 2.0795-4.1224s1.058-2.9309 1.5643-2.9309 0.8479-0.3375 0.759-0.75c-0.089-0.4125 0.3612-2.0168 1-3.5651 0.6389-1.5483 1.1615-3.4343 1.1615-4.191s0.424-1.6379 0.9422-1.9582c0.5183-0.3203 1.2444-2.5968 1.6136-5.059s1.0191-4.4767 1.4442-4.4767 1.075-2.0145 1.4443-4.4767c0.3692-2.4622 1.126-4.7577 1.6817-5.1012 0.5557-0.3434 0.7743-1.2395 0.4859-1.9912-0.2885-0.7518-0.1072-1.6248 0.4028-1.94s1.2247-2.8147 1.5881-5.5545c0.3635-2.7397 1.0158-5.2007 1.4496-5.4688s1.1075-4.983 1.497-10.478c0.5283-7.4519 1.0566-9.9901 2.0794-9.9901 0.9879 0 1.3704 1.4678 1.3684 5.25 0 6.9979-1.9868 22.995-3.0062 24.25-0.4466 0.55-1.1359 2.8-1.5319 5-0.3959 2.2-1.127 4.5151-1.6246 5.1447-0.4975 0.6296-0.8174 1.5296-0.7108 2s-0.1458 1.7553-0.5609 2.8553c-0.415 1.1-1.0079 2.675-1.3175 3.5-0.3095 0.825-0.4756 1.8849-0.3689 2.3552 0.1066 0.4704-0.2087 1.3704-0.7006 2-0.4919 0.6297-1.1858 2.679-1.5419 4.5541-0.6509 3.4268-6.061 15.001-9.625 20.591-3.6532 5.7301-4.9626 8.0096-5.6006 9.75-0.3529 0.9625-1.0502 1.75-1.5497 1.75-0.4994 0-1.3536 1.0125-1.8982 2.25-0.5445 1.2375-1.8784 3.6-2.9642 5.25s-2.2725 3.675-2.6372 4.5c-1.3307 3.0107-3.7234 5-6.014 5-1.2897 0-2.345-0.5031-2.345-1.118zm-220.81-10.382c-4.3849-4.125-8.371-7.5-8.858-7.5s-4.2379-3.375-8.3354-7.5-7.8928-7.5-8.4342-7.5c-0.85424 0-23.566-22.939-23.566-23.802 0-0.1779-3.1168-3.8604-6.9263-8.1836-3.8095-4.3231-7.605-8.9074-8.4345-10.187-1.6505-2.5468-4.6628-14.47-3.8589-15.274 0.63021-0.6302 4.2198 5.9785 4.2198 7.7689 0 0.7312 1.125 2.3862 2.5 3.678 1.375 1.2917 2.5 2.8278 2.5 3.4135s1.0748 2.1948 2.3884 3.5757c8.3806 8.81 10.612 11.328 10.612 11.978 0 0.4025 3.15 3.7296 7 7.3936s7 7.0335 7 7.4879c0 1.0237 8.5794 9.1437 9.6913 9.1723 0.44481 0.012 3.8798 2.9481 7.6333 6.5258 3.7535 3.5778 8.0285 7.2809 9.5 8.2292 4.3328 2.7923 17.175 15.412 17.175 16.877 0 3.1314-4.3436 0.8678-11.807-6.1529zm-69.998-85c-0.0204-1.65 0.18706-2.4461 0.46099-1.769 0.27392 0.677 0.29059 2.027 0.0371 3-0.25354 0.9729-0.47766 0.419-0.49804-1.231zm165.81-12.216c-3.575-0.1821-7.175-0.6123-8-0.956s-2.5125-0.5258-3.75-0.4046c-1.2375 0.1211-2.25-0.2038-2.25-0.7221s-3.1396-1.2518-6.977-1.6299c-3.8373-0.3781-7.257-1.1405-7.5991-1.6942-0.3422-0.5536-1.8154-0.8815-3.2736-0.7285-1.4583 0.1529-3.1012 0.01-3.6508-0.3207-0.54967-0.3294-3.3786-0.9198-6.2866-1.3121-2.9079-0.3923-7.3192-1.7938-9.8029-3.1144-2.4837-1.3205-5.1118-2.401-5.8404-2.401-0.72855 0-1.9238-0.7219-2.656-1.6042-0.73224-0.8823-2.2498-2.014-3.3724-2.5148-1.1226-0.5009-3.3911-1.7991-5.0411-2.8848-1.65-1.0858-3.6406-2.2823-4.4236-2.6588-0.78298-0.3766-2.2026-1.394-3.1547-2.261-2.3681-2.1564-6.2095-4.7474-7.4217-5.0058-0.55-0.1172-1.675-0.7877-2.5-1.4899s-2.2875-1.556-3.25-1.8973c-2.1461-0.7611-2.3015-3.5346-0.24228-4.3248 0.82925-0.3182 2.7418 0.253 4.25 1.2693 3.9198 2.6412 6.4511 4.1511 8.7423 5.2144 1.1 0.5105 2.8572 1.8798 3.905 3.0429 1.0477 1.1631 2.333 2.1148 2.8561 2.1148 0.52311 0 2.6404 1.3379 4.7051 2.9732s3.9652 2.7621 4.2233 2.504c0.25811-0.2581 1.5245 0.6539 2.8142 2.0267 1.2897 1.3729 3.054 2.5114 3.9206 2.53 0.86663 0.019 3.3757 0.9034 5.5757 1.9661s5.2375 1.9474 6.75 1.9661c1.5125 0.019 2.75 0.4333 2.75 0.9214s4.5 1.4387 10 2.1125c5.5 0.6737 10 1.5662 10 1.9833 0 0.417 3.1397 1.0676 6.977 1.4458 3.8374 0.3781 7.2501 1.1293 7.5839 1.6693 0.3618 0.5855 2.9428 0.7176 6.3932 0.3273 3.9672-0.4489 6.0132-0.2878 6.5077 0.5124 0.8261 1.3367 37.274 0.3989 39.063-1.0052 0.5638-0.4424 3.3864-1.1176 6.2725-1.5004 2.8861-0.3829 5.4889-1.0868 5.784-1.5643s1.6084-0.8682 2.9185-0.8682 2.6234-0.3907 2.9186-0.8682c0.2951-0.4775 2.7966-1.168 5.559-1.5344 2.7623-0.3665 5.0224-1.1008 5.0224-1.6319 0-0.531 1.125-0.9655 2.5-0.9655s2.5-0.4143 2.5-0.9206 1.35-1.217 3-1.5794 3.0052-0.9607 3.0115-1.3295c0.01-0.3688 1.9188-1.557 4.25-2.6404s5.631-2.9959 7.3329-4.25 3.3391-2.2801 3.6383-2.2801c0.2991 0 4.0816-3.6294 8.4056-8.0653 7.7723-7.9735 10.852-12.938 8.5117-13.718-1.436-0.4787-1.512-3.8749-0.1062-4.7438 3.0243-1.8691 5.2773 6.5099 3.1359 11.663-1.1508 2.7694-15.354 17.864-16.809 17.864-0.7539 0-1.3707 0.3975-1.3707 0.8834 0 0.4858-0.7875 1.1477-1.75 1.4709-1.7008 0.5711-5.2396 2.6353-6.25 3.6457-0.275 0.275-3.65 2.0264-7.5 3.8921s-7.7678 3.7697-8.7063 4.2312-3.536 1.1317-5.7722 1.4892c-2.2362 0.3576-4.3074 1.0411-4.6027 1.5188-0.2952 0.4778-1.8337 0.8687-3.4188 0.8687s-3.1601 0.45-3.5 1-1.6415 1-2.8923 1c-1.2509 0-2.5874 0.313-2.97 0.6956-2.4096 2.4096-32.841 3.8001-56.638 2.5879zm-19.293-29.91c-0.397-0.3969-3.3139-0.6159-6.4822-0.4866-3.6798 0.1502-6.8376-0.3266-8.7428-1.32-1.6403-0.8553-3.7433-1.5579-4.6734-1.5613-0.93004 0-1.9838-0.4799-2.3416-1.0589-0.35787-0.579-1.1719-0.8779-1.809-0.6641s-3.1379-0.6624-5.5573-1.9472c-2.4194-1.2847-5.2054-2.3359-6.191-2.3359-0.98563 0-2.0859-0.4755-2.445-1.0565-0.35913-0.5811-2.9732-2.124-5.809-3.4287-2.8358-1.3046-6.9349-4.2042-9.109-6.4435-2.1741-2.2392-4.4483-4.0713-5.0538-4.0713-0.60549 0-2.6274-1.575-4.4932-3.5s-3.9791-3.5-4.6962-3.5c-0.71711 0-1.3038-0.6088-1.3038-1.3528s-2.475-3.6563-5.5-6.4717-5.5-5.5274-5.5-6.0266-2.2286-2.9358-4.9524-5.4146-5.2476-5.6831-5.6084-7.1206c-0.3608-1.4376-1.0713-2.6137-1.579-2.6137-0.50764 0-1.2166-0.7875-1.5755-1.75-0.35891-0.9625-2.9742-4.675-5.8117-8.25-2.8376-3.575-5.119-6.725-5.0699-7s-0.92152-1.9195-2.1569-3.6544-2.2461-3.6615-2.2461-4.2814c0-0.6198-0.675-1.386-1.5-1.7026s-1.5-1.6149-1.5-2.8853c0-1.2703-0.3375-2.4596-0.75-2.643-1.0164-0.4517-5.2421-9.2065-5.2818-10.943-0.0453-1.9799-2.808-5.384-3.67-4.522-0.39737 0.39736-0.17701 1.5959 0.48966 2.6634 0.66668 1.0675 1.2122 3.0721 1.2122 4.4545 0 1.3825 0.45 2.5136 1 2.5136s1 0.9061 1 2.0136c0 1.1074 0.4282 2.7949 0.95156 3.75 0.52335 0.955 1.6817 3.5364 2.5741 5.7364s2.2011 5.35 2.9082 7c0.70714 1.65 1.851 4.35 2.5418 6 0.69085 1.65 1.667 3.675 2.1692 4.5 0.50223 0.825 1.1776 2.2875 1.5007 3.25 0.32318 0.9625 1.0601 1.75 1.6376 1.75 0.57752 0 0.76333 0.2867 0.41291 0.6371s0.24958 1.8824 1.3333 3.4044c1.0838 1.522 1.9704 3.2446 1.9704 3.8281 0 0.5834 1.35 2.5984 3 4.4776s3 3.7426 3 4.1409c0 0.3982 1.125 1.609 2.5 2.6905 1.375 1.0816 2.5 2.5538 2.5 3.2715 0 0.7178 0.675 1.8652 1.5 2.5499 1.8639 1.5469 1.972 5 0.15654 5-1.3458 0-9.6565-9.1636-9.6565-10.648 0-0.4338-1.0125-1.7031-2.25-2.8206s-3.825-5.1818-5.75-9.0318-3.771-7.225-4.1022-7.5-1.3921-2.3-2.3576-4.5c-0.96548-2.2-3.507-7.6343-5.6478-12.076-2.1408-4.4419-3.8924-9.0544-3.8924-10.25s-0.45-2.1738-1-2.1738-1-1.3235-1-2.941-0.40415-3.1908-0.89811-3.496c-0.49396-0.3053-1.2148-3.7087-1.6019-7.563-0.38708-3.8544-1.1079-7.2577-1.6019-7.563-0.49396-0.30529-0.89811-1.627-0.89811-2.937 0-1.3101-0.45-2.6601-1-3-0.55-0.33992-1-1.8555-1-3.3679s-0.66069-3.6234-1.4682-4.691c-0.8075-1.0676-1.4825-3.1786-1.5-4.6911-0.0261-2.2582-0.4789-2.75-2.5318-2.75-1.5556 0-2.5-0.56667-2.5-1.5 0-0.825 0.675-1.5 1.5-1.5s1.5-0.26949 1.5-0.59887c0-0.61686-2.5578-6.715-3.9569-9.434-0.43383-0.84306-1.1068-2.9806-1.4954-4.75-0.97116-4.4217-3.5477-4.2591-3.5477 0.2238 0 1.8925-0.48068 3.7381-1.0682 4.1012-0.5875 0.3631-0.83215 1.2752-0.54368 2.027 0.28848 0.75175 0.0942 1.6328-0.43182 1.9579-1.2652 0.78195-1.2314 6.185 0.0437 6.973 0.55 0.33992 1 2.0915 1 3.8924s0.31302 3.5873 0.69561 3.9699c1.1115 1.1115 1.2117 3.577 0.17152 4.2198-1.7323 1.0706-3.8671-1.7699-3.8671-5.1456 0-1.8252-0.45-3.5966-1-3.9366-0.55-0.33992-1-2.1726-1-4.0726s-0.5625-4.4072-1.25-5.5716c-1-1.6937-1-2.2076 0-2.5698 1.3828-0.50079 1.7871-9.286 0.42726-9.286-0.87984 0-5.1773 8.0564-5.1773 9.7059 0 1.4813-2.9822 7.1651-4.1324 7.876-0.55319 0.34189-0.87102 2.4883-0.70628 4.7699 0.22607 3.1311-0.0635 4.1483-1.1809 4.1483-2.3804 0-2.1392-22.566 0.26961-25.225 0.9625-1.0627 1.75-2.6292 1.75-3.4811 0-0.85184 0.675-2.109 1.5-2.7937 0.825-0.68469 1.5-2.3148 1.5-3.6224 0-1.3077 0.41425-2.3776 0.92054-2.3776 0.5063 0 1.2102-1.3189 1.5643-2.9309 0.35406-1.612 1.2898-3.4671 2.0795-4.1224 0.78965-0.65535 1.4357-1.8114 1.4357-2.5691 0-0.75766 0.37206-1.3776 0.82681-1.3776 0.45474 0 0.6247-1.377 0.37768-3.06-0.33172-2.2602-0.85367-2.9048-1.9968-2.4661-0.85126 0.32665-1.8087 0.21742-2.1277-0.24274-0.31897-0.46016-2.2674-1.8621-4.33-3.1154-2.0625-1.2533-3.75-2.6921-3.75-3.1972 0-0.50514-0.6199-0.91844-1.3776-0.91844-0.75765 0-1.9767-0.72188-2.7089-1.6042-0.73224-0.88229-2.2498-2.0062-3.3724-2.4976-2.8502-1.2476-5.5063-3.0185-8.4881-5.6592-1.4042-1.2436-3.3405-2.5114-4.303-2.8174-1.7818-0.56646-2.4597-2.4216-0.88486-2.4216 0.75377 0 5.7284 3.4621 7.1349 4.9655 0.78435 0.83843 4.2974 2.9506 6.5411 3.9327 1.1226 0.49139 2.6402 1.6153 3.3724 2.4976 0.73224 0.8823 1.7872 1.6042 2.3442 1.6042 0.55709 0 2.0067 1.0724 3.2214 2.3831s3.1788 2.691 4.3647 3.0674c1.1859 0.37638 2.1561 1.104 2.1561 1.6169 0 0.51293 1.35 0.93261 3 0.93261s3-0.24658 3-0.54797c0-0.95597-5.4504-5.3875-6.6667-5.4204-0.64166-0.0174-1.3167-0.3691-1.5-0.7816-0.46526-1.0468-6.5646-5.25-7.6185-5.25-0.4764 0-1.9214-1.1232-3.2111-2.4961-1.2897-1.3728-2.5642-2.2767-2.8323-2.0087-0.60594 0.60593-3.1714-1.4496-3.1714-2.5411 0-1.0756 5.4733 1.7062 7.0172 3.5666 0.67522 0.81359 1.8101 1.4792 2.5219 1.4792 0.71182 0 1.4442 0.3375 1.6276 0.75 0.43081 0.96934 6.5284 5.25 7.4784 5.25 0.39932 0 1.7658 0.97677 3.0366 2.1706 2.6736 2.5117 3.0719 2.3118 3.9287-1.9724 0.54085-2.7042 0.28599-3.2872-1.7807-4.0729-1.3265-0.50434-3.0499-1.6858-3.8297-2.6253-0.77979-0.93959-2.4488-2.1003-3.7089-2.5794s-2.2911-1.2901-2.2911-1.8022c0-1.571 3.7002-0.0664 6.0885 2.4758 1.2431 1.3232 2.8016 2.4058 3.4634 2.4058 0.66178 0 1.7634 0.675 2.4481 1.5 1.3892 1.6739 9 2.0967 9 0.5 0-0.55-0.46822-1-1.0405-1-0.57227 0-2.4848-1.011-4.25-2.2466s-3.397-2.3606-3.6262-2.5c-0.22916-0.13936-0.11113-0.55891 0.2623-0.93235 0.37343-0.37343 2.0052 0.30157 3.6262 1.5s3.2604 2.179 3.6433 2.179c0.38285 0 2.1095 1.078 3.837 2.3956 2.2537 1.719 4.7522 2.4957 8.8458 2.75 3.1377 0.19489 5.7043 0.2659 5.7035 0.1578-0.00075-0.1081-2.5889-1.8801-5.7514-3.9379-3.1625-2.0577-5.9375-3.8818-6.1667-4.0535-0.22916-0.17166-0.13071-0.59808 0.2188-0.94758 0.65555-0.65555 4.3589 1.4511 6.8076 3.8725 0.76467 0.75616 2.0653 1.7048 2.8903 2.1081 2.4164 1.1812 5.6814 3.1495 7.1434 4.3064 0.74616 0.59043 3.8316 1.3038 6.8566 1.5853 3.025 0.28147 4.7125 0.31032 3.75 0.0641-0.9625-0.24621-1.75-0.81587-1.75-1.2659 0-0.45004-1.1794-1.1143-2.6208-1.476-3.2326-0.81134-5.798-3.1822-4.3869-4.0543 0.55422-0.34253 1.0077-0.18197 1.0077 0.35679s1.35 1.2761 3 1.6385 3 1.0374 3 1.5 1.3448 1.1365 2.9885 1.4975c1.6437 0.36102 3.2452 1.0718 3.559 1.5795 0.74762 1.2097 13.452 1.2029 13.452-0.007 0-0.51163-3.375-2.5535-7.5-4.5376-7.018-3.3755-10.014-6.0025-5.5-4.822 1.1 0.28766 2 0.92053 2 1.4064 0 0.48585 0.5625 0.88506 1.25 0.88713 0.6875 0.002 3.95 1.3504 7.25 2.9962 6.0308 3.0078 10.5 3.8591 10.5 2 0-0.55 1.2949-1 2.8776-1 1.5826 0 3.4378-0.675 4.1224-1.5 1.0198-1.2287 0.95083-1.5-0.38118-1.5-0.89434 0-3.3053-0.9-5.3576-2-2.0524-1.1-4.3007-2-4.9964-2-0.69565 0-1.2648-0.47656-1.2648-1.059 0-0.58246-0.34246-0.84736-0.76103-0.58867-0.97492 0.60253-4.7818-2.1428-4.0232-2.9014 0.31336-0.31336 2.2988 0.35699 4.4122 1.4897 2.1133 1.1327 4.4116 2.0594 5.1072 2.0594 0.69565 0 1.2648 0.41425 1.2648 0.92054 0 0.5063 1.3448 1.2159 2.9885 1.5769 1.6437 0.36102 3.2452 1.0718 3.559 1.5795 1.1023 1.7835 6.6128 0.90251 9.8636-1.5769 1.8027-1.375 3.7192-2.5 4.259-2.5 1.0865 0 5.3299-4.2311 5.3299-5.3144 0-0.37705-0.765-0.68555-1.7-0.68555-1.4 0-1.4662-0.22059-0.375-1.25 1.06-1 1.4167-1 1.7833 0 0.62179 1.6958 3.2917 1.5923 3.2917-0.12756 0-0.75765-0.675-1.9378-1.5-2.6224-0.825-0.68469-1.5-2.601-1.5-4.2584 0-3.0097 0.006-3.0127 4.6396-2.3776 2.5518 0.34975 5.7018 0.63592 7 0.63592s2.3604 0.51411 2.3604 1.1425c0 0.79935-1.8019 0.95411-6 0.51533-5.3407-0.55821-6-0.4296-6 1.1704 0 0.98867 1.35 3.091 3 4.6718 3.3261 3.1866 3.885 5.5 1.3287 5.5-2.3494 0-5.2997 2.9121-4.6543 4.594 0.38187 0.99514-0.25332 1.406-2.1735 1.406-1.7029 0-3.4453 0.93086-4.6796 2.5-1.0816 1.375-2.6639 2.5-3.5164 2.5-1.2643 0-1.3205 0.2764-0.30498 1.5 0.68469 0.825 2.0898 1.5 3.1224 1.5 1.0327 0 1.8776 0.45 1.8776 1 0 1.5428-3.6037 1.1825-5-0.5-0.68469-0.825-1.8273-1.5-2.5391-1.5-0.71182 0-1.5225-0.5625-1.8014-1.25-0.39806-0.98104-0.69398-0.98698-1.3753-0.0276-0.47745 0.67232-2.6161 1.5856-4.7526 2.0295s-4.0335 1.254-4.2156 1.8001c-0.18206 0.54617 1.6931 1.8829 4.167 2.9705s4.5023 2.315 4.5075 2.7275c0.0172 1.3651-1.8939 0.78534-8.0523-2.4428-5.0825-2.6642-6.4073-2.9953-8.001-2-1.0505 0.65606-3.0411 1.1928-4.4236 1.1928s-2.5136 0.37156-2.5136 0.82569c0 1.1291 4.1038 4.7364 6.25 5.4939 0.9625 0.3397 1.75 1.0676 1.75 1.6176 0 1.6651-3.2877-0.0221-7.1146-3.651-3.1687-3.0048-4.0489-3.3462-7.1355-2.7671-2.1599 0.40521-3.7812 0.23927-4.1944-0.42928-0.83216-1.3465-5.5555-1.4527-5.5555-0.12499 0 0.53065 1.0125 1.4966 2.25 2.1466 3.3137 1.7406 8.6944 6.6108 8.0336 7.2716-0.31428 0.31429-2.1942-0.78398-4.1775-2.4406-7.3245-6.1179-10.557-7.9425-14.071-7.9425-3.6063 0-3.8662 1.1131-0.78518 3.3628 6.9641 5.085 6.4887 4.5719 4.25 4.5882-1.1 0.008-3.125-1.1719-4.5-2.622s-3.85-3.2555-5.5-4.0122c-1.65-0.75663-4.3585-2.1952-6.0189-3.1968-3.7279-2.2488-13.541-3.4391-12.818-1.5547 0.26471 0.68981 1.5737 1.5284 2.9089 1.8635 1.3352 0.33512 2.4276 1.015 2.4276 1.5108 0 0.49582 1.2868 1.1841 2.8595 1.5295 1.5727 0.34543 4.1319 1.9562 5.6871 3.5795s3.4184 2.9514 4.1405 2.9514 1.3129 0.45 1.3129 1c0 1.916-2.6451 0.97991-5.4225-1.9191-1.5382-1.6055-3.9804-3.2162-5.4271-3.5793s-2.8599-0.96622-3.1404-1.3403c-1.1152-1.487-8.8276-6.0105-9.3526-5.4855-0.30812 0.30812-0.29173 1.9026 0.0364 3.5434 0.40033 2.0016 0.13756 3.2688-0.79861 3.8514-1.1374 0.70784-1.1643 1.2409-0.14524 2.8852 0.6875 1.1093 1.25 3.3465 1.25 4.9715s0.45 3.2327 1 3.5726c0.55 0.33992 1 1.6797 1 2.9772 0 3.291 0.99084 5.5228 2.452 5.5228 0.68091 0 2.0525 0.9 3.048 2 0.99549 1.1 2.3455 2 3 2 0.65451 0 2.005 0.90055 3.0011 2.0012 1.9952 2.2046 11.502 6.9988 13.878 6.9988 0.8266 0 1.7596 0.41538 2.0734 0.92306 0.31377 0.50769 1.9153 1.2184 3.559 1.5795 1.6437 0.36101 2.9885 1.0989 2.9885 1.6398 0 0.54088 0.7875 0.86292 1.75 0.71565 0.9625-0.14726 2.875 0.37101 4.25 1.1517 1.375 0.7807 2.725 1.4731 3 1.5387s1.7668 0.64402 3.3151 1.2854c1.5483 0.64142 3.9108 1.1662 5.25 1.1662s2.4349 0.39891 2.4349 0.88646 2.0145 1.1886 4.4767 1.5578c2.4622 0.36923 4.7072 1.0443 4.989 1.5002 0.28174 0.45588 2.2047 1.1452 4.2733 1.5317 2.0686 0.38657 4.3038 1.1513 4.9672 1.6995 0.6634 0.54813 1.6956 0.69412 2.2938 0.32442 0.59819-0.3697 1.6758-0.18403 2.3947 0.4126s3.5117 1.3725 6.2062 1.7242 5.3491 0.9769 5.8991 1.3893c0.55 0.41243 3.475 1.0767 6.5 1.4762 3.025 0.39947 5.9375 0.98819 6.4721 1.3083 0.53467 0.32009 2.6951 0.45757 4.801 0.30552 2.1058-0.15204 4.3684 0.15727 5.0279 0.68737 0.65947 0.5301 7.499 1.5185 15.199 2.1965 7.7 0.67796 14.54 1.6667 15.2 2.1973 0.66 0.53053 2.6915 0.8361 4.5144 0.67904 1.8229-0.15705 3.9174 0.0871 4.6544 0.54259 2.0274 1.253 48.775 2.8079 64.131 2.1331 7.425-0.32628 25.15-0.80579 39.389-1.0656 14.239-0.25979 26.389-0.86688 27-1.3491 0.611-0.48221 3.9746-1.1885 7.4746-1.5696 3.5-0.38106 7.1-1.0444 8-1.4742 0.9-0.42975 2.6096-1.2809 3.7991-1.8915 1.1895-0.61057 4.452-1.4138 7.25-1.785 2.798-0.37117 5.0872-1.0669 5.0872-1.546 0-0.47914 1.125-0.87117 2.5-0.87117s2.5-0.39203 2.5-0.87117 2.2315-1.1672 4.9589-1.529 5.229-1.0948 5.559-1.6288c0.3301-0.53406 1.672-0.97101 2.9821-0.97101s2.6242-0.39188 2.9202-0.87084 2.0067-1.1645 3.8014-1.5235c4.1333-0.82665 8.7784-2.8638 8.7784-3.8498 0-0.41574 0.6188-0.75589 1.375-0.75589 0.7563 0 1.6563-1.4062 2-3.125 0.9741-4.8705 0.7346-14.689-0.375-15.375-0.55-0.33992-1-1.4691-1-2.5093s-0.5625-2.2512-1.25-2.691c-1.4035-0.89788-3.2732-3.686-4.7276-7.0497-0.5351-1.2375-1.434-2.25-1.9976-2.25-1.5908 0-1.2068 2.7162 0.4752 3.3616 0.825 0.31658 1.5 1.4632 1.5 2.548s0.45 2.2505 1 2.5904c0.55 0.33992 1 1.1112 1 1.714 0 0.60279-0.9 0.28149-2-0.714s-2-2.3831-2-3.0836c0-0.70047-0.6341-1.9077-1.4092-2.6828-0.775-0.77506-1.5625-2.4901-1.75-3.8112-0.2069-1.4584-1.1264-2.5424-2.3408-2.7593-1.6175-0.28896-1.7609-0.10924-0.75 0.93979 0.6875 0.71338 1.25 1.9591 1.25 2.7683 0 0.80919 0.7191 2.2658 1.598 3.237 0.8789 0.97115 1.2777 2.2839 0.8863 2.9172-0.6784 1.0977-2.3987-1.0543-4.0172-5.0254-1.4218-3.4884-2.2856-4.5202-4.0743-4.8662-1.8092-0.35006-1.8155-0.28039-0.1428 1.5787 0.9625 1.0697 1.75 2.5066 1.75 3.193 0 0.68639-1.1447-0.11249-2.5439-1.7753s-3.4242-3.3026-4.5-3.6441c-1.2352-0.39205-1.9561-1.5173-1.9561-3.0534 0-1.3379-0.45-2.4326-1-2.4326s-1-2.025-1-4.5-0.4142-4.5-0.9205-4.5-1.2171-1.35-1.5795-3-1.0731-3-1.5794-3-0.9206-0.675-0.9206-1.5 0.45-1.5 1-1.5 1 0.675 1 1.5 0.4143 1.5 0.9206 1.5 1.2088 1.3124 1.5611 2.9165c0.3523 1.604 1.288 3.1649 2.0794 3.4686 0.7914 0.30368 1.4389 1.1568 1.4389 1.8957 0 2.2134 3.9631 9.7192 5.1318 9.7192 1.1248 0 0.3191-5.0172-0.962-5.99-0.3694-0.28051-1.7962-2.7555-3.1707-5.4999-3.3553-6.6996-3.2899-6.5101-2.2459-6.5101 0.5059 0 2.2115 2.5875 3.7903 5.75s3.124 5.975 3.4339 6.25c0.3098 0.275 1.107 1.7375 1.7715 3.25 0.6646 1.5125 1.6679 2.75 2.2297 2.75 1.2733 0 1.3409-1.6845 0.098-2.4524-0.5077-0.31377-1.2185-1.9153-1.5795-3.559s-0.9581-2.992-1.3269-2.9963c-1.3735-0.016-3.192-5.3708-2.1708-6.392 0.667-0.66693 1.0002-0.5685 1.0002 0.29543 0 0.7126 0.8701 2.5175 1.9335 4.011 1.0635 1.4935 2.2644 4.0335 2.6687 5.6445 0.8914 3.5518 2.982 5.824 4.4969 4.8877 0.6324-0.39084 0.7213-0.9591 0.2056-1.3138-0.4999-0.34375-1.6947-2.425-2.6552-4.625s-2.1746-4.7814-2.6979-5.7364c-1.1416-2.0832-1.2327-3.7728-0.2016-3.739 1.0957 0.0359 4.25 6.7278 4.25 9.0165 0 1.0774 0.4143 1.9589 0.9206 1.9589s1.2039 1.2375 1.5503 2.75c0.7408 3.235 5.5291 7.389 5.5291 4.7967 0-0.85067-0.4142-1.5467-0.9205-1.5467s-1.2171-1.35-1.5795-3-1.0206-3-1.4628-3-1.0817-0.7875-1.4212-1.75-0.8795-2.3125-1.2-3c-0.3204-0.6875-0.095-1.25 0.5007-1.25 0.5958 0 1.0833 0.675 1.0833 1.5s0.3492 1.5 0.7759 1.5 1.6642 2.0207 2.75 4.4905 2.3116 4.4948 2.7241 4.5c0.4125 0.005 0.75 0.62937 0.75 1.387 0 0.75765 0.6833 1.9446 1.5185 2.6378 0.8351 0.69311 2.2364 2.7732 3.1139 4.6224 0.9483 1.9983 2.333 3.3622 3.4135 3.3622 1.771 0 5.9541 4.7938 5.9541 6.8233 0 0.55803 0.6475 2.2886 1.4388 3.8456 2.663 5.2396 4.5612 10.122 4.5612 11.732 0 0.87938 0.3375 1.6024 0.75 1.6067 1.3892 0.0145 3.3747 5.453 3.9673 10.867 0.4706 4.2994 0.2695 5.5532-1.0049 6.2664-1.3097 0.73291-1.4912 2.1095-1.0196 7.7339 0.3849 4.5913 0.2008 7.0727-0.5596 7.5427-0.6232 0.38519-1.1332 1.9687-1.1332 3.5189s-0.6975 3.3974-1.55 4.105c-0.8526 0.70754-1.4181 2.2938-1.2568 3.5249 0.344 2.6247-2.7511 6.4335-5.228 6.4335-1.3976 0-1.8164-1.1858-2.2079-6.25-0.2657-3.4375-0.1237-6.7112 0.3155-7.275 0.4393-0.56375 1.1125-3.4888 1.496-6.5s1.1426-6.0375 1.6867-6.725c0.669-0.84521 0.6259-1.25-0.133-1.25-0.6174 0-1.1225-1.5484-1.1225-3.441 0-1.8925-0.4573-3.7236-1.0163-4.0691-0.559-0.34546-0.7574-1.047-0.441-1.559 0.3165-0.51199 0.1551-0.9309-0.3587-0.9309-0.5137 0-1.2092 1.3761-1.5456 3.058-0.6406 3.2033-2.7456 5.942-4.5669 5.942-0.6174 0-1.0715-2.0941-1.0715-4.941 0-5.1144-1.3196-7.1396-3.3371-5.1216-0.816 0.81613-1.1629 7.9784-1.1629 24.007 0 18.815-0.2646 23.171-1.5 24.7-2.3989 2.9675-3.6926 5.6735-4.4883 9.3883-0.4084 1.907-1.1024 3.9172-1.5421 4.4672s-0.8087 1.225-0.82 1.5c-0.063 1.5383-1.7315 4.5249-3.7366 6.6884-1.2591 1.3586-2.0615 3.064-1.783 3.7898 0.2785 0.7257 0.026 1.6166-0.5618 1.9797-0.5875 0.363-1.0682 1.4399-1.0682 2.3929 0 2.2222-8.0352 10.149-10.288 10.149-2.8596 0-1.9397-2.3603 2.6913-6.9053 3.4092-3.3458 4.5512-5.3069 5.0578-8.6849 0.3598-2.3997 1.0257-4.5927 1.4796-4.8733 0.454-0.2805 1.1486-3.1035 1.5438-6.2733 0.3951-3.1698 1.0543-5.9882 1.465-6.2632 1.2317-0.8248 2.1965-9 1.0621-9-0.5565 0-1.0118 0.4207-1.0118 0.9349s-0.5248 2.2017-1.1662 3.75-1.2428 3.0401-1.3363 3.3151c-1.5675 4.6059-6.9116 11-9.1936 11-0.7172 0-1.3039 0.6109-1.3039 1.3576 0 1.3191-15.123 15.642-16.516 15.642-0.3828 0-1.5809 1.125-2.6624 2.5-1.0816 1.375-2.4326 2.5-3.0022 2.5s-3.7994 2.1393-7.1774 4.7538c-3.378 2.6147-9.2918 6.3271-13.142 8.25-3.85 1.9229-7.225 3.7212-7.5 3.9962-0.6274 0.6275-12.166 6.2744-17.5 8.5641-2.2 0.9445-5.125 2.498-6.5 3.4522s-4.0602 2.0733-5.9672 2.4865c-1.9069 0.4133-4.3819 1.2146-5.5 1.7806-1.118 0.5659-2.8301 1.4186-3.8046 1.8949-0.9746 0.4763-3.7871 1.1422-6.25 1.4798-2.463 0.3376-4.4782 1.0027-4.4782 1.4779 0 0.4753-1.8 0.8641-4 0.8641s-4 0.4043-4 0.8985-3.1518 1.215-7.0039 1.6019c-3.8522 0.3868-7.2538 1.1075-7.559 1.6015-0.3053 0.4939-1.7886 0.8981-3.2961 0.8981s-3.1685 0.3945-3.691 0.8767c-1.163 1.0734-50.732 2.5078-51.743 1.4973zm12.127-8.2394c0.1841-1.3009-0.1534-2.8534-0.75-3.45-0.5966-0.5965-1.0847-2.3446-1.0847-3.8846s-0.45-2.8-1-2.8-1-0.9209-1-2.0465c0-1.2269-1.1989-2.7288-2.9937-3.75-1.6465-0.9369-2.9965-2.041-3-2.4535-0.01-1.1918-5.3486-0.8702-8.3002 0.5-1.8359 0.8523-2.89 2.2876-3.3127 4.511-0.3411 1.7936-1.0191 3.5077-1.5067 3.809-1.3138 0.812-1.0751 7.8415 0.31336 9.23 0.65997 0.66 3.7835 1.2 6.941 1.2s6.0339 0.4738 6.3918 1.053 2.522 0.9167 4.809 0.75c3.5049-0.2554 4.2108-0.6747 4.4929-2.6684zm24.165-0.2303c0-1.1527-0.7875-3.471-1.75-5.1518-2.0379-3.559-9.2481-10.691-10.845-10.728-1.8057-0.041-4.3389 3.3944-5.0223 6.8114-0.3525 1.7629-1.0329 3.4474-1.5118 3.7434-0.479 0.296-0.8709 2.0867-0.8709 3.9792v3.441h10c9.4856 0 10-0.1078 10-2.0957zm12.5 1.0957c0.3399-0.55 1.6899-1 3-1s2.6601-0.45 3-1 1.4915-1 2.559-1c1.0676 0 1.941-0.5749 1.941-1.2775 0-2.0039-2.961-5.7225-4.5567-5.7225-0.7938 0-1.4433-0.45-1.4433-1 0-1.4482-2.2332-1.2293-5.8463 0.5732-2.8986 1.446-3.1537 1.9718-3.1537 6.5 0 4.2102 0.2823 4.9268 1.941 4.9268 1.0675 0 2.2191-0.45 2.559-1zm-63.914-6.25c-0.74855-4.7501-3.724-8.2959-7.7924-9.2862-2.3753-0.5782-2.7894-0.3104-3.3843 2.1887-0.37281 1.5661-1.3621 3.635-2.1985 4.5975-1.368 1.5743-1.3545 1.75 0.13431 1.75 0.91025 0 1.655 0.4447 1.655 0.9882s1.8 1.276 4 1.6278 4 1.0321 4 1.5118 0.95751 0.8722 2.1278 0.8722c1.9417 0 2.0692-0.3717 1.4581-4.25zm84.914 1.25c0.3399-0.55 2.1399-1 4-1s3.6601-0.45 4-1 1.829-1.0143 3.309-1.0318c1.4801-0.018 3.571-0.6972 4.6465-1.5105 1.8818-1.423 1.75-1.6877-3.5-7.0259-3.0005-3.051-6.9526-6.264-8.7823-7.14-3.2135-1.5384-3.41-1.5095-5.765 0.8454-2.0437 2.0438-2.5404 3.7663-3.0713 10.65l-0.6333 8.2124h2.5892c1.4241 0 2.8673-0.45 3.2072-1zm23.5-6.875c0-0.4813 1.4591-1.1668 3.2424-1.5235 8.265-1.653 10.769-4.6664 6.9389-8.3515-5.9542-5.7293-5.7851-5.6683-9.1275-3.2883-2.8174 2.0062-3.0538 2.6336-3.0538 8.1064 0 3.2879 0.4457 5.9319 1 5.9319 0.55 0 1-0.3938 1-0.875zm-50.236-51.008c0.955-0.4859 2.9739-1.4619 4.4864-2.169 2.0497-0.9583 2.75-2.0066 2.75-4.1167 0-1.5571-0.45-2.831-1-2.831s-1-0.9-1-2 0.5652-2 1.2559-2c2.4896 0 3.8075-5.7724 4.0257-17.632l0.2184-11.868-13.615 0.37324c-8.6487 0.2371-13.847-0.002-14.25-0.65481-0.3591-0.58105-2.3704-0.79535-4.6256-0.49286-2.1946 0.29436-4.557 0.0812-5.2498-0.47373-0.6928-0.55491-4.3902-1.3344-8.2165-1.7321-6.3405-0.65914-6.8379-0.57988-5.6141 0.89466 1.0315 1.2429 1.1814 3.8155 0.6467 11.1-0.3829 5.2151-0.3384 10.045 0.099 10.734 0.4372 0.6885 0.8262 1.4769 0.8645 1.7519 0.038 0.275 0.4187 3.9623 0.8454 8.194s1.3022 8.1078 1.9457 8.6135 3.1726 1.2256 5.6203 1.5998 4.9227 1.0709 5.5 1.5481c2.2186 1.834 22.19 2.7502 25.313 1.1613zm30.736-4.1167c0.3399-0.55 1.986-1 3.6579-1s4.517-0.701 6.3224-1.5577c2.635-1.2504 3.4043-2.3188 3.8995-5.4161 0.3394-2.1222 1.1803-4.0456 1.8686-4.2743 0.9193-0.3055 1.2516-3.9786 1.2516-13.834 0-12.144-0.1661-13.41-1.75-13.335-0.9625 0.0458-7.0433 0.15834-13.513 0.25-11.162 0.15815-11.813 0.28163-12.75 2.4167-1.2232 2.7879-0.061 20.576 1.4428 22.08 0.5885 0.5885 1.07 2.33 1.07 3.87s0.45 2.8 1 2.8 1 1.485 1 3.3 0.54 3.84 1.2 4.5c1.4579 1.4579 4.4528 1.5709 5.3 0.2zm-125.26-8.9659c0.9258-1.0813 1.9838-4.2313 2.3511-7 0.36728-2.7688 1.1123-5.0341 1.6555-5.0341 0.54326 0 0.77063-1.1358 0.50528-2.5239-0.26536-1.3881-0.14474-2.7326 0.26803-2.9877 0.41278-0.2551 1.0695-2.6068 1.4595-5.2261 0.38993-2.6193 1.0879-5.2236 1.5511-5.7873 0.46316-0.56375 1.1428-3.2912 1.5102-6.0611l0.66806-5.0361-7.8538-1.1955c-4.3196-0.65754-8.8663-1.1925-10.104-1.1889-1.2375 0.004-2.25-0.38588-2.25-0.86558 0-0.47971-1.8902-1.1744-4.2004-1.5439-2.3102-0.36942-4.7795-1.1523-5.4873-1.7397-2.6906-2.233-4.3124-0.13998-4.3124 5.5653 0 3.0098 0.45 5.7505 1 6.0904 0.55 0.33992 1 2.6165 1 5.059s0.39275 4.441 0.87277 4.441 1.0904 2.2647 1.3563 5.0326c0.31383 3.2661 1.236 5.8336 2.6272 7.3145 1.179 1.255 2.1437 3.0403 2.1437 3.9673 0 0.9271 0.675 1.6856 1.5 1.6856s1.5 0.675 1.5 1.5 0.6375 1.5 1.4167 1.5c0.77916 0 1.5667 0.3457 1.75 0.7683 0.42865 0.9879 5.9007 5.2317 6.746 5.2317 0.35359 0 1.4004-0.8847 2.3262-1.9659zm185.63-5.6768c0.3445-0.4733 1.9763-1.4744 3.6263-2.2248s3.675-1.6938 4.5-2.0966c2.8154-1.3743 3.9704-5.4794 3.9853-14.163l0.015-8.6272-4.25 0.35821c-2.3375 0.19701-8.1875 0.63213-13 0.96693l-8.75 0.60873v8.9102c0 5.2734 0.4082 8.9102 1 8.9102 0.55 0 1 1.125 1 2.5s0.45 2.5 1 2.5 1 0.9585 1 2.13c0 1.9415 0.4095 2.0839 4.6237 1.6089 2.543-0.2866 4.9055-0.9083 5.25-1.3816zm-25.874-2.3573c1.375-1.0756 3.1975-1.9655 4.05-1.9778 0.8525-0.012 2.09-0.5622 2.75-1.2222 1.4509-1.4509 1.6009-5.8 0.2-5.8-0.5714 0-1-3-1-7v-7h-10c-9.7792 0-10 0.051-10 2.3089 0 1.2699 0.6607 3.1824 1.4682 4.25s1.4825 3.1786 1.5 4.6911c0.017 1.5125 0.4818 2.75 1.0318 2.75s1 0.9982 1 2.2181c0 1.22 1.2375 3.2816 2.75 4.5812 1.5125 1.2997 2.6375 2.5515 2.5 2.7819-1.2284 2.0579 0.7725 1.7479 3.75-0.5812zm78-2.4899c1.925-0.4076 4.1322-1.2516 4.9049-1.8756 1.6758-1.3533 4.5506-7.6462 4.2526-9.3091-0.1158-0.64603 0.2514-1.4601 0.816-1.809 0.5967-0.36875 1.0265-5.0349 1.0265-11.143 0-11.572 0.2649-11.229-6.5-8.4165-1.1 0.45726-4.25 1.5889-7 2.5148-9.7472 3.2818-9.5 2.9919-9.5 11.138 0 3.9996 0.3894 7.5126 0.8652 7.8067 0.4759 0.2941 1.1233 2.1249 1.4387 4.0685 0.6451 3.9751 4.6338 10.218 5.58 8.7328 0.3389-0.5317 2.1911-1.3002 4.1161-1.7079zm-199.52 0.526c3.8374-0.4942 7.1374-1.3795 7.3333-1.9673 0.196-0.5879 0.8839-1.0688 1.5288-1.0688 2.6605 0 3.8643-5.6817 2.7396-12.93-0.5933-3.8241-1.0788-7.2042-1.0788-7.5114 0-0.30715-1.8-0.55845-4-0.55845s-4-0.38361-4-0.85247-3.9207-1.1538-8.7126-1.5222c-4.7919-0.36833-10.417-0.94223-12.5-1.2753l-3.7874-0.60564v3.6414c0 3.2454 1.4298 7.2204 3.0986 8.6142 0.32923 0.275 0.90744 3.1877 1.2849 6.4727 1.1762 10.236 3.467 11.447 18.094 9.5634zm-68.601-5.387c1.666-2.0074 2.5892-10.243 1.2416-11.076-0.6877-0.42503-1.1178-4.1002-1.1178-9.5508 0-12.025-1.4942-14.69-8.7445-15.596-2.8905-0.36114-5.2555-1.0548-5.2555-1.5414 0-0.48663-0.56916-0.88478-1.2648-0.88478s-2.944-0.9-4.9964-2c-4.3809-2.348-7.7388-2.5906-7.7388-0.55902 0 0.79254 0.38568 1.6794 0.85707 1.9707 0.47139 0.29133 1.1205 3.082 1.4424 6.2015 0.32196 3.1195 1.0613 6.1477 1.6429 6.7293 0.58165 0.58165 1.0576 2.516 1.0576 4.2985s0.39899 3.4876 0.88664 3.789c0.48765 0.30138 1.2013 2.2252 1.5859 4.2752 0.38458 2.05 1.5606 4.9369 2.6134 6.4154s1.9141 3.3806 1.9141 4.2271c0 0.84644 1.0001 2.2394 2.2225 3.0956 2.794 1.957 12.084 2.0971 13.654 0.2058zm245.76-1.6491c5.2125 0 5.8332-1.383 4.8802-10.873-0.6287-6.26-0.8795-6.8009-3.7402-8.0672-2.3516-1.0409-3.4951-1.0895-4.9059-0.20846-1.0117 0.63186-2.7815 1.1488-3.9327 1.1488-1.9858 0-2.0577 0.34627-1.4016 6.75 0.3803 3.7125 1.0911 7.1775 1.5796 7.7 0.4884 0.5225 0.888 2.075 0.888 3.45 0 1.9444 0.2667 2.2333 1.2 1.3 0.66-0.66 3.1047-1.2 5.4326-1.2zm-277.97-28.9c-0.3699-4.6931-0.76931-9.8829-0.88759-11.533-0.24925-3.4771-1.4442-5.7563-2.6329-5.0216-0.45475 0.28105-2.1112-0.15883-3.6809-0.97753-1.5697-0.81869-3.4166-1.4913-4.1041-1.4947-0.6875-0.003-1.25-0.40368-1.25-0.88953 0-0.89749-4.1111-2.3389-4.7756-1.6744-0.19962 0.19963 0.0854 1.1943 0.63333 2.2103 1.1339 2.1025 2.3753 5.3685 2.6028 6.8474 0.24237 1.5759 1.5358 4.5962 4.2823 10 1.3977 2.75 3.2199 6.35 4.0492 8 2.545 5.0634 3.2709 5.6927 4.9547 4.2953 1.1999-0.99584 1.3536-2.8505 0.80879-9.7623zm-6.0285-61.989c-0.32507-0.52598-1.2516-0.70283-2.059-0.39301-2.0671 0.79323-1.8235 1.3493 0.59105 1.3493 1.1325 0 1.793-0.43035 1.468-0.95633zm342.22 23.487c-0.9625-1.3237-1.75-2.843-1.75-3.3763 0-1.1942-5.1874-11.46-6.1466-12.164-0.3822-0.28051-1.0043-1.743-1.3825-3.25s-1.0889-2.74-1.5793-2.74-0.8916-0.675-0.8916-1.5 0.45-1.5 1-1.5 1 0.675 1 1.5 0.4012 1.5 0.8916 1.5 1.2011 1.233 1.5793 2.74 1.0003 2.9695 1.3825 3.25c1.163 0.85374 6.1466 11.097 6.1466 12.634 0 0.79151 0.675 1.6981 1.5 2.0147 1.5118 0.58011 2.1443 3.3886 0.75 3.3302-0.4125-0.0173-1.5375-1.1144-2.5-2.4381zm6.5378-2.2805c-0.3571-0.9625-1.693-2.6643-2.9686-3.7818-1.2755-1.1175-2.3192-2.58-2.3192-3.25 0-0.66999-0.4142-1.2182-0.9205-1.2182s-1.2171-1.35-1.5795-3-0.9606-3.0052-1.3294-3.0115c-1.1141-0.0191-4.4334-7.7003-3.9514-9.1439 0.2468-0.73953 2.0336 1.8054 3.9705 5.6554 4.985 9.9087 6.5596 12.715 7.5178 13.4 1.6712 1.1947 4.3121 6.0996 3.2842 6.0996-0.5799 0-1.3467-0.7875-1.7039-1.75zm2.5584-2.5c-0.8848-1.7875-3.1162-6.4-4.9587-10.25s-4.1744-8.2344-5.182-9.7432c-1.0076-1.5087-1.5274-3.2359-1.1552-3.8382 0.3844-0.6219 1.5998 0.77931 2.8132 3.2432 1.1751 2.386 2.3809 4.5632 2.6795 4.8382 0.2987 0.275 1.814 3.2 3.3674 6.5 1.5535 3.3 3.4466 7.1944 4.2071 8.6543 1.577 3.0276 1.7067 3.8457 0.6099 3.8457-0.4249 0-1.4965-1.4625-2.3812-3.25zm-16.555-0.5c-0.3551-0.9625-0.9078-1.975-1.2282-2.25s-1.4782-2.3-2.5729-4.5c-1.0948-2.2-2.2923-4.2295-2.6612-4.51-0.3689-0.28051-0.9848-1.8555-1.3687-3.5-0.6696-2.8683-0.6334-2.9086 0.8889-0.98998 0.8728 1.1 1.6012 2.5625 1.6187 3.25 0.017 0.6875 0.4461 1.25 0.9524 1.25s1.217 1.35 1.5794 3 1.0207 3 1.4628 3c0.676 0 1.1399 1.1022 2.1045 5 0.068 0.275 0.6432 0.83061 1.2782 1.2347 0.8357 0.53178 0.8006 0.73891-0.1269 0.75-0.7047 0.008-1.5719-0.77219-1.927-1.7347zm21.708-1.0526c-1.6955-1.8486-2.5956-3.4353-8.3371-14.697-2.2432-4.4-4.5475-8.3306-5.1207-8.7347-0.6549-0.46168-0.6706-0.73468-0.042-0.73468 1.9114 0 3.3455 1.5053 4.0291 4.2294 0.3783 1.507 0.9765 2.7436 1.3293 2.748 0.3529 0.004 2.2166 3.3658 4.1416 7.4698s4.036 7.4753 4.691 7.492c1.6353 0.0415 2.726 2.0206 1.6719 3.0337-0.4746 0.45609-1.5379 0.0933-2.3629-0.80615zm-53-0.61405c0-0.77916-0.3375-1.5667-0.75-1.75-0.744-0.33066-1.4711-1.7622-6.7724-13.333-1.5119-3.3-3.4754-7.575-4.3633-9.5-0.8878-1.925-1.9518-3.65-2.3643-3.8333-1.1176-0.49675-0.9069-3.1667 0.25-3.1667 0.55 0 1 0.6375 1 1.4167 0 0.77916 0.3375 1.5667 0.75 1.75 0.8452 0.37561 3.4821 5.8482 10.876 22.572 1.0306 2.3312 2.2114 4.2437 2.6239 4.25 0.4125 0.006 0.75 0.68647 0.75 1.5115 0 0.825-0.45 1.5-1 1.5s-1-0.6375-1-1.4167zm-9.385-4.0482c-0.8882-1.3556-1.615-4.0556-1.615-6s-0.3375-3.5394-0.75-3.5446c-0.4125-0.005-1.6383-2.0302-2.7241-4.5s-2.2875-4.4905-2.6705-4.4905c-0.3831 0-0.993-1.35-1.3554-3s-0.9606-3.0035-1.3294-3.0078c-1.1056-0.0129-3.0478-4.95-2.1625-5.4972 0.4506-0.27849 1.418 0.84621 2.1497 2.4993 0.7318 1.6531 1.6348 3.0057 2.0069 3.0057 0.372 0 0.9729 1.35 1.3353 3s0.9607 3.0043 1.3295 3.0095c0.3688 0.005 1.5589 2.0302 2.6446 4.5 1.0858 2.4698 2.3233 4.4905 2.75 4.4905 0.4268 0 0.7759 1.6999 0.7759 3.7775s0.7005 4.7776 1.5567 6 1.133 2.2225 0.615 2.2225c-0.5179 0-1.6684-1.1092-2.5567-2.4648zm-312.61-3.0352c-0.68469-0.825-1.8648-1.5-2.6224-1.5-0.75766 0-1.3776-0.45-1.3776-1s0.57487-1 1.2775-1c1.6891 0 5.7225 2.8593 5.7225 4.0567 0 1.4274-1.5997 1.1305-3-0.5567zm-35-1.3395c0-0.46172-1.0125-1.3795-2.25-2.0396-5.2276-2.7883-6.9677-4.001-10.713-7.4665-2.1724-2.01-4.3352-3.6545-4.8062-3.6545-0.47106 0-2.1498-1.35-3.7306-3s-3.3767-3-3.9909-3c-0.61421 0-2.6433-1.575-4.5091-3.5s-3.7729-3.5-4.238-3.5c-1.2803 0-5.1969-3.8984-4.5583-4.5371 0.30699-0.307 1.2546 0.13825 2.1058 0.98944 0.85119 0.85119 1.9415 1.5476 2.4229 1.5476s2.4018 1.575 4.2676 3.5 3.8949 3.5 4.5091 3.5 2.4101 1.35 3.9909 3 3.2596 3 3.7306 3c0.47106 0 2.6769 1.6875 4.9019 3.75s4.9054 4.073 5.9564 4.4678c1.0511 0.39477 1.911 1.1335 1.911 1.6416s1.125 1.2062 2.5 1.5513c1.375 0.34511 2.5 1.0689 2.5 1.6084 0 0.53952 0.70156 0.98095 1.559 0.98095 0.85746 0 1.2809 0.45 0.94098 1-0.7503 1.214-2.5 1.3264-2.5 0.16052zm413.47-3.651c-1.0857-2.4698-2.2628-4.4948-2.6157-4.5-0.3528-0.005-0.951-1.2425-1.3293-2.7494-0.3782-1.507-1.0413-2.9695-1.4736-3.25-0.4322-0.28051-1.1365-1.6315-1.5649-3.0022-0.6977-2.2319-0.6073-2.3496 0.8652-1.1276 0.9043 0.75053 1.6442 1.9845 1.6442 2.7422 0 0.75766 0.4143 1.3776 0.9206 1.3776s1.217 1.35 1.5794 3 1.0374 3 1.5 3 1.1376 1.35 1.5 3 1.0732 3 1.5795 3 0.9205 0.675 0.9205 1.5c0 2.8186-1.55 1.5039-3.5259-2.9905zm-402.97 1.4905c-0.99549-1.1-2.2146-2-2.7092-2-0.49459 0-2.3373-1.3479-4.095-2.9954s-3.5529-2.9975-3.9893-3c-0.43646-0.003-2.6135-1.6921-4.8379-3.7546s-4.7901-4.1716-5.7017-4.6869c-0.91155-0.51531-2.7799-1.9778-4.1519-3.25s-2.7678-2.3131-3.1017-2.3131c-1.2141 0-4.8597-3.7202-4.2466-4.3333 0.34666-0.34666 1.351 0.20066 2.2318 1.2163 0.88084 1.0156 2.0515 1.9463 2.6015 2.0683 1.7907 0.39702 14.616 10.684 15.333 12.299 0.18334 0.4125 0.85834 0.75208 1.5 0.75463 0.64167 0.003 2.6048 1.3525 4.3624 3 1.7577 1.6474 3.6004 2.9954 4.095 2.9954 0.49458 0 1.7137 0.9 2.7092 2 0.99549 1.1 2.4152 2 3.155 2 0.73975 0 1.345 0.45 1.345 1 0 1.6868-2.5891 1.1115-4.5-1zm326.25-2.4695c-0.9625-1.3237-1.75-3.3345-1.75-4.4686 0-1.134-0.3999-2.0619-0.8887-2.0619s-1.178-1.5422-1.5316-3.4272c-0.3537-1.885-0.9759-3.5725-1.3829-3.75-0.4069-0.17753-2.2557-3.3035-4.1084-6.9467-3.4446-6.7735-3.7418-11.876-0.6918-11.876 0.7472 0 1.8873-0.63716 2.5336-1.4159 0.9385-1.1308 0.7618-1.5471-0.8775-2.0674-1.129-0.35832-2.0527-1.0712-2.0527-1.5841 0-1.493 1.2022-1.0913 3.6688 1.2259l2.2976 2.1585-3.7332 3.3113c-2.3263 2.0634-3.3401 3.6053-2.6902 4.0915 0.5737 0.42908 2.3737 3.4801 4 6.7801 1.6264 3.3 3.2803 6.1452 3.6754 6.3228 0.3951 0.17753 1.0076 1.865 1.3613 3.75 0.3536 1.885 1.0428 3.4272 1.5316 3.4272s0.8887 1.1391 0.8887 2.5314 0.675 2.7904 1.5 3.107c1.5118 0.58011 2.1443 3.3886 0.75 3.3302-0.4125-0.0173-1.5375-1.1144-2.5-2.4381zm-356.29-3.597c-1.0763-1.7414 0.14952-2.1102 1.5211-0.45764 0.78875 0.95039 0.86462 1.5242 0.20152 1.5242-0.58488 0-1.36-0.47994-1.7226-1.0665zm-7.3272-5.4335c-2.1307-1.925-4.1814-3.5-4.5571-3.5-0.37567 0-2.1211-1.3479-3.8788-2.9954s-3.4955-2.9975-3.8619-3c-0.36638-0.003-2.595-1.8032-4.9524-4.0015s-5.0536-4.2404-5.9915-4.5381c-0.93789-0.29767-1.9489-1.1762-2.2467-1.9522-0.35704-0.93042-0.0479-1.2216 0.90762-0.85494 0.79699 0.30583 1.4491 0.98447 1.4491 1.5081 0 0.52361 0.40087 0.70427 0.89082 0.40147 0.48994-0.30281 2.687 1.2456 4.8824 3.441 2.1953 2.1954 4.4195 3.9915 4.9425 3.9915 0.52304 0 2.2635 1.3375 3.8676 2.9722 1.6042 1.6347 3.3855 2.9847 3.9585 3 1.1551 0.0308 10.293 9.0278 9.1693 9.0278-0.38793 0-2.4487-1.575-4.5794-3.5zm442.16-6.9432c0.061-2.1517 0.6015-3.5568 1.3682-3.5568 0.7665 0 1.5306-1.9849 1.9336-5.0224 0.3664-2.7624 1.0643-5.2684 1.5507-5.5691 0.4865-0.30066 0.6449-0.93447 0.3519-1.4085-0.2929-0.47399-0.075-1.1445 0.4837-1.4899 0.559-0.34546 1.0163-1.8656 1.0163-3.378s0.6607-3.6234 1.4682-4.691 1.4825-3.1847 1.5-4.7047c0.031-2.6675-0.2701-3.5688-2.8459-8.5271-0.6545-1.2599-0.9424-2.6913-0.6398-3.1809 0.3026-0.48962 0.093-1.1729-0.4662-1.5183-0.5589-0.34546-1.0163-1.5016-1.0163-2.5691s-0.3433-1.941-0.7628-1.941c-0.4196 0-1.2071-0.97569-1.75-2.1682-0.543-1.1925-1.6622-2.4726-2.4872-2.8446s-2.5406-1.2177-3.8125-1.8793c-1.2719-0.66163-3.1466-0.93827-4.1659-0.61475s-2.1206 0.15566-2.4473-0.37302c-0.3268-0.52868-5.0897-1.28-10.584-1.6695-5.4945-0.38954-9.9901-1.0678-9.9901-1.5072 0-0.43941-2.4955-0.54137-5.5455-0.22657-3.6396 0.37563-6.3753 0.1283-7.9596-0.71961-1.6925-0.90581-4.5004-1.098-9.3946-0.64319-4.5298 0.42101-7.211 0.27579-7.6371-0.41363-0.3864-0.62527-3.8055-0.99387-8.3099-0.89586-4.2093 0.0916-8.4926-0.17398-9.5184-0.59016-1.0258-0.41619-8.5633-0.46679-16.75-0.11244-9.6203 0.4164-14.885 0.29301-14.885-0.34885 0-1.2536-12.678-1.323-13.45-0.0737-0.3125 0.50568 2.4734 1.2353 6.191 1.6215 3.7176 0.38612 7.2186 1.0669 7.7801 1.5128 0.5614 0.44594 5.0614 1.3414 10 1.9899 4.9385 0.64848 9.5488 1.64 10.245 2.2034 0.7342 0.59409 3.9941 0.80531 7.7616 0.5029 3.5726-0.28678 6.7092-0.17591 6.9702 0.24638 0.261 0.42228 3.401 1.0812 6.9779 1.4642 3.5769 0.38305 6.7891 1.1588 7.1383 1.7238 0.4059 0.65666 3.2962 0.77798 8.0105 0.33621 4.139-0.38786 7.3756-0.30226 7.3756 0.19507 0 0.48741 6.8625 1.4486 15.25 2.1359 8.3875 0.68734 15.4 1.6769 15.583 2.1991 0.1833 0.52217 1.5895 0.9494 3.125 0.9494 4.8893 0 9.0416 1.2055 9.0416 2.625 0 0.79391-1.0392 1.375-2.4591 1.375-4.0196 0-17.882-2.0777-20.041-3.0037-1.1-0.47186-5.6-1.1255-10-1.4525s-13.797-1.0274-20.882-1.5563c-7.0851-0.52897-13.442-1.4269-14.128-1.9954-0.685-0.56851-5.2381-1.2387-10.118-1.4893-11.909-0.61159-19.372-1.5704-19.372-2.4888 0-0.41556-3.1396-1.0649-6.977-1.4431-3.8373-0.37812-7.2016-1.0509-7.4761-1.4951-0.2745-0.44418-1.6375-0.59-3.0288-0.32403-1.3912 0.26596-3.0895 0.024-3.7738-0.53774-0.6844-0.56172-3.9443-1.3452-7.2443-1.7411-3.3-0.39587-6.5601-1.1674-7.2446-1.7144-0.6846-0.54704-2.1467-0.75876-3.2491-0.47048-1.1023 0.28828-2.2563 0.11639-2.5643-0.38198s-2.1226-0.90612-4.0324-0.90612c-3.8121 0-5.4209-2.0765-3.4492-4.4523 0.6513-0.78474 1.024-2.6915 0.8283-4.2373-0.3533-2.7899-0.3696-2.7812-2.2319 1.1895-1.0318 2.2-1.9236 4.225-1.9817 4.5-0.058 0.275-0.4339 1.0157-0.8351 1.6459-0.8203 1.2888 1.4463 6.2332 3.4154 7.4501 0.7077 0.43737 0.9837 1.0982 0.6133 1.4686-0.3704 0.37039-1.402-0.0552-2.2925-0.94562-0.8905-0.89048-2.4869-1.619-3.5476-1.619s-1.9286-0.675-1.9286-1.5-0.4018-1.5-0.893-1.5c-0.4911 0-1.1432-0.65208-1.4491-1.4491-0.3716-0.96852-0.075-1.2647 0.8931-0.89301 0.9396 0.36056 1.461-0.0968 1.483-1.3009 0.019-1.0214 0.9033-3.657 1.966-5.857s1.9474-4.5625 1.9661-5.25c0.019-0.6875 0.4482-1.25 0.9545-1.25s1.217-1.35 1.5794-3c0.6681-3.0415 3.5-4.2552 3.5-1.5 0 0.825 0.45 1.5 1 1.5s1 2.025 1 4.5c0 2.5108 0.4699 4.5 1.0629 4.5 0.5846 0 0.9221-0.95849 0.75-2.13-0.1938-1.3193 0.4483-2.5562 1.6871-3.25 1.1-0.61602 2.2295-1.4218 2.51-1.7908 0.2806-0.36889 1.7431-0.98017 3.25-1.3584 1.507-0.37823 2.74-1.0889 2.74-1.5793 0-0.49037 0.48-0.89159 1.0667-0.89159s2.5417-1.125 4.3444-2.5c1.8028-1.375 3.5872-2.5 3.9654-2.5 2.0422 0 7.6782-3.1025 7.1598-3.9413-0.6337-1.0254-4.6922 0.30479-7.5363 2.47-0.825 0.62807-3.075 1.753-5 2.4999-1.925 0.74686-3.7498 1.7182-4.0552 2.1585-0.856 1.2344-9.9055 2.6855-10.522 1.6873-0.7876-1.2744 0.455-2.8744 2.2323-2.8744 1.4769 0 7.3116-2.8638 8.3453-4.096 0.275-0.32781 1.8226-0.92023 3.439-1.3165 1.6165-0.39625 4.1609-1.5905 5.6544-2.654 1.4935-1.0634 3.2716-1.9335 3.9515-1.9335 0.6798 0 3.3104-0.96117 5.8456-2.1359 2.5352-1.1748 5.7345-2.5796 7.1095-3.1218 1.375-0.54225 3.6945-1.6061 5.1543-2.3641 3.0244-1.5704 6.2479-1.8379 5.3884-0.44728-0.3164 0.512-0.118 1.2136 0.441 1.559 0.559 0.34546 1.0163 0.15156 1.0163-0.4309 0-0.62363 2.3845-1.059 5.8-1.059 3.19 0 6.321-0.52093 6.9576-1.1576 0.8263-0.82628 1.5276-0.85189 2.45-0.0895 0.7109 0.58747 2.9849 1.3844 5.0535 1.771 2.0685 0.38656 3.9915 1.0758 4.2733 1.5317 0.2817 0.45587 2.5323 1.1318 5.0012 1.502 2.469 0.37024 4.7229 1.0516 5.0087 1.5141 0.2859 0.46252 1.1348 0.60492 1.8866 0.31644 0.7518-0.28847 1.6478-0.0698 1.9913 0.4859 0.3434 0.55572 2.639 1.3125 5.1011 1.6817 2.4622 0.36922 4.4767 1.0702 4.4767 1.5578 0 0.48755 1.0643 0.88646 2.3652 0.88646 1.3008 0 3.4435 0.7875 4.7614 1.75 3.3839 2.4712 6.0551 4.1129 8.3734 5.1463 1.1 0.49033 3.091 2.0643 4.4243 3.4976 1.4529 1.5618 3.5026 2.6061 5.1152 2.6061 1.4799 0 3.9002 0.9513 5.3783 2.114 3.1053 2.4426 4.6987 1.7772 2.2428-0.93661-0.9133-1.0092-1.6606-2.3619-1.6606-3.0061 0-0.64419-0.3975-1.1713-0.8833-1.1713-0.4859 0-1.1566-0.7875-1.4905-1.75-0.8968-2.5855-5.4376-10.384-7.144-12.27-0.8152-0.90081-1.4822-1.9589-1.4822-2.3513 0-0.77032-0.3215-1.2067-5.0712-6.8817-1.7274-2.064-2.9096-4.3548-2.6273-5.0907 0.6493-1.6918-0.9311-4.3603-1.9681-3.3233-0.4265 0.42648-0.1135 1.1941 0.6956 1.7057 0.8091 0.51167 0.9636 0.93721 0.3435 0.94563-1.4963 0.0203-3.5325-2.4913-2.6971-3.3267 0.3619-0.36189 0.085-0.65799-0.6157-0.65799-0.7014 0-1.0238-0.65107-0.7176-1.4491 0.3699-0.96386 0.075-1.2647-0.8791-0.89835-0.9048 0.34722-1.7865-0.37339-2.386-1.95-0.5229-1.3754-1.7666-3.1155-2.7639-3.8669-1.7895-1.3483-3.6699-3.9108-5.0163-6.8357-0.3797-0.825-1.7269-2.3202-2.9936-3.3226-1.2668-1.0024-2.3032-2.2788-2.3032-2.8365 0-1.1408-5.9717-9.9625-7.471-11.037-0.5341-0.38259-0.6841-0.98259-0.3333-1.3333 0.6405-0.64052 4.8043 2.9718 4.8043 4.1681 0 0.3515 2.475 3.4582 5.5 6.9037s5.5 6.7098 5.5 7.2539c0 0.54413 0.7217 1.2663 1.6038 1.6048 0.8851 0.33965 1.356 1.261 1.0509 2.0561-0.3684 0.96009-0.07 1.2552 0.8963 0.88458 0.902-0.34615 1.449 0.0624 1.449 1.0823 0 0.9011 0.7009 1.9073 1.5575 2.236 0.8566 0.32871 1.3295 1.1917 1.0509 1.9177-0.3287 0.85673 0.023 1.1168 1.0022 0.74108 0.9829-0.37715 1.7029 0.16344 2.0657 1.5509 0.3063 1.1714 1.0953 2.1299 1.7533 2.1299 1.5257 0 6.5704 5.2246 6.5704 6.8047 0 0.6574 0.45 1.1953 1 1.1953s1 0.50005 1 1.1112c0 0.61117 1.7244 3.1987 3.832 5.75s4.1185 5.4263 4.4687 6.3888c0.3501 0.9625 1.0649 1.75 1.5885 1.75 0.5235 0 1.2292 1.2626 1.5682 2.8058 0.3389 1.5432 1.4997 3.4425 2.5794 4.2208 1.0798 0.77825 1.9632 2.1459 1.9632 3.0392 0 0.89334 0.9 2.4387 2 3.4342 1.1 0.99549 2 2.4152 2 3.155 0 0.73975 0.3402 1.345 0.7559 1.345 0.8736 0 2.8312 4.2539 3.7966 8.25 0.3654 1.5125 1.0656 2.75 1.5559 2.75 0.4904 0 0.9438 0.7875 1.0076 1.75 0.1105 1.6667 0.1378 1.6667 0.5734 0 0.4772-1.8264 2.0858-2.2394 3.8347-0.98469 2.0761 1.4894 6.4759 11.523 6.4759 14.768 0 1.8418 0.45 3.6268 1 3.9667 1.6459 1.0172 1.232 20.532-0.5061 23.864-0.8216 1.5754-1.4939 3.8377-1.4939 5.0275s-0.7027 3.1665-1.5616 4.3928-1.4648 3.0139-1.3463 3.9725c0.1184 0.9586-0.036 2.4179-0.3425 3.2429-0.3067 0.825-0.8995 2.4-1.3173 3.5-0.4177 1.1-0.7984 2.45-0.8459 3-0.047 0.55-1.0551 1.1381-2.239 1.3068-1.8724 0.26685-2.1395-0.15623-2.0518-3.25zm2.7044-59.675c0-0.55-0.45-0.72189-1-0.38197s-1 1.068-1 1.618 0.45 0.72189 1 0.38197 1-1.068 1-1.618zm-129-3.882c0-0.55-1.3234-1-2.941-1-1.6175 0-3.2191 0.45-3.559 1-0.3678 0.59512 0.823 1 2.941 1 1.9575 0 3.559-0.45 3.559-1zm115 0.17726c0-0.45251-1.9125-1.7574-4.25-2.8998-3.6415-1.7796-6.6152-2.1365-20.771-2.4926-14.886-0.3745-16.989-0.64935-21.25-2.7775-4.2859-2.1405-4.7292-2.6894-4.7292-5.8559 0-3.6131 2.3032-7.1515 4.655-7.1515 0.7398 0 1.345-0.45 1.345-1s1.4625-1.0522 3.25-1.116c2.1337-0.0762 2.563-0.28487 1.25-0.60761-1.1-0.27038-2.4723-0.87345-3.0496-1.3401-0.5773-0.46669-2.9398-1.1508-5.25-1.5202-2.3102-0.36942-4.2004-1.0066-4.2004-1.416 0-0.40941-1.8901-1.0466-4.2004-1.416-2.3102-0.36942-4.8102-1.1778-5.5556-1.7964-1.9033-1.5796-16.782-2.3444-17.669-0.9083-0.381 0.61641-2.0162 1.1208-3.6337 1.1208s-2.941 0.4218-2.941 0.93734c0 0.51553-2.9185 2.3741-6.4856 4.1302s-6.9972 3.8093-7.6224 4.5627c-0.6253 0.7534-1.7193 1.3698-2.4311 1.3698s-1.4442 0.3375-1.6275 0.75c-0.1834 0.4125-2.1334 1.6354-4.3334 2.7176s-5.125 2.8106-6.5 3.8408c-1.375 1.0303-4.075 2.5918-6 3.4701l-3.5 1.5968 8 0.70676c4.4 0.38872 15.65 0.9994 25 1.3571 36.889 1.4111 74.109 3.7295 76.17 4.7445 1.1936 0.58786 3.746 0.77321 5.672 0.41189 2.0536-0.38525 3.7653-0.23068 4.1389 0.37374 0.7533 1.219 6.5189 1.4029 6.5189 0.20794zm-132-3.1773c0-0.55-0.45-1-1-1s-1 0.45-1 1 0.45 1 1 1 1-0.45 1-1zm138-1.941c0-1.1799-1.9503-2.442-2.6666-1.7257-0.7164 0.71632 0.5458 2.6667 1.7256 2.6667 0.5176 0 0.941-0.42344 0.941-0.94098zm-40.25 70.225c-1.5125-0.22913-2.75-0.8367-2.75-1.3502 0-0.51347-0.3375-0.86091-0.75-0.7721-0.4125 0.0888-2.0168-0.36118-3.5651-1-1.5483-0.63881-3.4342-1.1615-4.191-1.1615-0.7567 0-1.6151-0.38715-1.9076-0.86033-0.2924-0.47319-2.6361-1.1488-5.2081-1.5013-2.572-0.35254-5.249-1.1162-5.9489-1.6971-0.9047-0.75079-1.8822-0.67814-3.3814 0.25131-1.435 0.88961-2.3388 0.97229-2.8284 0.25873-0.3957-0.57678-2.632-1.6074-4.9695-2.2902s-4.25-1.6313-4.25-2.1077c0-1.0534 3.8139-0.16365 4.5746 1.0672 0.749 1.2119 4.4254 1.1117 4.4254-0.12071 0-0.55-0.765-1-1.7-1-1.4 0-1.4662-0.22059-0.375-1.25 1.06-1 1.4167-1 1.7834 0 0.252 0.6875 0.9833 1.2528 1.625 1.2562 0.6416 0.003 2.4966 0.69967 4.1221 1.5473s4.888 1.806 7.25 2.1298c2.362 0.32374 4.2945 0.91995 4.2945 1.3249 0 0.40494 1.8 1.0241 4 1.3759 2.2 0.35179 4 1.1109 4 1.6868 0 0.57596 0.4189 0.78831 0.9309 0.47188 0.512-0.31644 1.2136-0.11799 1.559 0.44098 0.3455 0.55897 1.6406 1.0163 2.878 1.0163s3.1234 0.66069 4.191 1.4682c2.0559 1.555 1.6485 1.6423-3.8089 0.81555zm-28.562-9.9669c-0.7218-0.28887-1.5844-0.25335-1.9166 0.0789-0.3323 0.33229 0.2583 0.56864 1.3125 0.52522 1.1649-0.048 1.4019-0.28494 0.6041-0.60416zm-235.44 6.3778c-2.6125-0.56644-4.75-1.4045-4.75-1.8623 0-0.45782-0.675-0.8324-1.5-0.8324s-1.5-0.45-1.5-1 0.675-1 1.5-1 1.5 0.36113 1.5 0.80252 2.3625 1.3426 5.25 2.0028c7.6647 1.7523 7.6309 1.7423 8.3877 2.4991 0.92909 0.92909-3.0495 0.65616-8.8877-0.60969zm9.75-1.5765c-1.1-0.9403-2.5663-2.7016-3.2585-3.9139-1.2166-2.1309-1.1167-2.1997 3-2.0681 2.3422 0.0749 3.246 0.3312 2.0085 0.56955-2.7117 0.5223-3.0299 3.7584-0.50833 5.1696 0.95792 0.53608 1.5204 1.1947 1.25 1.4636-0.27042 0.26891-1.3917-0.28042-2.4917-1.2207zm211.5-9.0592c0-1.622 1.5564-2.0053 5.5262-1.361 3.5334 0.57338 3.6515 0.69218 1.4846 1.4938-1.6312 0.60342-2.6037 0.47738-3.1671-0.41045-0.6343-0.99954-0.8164-1.0064-0.8284-0.0313-0.01 0.6875-0.6903 1.25-1.5153 1.25s-1.5-0.42344-1.5-0.94098zm-6-3.0093c0-0.52267 0.7838-1.3889 1.7417-1.925 0.9579-0.53608 1.4192-1.2972 1.025-1.6914-0.3942-0.39417-1.555 0.31868-2.5797 1.5841-1.1659 1.4398-2.3378 2.0073-3.1318 1.5167-1.0123-0.62567-0.9945-0.97415 0.088-1.7246 0.9431-0.65377 0.6662-0.7461-0.9083-0.30285-1.6271 0.45808-3.3168-0.18072-6-2.2684-2.0542-1.5983-4.41-3.2234-5.235-3.6114-2.5126-1.1815-11.005-6.5626-12-7.6038-0.8607-0.9005-6.4286-4.6252-8-5.3516-0.825-0.38142-2.85-1.5938-4.5-2.6941-1.65-1.1004-3.7875-2.2729-4.75-2.6056-0.9625-0.33274-1.7875-0.89-1.8333-1.2384-0.5085-3.8644-0.453-5.2568 0.253-6.3489 0.6693-1.0355 1.0007-1.0202 1.7093 0.0786 0.742 1.1509 0.9543 1.1509 1.3631 0 0.2662-0.74973 0.8019-1.0695 1.1903-0.71053 1.0264 0.94853-1.6483 4.827-3.4229 4.9634-1.0958 0.0842-1.0299 0.24133 0.2405 0.57333 0.9625 0.25152 1.75 0.82618 1.75 1.277s0.632 1.0622 1.4045 1.3586c1.0011 0.38417 1.3291-0.14777 1.142-1.8522-0.2353-2.1438-0.044-2.2744 1.8455-1.263 1.1594 0.62049 2.2205 1.0521 2.358 0.95919 1.0617-0.71762 4.1623 0.24085 6.1601 1.9042 1.8284 1.5224 2.1301 2.2866 1.25 3.1667-1.6342 1.6342-1.442 3.7601 0.3399 3.7601 0.825 0 1.5 0.34377 1.5 0.76393s1.8 1.8764 4 3.2361 4 2.783 4 3.1628c0 1.0676 5.4332 3.5261 6.7917 3.0733 0.6646-0.22152 1.2083-1.0403 1.2083-1.8194 0-1.9255 1.3765-1.7818 3.1929 0.33333 2.5817 3.0062 3.06 4.2843 1.3591 3.6316-0.8536-0.32755-1.552-0.14618-1.552 0.40304 0 1.651 5.1887 2.5007 6.2495 1.0234 0.6778-0.94401 0.7756-0.80282 0.3511 0.5074-0.475 1.4666-0.1957 1.6909 1.4537 1.1674 1.1229-0.3564 2.7065-0.0963 3.5189 0.57799 1.2959 1.0755 1.271 1.4539-0.2029 3.0826-1.8183 2.0091-3.3703 2.4265-3.3703 0.90631zm-8-10.24c0-1.3144-2.2728-0.49134-2.771 1.0035-0.2436 0.73075 0.2136 0.95424 1.1875 0.58051 0.8709-0.33422 1.5835-1.047 1.5835-1.584zm-22.473-13.853c1.0929-1.7683-1.3822-3.7066-4.0756-3.1917-2.4117 0.46102-2.4528 0.57656-0.8387 2.3601 1.8825 2.0801 3.9287 2.4263 4.9143 0.83156zm-285.53 18.044c0-0.55 2.025-1 4.5-1s4.5-0.45 4.5-1c0-0.57707 3.147-1 7.441-1 4.0925 0 7.7191-0.45 8.059-1 0.33992-0.55 4.1649-1 8.5-1s8.1601-0.45 8.5-1c0.33992-0.55 2.729-1.0198 5.309-1.0439s6.491-0.69237 8.691-1.485c2.2-0.79257 4.7875-1.4478 5.75-1.4561 0.9625-0.008 1.75-0.46506 1.75-1.0151 0-0.55 1.275-1 2.8333-1s3.1708-0.3375 3.5833-0.75 1.05-0.78669 1.4167-0.83153c3.0499-0.373 7.8972-2.1819 14.743-5.5018 4.4419-2.1541 8.6044-3.9166 9.25-3.9166 0.64559 0 1.1738-0.45 1.1738-1s-0.9-1-2-1-2 0.45-2 1-1.8 1-4 1-4 0.45-4 1-0.675 1-1.5 1c-2.6777 0-1.5841-1.8226 1.5-2.5 1.65-0.3624 3-1.0732 3-1.5795 0-0.50629 1.0984-0.92054 2.441-0.92054 1.3425 0 2.7372-0.47931 3.0993-1.0651 0.4327-0.70012 1.2898-0.49361 2.5012 0.60262 2.0803 1.8826 4.3211 1.6489 3.0956-0.32291-1.4054-2.2614-7.3547-2.5475-11.912-0.57305-2.3236 1.0067-4.2247 2.1741-4.2247 2.5944 0 0.42026-0.87344 0.7641-1.941 0.7641-1.0675 0-2.2236 0.45734-2.5691 1.0163-0.34546 0.55897-1.047 0.75742-1.559 0.44098-0.51199-0.31643-0.9309-0.13627-0.9309 0.40036s0.53852 1.1552 1.1967 1.3746c1.5882 0.52939-7.2384 4.7678-9.9291 4.7678-1.1555 0-2.3593-0.5625-2.675-1.25-0.31575-0.6875-0.33128-0.26381-0.0345 0.94153 0.40171 1.6315 0.0799 2.2068-1.2592 2.2515-15.977 0.53254-21.276 0.97444-23.047 1.922-2.9083 1.5565-3.7356 1.4224-2.2521-0.36506 1.0433-1.257 0.88379-1.5-0.98454-1.5-1.5709 0-2.0594 0.44309-1.6538 1.5 0.38781 1.0106-0.0474 1.5-1.334 1.5-1.0503 0-2.1877 0.45-2.5276 1-0.33992 0.55-2.1399 1-4 1s-3.6601 0.45-4 1c-0.33992 0.55-1.4915 1-2.559 1s-1.941-0.45-1.941-1 1.125-1 2.5-1 2.5-0.45 2.5-1 1.6875-1.072 3.75-1.16c3.6921-0.15756 3.6998-0.16626 0.5-0.56336-1.7875-0.22182-3.25-0.82481-3.25-1.34 0-1.4139 7.7468-1.1251 8.4074 0.31336 0.31575 0.6875 0.32293 0.2375 0.0159-1-0.54102-2.1809-0.33097-2.25 6.8426-2.25 4.0704 0 7.7099-0.30917 8.0878-0.68704 0.78676-0.78675 2.307-0.9988 12.529-1.7476 4.0605-0.29746 7.9923-1.0467 8.7373-1.665 0.74497-0.61827 2.0123-0.8717 2.8163-0.56318 0.94719 0.36347 1.2789 0.0842 0.94218-0.79318-0.34095-0.8885 0.53618-1.586 2.5509-2.0285 1.6888-0.37093 3.0706-1.0887 3.0706-1.595 0-0.50629 0.9-0.92054 2-0.92054 2.831 0 2.4823-1.8661-0.5651-3.0248-3.1514-1.1982-33.667-1.3052-34.985-0.12272-1.5386 1.3807-26.45 0.1379-26.45-1.3196 0-1.3312 16.177-2.533 34.098-2.533 5.444 0 10.058-0.44358 10.402-1 0.33992-0.55 2.3165-1 4.3924-1s4.0424-0.26813 4.3702-0.59584c1.1206-1.1206 13.738-1.5258 13.738-0.44117 0 0.60191 2.5422 1.037 6.059 1.037 9.0923 0 6.294-1.6109-4.1705-2.4009-7.7201-0.58279-76.211 0.5384-107.64 1.762-8.8587 0.34492-9.25 0.27088-9.25-1.7505-0.00003-2.0433 0.37501-2.1019 11.75-1.8375 16.805 0.39067 112.5-2.5194 120.25-3.6567 3.575-0.52482 7.7375-1.2682 9.25-1.6519 2.4338-0.6175 2.75-0.41988 2.75 1.7189 0 1.3291 0.5625 2.9869 1.25 3.6839 1.0015 1.0154 0.90211 1.5244-0.5 2.5602-0.9625 0.71111-1.75 1.8058-1.75 2.4327 0 0.62687-0.62686 1.1398-1.393 1.1398-0.76616 0-1.6546 0.68175-1.9744 1.515-0.31975 0.83325-1.7179 1.9471-3.107 2.4752-1.3891 0.52813-2.5256 1.4214-2.5256 1.985 0 0.56361-0.48002 1.0248-1.0667 1.0248-0.5867 0-2.4992 1.09-4.25 2.4221-1.7508 1.3322-4.5333 2.7515-6.1833 3.154-1.65 0.40251-3.225 1.0109-3.5 1.3519-1.2551 1.5566-11.18 5.9266-14.88 6.5517-2.26 0.38183-4.3631 1.1051-4.6734 1.6072-0.31034 0.50215-1.8611 0.91299-3.4462 0.91299s-3.144 0.424-3.4643 0.94222c-0.32028 0.51822-2.6024 1.2452-5.0713 1.6154-2.4689 0.37024-4.735 1.0712-5.0357 1.5578-0.3007 0.48653-2.7436 0.88461-5.4287 0.88461s-5.1601 0.45-5.5 1c-0.33992 0.55-4.1649 1-8.5 1s-8.1601 0.45-8.5 1c-0.33992 0.55-3.9665 1-8.059 1-4.294 0-7.441 0.42293-7.441 1 0 0.55-2.025 1-4.5 1s-4.5-0.45-4.5-1zm57-15c1.213-0.78387 1.0694-0.9723-0.75-0.98469-1.2375-0.008-2.25 0.43469-2.25 0.98469 0 1.2529 1.0612 1.2529 3 0zm46.833-15.074c0.18334-0.50933 1.1076-0.92606 2.0538-0.92606 2.24 0 8.5387-6.5019 7.6662-7.9136-0.36929-0.59753-1.5561-1.0864-2.6374-1.0864-1.3844 0-2.1435 0.88743-2.566 3-0.55729 2.7865-0.91238 3-4.9886 3-2.4137 0-5.2644 0.54699-6.3349 1.2155-1.8232 1.1386-1.8409 1.332-0.28018 3.0566 1.6984 1.8767 6.369 1.6486 7.087-0.34611zm-19.833-0.92606c0-0.55-1.1516-1-2.559-1-1.4514 0-2.2915 0.43284-1.941 1 0.33992 0.55 1.4915 1 2.559 1s1.941-0.45 1.941-1zm-8-3c0-0.55-1.1516-1-2.559-1-1.4514 0-2.2915 0.43284-1.941 1 0.33992 0.55 1.4915 1 2.559 1s1.941-0.45 1.941-1zm247.87 31.796c-0.753-0.71442-3.0535-2.4234-5.1122-3.7976-2.0588-1.3743-3.7463-2.8362-3.75-3.2487 0-0.4125-0.6121-0.75-1.3519-0.75-0.7397 0-2.1595-0.9-3.155-2s-2.2433-2-2.7729-2c-0.5297 0-2.4139-1.2375-4.1872-2.75s-4.2473-3.425-5.4978-4.25c-1.2504-0.825-3.3049-2.2875-4.5655-3.25s-3.1961-1.75-4.301-1.75-2.1977-0.3375-2.4283-0.75c-0.2307-0.4125-0.2683-0.15083-0.083 0.58149 0.2207 0.87441-0.863 0.5905-3.1566-0.82707-3.1423-1.942-9.1438-2.8534-19.65-2.984-2.0421-0.0254-2.9797-2.2337-1.7455-4.1111 0.7766-1.1812 1.1436-1.126 2.2678 0.34068 1.6399 2.1398 2.6207 2.2405 2.6207 0.26913 0-1.1869 0.9431-1.358 4.75-0.86185 2.6125 0.34046 5.2 0.96348 5.75 1.3845 0.55 0.42101 3.5935 1.0864 6.7632 1.4787 3.1698 0.39229 6.0099 1.1123 6.3113 1.6 0.3015 0.48774 1.6514 0.6099 2.9998 0.27146 1.3484-0.33843 3.0732-0.0995 3.8328 0.53091 0.7597 0.63043 3.7913 1.4175 6.737 1.7491 2.9458 0.33158 5.8959 1.0274 6.5559 1.5464 0.66 0.51892 2.6915 0.815 4.5144 0.65794 1.8229-0.15705 3.7579-0.0228 4.3 0.29835s5.0356 0.90871 9.9856 1.3057c4.95 0.39697 9.5441 1.1661 10.209 1.7092 0.6649 0.54307 2.5774 0.68684 4.25 0.3195 1.9978-0.4388 3.0409-0.27753 3.0409 0.47015 0 0.7846 2.9607 1.0783 9.533 0.94578 5.2432-0.10576 9.8182 0.0929 10.167 0.44139 0.3485 0.34853 1.6837 0.63368 2.967 0.63368 1.4381 0 2.3333 0.59306 2.3333 1.5458 0 1.3315-1.4208 1.4655-10.25 0.96669-18.992-1.073-24.734-1.6773-25.346-2.6677-0.3456-0.55909-2.2521-0.70833-4.4041-0.34475-2.3048 0.38939-4.0545 0.22077-4.4564-0.42944-0.8365-1.3535-9.5436-1.4178-9.5436-0.0706 0 0.55 0.6429 1 1.4286 1s2.2132 0.78464 3.1722 1.7436c1.9593 1.9592 5.034 3.9116 7.6492 4.857 0.9625 0.34794 1.75 1.2551 1.75 2.016 0 1.8335-1.912 1.7762-2.6237-0.0786-0.3086-0.80407-1.4897-1.7567-2.6248-2.1169-1.135-0.36026-3.0508-1.7201-4.2572-3.0218s-2.4094-2.1509-2.6733-1.887c-0.2638 0.26389-1.535-0.64343-2.8247-2.0163-1.4939-1.5902-3.4383-2.4961-5.3577-2.4961h-3.0128l2.8742 3c1.5808 1.65 3.2582 3 3.7276 3 1.0444 0 7.1436 4.2101 7.6058 5.25 0.1833 0.4125 0.9157 0.75 1.6275 0.75s1.8544 0.675 2.5391 1.5c1.0156 1.2237 0.9592 1.5-0.3061 1.5-0.8531 0-2.1578-0.5625-2.8994-1.25-2.3489-2.1774-7.6796-5.75-8.5797-5.75-0.4764 0-1.9571-1.1727-3.2905-2.6061-1.3333-1.4334-3.3243-3.0073-4.4243-3.4976-1.1-0.49033-2.675-1.2726-3.5-1.7385-4.5799-2.586-6.2609-3.2267-6.8474-2.6098-0.3589 0.37761 0.2044 1.1963 1.2518 1.8193 1.0473 0.623 3.3567 2.3702 5.132 3.8827 1.7752 1.5125 3.661 2.75 4.1907 2.75 0.5296 0 1.7774 0.9 2.7729 2s2.4153 2 3.155 2c0.7398 0 1.3481 0.3375 1.3519 0.75 0 0.4125 1.6912 1.875 3.75 3.25 5.0204 3.3531 7.7182 5.8583 7.0394 6.5371-0.307 0.307-1.1743-0.0263-1.9272-0.74075zm-376.06-2.7343c-1.3551-1.0659-3.6658-2.2397-5.1349-2.6084-1.4691-0.36872-2.6711-1.0716-2.6711-1.562 0-0.49037-0.64286-0.89159-1.4286-0.89159-0.78572 0-2.0232-0.56833-2.75-1.263-1.883-1.7997-9.594-6.8355-12.821-8.3733-0.825-0.39309-2.4422-1.7081-3.5939-2.9223-1.1516-1.2142-3.0641-2.5155-4.25-2.8919-1.1859-0.37638-2.1561-1.104-2.1561-1.6169 0-0.51293-0.6199-0.93261-1.3776-0.93261-0.75765 0-1.9916-0.73991-2.7422-1.6442-1.2208-1.471-1.107-1.5625 1.0809-0.86806 1.345 0.42689 3.0612 1.3918 3.8136 2.1442 0.75244 0.75244 1.678 1.3681 2.0569 1.3681 0.37883 0 1.8092 1.0357 3.1786 2.3015s3.1648 2.6335 3.9898 3.0392c3.3986 1.6715 10.98 6.6361 12.821 8.3963 0.72678 0.69464 1.9643 1.263 2.75 1.263 0.78571 0 1.4286 0.40122 1.4286 0.89159 0 0.49038 1.1635 1.1836 2.5856 1.5405 1.4221 0.35692 3.1096 1.0809 3.75 1.6088 0.64042 0.5279 2.2894 1.8447 3.6644 2.9262s1.9982 1.9814 1.3849 1.9996c-0.61333 0.0183-2.2238-0.83883-3.5789-1.9047zm83.194-1.8562c0-0.92719 10.165-4.2058 13.04-4.2058 1.0782 0 1.9604-0.45 1.9604-1s1.35-1 3-1 3 0.45 3 1-1.3234 1-2.941 1c-1.6175 0-3.1996 0.41851-3.5158 0.93001-0.31612 0.51151-3.0486 1.2391-6.0722 1.6169-3.0236 0.37777-5.7431 1.0843-6.0432 1.57-0.6792 1.099-2.4278 1.163-2.4278 0.0889zm265.35-2.5945c-0.9146-1.044-0.5682-1.3292 1.6923-1.3934 2.0741-0.059 2.6938 0.30608 2.293 1.3507-0.6783 1.7676-2.4576 1.7867-3.9853 0.0428zm9.6499-0.90131c-1.375-0.63506-2.725-1.4338-3-1.7751-0.275-0.34125-2.6621-2.2587-5.3047-4.261-2.6427-2.0023-5.4471-4.2829-6.2322-5.0679-0.785-0.78506-1.9979-1.631-2.6952-1.8798-0.6973-0.24881-0.9236-0.82073-0.5029-1.2709 0.4207-0.45021 2.2422 0.61319 4.0476 2.3631 1.8055 1.7499 3.7395 3.1816 4.2979 3.1816 0.5585 0 2.3087 1.35 3.8895 3s3.3953 3 4.0321 3c0.6369 0 1.9724 0.9 2.9679 2 2.0511 2.2664 1.9617 2.3088-1.5 0.70999zm-12.865-2.6267c-0.5192-0.32083-1.0994-1.0333-1.2894-1.5833s-0.6403-0.90173-1.0006-0.78162-0.9108-0.44769-1.2232-1.2618c-0.499-1.3006-0.2288-1.3048 2.228-0.0343 3.6538 1.8895 5.6922 4.2444 3.6738 4.2444-0.7946 0-1.8695-0.2625-2.3886-0.58334zm-340.13-3.5386c-1.375-0.7999-5.875-3.0274-10-4.95-4.2618-1.9864-9.2067-5.244-11.453-7.5452-2.1741-2.2273-4.4483-4.0496-5.0538-4.0496-0.60549 0-2.6274-1.575-4.4932-3.5s-3.8877-3.5-4.4932-3.5c-0.60549 0-2.8585-1.8-5.0068-4-2.1482-2.2-4.4896-4-5.203-4-1.4602 0-1.784-3.581-0.40113-4.4357 1.2676-0.78343 5.0972 1.3866 9.1434 5.181 1.9034 1.785 3.8178 3.2475 4.2542 3.25 0.43646 0.003 2.6135 1.6921 4.8379 3.7546s4.7923 4.1697 5.7064 4.6827c0.91417 0.51301 3.2371 2.4459 5.1621 4.2952 1.925 1.8494 7.325 5.1596 12 7.3561s9.2814 4.4262 10.236 4.9548c0.95504 0.52863 2.455 0.96114 3.3333 0.96114s1.4121 0.5625 1.1863 1.25c-0.5939 1.8079-6.8311 1.9963-9.756 0.29477zm85.586-2.2919c-0.91071-0.91072 5.1876-3.2528 8.4696-3.2528 1.5544 0 3.1043-0.45 3.4442-1 0.33992-0.55 1.6415-1 2.8924-1s2.6118-0.3375 3.0243-0.75 1.05-0.78847 1.4167-0.83548c0.36667-0.047 3.4892-0.44378 6.939-0.8817s6.5139-1.187 6.809-1.6645c0.74749-1.2095 6.4186-1.0931 6.4186 0.1317 0 0.55-1.3234 1-2.941 1-1.6175 0-3.1908 0.40415-3.496 0.89811-0.30528 0.49396-3.7086 1.2148-7.563 1.6019-3.8544 0.38708-7.2577 1.1079-7.563 1.6019-0.30529 0.49396-1.8785 0.89811-3.496 0.89811s-2.941 0.45-2.941 1-1.3207 1-2.9349 1-4.0429 0.42127-5.3972 0.93616c-1.3542 0.51488-2.741 0.65739-3.0818 0.31668zm39.414-1.1938c0-0.58246 0.45-1.059 1-1.059s1 0.19844 1 0.44098-0.45 0.7191-1 1.059c-0.55 0.33992-1 0.14148-1-0.44098zm183.95-7.3759c-2.5019-1.7507-5.4001-3.6653-6.4404-4.2546-2.8998-1.6426-3.2222-3.6889-0.3374-2.1418 3.3407 1.7916 8.11 4.9801 9.6483 6.4503 0.7267 0.69464 1.7392 1.263 2.25 1.263 0.5107 0 0.9285 0.45 0.9285 1 0 1.5545-1.141 1.1175-6.049-2.3168zm-263.13-14.35c-3.85-0.21468-7.675-0.67416-8.5-1.0211-0.825-0.3469-4.3285-0.52006-7.7856-0.3848-3.6748 0.14377-6.8684-0.23774-7.6886-0.91851-0.88536-0.73478-4.2852-1.0458-9.2144-0.84289-7.5438 0.31052-7.8227 0.24113-8.1437-2.026-0.29599-2.0908-0.0226-2.2869 2.5-1.7929 1.5578 0.30506 9.6948 0.85657 18.082 1.2256 8.3875 0.369 15.25 1.0906 15.25 1.6034 0 0.55486 2.8772 0.64899 7.1048 0.23242 4.7658-0.46961 7.3266-0.34106 7.7788 0.3905 0.48327 0.78194 10.005 0.83038 33.645 0.17116 18.134-0.50569 37.189-0.93366 42.344-0.95105 8.2156-0.0277 9.2188-0.21677 8.1276-1.5316-0.89373-1.0769-3.2554-1.4996-8.3724-1.4986-10.149 0.002-33.823-1.9932-35.762-3.014-0.89917-0.47332-6.5706-0.60019-12.603-0.28195-6.8734 0.3626-11.199 0.20521-11.586-0.42156-0.38426-0.62176-5.1164-0.81494-12.507-0.51058-7.4652 0.30746-12.121 0.11368-12.513-0.52081-0.35453-0.57366-2.6212-0.78537-5.2437-0.48979-2.6325 0.29672-4.8973 0.0835-5.2658-0.49566-0.35665-0.56057-9.1667-1.5215-19.647-2.1428-10.45-0.61957-19.123-1.4964-19.274-1.9486-0.15092-0.45216-1.6175-0.62498-3.2592-0.38404-1.6416 0.24094-3.5431-0.0253-4.2256-0.59165-0.68246-0.56634-4.5033-1.3512-8.4908-1.744-3.9875-0.39289-7.25-1.1458-7.25-1.673 0-0.56053-1.6217-0.68471-3.9047-0.29899-2.9921 0.50551-4.3944 0.24038-6-1.1343-2.5501-2.1834-2.7251-5.211-0.34529-5.9716 2.1051-0.67278 6.1729-2.3266 8.2828-3.3675 0.84306-0.41589 3.0783-1.0956 4.9672-1.5105 1.8889-0.41487 4.1241-1.1142 4.9672-1.5542 1.8819-0.98199 5.1867-2.1993 6.5328-2.4063 1.5938-0.24513 8.7946-3.1252 12.831-5.132 1.5571-0.77413 3.9196-1.4075 5.25-1.4075s2.419-0.39599 2.419-0.87999c0-0.48399 6.1875-1.6188 13.75-2.5217 7.5625-0.90294 16.225-2.0004 19.25-2.4389 5.9631-0.86432 36.359 0.84467 37.616 2.115 0.42153 0.42591 4.0554 0.47634 8.0754 0.11207 5.4648-0.49521 7.309-0.35295 7.309 0.56385 0 0.88326 2.0275 1.1416 7.25 0.92394 3.9875-0.16623 7.7-0.0259 8.25 0.31183s3.5875 0.93588 6.75 1.3292c3.1625 0.39334 5.75 1.0615 5.75 1.4847 0 0.42325 2.475 1.0788 5.5 1.4567 3.025 0.37795 5.5 1.153 5.5 1.7222 0 0.56926 0.69858 0.76696 1.5524 0.43932 0.85381-0.32764 2.6679 0.13517 4.0312 1.0285 1.3634 0.8933 2.7648 1.3382 3.1143 0.98872 0.34951-0.3495 0.11046-0.63546-0.5312-0.63546-0.64167 0-1.1667-0.675-1.1667-1.5 0-1.847 2.3935-1.9582 4.1786-0.19405 0.72679 0.71828 1.9964 1.6232 2.8214 2.011 0.825 0.38778 2.85 1.5951 4.5 2.683s3.675 2.29 4.5 2.6715c1.6906 0.78159 7.2355 4.5254 8 5.4015 0.275 0.31512 1.175 0.89527 2 1.2892 1.6111 0.76934 3.7486 2.0455 8.5 5.0748 4.4216 2.819 13.489 11.772 12.895 12.733-1.2214 1.9762-4.676 0.48628-9.6026-4.1414-2.9107-2.7341-5.8547-4.9841-6.5422-5s-1.25-0.4066-1.25-0.86831c0-0.46172-1.0125-1.3665-2.25-2.0106-1.2375-0.64412-3.6-2.0614-5.25-3.1495s-3.675-2.2849-4.5-2.6596c-0.825-0.37468-2.5732-1.5046-3.8849-2.511-4.1684-3.1982-4.7669-1.9596-0.80949 1.675 2.0931 1.9224 4.1181 3.4997 4.5 3.5052 0.38189 0.005 3.6194 2.6911 7.1944 5.9682 3.575 3.277 7.2875 6.2279 8.25 6.5574 2.1516 0.73674 2.2603 2.7961 0.2363 4.4758-1.1528 0.95676-4.9673 1.0852-16 0.53874l-14.486-0.71753v2.445 2.445l-25.75 0.64801c-43.688 1.0994-64.458 1.3817-71.75 0.97511zm113-14.346c-1.5808-1.65-3.3767-3-3.9909-3-0.61421 0-2.6433-1.575-4.5091-3.5s-3.7804-3.5-4.2548-3.5c-0.47435 0-2.5236 1.2985-4.5538 2.8855-3.5091 2.743-4.3143 2.9125-16.309 3.4324-7.2178 0.31284-13.014 0.15052-13.544-0.37929-0.50939-0.50939-3.722-1.2184-7.1392-1.5756-4.4274-0.46276-6.8577-1.2778-8.4562-2.8358-1.2338-1.2026-3.0307-2.474-3.9932-2.8254-1.1067-0.4041-1.75-1.6845-1.75-3.4833 0-4.3363 4.7022-8.2289 11.687-9.6746 5.7825-1.197 5.7296-1.2075-9.9429-1.9792-8.6659-0.4267-15.999-1.1692-16.297-1.65-0.29716-0.48083-3.238-0.59226-6.5352-0.24763-3.9465 0.41249-6.7762 0.20847-8.2814-0.5971-1.7687-0.9466-5.3257-0.98007-15.709-0.14783-23.305 1.868-32.187 2.943-33.271 4.0265-0.5783 0.5783-2.3114 1.0514-3.8514 1.0514s-2.8 0.41425-2.8 0.92054c0 0.5063-1.4477 1.2385-3.2172 1.6272-3.1903 0.70071-4.3048 1.1285-8.4097 3.2278-1.1698 0.59825-3.7623 1.3945-5.761 1.7695-1.9988 0.37498-3.8807 1.0808-4.1821 1.5684-0.30139 0.48765-1.5114 0.88664-2.689 0.88664-1.4209 0-1.8062 0.33483-1.1455 0.99552 0.54754 0.54754 4.8 1.4811 9.45 2.0745 4.65 0.59344 9.2616 1.5116 10.248 2.0402 0.98654 0.52869 8.6365 1.3744 17 1.8793 23.266 1.4046 31.721 2.2246 32.281 3.131 0.28136 0.45525 5.3955 0.54829 11.365 0.20676 5.9692-0.34154 11.687-0.25395 12.707 0.19463 1.0196 0.44859 7.0866 0.694 13.482 0.54536 6.8272-0.15867 11.878 0.13455 12.234 0.71018 0.33327 0.53924 2.6651 0.74834 5.1818 0.46467 2.5908-0.29202 5.5259-0.0123 6.7658 0.64475 1.2304 0.65204 12.486 1.7443 25.69 2.493 12.925 0.73288 23.922 1.3972 24.437 1.4763 0.5154 0.0791-0.35629-1.2062-1.9371-2.8562zm-222.33-11.04c-1.2836-0.52717-2.1463-1.5216-1.9171-2.2098 0.5749-1.7266 3.589-2.1617 6.1323-0.88515 1.1652 0.58486 3.4686 1.1917 5.1186 1.3486s3 0.73527 3 1.2853c0 1.3276-9.371 1.6778-12.334 0.46099zm371.23-5.461c0.2721-1.65 0.7932-6.825 1.1579-11.5 0.3648-4.675 1.0078-8.95 1.429-9.5 0.4211-0.55 1.0786-3.5875 1.4611-6.75 0.3824-3.1625 1.113-5.75 1.6234-5.75 1.1724 0 1.2263 4.6976 0.062 5.4171-0.4762 0.29433-0.6483 1.6735-0.3823 3.0648s0.016 3.0933-0.556 3.7823c-0.5718 0.68895-1.3613 5.6345-1.7544 10.99-0.4331 5.9003-1.2706 10.429-2.1252 11.492-1.2763 1.5874-1.3634 1.4689-0.9156-1.2458zm-129.59-1.438c-1.3551-1.0659-3.6658-2.2397-5.1349-2.6084-1.4691-0.36872-2.6711-1.0228-2.6711-1.4536 0-0.43075-1.125-1.0655-2.5-1.4106-1.375-0.34511-2.5-1.0331-2.5-1.529 0-0.49582-1.35-1.198-3-1.5604s-3-1.0244-3-1.471c0-0.44667-1.125-1.0945-2.5-1.4396-1.375-0.34511-2.5-1.0992-2.5-1.6758 0-1.1083 4.1088-0.21556 5 1.0864 0.275 0.40174 1.604 1.0755 2.9534 1.4972 1.3494 0.42169 3.069 1.3823 3.8214 2.1348 0.75244 0.75244 2.0109 1.3681 2.7966 1.3681 0.78571 0 1.4286 0.41425 1.4286 0.92054 0 0.5063 1.3189 1.2102 2.9309 1.5643 1.612 0.35406 3.4671 1.2898 4.1224 2.0795 0.65535 0.78965 1.7633 1.4357 2.4621 1.4357 0.69881 0 1.5296 0.675 1.8462 1.5 0.78786 2.0531-0.60719 1.8813-3.5557-0.43801zm-12.79-1.1194c-1.9164-1.0684-4.0539-1.9426-4.75-1.9426-0.69608 0-1.2656-0.45-1.2656-1s-0.56916-1-1.2648-1-2.944-0.9-4.9964-2-4.6066-2-5.6762-2c-1.0695 0-2.192-0.40034-2.4944-0.88964-0.30241-0.4893-3.479-1.4718-7.059-2.1835-3.58-0.7116-6.5092-1.6094-6.5092-1.9951 0-0.38572-2.475-1.0105-5.5-1.3885-3.025-0.37795-5.5-1.0148-5.5-1.4152 0-0.40038-2.8125-1.3079-6.25-2.0167-3.4375-0.70878-6.7-1.6374-7.25-2.0636-0.55-0.42618-2.853-1.0571-5.1177-1.402-5.0927-0.77569-9.9668-3.1666-8.413-4.1269 0.61505-0.38012 1.7065-0.20298 2.4254 0.39365s3.3992 1.3715 5.9562 1.722c2.557 0.35047 4.6491 0.97497 4.6491 1.3878 0 0.41279 2.0145 1.0526 4.4767 1.4218 2.4622 0.36923 4.7577 1.126 5.1012 1.6817 0.34345 0.55572 1.2395 0.77437 1.9913 0.4859 0.75175-0.28848 1.6133-0.12565 1.9146 0.36184 0.30128 0.48748 3.0157 1.1947 6.032 1.5716 3.0163 0.37686 5.4842 1.0323 5.4842 1.4564 0 0.42418 2.0145 1.0733 4.4767 1.4426 2.4622 0.36923 4.7145 1.0562 5.0052 1.5265 0.2907 0.47036 2.4006 1.1715 4.6888 1.5581 2.2881 0.38657 7.1233 2.2235 10.745 4.0821 3.6215 1.8586 7.147 3.3815 7.8346 3.3842 0.6875 0.003 1.25 0.4061 1.25 0.89647 0 0.49038 1.125 1.174 2.5 1.519 1.375 0.34511 2.5 1.0689 2.5 1.6084 0 1.3698-0.97392 1.1595-4.9844-1.0764zm-220.02-0.8342c0-0.49038-1.2375-1.1906-2.75-1.5559-7.0992-1.715-8.0192-2.6072-8.0192-7.7763 0-4.4649 0.16452-4.7903 2.1346-4.2226 1.174 0.33833 3.2596 1.3892 4.6346 2.3352 1.375 0.94604 4.6558 2.719 7.2907 3.9399 5.5038 2.5502 6.7829 4.6444 4.0847 6.6875-2.0744 1.5708-7.3754 1.9964-7.3754 0.59217zm240-0.60841c0-0.825-0.39075-1.5-0.86833-1.5s-1.1185-1.8648-1.4242-4.1441c-0.30572-2.2793-0.93178-4.4168-1.3912-4.75-0.45947-0.33323-1.7209-2.2934-2.8032-4.3559s-2.203-3.7543-2.4904-3.7595c-0.28743-0.005-1.411-2.0302-2.4967-4.5-1.0858-2.4698-2.3233-4.4905-2.75-4.4905-0.42673 0-0.77588-0.60526-0.77588-1.345 0-0.73976-0.9-2.1595-2-3.155-1.1-0.99549-2-2.174-2-2.6189 0-1.2509-8.3418-8.828-9.75-8.8561-0.6875-0.0138-1.25-0.46643-1.25-1.006 0-0.53952-1.125-1.2633-2.5-1.6084s-2.5-0.99835-2.5-1.4517c0-0.45331-0.7875-1.0746-1.75-1.3806-0.9625-0.30599-2.8989-1.5738-4.303-2.8174-2.9178-2.584-5.137-4.0423-9.5619-6.2832-1.7132-0.86763-3.9632-2.3678-5-3.3337-1.0368-0.96591-2.11-1.8144-2.385-1.8856-2.4538-0.63508-3.8948-1.6197-3.4421-2.3522 0.5483-0.88716 5.3007 1.6543 6.6768 3.5706 0.40408 0.56271 0.74158 0.6305 0.75 0.15066 0.008-0.47985 0.7383-0.27242 1.622 0.46095 1.6293 1.3522 4.6648 3.2288 7.3934 4.5708 0.825 0.40575 2.625 1.7784 4 3.0503s3.2875 2.5629 4.25 2.8689 1.75 0.92355 1.75 1.3723c0 0.44879 0.7875 1.1006 1.75 1.4486 3.004 1.0859 5.9048 3.0542 9.8977 6.7157 4.5991 4.2174 10.352 11.346 10.352 12.826 0 0.58225 0.34915 1.0586 0.77588 1.0586s1.6642 2.0207 2.75 4.4905 2.2093 4.4948 2.4967 4.5c0.28742 0.005 1.4081 1.697 2.4904 3.7595s2.3438 4.0226 2.8032 4.3559c0.45947 0.33323 1.0855 2.4707 1.3912 4.75 0.30571 2.2793 0.94659 4.1441 1.4242 4.1441 0.47758 0 0.86833 0.675 0.86833 1.5s-0.45 1.5-1 1.5-1-0.675-1-1.5zm117-9c0-0.825-0.5087-1.5-1.1304-1.5-1.618 0-0.6598-26.894 0.9946-27.916 0.662-0.40911 0.9152-1.4954 0.5627-2.4139-0.3525-0.91853-0.2002-1.67 0.3383-1.67 0.5386 0 1.267-1.8 1.6188-4s1.0268-4 1.5-4 1.1387-1.7405 1.4789-3.8677c0.3401-2.1272 1.2949-5.1647 2.1216-6.75 0.8268-1.5853 1.5203-3.5573 1.5412-4.3823 0.054-2.1531 2.6584-5.3202 3.3946-4.1289 0.3368 0.54491 0.155 1.2734-0.404 1.6189-0.5589 0.34546-1.019 1.3891-1.0224 2.3191 0 0.93004-0.6826 2.988-1.5094 4.5733-0.8267 1.5853-1.7815 4.6228-2.1216 6.75-0.3402 2.1272-1.0057 3.8677-1.4789 3.8677s-1.1482 1.8-1.5 4-0.9859 4-1.4091 4c-0.4233 0-1.2658 2.8494-1.8722 6.3319-1.3919 7.9929-1.4626 25.668-0.1027 25.668 0.55 0 1 0.675 1 1.5s-0.45 1.5-1 1.5-1-0.675-1-1.5zm-7-83c0-0.825 0.4078-1.5 0.9062-1.5s1.2248-2.3625 1.6143-5.25 0.9775-5.6995 1.3066-6.2488c0.3292-0.54934 0.6152-1.8913 0.6357-2.9821 0.02-1.0908 0.8247-2.1369 1.7872-2.3245 1.3017-0.25379 1.75 0.31803 1.75 2.2321 0 3.2419 1.4 3.2642 4.5909 0.0733 3.02-3.02 4.4091-3.1775 4.4091-0.5 0 1.6813 0.6773 2.0051 4.25 2.0318 4.2968 0.0322 7.75 1.738 7.75 3.8284 0 0.69923-1.9097 1.1398-4.941 1.1398-2.7175 0-5.2191 0.45-5.559 1s-2.0782 1-3.8628 1c-2.3576 0-4.1188 0.90165-6.441 3.2976-1.7579 1.8137-3.1962 3.8387-3.1962 4.5 0 0.66131-1.125 1.2024-2.5 1.2024-1.5555 0-2.5-0.56667-2.5-1.5zm-232.25-12.03c-1.2759-1.3145 0.25626-2.4657 3.2818-2.4657 1.6175 0 2.941-0.39992 2.941-0.88871s1.6304-1.1946 3.6231-1.5684c1.9927-0.37383 4.3552-1.0464 5.25-1.4946 4.0697-2.0385 6.9358-2.9818 10.877-3.5795 2.3375-0.35452 4.25-1.055 4.25-1.5567 0-0.50166 0.84856-0.9121 1.8857-0.9121s3.1746-0.67223 4.75-1.4938c1.5754-0.82162 4.9752-1.4966 7.5553-1.5 2.58-0.003 4.9691-0.45616 5.309-1.0062 0.33992-0.55 2.5899-1 5-1s4.6601-0.45 5-1c0.33992-0.55 2.3165-1 4.3924-1s4.0873-0.31303 4.4699-0.69562c0.94606-0.94606 3.2631-1.3449 8.8877-1.53 3.8586-0.12698 4.75-0.49581 4.75-1.9653 0-2.2858 1.8972-2.308 5.034-0.059 4.3964 3.1521 13.966 13.677 13.966 15.359 0 0.9051 0.675 2.2058 1.5 2.8905 0.825 0.68469 1.5 1.8648 1.5 2.6224 0 1.8427-3.439 1.7585-5-0.12244-0.68469-0.825-1.795-1.5-2.4675-1.5-0.67241 0-2.037-0.9-3.0325-2-0.99549-1.1-2.3368-2-2.9807-2-0.64389 0-2.2276-1.125-3.5193-2.5-1.2918-1.375-2.8452-2.5-3.4521-2.5s-1.9048-0.93593-2.8843-2.0798c-1.6258-1.8988-2.4502-2.0198-9.4722-1.3896-4.2303 0.37964-8.1189 1.0906-8.6414 1.5798-0.5225 0.48926-2.6334 0.88957-4.691 0.88957-2.0575 0-4.0191 0.45-4.359 1-0.33992 0.55-2.8149 1-5.5 1s-5.1286 0.39898-5.4299 0.88663c-0.30138 0.48766-2.1833 1.1934-4.1821 1.5684-1.9988 0.37497-4.3663 1.0485-5.261 1.4967-3.692 1.8494-6.8181 2.9696-10.094 3.6172-1.9069 0.37696-4.3819 1.1484-5.5 1.7144-1.118 0.56594-2.8931 1.458-3.9446 1.9823-2.5123 1.2528-12.885 2.1542-13.811 1.2001zm112.22-7.7252c0-0.6927-0.91746-1.8324-2.0388-2.5327-1.1213-0.70029-1.8102-1.6431-1.5308-2.0952 0.27939-0.45206-0.60315-1.8658-1.9612-3.1416s-2.4692-2.0254-2.4692-1.6657c0 0.35969-1.4625-0.23891-3.25-1.3302s-4.7306-2.6708-6.5403-3.5099c-1.8097-0.83914-3.0206-1.9621-2.691-2.4954 0.88855-1.4377 5.6247-1.1483 8.4813 0.51825 1.375 0.80218 3.9131 2.131 5.6403 2.9528 6.317 3.006 12.554 14.559 7.8597 14.559-0.825 0-1.5-0.56675-1.5-1.2594zm11.833-5.4906c-0.4068-0.91531-7.6656-7.1939-10.66-9.2208-1.1952-0.80892-2.173-1.8214-2.173-2.25 0-1.2797 4.483-0.88398 7.5964 0.67053 3.9915 1.9929 10.784 9.1264 9.9594 10.46-0.76281 1.2342-4.2146 1.483-4.7225 0.34027z"
         style="fill:#000000"
         inkscape:connector-curvature="0" />
      <path
         id="path2415"
         sodipodi:nodetypes="csssssssssssssccsssscccccsssssssssccssssssssccssssssscccccsssssccssssscccssssssssssssccsssssssssssssccsssssscccssssssssssssssssccssccccccsssssccssscccsssssssccssssssssssccssssssscccssccssssssssssssssssccssssssssccsssssssssssccsssssssssssssssssssssscccssssccsssssssssssssssssssssssssssssssssssssc"
         style="fill:#ffffff"
         inkscape:connector-curvature="0"
         d="m1022.4 1093.5c0.1841-1.3009-0.1534-2.8534-0.75-3.45-0.5966-0.5965-1.0847-2.3446-1.0847-3.8846s-0.45-2.8-1-2.8-1-0.9209-1-2.0465c0-1.2269-1.1989-2.7288-2.9937-3.75-1.6465-0.9369-2.9965-2.041-3-2.4535-0.01-1.1918-5.3486-0.8702-8.3002 0.5-1.8359 0.8523-2.89 2.2876-3.3127 4.511-0.3411 1.7936-1.0191 3.5077-1.5067 3.809-1.3138 0.812-1.0751 7.8415 0.31336 9.23 0.65997 0.66 3.7835 1.2 6.941 1.2s6.0339 0.4738 6.3918 1.053 2.522 0.9167 4.809 0.75c3.5049-0.2554 4.2108-0.6747 4.4929-2.6684zm24.165-0.2303c0-1.1527-0.7875-3.471-1.75-5.1518-2.0379-3.559-9.2481-10.691-10.845-10.728-1.8057-0.041-4.3389 3.3944-5.0223 6.8114-0.3525 1.7629-1.0329 3.4474-1.5118 3.7434-0.479 0.296-0.8709 2.0867-0.8709 3.9792v3.441h10c9.4856 0 10-0.1078 10-2.0957zm12.5 1.0957c0.3399-0.55 1.6899-1 3-1s2.6601-0.45 3-1 1.4915-1 2.559-1c1.0676 0 1.941-0.5749 1.941-1.2775 0-2.0039-2.961-5.7225-4.5567-5.7225-0.7938 0-1.4433-0.45-1.4433-1 0-1.4482-2.2332-1.2293-5.8463 0.5732-2.8986 1.446-3.1537 1.9718-3.1537 6.5 0 4.2102 0.2823 4.9268 1.941 4.9268 1.0675 0 2.2191-0.45 2.559-1zm-63.914-6.25c-0.74855-4.7501-3.724-8.2959-7.7924-9.2862-2.3753-0.5782-2.7894-0.3104-3.3843 2.1887-0.37281 1.5661-1.3621 3.635-2.1985 4.5975-1.368 1.5743-1.3545 1.75 0.13431 1.75 0.91025 0 1.655 0.4447 1.655 0.9882s1.8 1.276 4 1.6278 4 1.0321 4 1.5118 0.95751 0.8722 2.1278 0.8722c1.9417 0 2.0692-0.3717 1.4581-4.25zm84.914 1.25c0.3399-0.55 2.1399-1 4-1s3.6601-0.45 4-1 1.829-1.0143 3.309-1.0318c1.4801-0.018 3.571-0.6972 4.6465-1.5105 1.8818-1.423 1.75-1.6877-3.5-7.0259-3.0005-3.051-6.9526-6.264-8.7823-7.14-3.2135-1.5384-3.41-1.5095-5.765 0.8454-2.0437 2.0438-2.5404 3.7663-3.0713 10.65l-0.6333 8.2124h2.5892c1.4241 0 2.8673-0.45 3.2072-1zm23.5-6.875c0-0.4813 1.4591-1.1668 3.2424-1.5235 8.265-1.653 10.769-4.6664 6.9389-8.3515-5.9542-5.7293-5.7851-5.6683-9.1275-3.2883-2.8174 2.0062-3.0538 2.6336-3.0538 8.1064 0 3.2879 0.4457 5.9319 1 5.9319 0.55 0 1-0.3938 1-0.875zm-50.236-51.008c0.955-0.4859 2.9739-1.4619 4.4864-2.169 2.0497-0.9583 2.75-2.0066 2.75-4.1167 0-1.5571-0.45-2.831-1-2.831s-1-0.9-1-2 0.5652-2 1.2559-2c2.4896 0 3.8075-5.7724 4.0257-17.632l0.2184-11.868-13.615 0.37324c-8.6487 0.2371-13.847-0.002-14.25-0.65481-0.3591-0.58105-2.3704-0.79535-4.6256-0.49286-2.1946 0.29436-4.557 0.0812-5.2498-0.47373-0.6928-0.55491-4.3902-1.3344-8.2165-1.7321-6.3405-0.65914-6.8379-0.57988-5.6141 0.89466 1.0315 1.2429 1.1814 3.8155 0.6467 11.1-0.3829 5.2151-0.3384 10.045 0.099 10.734 0.4372 0.6885 0.8262 1.4769 0.8645 1.7519 0.038 0.275 0.4187 3.9623 0.8454 8.194s1.3022 8.1078 1.9457 8.6135 3.1726 1.2256 5.6203 1.5998 4.9227 1.0709 5.5 1.5481c2.2186 1.834 22.19 2.7502 25.313 1.1613zm30.736-4.1167c0.3399-0.55 1.986-1 3.6579-1s4.517-0.701 6.3224-1.5577c2.635-1.2504 3.4043-2.3188 3.8995-5.4161 0.3394-2.1222 1.1803-4.0456 1.8686-4.2743 0.9193-0.3055 1.2516-3.9786 1.2516-13.834 0-12.144-0.1661-13.41-1.75-13.335-0.9625 0.0458-7.0433 0.15834-13.513 0.25-11.162 0.15815-11.813 0.28163-12.75 2.4167-1.2232 2.7879-0.061 20.576 1.4428 22.08 0.5885 0.5885 1.07 2.33 1.07 3.87s0.45 2.8 1 2.8 1 1.485 1 3.3 0.54 3.84 1.2 4.5c1.4579 1.4579 4.4528 1.5709 5.3 0.2zm-125.26-8.9659c0.9258-1.0813 1.9838-4.2313 2.3511-7 0.36728-2.7688 1.1123-5.0341 1.6555-5.0341 0.54326 0 0.77063-1.1358 0.50528-2.5239-0.26536-1.3881-0.14474-2.7326 0.26803-2.9877 0.41278-0.2551 1.0695-2.6068 1.4595-5.2261 0.38993-2.6193 1.0879-5.2236 1.5511-5.7873 0.46316-0.56375 1.1428-3.2912 1.5102-6.0611l0.66806-5.0361-7.8538-1.1955c-4.3196-0.65754-8.8663-1.1925-10.104-1.1889-1.2375 0.004-2.25-0.38588-2.25-0.86558 0-0.47971-1.8902-1.1744-4.2004-1.5439-2.3102-0.36942-4.7795-1.1523-5.4873-1.7397-2.6906-2.233-4.3124-0.13998-4.3124 5.5653 0 3.0098 0.45 5.7505 1 6.0904 0.55 0.33992 1 2.6165 1 5.059s0.39275 4.441 0.87277 4.441 1.0904 2.2647 1.3563 5.0326c0.31383 3.2661 1.236 5.8336 2.6272 7.3145 1.179 1.255 2.1437 3.0403 2.1437 3.9673 0 0.9271 0.675 1.6856 1.5 1.6856s1.5 0.675 1.5 1.5 0.6375 1.5 1.4167 1.5c0.77916 0 1.5667 0.3457 1.75 0.7683 0.42865 0.9879 5.9007 5.2317 6.746 5.2317 0.35359 0 1.4004-0.8847 2.3262-1.9659zm185.63-5.6768c0.3445-0.4733 1.9763-1.4744 3.6263-2.2248s3.675-1.6938 4.5-2.0966c2.8154-1.3743 3.9704-5.4794 3.9853-14.163l0.015-8.6272-4.25 0.35821c-2.3375 0.19701-8.1875 0.63213-13 0.96693l-8.75 0.60873v8.9102c0 5.2734 0.4082 8.9102 1 8.9102 0.55 0 1 1.125 1 2.5s0.45 2.5 1 2.5 1 0.9585 1 2.13c0 1.9415 0.4095 2.0839 4.6237 1.6089 2.543-0.2866 4.9055-0.9083 5.25-1.3816zm-25.874-2.3573c1.375-1.0756 3.1975-1.9655 4.05-1.9778 0.8525-0.012 2.09-0.5622 2.75-1.2222 1.4509-1.4509 1.6009-5.8 0.2-5.8-0.5714 0-1-3-1-7v-7h-10c-9.7792 0-10 0.051-10 2.3089 0 1.2699 0.6607 3.1824 1.4682 4.25s1.4825 3.1786 1.5 4.6911c0.017 1.5125 0.4818 2.75 1.0318 2.75s1 0.9982 1 2.2181c0 1.22 1.2375 3.2816 2.75 4.5812 1.5125 1.2997 2.6375 2.5515 2.5 2.7819-1.2284 2.0579 0.7725 1.7479 3.75-0.5812zm78-2.4899c1.925-0.4076 4.1322-1.2516 4.9049-1.8756 1.6758-1.3533 4.5506-7.6462 4.2526-9.3091-0.1158-0.64603 0.2514-1.4601 0.816-1.809 0.5967-0.36875 1.0265-5.0349 1.0265-11.143 0-11.572 0.2649-11.229-6.5-8.4165-1.1 0.45726-4.25 1.5889-7 2.5148-9.7472 3.2818-9.5 2.9919-9.5 11.138 0 3.9996 0.3894 7.5126 0.8652 7.8067 0.4759 0.2941 1.1233 2.1249 1.4387 4.0685 0.6451 3.9751 4.6338 10.218 5.58 8.7328 0.3389-0.5317 2.1911-1.3002 4.1161-1.7079zm-199.52 0.526c3.8374-0.4942 7.1374-1.3795 7.3333-1.9673 0.196-0.5879 0.8839-1.0688 1.5288-1.0688 2.6605 0 3.8643-5.6817 2.7396-12.93-0.5933-3.8241-1.0788-7.2042-1.0788-7.5114 0-0.30715-1.8-0.55845-4-0.55845s-4-0.38361-4-0.85247-3.9207-1.1538-8.7126-1.5222c-4.7919-0.36833-10.417-0.94223-12.5-1.2753l-3.7874-0.60564v3.6414c0 3.2454 1.4298 7.2204 3.0986 8.6142 0.32923 0.275 0.90744 3.1877 1.2849 6.4727 1.1762 10.236 3.467 11.447 18.094 9.5634zm-68.601-5.387c1.666-2.0074 2.5892-10.243 1.2416-11.076-0.6877-0.42503-1.1178-4.1002-1.1178-9.5508 0-12.025-1.4942-14.69-8.7445-15.596-2.8905-0.36114-5.2555-1.0548-5.2555-1.5414 0-0.48663-0.56916-0.88478-1.2648-0.88478s-2.944-0.9-4.9964-2c-4.3809-2.348-7.7388-2.5906-7.7388-0.55902 0 0.79254 0.38568 1.6794 0.85707 1.9707 0.47139 0.29133 1.1205 3.082 1.4424 6.2015 0.32196 3.1195 1.0613 6.1477 1.6429 6.7293 0.58165 0.58165 1.0576 2.516 1.0576 4.2985s0.39899 3.4876 0.88664 3.789c0.48765 0.30138 1.2013 2.2252 1.5859 4.2752 0.38458 2.05 1.5606 4.9369 2.6134 6.4154s1.9141 3.3806 1.9141 4.2271c0 0.84644 1.0001 2.2394 2.2225 3.0956 2.794 1.957 12.084 2.0971 13.654 0.2058zm245.76-1.6491c5.2125 0 5.8332-1.383 4.8802-10.873-0.6287-6.26-0.8795-6.8009-3.7402-8.0672-2.3516-1.0409-3.4951-1.0895-4.9059-0.20846-1.0117 0.63186-2.7815 1.1488-3.9327 1.1488-1.9858 0-2.0577 0.34627-1.4016 6.75 0.3803 3.7125 1.0911 7.1775 1.5796 7.7 0.4884 0.5225 0.888 2.075 0.888 3.45 0 1.9444 0.2667 2.2333 1.2 1.3 0.66-0.66 3.1047-1.2 5.4326-1.2zm-278.07-28.9c-0.3699-4.6931-0.76931-9.8829-0.88759-11.533-0.24925-3.4771-1.4442-5.7563-2.6329-5.0216-0.45475 0.28105-2.1112-0.15883-3.6809-0.97753-1.5697-0.81869-3.4166-1.4913-4.1041-1.4947-0.6875-0.003-1.25-0.40368-1.25-0.88953 0-0.89749-4.1111-2.3389-4.7756-1.6744-0.19962 0.19963 0.0854 1.1943 0.63333 2.2103 1.1339 2.1025 2.3753 5.3685 2.6028 6.8474 0.24237 1.5759 1.5358 4.5962 4.2823 10 1.3977 2.75 3.2199 6.35 4.0492 8 2.545 5.0634 3.2709 5.6927 4.9547 4.2953 1.1999-0.99584 1.3536-2.8505 0.80879-9.7623zm344.47-137.86c0-0.45251-1.9125-1.7574-4.25-2.8998-3.6415-1.7796-6.6152-2.1365-20.771-2.4926-14.886-0.3745-16.989-0.64935-21.25-2.7775-4.2859-2.1405-4.7292-2.6894-4.7292-5.8559 0-3.6131 2.3032-7.1515 4.655-7.1515 0.7398 0 1.345-0.45 1.345-1s1.4625-1.0522 3.25-1.116c2.1337-0.0762 2.563-0.28487 1.25-0.60761-1.1-0.27038-2.4723-0.87345-3.0496-1.3401-0.5773-0.46669-2.9398-1.1508-5.25-1.5202-2.3102-0.36942-4.2004-1.0066-4.2004-1.416 0-0.40941-1.8901-1.0466-4.2004-1.416-2.3102-0.36942-4.8102-1.1778-5.5556-1.7964-1.9033-1.5796-16.782-2.3444-17.669-0.9083-0.381 0.61641-2.0162 1.1208-3.6337 1.1208s-2.941 0.4218-2.941 0.93734c0 0.51553-2.9185 2.3741-6.4856 4.1302s-6.9972 3.8093-7.6224 4.5627c-0.6253 0.7534-1.7193 1.3698-2.4311 1.3698s-1.4442 0.3375-1.6275 0.75c-0.1834 0.4125-2.1334 1.6354-4.3334 2.7176s-5.125 2.8106-6.5 3.8408c-1.375 1.0303-4.075 2.5918-6 3.4701l-3.5 1.5968 8 0.70676c4.4 0.38872 15.65 0.9994 25 1.3571 36.889 1.4111 74.109 3.7295 76.17 4.7445 1.1936 0.58786 3.746 0.77321 5.672 0.41189 2.0536-0.38525 3.7653-0.23068 4.1389 0.37374 0.7533 1.219 6.5189 1.4029 6.5189 0.20794zm-287.53-14.18c-1.5808-1.65-3.3767-3-3.9909-3-0.61421 0-2.6433-1.575-4.5091-3.5s-3.7804-3.5-4.2548-3.5c-0.47435 0-2.5236 1.2985-4.5538 2.8855-3.5091 2.743-4.3143 2.9125-16.309 3.4324-7.2178 0.31284-13.014 0.15052-13.544-0.37929-0.50939-0.50939-3.722-1.2184-7.1392-1.5756-4.4274-0.46276-6.8577-1.2778-8.4562-2.8358-1.2338-1.2026-3.0307-2.474-3.9932-2.8254-1.1067-0.4041-1.75-1.6845-1.75-3.4833 0-4.3363 4.7022-8.2289 11.687-9.6746 5.7825-1.197 5.7296-1.2075-9.9429-1.9792-8.6659-0.4267-15.999-1.1692-16.297-1.65-0.29716-0.48083-3.238-0.59226-6.5352-0.24763-3.9465 0.41249-6.7762 0.20847-8.2814-0.5971-1.7687-0.9466-5.3257-0.98007-15.709-0.14783-23.305 1.868-32.187 2.943-33.271 4.0265-0.5783 0.5783-2.3114 1.0514-3.8514 1.0514s-2.8 0.41425-2.8 0.92054c0 0.5063-1.4477 1.2385-3.2172 1.6272-3.1903 0.70071-4.3048 1.1285-8.4097 3.2278-1.1698 0.59825-3.7623 1.3945-5.761 1.7695-1.9988 0.37498-3.8807 1.0808-4.1821 1.5684-0.30139 0.48765-1.5114 0.88664-2.689 0.88664-1.4209 0-1.8062 0.33483-1.1455 0.99552 0.54754 0.54754 4.8 1.4811 9.45 2.0745 4.65 0.59344 9.2616 1.5116 10.248 2.0402 0.98654 0.52869 8.6365 1.3744 17 1.8793 23.266 1.4046 31.721 2.2246 32.281 3.131 0.28136 0.45525 5.3955 0.54829 11.365 0.20676 5.9692-0.34154 11.687-0.25395 12.707 0.19463 1.0196 0.44859 7.0866 0.694 13.482 0.54536 6.8272-0.15867 11.878 0.13455 12.234 0.71018 0.33327 0.53924 2.6651 0.74834 5.1818 0.46467 2.5908-0.29202 5.5259-0.0123 6.7658 0.64475 1.2304 0.65204 12.486 1.7443 25.69 2.493 12.925 0.73288 23.922 1.3972 24.437 1.4763 0.5154 0.0791-0.35629-1.2062-1.9371-2.8562z" />
    </g>
  </g>
  <metadata
     id="metadata4145">
    <rdf:RDF>
      <cc:Work>
        <dc:format>image/svg+xml</dc:format>
        <dc:type
           rdf:resource="http://purl.org/dc/dcmitype/StillImage" />
        <cc:license
           rdf:resource="http://creativecommons.org/licenses/publicdomain/" />
        <dc:publisher>
          <cc:Agent
             rdf:about="http://openclipart.org/">
            <dc:title>Openclipart</dc:title>
          </cc:Agent>
        </dc:publisher>
        <dc:title>No_one_is_right smile</dc:title>
        <dc:date>2011-04-03T12:49:02</dc:date>
        <dc:description />
        <dc:source>https://openclipart.org/detail/130771/no_one_is_right-smile-by-rones</dc:source>
        <dc:creator>
          <cc:Agent>
            <dc:title>rones</dc:title>
          </cc:Agent>
        </dc:creator>
        <dc:subject>
          <rdf:Bag>
            <rdf:li>awesome</rdf:li>
            <rdf:li>face</rdf:li>
            <rdf:li>meme</rdf:li>
            <rdf:li>smile</rdf:li>
            <rdf:li>troll</rdf:li>
            <rdf:li>trollface</rdf:li>
          </rdf:Bag>
        </dc:subject>
      </cc:Work>
      <cc:License
         rdf:about="http://creativecommons.org/licenses/publicdomain/">
        <cc:permits
           rdf:resource="http://creativecommons.org/ns#Reproduction" />
        <cc:permits
           rdf:resource="http://creativecommons.org/ns#Distribution" />
        <cc:permits
           rdf:resource="http://creativecommons.org/ns#DerivativeWorks" />
      </cc:License>
    </rdf:RDF>
  </metadata>
</svg>
