<?xml version="1.0" encoding="UTF-8" standalone="no"?>
<svg
   xmlns:dc="http://purl.org/dc/elements/1.1/"
   xmlns:cc="http://creativecommons.org/ns#"
   xmlns:rdf="http://www.w3.org/1999/02/22-rdf-syntax-ns#"
   xmlns:svg="http://www.w3.org/2000/svg"
   xmlns="http://www.w3.org/2000/svg"
   xmlns:sodipodi="http://sodipodi.sourceforge.net/DTD/sodipodi-0.dtd"
   xmlns:inkscape="http://www.inkscape.org/namespaces/inkscape"
   version="1.1"
   width="29.7002cm"
   height="21.0007cm"
   viewBox="0 0 116930 82680 "
   id="svg4136"
   inkscape:version="0.91 r13725"
   sodipodi:docname="stand-cutout.svg">
  <metadata
     id="metadata4216">
    <rdf:RDF>
      <cc:Work
         rdf:about="">
        <dc:format>image/svg+xml</dc:format>
        <dc:type
           rdf:resource="http://purl.org/dc/dcmitype/StillImage" />
        <dc:title>SVG Picture created as troll-8-Dwgs.User.svg date 2016/01/18 12:52:04 </dc:title>
      </cc:Work>
    </rdf:RDF>
  </metadata>
  <defs
     id="defs4214" />
  <sodipodi:namedview
     pagecolor="#ffffff"
     bordercolor="#666666"
     borderopacity="1"
     objecttolerance="10"
     gridtolerance="10"
     guidetolerance="10"
     inkscape:pageopacity="0"
     inkscape:pageshadow="2"
     inkscape:window-width="1920"
     inkscape:window-height="1017"
     id="namedview4212"
     showgrid="false"
     inkscape:zoom="1.6116409"
     inkscape:cx="463.56742"
     inkscape:cy="410.23457"
     inkscape:window-x="1912"
     inkscape:window-y="-8"
     inkscape:window-maximized="1"
     inkscape:current-layer="svg4136"
     inkscape:document-units="cm" />
  <title
     id="title4138">SVG Picture created as troll-8-Dwgs.User.svg date 2016/01/18 12:52:04 </title>
  <desc
     id="desc4140">Picture generated by PCBNEW </desc>
  <g
     style="fill:#000000; fill-opacity:1;stroke:#000000; stroke-opacity:1; stroke-linecap:round; stroke-linejoin:round; "
     transform="translate(0 0) scale(1 1)"
     id="g4142" />
  <g
     style="fill:#000000; fill-opacity:0.0;  stroke:#000000; stroke-width:-0.000393701; stroke-opacity:1;  stroke-linecap:round; stroke-linejoin:round;"
     id="g4144" />
  <g
     style="fill:#000000; fill-opacity:0.0;  stroke:#000000; stroke-width:59.0551; stroke-opacity:1;  stroke-linecap:round; stroke-linejoin:round;"
     id="g4146">
    <path
       d="M64566 46850 L64566 57874 "
       id="path4148" />
    <path
       d="M65354 46850 L64566 46850 "
       id="path4150" />
    <path
       d="M65354 44488 L65354 46850 "
       id="path4152" />
    <path
       d="M64566 44488 L65354 44488 "
       id="path4154" />
    <path
       d="M64566 37007 L64566 44488 "
       id="path4156" />
    <path
       d="M65354 37007 L64566 37007 "
       id="path4158" />
    <path
       d="M65354 35433 L65354 37007 "
       id="path4160" />
    <path
       d="M66141 34645 L65354 35433 "
       id="path4162" />
    <path
       d="M64566 57874 L68503 57874 "
       id="path4164" />
    <path
       d="M82677 29527 L82677 18503 "
       id="path4166" />
    <path
       d="M81889 29527 L82677 29527 "
       id="path4168" />
    <path
       d="M81889 31889 L81889 29527 "
       id="path4170" />
    <path
       d="M82677 31889 L81889 31889 "
       id="path4172" />
    <path
       d="M82677 39370 L82677 31889 "
       id="path4174" />
    <path
       d="M81889 39370 L82677 39370 "
       id="path4176" />
    <path
       d="M81889 40944 L81889 39370 "
       id="path4178" />
    <path
       d="M81102 41732 L81889 40944 "
       id="path4180" />
    <path
       d="M78346 18503 L64566 18503 "
       id="path4182" />
    <path
       d="M68503 57874 L78346 18503 "
       id="path4184" />
    <path
       d="M66141 32283 L66141 34645 "
       id="path4186" />
    <path
       d="M64566 32283 L66141 32283 "
       id="path4188" />
    <path
       d="M64566 18503 L64566 32283 "
       id="path4190" />
    <path
       d="M68897 57874 L82677 57874 "
       id="path4192" />
    <path
       d="M78740 18503 L68897 57874 "
       id="path4194" />
    <path
       d="M82677 18503 L78740 18503 "
       id="path4196" />
    <path
       d="M81102 44094 L81102 41732 "
       id="path4198" />
    <path
       d="M82677 44094 L81102 44094 "
       id="path4200" />
    <path
       d="M82677 45275 L82677 44094 "
       id="path4202" />
    <path
       d="M74803 45275 L82677 45275 "
       id="path4204" />
    <path
       d="M74803 55118 L74803 45275 "
       id="path4206" />
    <path
       d="M82677 55118 L74803 55118 "
       id="path4208" />
    <path
       d="M82677 57874 L82677 55118 "
       id="path4210" />
  </g>
  <flowRoot
     xml:space="preserve"
     id="flowRoot5625"
     style="fill:black;stroke:none;stroke-opacity:1;stroke-width:1px;stroke-linejoin:miter;stroke-linecap:butt;fill-opacity:1;font-family:sans-serif;font-style:normal;font-weight:normal;font-size:40px;line-height:125%;letter-spacing:0px;word-spacing:0px"><flowRegion
       id="flowRegion5627"><rect
         id="rect5629"
         width="208.8448"
         height="220.25229"
         x="270.26974"
         y="162.33734" /></flowRegion><flowPara
       id="flowPara5631"></flowPara></flowRoot>  <g
     transform="matrix(80.028924,0,0,82.529918,26034.541,23076.893)"
     style="font-style:normal;font-variant:normal;font-weight:bold;font-stretch:normal;font-size:41.58662796px;line-height:125%;font-family:Earthbound;-inkscape-font-specification:'Earthbound Bold';letter-spacing:0px;word-spacing:0px;fill:#000000;fill-opacity:1;stroke:none"
     id="text4000-3"
     inkscape:export-xdpi="400"
     inkscape:export-ydpi="400"
     inkscape:export-filename="C:\usr\Elektronik\ad1938-audio-card\board\extensions\audio-conn-a\con-cape-logo.png" />
  <g
     id="g5717"
     transform="translate(-68.94292,-15029.555)">
    <g
       id="g5724">
      <g
         id="g5731"
         transform="matrix(0.25930851,-0.96579445,0.96579464,0.25930851,33789.932,67919.276)"
         inkscape:transform-center-x="620.4862"
         inkscape:transform-center-y="-275.77164">
        <path
           id="path3384-7"
           style="font-style:normal;font-variant:normal;font-weight:bold;font-stretch:normal;font-size:41.58662796px;line-height:125%;font-family:Earthbound;-inkscape-font-specification:'Earthbound Bold';letter-spacing:0px;word-spacing:0px;fill:#000000;fill-opacity:1;stroke:none"
           d="m 104.93814,61.346319 -2.74472,-4.075486 -0.58221,0.332693 c -0.41587,0.249522 -0.79015,0.499035 -1.16443,0.706967 -0.33269,0.166351 -0.623793,0.332692 -0.956486,0.457454 -0.332693,0.124761 -0.706972,0.207931 -1.122839,0.291112 -0.415866,0.0832 -0.873319,0.124761 -1.372358,0.124761 l -2.037745,0 c -1.081252,0 -1.996158,-0.249522 -2.744718,-0.831737 -0.831733,-0.540625 -1.538705,-1.289182 -2.079331,-2.20409 -0.582213,-0.914908 -0.998079,-1.954572 -1.247599,-3.118998 -0.332693,-1.164424 -0.457453,-2.370438 -0.457453,-3.57645 l 0,-2.661544 c 0,-0.873319 0.166347,-1.788225 0.540626,-2.744717 0.332693,-0.956493 0.831733,-1.829812 1.455532,-2.661545 0.582213,-0.748558 1.247599,-1.413945 2.079332,-1.912985 0.748559,-0.457452 1.538705,-0.665386 2.370438,-0.706972 l 2.162504,0 c 0.582213,0 1.289186,0.207933 2.079332,0.540626 0.831732,0.37428 1.621875,0.831733 2.370435,1.372359 l 0.54063,0.374279 3.20217,-3.784383 -0.58222,-0.457453 c -1.12283,-0.790146 -2.41202,-1.455532 -3.82597,-1.996158 -1.330766,-0.540626 -2.619951,-0.790146 -3.784377,-0.831732 l -2.162504,0 c -1.497119,0 -2.952651,0.415866 -4.283423,1.247598 -1.330772,0.790146 -2.578371,1.788225 -3.742797,2.994238 -1.164425,1.247598 -2.120918,2.578371 -2.786304,4.075489 -0.706972,1.497119 -1.039665,2.994237 -1.039665,4.449769 l 0,2.744718 c 0,1.746638 0.249519,3.45169 0.831732,5.115155 0.49904,1.746638 1.330772,3.285342 2.412025,4.657704 1.081252,1.413942 2.328851,2.536782 3.825969,3.368519 1.413946,0.914899 3.035824,1.330772 4.865636,1.330772 l 2.037745,0 c 0.831732,0 1.538705,-0.0416 2.204091,-0.166351 0.623799,-0.0832 1.247592,-0.249522 1.829812,-0.457454 0.58221,-0.166342 1.16442,-0.415864 1.70505,-0.706967 0.45745,-0.249522 0.99808,-0.582215 1.58029,-0.914908 l 0.6238,-0.374283 z"
           inkscape:connector-curvature="0"
           transform="matrix(80.028924,0,0,82.529918,26034.541,23076.892)" />
        <path
           id="path3386-8"
           style="font-style:normal;font-variant:normal;font-weight:bold;font-stretch:normal;font-size:41.58662796px;line-height:125%;font-family:Earthbound;-inkscape-font-specification:'Earthbound Bold';letter-spacing:0px;word-spacing:0px;fill:#000000;fill-opacity:1;stroke:none"
           d="m 121.12119,63.384063 0,-23.953891 8.85795,0 0,-4.865633 -23.12217,0 0,4.865633 8.85796,0 0,23.953891 5.40626,0 z"
           inkscape:connector-curvature="0"
           transform="matrix(80.028924,0,0,82.529918,26034.541,23076.892)" />
        <path
           id="path3388-4"
           style="font-style:normal;font-variant:normal;font-weight:bold;font-stretch:normal;font-size:41.58662796px;line-height:125%;font-family:Earthbound;-inkscape-font-specification:'Earthbound Bold';letter-spacing:0px;word-spacing:0px;fill:#000000;fill-opacity:1;stroke:none"
           d="m 147.00496,51.989333 -7.56876,0 c 1.33077,-4.408179 2.61995,-8.109392 3.78438,-11.145219 0.41587,1.247601 0.9149,2.619963 1.49712,4.200247 0.66538,1.996158 1.41394,4.325009 2.28726,6.944972 z m 9.60651,11.39473 -0.37428,-0.873318 C 151.74584,50.367448 148.1278,41.176807 145.46626,34.938812 l -0.16635,-0.374273 -3.95073,0 -0.16635,0.374273 c -2.70313,6.237995 -6.27958,15.428636 -10.77093,27.571933 l -0.3327,0.873318 5.69737,0 2.24568,-6.653859 10.43824,0 c 1.12284,3.41011 1.82982,5.489439 2.12092,6.196415 l 0.16635,0.457444 5.86371,0 z"
           inkscape:connector-curvature="0"
           transform="matrix(80.028924,0,0,82.529918,26034.541,23076.892)" />
        <path
           id="path3390-3"
           style="font-style:normal;font-variant:normal;font-weight:bold;font-stretch:normal;font-size:41.58662796px;line-height:125%;font-family:Earthbound;-inkscape-font-specification:'Earthbound Bold';letter-spacing:0px;word-spacing:0px;fill:#000000;fill-opacity:1;stroke:none"
           d="m 180.70187,62.552299 0,-14.056284 -7.23607,0 0,5.073565 1.74664,0 0,5.198335 c -0.58222,0.124761 -1.20602,0.207932 -1.8714,0.249523 -0.66539,0.0832 -1.33077,0.0832 -2.03775,0.0832 -2.66154,0 -4.6577,-0.873317 -5.98847,-2.703124 -1.33077,-1.788225 -1.95457,-4.283427 -1.95457,-7.444005 0,-1.330772 0.16634,-2.619963 0.54062,-3.867564 0.3327,-1.247591 0.83174,-2.328851 1.45553,-3.243749 0.6238,-0.914908 1.33078,-1.663465 2.16251,-2.24568 0.83173,-0.540625 1.70505,-0.790147 2.66154,-0.831737 l 1.99616,0 c 0.29111,0 0.6238,0.0416 0.99808,0.124761 0.37428,0.0832 0.79015,0.249522 1.20601,0.415864 0.41587,0.207941 1.33078,0.831737 2.70313,1.912987 l 3.32693,-3.867554 -0.45745,-0.457454 -0.58221,-0.415864 c -0.41587,-0.291113 -0.95649,-0.623806 -1.62188,-0.998079 -0.66539,-0.374283 -1.49712,-0.706976 -2.45361,-1.039669 -0.95649,-0.291103 -1.99616,-0.415864 -3.119,-0.457454 l -1.99616,0 c -1.82981,0 -3.61803,0.540625 -5.2815,1.580294 -1.66346,1.081249 -3.03582,2.24568 -4.0339,3.49328 -1.03967,1.289182 -1.70505,2.245671 -1.99616,2.911056 -0.29111,0.665386 -0.54063,1.663475 -0.79014,2.994246 -0.24952,1.372353 -0.3327,2.703125 -0.3327,4.033896 0,2.328851 0.3327,4.44977 0.99808,6.279585 0.66539,1.829807 1.62188,3.410101 2.78631,4.699292 1.16442,1.289181 2.57837,2.28726 4.20024,2.952646 1.5803,0.706976 3.32693,1.039669 5.19833,1.039669 3.49328,0 6.57069,-0.415873 9.31541,-1.247601 l 0.45745,-0.166351 z"
           inkscape:connector-curvature="0"
           transform="matrix(80.028924,0,0,82.529918,26034.541,23076.892)" />
        <path
           style="fill:#000000;fill-opacity:1;stroke:none"
           d="m 28283.064,28726.347 1676.833,0 1676.834,-1729.239 0,-1729.235 -1676.834,1729.235 -1676.833,0 z"
           id="path4040-4"
           inkscape:connector-curvature="0"
           inkscape:export-filename="C:\usr\Elektronik\ad1938-audio-card\board\extensions\audio-conn-a\con-cape-logo.png"
           inkscape:export-xdpi="400"
           inkscape:export-ydpi="400" />
      </g>
    </g>
  </g>
  <g
     transform="matrix(19.391157,-77.644127,80.07061,19.997152,62789.398,34050.692)"
     style="font-style:normal;font-variant:normal;font-weight:bold;font-stretch:normal;font-size:11.10143471px;line-height:125%;font-family:Earthbound;-inkscape-font-specification:'Earthbound Bold';letter-spacing:0px;word-spacing:0px;fill:#000000;fill-opacity:1;stroke:none"
     id="text4000-6-0"
     inkscape:export-xdpi="400"
     inkscape:export-ydpi="400"
     inkscape:export-filename="C:\usr\Elektronik\ad1938-audio-card\board\extensions\audio-conn-a\con-cape-logo.png">
    <path
       inkscape:connector-curvature="0"
       d="m 33.385289,125.68759 1.132347,0 c 0.399651,-0.8215 0.799303,-1.67632 1.198955,-2.58663 0.399651,-0.89922 0.799303,-1.96496 1.198955,-3.18611 l -1.443187,0 c -0.31084,0.96582 -0.588376,1.77623 -0.832607,2.43121 -0.244232,0.66609 -0.477362,1.24336 -0.688289,1.73182 -0.199826,-0.61058 -0.366348,-1.25446 -0.521768,-1.92054 -0.15542,-0.66609 -0.321941,-1.40989 -0.499564,-2.24249 l -0.921419,0 c -0.377449,1.53199 -0.821507,2.91967 -1.332173,4.16303 -0.177623,-0.48846 -0.355245,-1.06573 -0.532868,-1.73182 -0.177623,-0.65498 -0.388551,-1.46539 -0.621681,-2.43121 l -1.487592,0 c 0.321942,1.22115 0.643883,2.28689 0.965825,3.18611 0.321941,0.91031 0.677187,1.76513 1.065738,2.58663 l 1.143447,0 c 0.444058,-1.19895 0.854811,-2.3424 1.23226,-3.45254 0.210927,1.06573 0.521767,2.20918 0.943621,3.45254 z"
       style="fill:#000000"
       id="path3410-4" />
    <path
       inkscape:connector-curvature="0"
       d="m 42.426888,125.68759 1.132346,0 c 0.399652,-0.8215 0.799303,-1.67632 1.198955,-2.58663 0.399652,-0.89922 0.799303,-1.96496 1.198955,-3.18611 l -1.443186,0 c -0.310841,0.96582 -0.588376,1.77623 -0.832608,2.43121 -0.244232,0.66609 -0.477362,1.24336 -0.688289,1.73182 -0.199826,-0.61058 -0.366347,-1.25446 -0.521767,-1.92054 -0.155421,-0.66609 -0.321942,-1.40989 -0.499565,-2.24249 l -0.921419,0 c -0.377449,1.53199 -0.821506,2.91967 -1.332172,4.16303 -0.177623,-0.48846 -0.355246,-1.06573 -0.532869,-1.73182 -0.177623,-0.65498 -0.38855,-1.46539 -0.62168,-2.43121 l -1.487593,0 c 0.321942,1.22115 0.643884,2.28689 0.965825,3.18611 0.321942,0.91031 0.677188,1.76513 1.065738,2.58663 l 1.143448,0 c 0.444057,-1.19895 0.85481,-2.3424 1.232259,-3.45254 0.210927,1.06573 0.521767,2.20918 0.943622,3.45254 z"
       style="fill:#000000"
       id="path3412-8" />
    <path
       inkscape:connector-curvature="0"
       d="m 51.468486,125.68759 1.132346,0 c 0.399652,-0.8215 0.799304,-1.67632 1.198955,-2.58663 0.399652,-0.89922 0.799304,-1.96496 1.198955,-3.18611 l -1.443186,0 c -0.31084,0.96582 -0.588376,1.77623 -0.832608,2.43121 -0.244231,0.66609 -0.477361,1.24336 -0.688289,1.73182 -0.199826,-0.61058 -0.366347,-1.25446 -0.521767,-1.92054 -0.15542,-0.66609 -0.321942,-1.40989 -0.499565,-2.24249 l -0.921419,0 c -0.377449,1.53199 -0.821506,2.91967 -1.332172,4.16303 -0.177623,-0.48846 -0.355246,-1.06573 -0.532869,-1.73182 -0.177623,-0.65498 -0.38855,-1.46539 -0.62168,-2.43121 l -1.487592,0 c 0.321941,1.22115 0.643883,2.28689 0.965824,3.18611 0.321942,0.91031 0.677188,1.76513 1.065738,2.58663 l 1.143448,0 c 0.444057,-1.19895 0.85481,-2.3424 1.232259,-3.45254 0.210927,1.06573 0.521768,2.20918 0.943622,3.45254 z"
       style="fill:#000000"
       id="path3414-7" />
    <path
       inkscape:connector-curvature="0"
       d="m 57.168552,125.86521 0,-1.64301 -1.587506,0 0,1.64301 1.587506,0 z"
       style="fill:#000000"
       id="path3416-4" />
    <path
       inkscape:connector-curvature="0"
       d="m 63.205651,125.03261 -1.021332,-0.89922 -0.122116,0.0999 c -0.15542,0.13322 -0.31084,0.22203 -0.46626,0.28864 -0.15542,0.0666 -0.31084,0.0888 -0.477362,0.0666 -0.432956,-0.0444 -0.754897,-0.22203 -0.965824,-0.51067 -0.210928,-0.28863 -0.310841,-0.71049 -0.310841,-1.26556 0,-0.61058 0.122116,-1.07684 0.388551,-1.38768 0.23313,-0.27754 0.555071,-0.42185 0.965824,-0.44406 0.155421,-0.0111 0.288638,0.0111 0.421855,0.0666 0.144319,0.0666 0.288637,0.16652 0.444057,0.28864 l 0.122116,0.0999 1.021332,-0.88811 -0.15542,-0.13322 c -0.277536,-0.22203 -0.566173,-0.38855 -0.877013,-0.49956 -0.31084,-0.11102 -0.643883,-0.16653 -1.010231,-0.15542 -0.788202,0.0222 -1.443186,0.31084 -1.953852,0.86591 -0.532869,0.57727 -0.799304,1.29887 -0.799304,2.18698 0,0.91032 0.255333,1.64301 0.777101,2.17588 0.455159,0.48846 1.054636,0.7549 1.787331,0.82151 0.05551,0.0111 0.111014,0.0111 0.177623,0.0111 l 0.210927,0 0.0111,0 c 0.310841,-0.0111 0.610579,-0.0777 0.888115,-0.18873 0.266435,-0.0888 0.532869,-0.25533 0.799303,-0.47736 l 0.144319,-0.12211 z"
       style="fill:#000000"
       id="path3418-5" />
    <path
       inkscape:connector-curvature="0"
       d="m 65.356035,125.68759 0,-4.52938 c 0.288637,-0.0666 0.566173,-0.0999 0.821506,-0.0999 0.410753,0 0.7771,0.0555 1.099042,0.15542 l 0.188724,0.0666 0.255333,-1.26556 -0.15542,-0.0444 c -0.377449,-0.11101 -0.788202,-0.17762 -1.210056,-0.17762 -0.843709,0 -1.609708,0.12212 -2.297997,0.35525 l -0.122116,0.0444 0,5.49521 1.420984,0 z"
       style="fill:#000000"
       id="path3420-3" />
    <path
       inkscape:connector-curvature="0"
       d="m 71.874831,122.27945 -2.24249,-0.0111 c 0.06661,-0.35525 0.199826,-0.64388 0.38855,-0.87701 0.188724,-0.23313 0.455159,-0.35525 0.799303,-0.35525 0.310841,0 0.555072,0.12212 0.743797,0.35525 0.177622,0.23313 0.277535,0.53287 0.31084,0.88811 z m 1.143447,2.67545 -1.032433,-0.94363 -0.111014,0.16653 c -0.111015,0.15542 -0.244232,0.26643 -0.410753,0.31084 -0.177623,0.0444 -0.366348,0.0666 -0.577275,0.0666 -0.355246,0 -0.643883,-0.0777 -0.865912,-0.25534 -0.222029,-0.17762 -0.366347,-0.52177 -0.432956,-1.03243 l 3.663474,0 c 0.0222,-0.39965 0,-0.7993 -0.06661,-1.22116 -0.07771,-0.41075 -0.210927,-0.7882 -0.410753,-1.12124 -0.199826,-0.33305 -0.455159,-0.59948 -0.777101,-0.82151 -0.321941,-0.21093 -0.710491,-0.31084 -1.176752,-0.32194 -0.355246,0 -0.69939,0.0777 -1.021332,0.22203 -0.333043,0.14432 -0.610579,0.35524 -0.85481,0.62168 -0.244232,0.26643 -0.444057,0.59947 -0.588376,0.97692 -0.144319,0.38855 -0.210927,0.82151 -0.210927,1.30997 0,0.36635 0.0444,0.7216 0.15542,1.06574 0.09991,0.35525 0.255333,0.66609 0.477361,0.93252 0.222029,0.26644 0.488464,0.48846 0.821507,0.65499 0.333043,0.16652 0.721593,0.24423 1.187853,0.24423 0.510666,0 0.932521,-0.0555 1.265564,-0.18873 0.333043,-0.13321 0.610579,-0.31084 0.832607,-0.53287 l 0.133217,-0.13321 z"
       style="fill:#000000"
       id="path3422-0" />
    <path
       inkscape:connector-curvature="0"
       d="m 77.469087,123.25638 0,1.15455 c -0.08881,0.0444 -0.188724,0.0888 -0.299738,0.11101 -0.15542,0.0444 -0.355246,0.0555 -0.577275,0.0555 -0.377449,0 -0.654985,-0.0555 -0.810405,-0.16652 -0.166521,-0.11102 -0.244231,-0.29974 -0.244231,-0.54397 0,-0.22203 0.08881,-0.38855 0.277536,-0.49957 0.177623,-0.11101 0.488463,-0.16652 0.921419,-0.16652 0.333043,0 0.577274,0.0222 0.732694,0.0555 z m 1.376578,1.80953 0,-3.04179 c 0,-0.7327 -0.210927,-1.28777 -0.610579,-1.67632 -0.410753,-0.37745 -0.988027,-0.57727 -1.720722,-0.57727 -0.421854,0 -0.799303,0.0444 -1.121245,0.13321 -0.333043,0.0999 -0.654984,0.27754 -0.954723,0.54397 l -0.15542,0.14432 1.032433,0.91032 0.122116,-0.11101 c 0.15542,-0.13322 0.299739,-0.23313 0.455159,-0.28864 0.15542,-0.0444 0.333043,-0.0666 0.54397,-0.0777 l 0.05551,0 c 0.333043,0.0111 0.588376,0.0999 0.743796,0.25533 0.15542,0.15542 0.244232,0.41076 0.244232,0.7549 l 0,0.0555 c -0.255333,-0.0555 -0.532869,-0.0888 -0.821506,-0.0888 -0.710492,0 -1.298868,0.14431 -1.787331,0.43295 -0.521768,0.31084 -0.777101,0.7993 -0.777101,1.44319 0,0.64388 0.199826,1.12124 0.621681,1.44318 0.421854,0.33305 0.999129,0.48847 1.754026,0.48847 0.133218,0 0.277536,0 0.432956,-0.0111 0.15542,0 0.333043,-0.0333 0.521768,-0.0777 0.199826,-0.0444 0.410753,-0.12212 0.632781,-0.21093 0.222029,-0.0888 0.455159,-0.21093 0.710492,-0.38855 l 0.07771,-0.0555 z"
       style="fill:#000000"
       id="path3424-7" />
    <path
       inkscape:connector-curvature="0"
       d="M 84.168108,125.41006 83.87947,124.2 c -0.344144,0.15542 -0.69939,0.26643 -1.054636,0.32194 -0.111014,0.0222 -0.23313,0.0222 -0.344144,0 -0.122116,-0.0222 -0.233131,-0.0666 -0.344145,-0.13322 -0.111014,-0.0555 -0.199826,-0.12211 -0.277536,-0.21092 -0.07771,-0.0777 -0.122116,-0.15542 -0.144318,-0.24424 -0.04441,-0.19982 -0.05551,-0.37744 -0.05551,-0.55507 l 0,-2.24249 2.24249,0 0,-1.23226 -2.231388,0 0,-1.80953 -1.409882,0.24423 0,5.04005 c 0,0.42186 0.0333,0.7438 0.111014,0.96583 0.04441,0.15542 0.122116,0.32194 0.23313,0.48846 0.111014,0.17762 0.255333,0.33304 0.432956,0.47736 0.177623,0.14432 0.377449,0.26644 0.62168,0.35525 0.244232,0.0888 0.521768,0.13322 0.843709,0.13322 0.555072,0 1.065738,-0.11102 1.531998,-0.33305 l 0.133218,-0.0555 z"
       style="fill:#000000"
       id="path3426-0" />
    <path
       inkscape:connector-curvature="0"
       d="m 86.3315,119.11554 0,-1.47649 -1.420983,0 0,1.47649 1.420983,0 z m -0.0111,6.57205 0,-5.77274 -1.398781,0 0,5.77274 1.398781,0 z"
       style="fill:#000000"
       id="path3428-7" />
    <path
       inkscape:connector-curvature="0"
       d="m 90.550047,125.68759 0.04441,-0.11101 c 0.355246,-0.97693 0.677187,-1.90945 0.976926,-2.81977 0.299739,-0.89921 0.577274,-1.77623 0.821506,-2.61994 l 0.05551,-0.22202 -1.409882,0 -0.0222,0.14431 c -0.166521,0.7216 -0.344144,1.42099 -0.521767,2.10928 -0.177623,0.68829 -0.366348,1.35437 -0.566173,2.02046 -0.310841,-0.66609 -0.577275,-1.33217 -0.788202,-2.02046 -0.222029,-0.68829 -0.410753,-1.38768 -0.577275,-2.10928 l -0.0333,-0.14431 -1.46539,0 0.06661,0.22202 c 0.244232,0.84371 0.532869,1.70963 0.865912,2.61994 0.333043,0.91032 0.721593,1.85394 1.187853,2.81977 l 0.04441,0.11101 1.321071,0 z"
       style="fill:#000000"
       id="path3430-0" />
    <path
       inkscape:connector-curvature="0"
       d="m 96.679602,122.27945 -2.24249,-0.0111 c 0.06661,-0.35525 0.199826,-0.64388 0.388551,-0.87701 0.188724,-0.23313 0.455158,-0.35525 0.799303,-0.35525 0.31084,0 0.555072,0.12212 0.743796,0.35525 0.177623,0.23313 0.277536,0.53287 0.31084,0.88811 z m 1.143448,2.67545 -1.032434,-0.94363 -0.111014,0.16653 c -0.111014,0.15542 -0.244231,0.26643 -0.410753,0.31084 -0.177623,0.0444 -0.366347,0.0666 -0.577275,0.0666 -0.355246,0 -0.643883,-0.0777 -0.865911,-0.25534 -0.222029,-0.17762 -0.366348,-0.52177 -0.432956,-1.03243 l 3.663473,0 c 0.0222,-0.39965 0,-0.7993 -0.06661,-1.22116 -0.07771,-0.41075 -0.210927,-0.7882 -0.410753,-1.12124 -0.199826,-0.33305 -0.455159,-0.59948 -0.7771,-0.82151 -0.321942,-0.21093 -0.710492,-0.31084 -1.176752,-0.32194 -0.355246,0 -0.699391,0.0777 -1.021332,0.22203 -0.333043,0.14432 -0.610579,0.35524 -0.854811,0.62168 -0.244231,0.26643 -0.444057,0.59947 -0.588376,0.97692 -0.144318,0.38855 -0.210927,0.82151 -0.210927,1.30997 0,0.36635 0.04441,0.7216 0.15542,1.06574 0.09991,0.35525 0.255333,0.66609 0.477362,0.93252 0.222029,0.26644 0.488463,0.48846 0.821506,0.65499 0.333043,0.16652 0.721593,0.24423 1.187853,0.24423 0.510666,0 0.932521,-0.0555 1.265564,-0.18873 0.333043,-0.13321 0.610579,-0.31084 0.832608,-0.53287 l 0.133217,-0.13321 z"
       style="fill:#000000"
       id="path3432-9" />
    <path
       inkscape:connector-curvature="0"
       d="m 101.8298,123.02325 0,-1.33217 -3.1084,0 0,1.33217 3.1084,0 z"
       style="fill:#000000"
       id="path3434-1" />
    <path
       inkscape:connector-curvature="0"
       d="M 106.60948,125.41006 106.32085,124.2 c -0.34415,0.15542 -0.69939,0.26643 -1.05464,0.32194 -0.11101,0.0222 -0.23313,0.0222 -0.34414,0 -0.12212,-0.0222 -0.23313,-0.0666 -0.34415,-0.13322 -0.11101,-0.0555 -0.19982,-0.12211 -0.27754,-0.21092 -0.0777,-0.0777 -0.12211,-0.15542 -0.14431,-0.24424 -0.0444,-0.19982 -0.0555,-0.37744 -0.0555,-0.55507 l 0,-2.24249 2.24249,0 0,-1.23226 -2.23139,0 0,-1.80953 -1.40988,0.24423 0,5.04005 c 0,0.42186 0.0333,0.7438 0.11101,0.96583 0.0444,0.15542 0.12212,0.32194 0.23313,0.48846 0.11102,0.17762 0.25534,0.33304 0.43296,0.47736 0.17762,0.14432 0.37745,0.26644 0.62168,0.35525 0.24423,0.0888 0.52177,0.13322 0.84371,0.13322 0.55507,0 1.06574,-0.11102 1.532,-0.33305 l 0.13321,-0.0555 z"
       style="fill:#000000"
       id="path3436-0" />
    <path
       inkscape:connector-curvature="0"
       d="m 110.85995,122.27945 -2.24249,-0.0111 c 0.0666,-0.35525 0.19982,-0.64388 0.38855,-0.87701 0.18872,-0.23313 0.45515,-0.35525 0.7993,-0.35525 0.31084,0 0.55507,0.12212 0.7438,0.35525 0.17762,0.23313 0.27753,0.53287 0.31084,0.88811 z m 1.14344,2.67545 -1.03243,-0.94363 -0.11101,0.16653 c -0.11102,0.15542 -0.24424,0.26643 -0.41076,0.31084 -0.17762,0.0444 -0.36634,0.0666 -0.57727,0.0666 -0.35525,0 -0.64389,-0.0777 -0.86591,-0.25534 -0.22203,-0.17762 -0.36635,-0.52177 -0.43296,-1.03243 l 3.66347,0 c 0.0222,-0.39965 0,-0.7993 -0.0666,-1.22116 -0.0777,-0.41075 -0.21093,-0.7882 -0.41076,-1.12124 -0.19982,-0.33305 -0.45516,-0.59948 -0.7771,-0.82151 -0.32194,-0.21093 -0.71049,-0.31084 -1.17675,-0.32194 -0.35525,0 -0.69939,0.0777 -1.02133,0.22203 -0.33305,0.14432 -0.61058,0.35524 -0.85481,0.62168 -0.24423,0.26643 -0.44406,0.59947 -0.58838,0.97692 -0.14432,0.38855 -0.21093,0.82151 -0.21093,1.30997 0,0.36635 0.0444,0.7216 0.15542,1.06574 0.0999,0.35525 0.25534,0.66609 0.47737,0.93252 0.22202,0.26644 0.48846,0.48846 0.8215,0.65499 0.33304,0.16652 0.72159,0.24423 1.18786,0.24423 0.51066,0 0.93252,-0.0555 1.26556,-0.18873 0.33304,-0.13321 0.61058,-0.31084 0.83261,-0.53287 l 0.13321,-0.13321 z"
       style="fill:#000000"
       id="path3438-8" />
    <path
       inkscape:connector-curvature="0"
       d="m 117.9973,125.03261 -1.02133,-0.89922 -0.12212,0.0999 c -0.15542,0.13322 -0.31084,0.22203 -0.46626,0.28864 -0.15542,0.0666 -0.31084,0.0888 -0.47736,0.0666 -0.43295,-0.0444 -0.7549,-0.22203 -0.96582,-0.51067 -0.21093,-0.28863 -0.31084,-0.71049 -0.31084,-1.26556 0,-0.61058 0.12211,-1.07684 0.38855,-1.38768 0.23313,-0.27754 0.55507,-0.42185 0.96582,-0.44406 0.15542,-0.0111 0.28864,0.0111 0.42186,0.0666 0.14432,0.0666 0.28863,0.16652 0.44405,0.28864 l 0.12212,0.0999 1.02133,-0.88811 -0.15542,-0.13322 c -0.27753,-0.22203 -0.56617,-0.38855 -0.87701,-0.49956 -0.31084,-0.11102 -0.64388,-0.16653 -1.01023,-0.15542 -0.7882,0.0222 -1.44319,0.31084 -1.95385,0.86591 -0.53287,0.57727 -0.79931,1.29887 -0.79931,2.18698 0,0.91032 0.25534,1.64301 0.7771,2.17588 0.45516,0.48846 1.05464,0.7549 1.78733,0.82151 0.0555,0.0111 0.11102,0.0111 0.17763,0.0111 l 0.21092,0 0.0111,0 c 0.31084,-0.0111 0.61057,-0.0777 0.88811,-0.18873 0.26643,-0.0888 0.53287,-0.25533 0.7993,-0.47736 l 0.14432,-0.12211 z"
       style="fill:#000000"
       id="path3440-3" />
    <path
       inkscape:connector-curvature="0"
       d="m 123.61133,125.67649 0,-3.21942 c 0,-0.42185 -0.0555,-0.7882 -0.14432,-1.12124 -0.0888,-0.33304 -0.23313,-0.61058 -0.43295,-0.84371 -0.19983,-0.22203 -0.46626,-0.39965 -0.7771,-0.52177 -0.31084,-0.12211 -0.68829,-0.18872 -1.12125,-0.18872 -0.33304,0 -0.66608,0.0555 -0.99913,0.16652 l 0,-2.78646 -1.39878,0.0888 0,8.43709 1.38768,0 0,-4.49608 c 0.26644,-0.0777 0.56617,-0.12212 0.91032,-0.12212 0.22203,0 0.39965,0.0333 0.55507,0.0777 0.15542,0.0555 0.27754,0.14432 0.36635,0.26644 0.0888,0.13322 0.14432,0.29974 0.18872,0.51067 0.0333,0.21092 0.0555,0.47736 0.0555,0.7882 l 0,2.96408 1.40988,0 z"
       style="fill:#000000"
       id="path3442-3" />
    <path
       inkscape:connector-curvature="0"
       d="m 129.90984,125.67649 0,-3.21942 c 0,-0.42185 -0.0555,-0.7882 -0.14432,-1.12124 -0.0888,-0.33304 -0.23313,-0.61058 -0.43296,-0.84371 -0.19982,-0.22203 -0.46626,-0.39965 -0.7771,-0.52177 -0.31084,-0.12211 -0.68829,-0.18872 -1.12124,-0.18872 -0.71049,0 -1.46539,0.0999 -2.26469,0.28864 l -0.13322,0.0333 0,5.58402 1.39878,0 0,-4.54049 c 0.25533,-0.0444 0.55507,-0.0666 0.89922,-0.0777 0.22202,0 0.41075,0.0333 0.56617,0.0777 0.15542,0.0555 0.27753,0.14432 0.36635,0.26644 0.0888,0.13322 0.14431,0.29974 0.18872,0.51067 0.0333,0.21092 0.0555,0.47736 0.0555,0.7882 l 0,2.96408 1.39878,0 z"
       style="fill:#000000"
       id="path3444-4" />
    <path
       inkscape:connector-curvature="0"
       d="m 135.09767,122.70131 0,0.24423 c 0,0.54397 -0.0999,0.95472 -0.27753,1.23226 -0.18873,0.27753 -0.52177,0.41075 -0.99913,0.41075 -0.25533,0 -0.46626,-0.0333 -0.63278,-0.0999 -0.16652,-0.0666 -0.29974,-0.16652 -0.39965,-0.31084 -0.0999,-0.13322 -0.16653,-0.32195 -0.21093,-0.54397 -0.0444,-0.22203 -0.0555,-0.49957 -0.0555,-0.81041 -0.0111,-0.17762 0,-0.37745 0.0222,-0.58837 0.0111,-0.19983 0.0555,-0.39966 0.14432,-0.57728 0.0888,-0.17762 0.21093,-0.32194 0.38855,-0.44406 0.17763,-0.11101 0.42186,-0.16652 0.7438,-0.17762 0.46626,0 0.7882,0.15542 0.98803,0.44406 0.18872,0.29974 0.28863,0.71049 0.28863,1.22116 z m 0.94363,2.13147 c 0.21092,-0.31084 0.35524,-0.64388 0.42185,-0.99913 0.0666,-0.35524 0.0999,-0.74379 0.11101,-1.14345 0,-0.31084 -0.0555,-0.64388 -0.15542,-0.98802 -0.11101,-0.34415 -0.26643,-0.65499 -0.48846,-0.94363 -0.22203,-0.28863 -0.51066,-0.52176 -0.86591,-0.69939 -0.35525,-0.17762 -0.7771,-0.26643 -1.26556,-0.27753 -0.53287,0 -0.97693,0.0777 -1.33218,0.23313 -0.35524,0.15542 -0.63278,0.37745 -0.8437,0.64388 -0.21093,0.27754 -0.35525,0.59948 -0.44406,0.96583 -0.0888,0.37745 -0.13322,0.766 -0.13322,1.18785 0,0.55507 0.0444,1.01023 0.13322,1.34327 0.0444,0.22203 0.14432,0.42186 0.28863,0.62168 0.14432,0.19983 0.33305,0.37745 0.55508,0.53287 0.22203,0.15542 0.47736,0.28864 0.7771,0.37745 0.29974,0.0888 0.63278,0.13322 0.99913,0.13322 0.55507,0 1.01023,-0.0888 1.38768,-0.28864 0.37744,-0.18872 0.65498,-0.42185 0.85481,-0.69939 z"
       style="fill:#000000"
       id="path3446-5" />
    <path
       inkscape:connector-curvature="0"
       d="m 139.8066,125.79861 0.23313,-1.15455 -0.18873,-0.0222 c -0.15542,-0.0111 -0.27753,-0.0333 -0.36635,-0.0555 -0.0888,-0.0222 -0.16652,-0.0555 -0.22202,-0.11102 -0.0555,-0.0444 -0.0888,-0.11101 -0.11102,-0.19982 -0.0222,-0.0888 -0.0222,-0.19983 -0.0222,-0.34415 l 0,-6.87179 -1.39878,0.24424 0,6.78297 c 0,0.58838 0.14432,1.02133 0.44405,1.30997 0.29974,0.28864 0.78821,0.42186 1.4765,0.42186 l 0.15542,0 z"
       style="fill:#000000"
       id="path3448-9" />
    <path
       inkscape:connector-curvature="0"
       d="m 144.68134,122.70131 0,0.24423 c 0,0.54397 -0.0999,0.95472 -0.27754,1.23226 -0.18872,0.27753 -0.52177,0.41075 -0.99913,0.41075 -0.25533,0 -0.46626,-0.0333 -0.63278,-0.0999 -0.16652,-0.0666 -0.29974,-0.16652 -0.39965,-0.31084 -0.0999,-0.13322 -0.16652,-0.32195 -0.21093,-0.54397 -0.0444,-0.22203 -0.0555,-0.49957 -0.0555,-0.81041 -0.0111,-0.17762 0,-0.37745 0.0222,-0.58837 0.0111,-0.19983 0.0555,-0.39966 0.14432,-0.57728 0.0888,-0.17762 0.21092,-0.32194 0.38855,-0.44406 0.17762,-0.11101 0.42185,-0.16652 0.74379,-0.17762 0.46626,0 0.7882,0.15542 0.98803,0.44406 0.18873,0.29974 0.28864,0.71049 0.28864,1.22116 z m 0.94362,2.13147 c 0.21093,-0.31084 0.35525,-0.64388 0.42185,-0.99913 0.0666,-0.35524 0.0999,-0.74379 0.11102,-1.14345 0,-0.31084 -0.0555,-0.64388 -0.15542,-0.98802 -0.11102,-0.34415 -0.26644,-0.65499 -0.48846,-0.94363 -0.22203,-0.28863 -0.51067,-0.52176 -0.86592,-0.69939 -0.35524,-0.17762 -0.7771,-0.26643 -1.26556,-0.27753 -0.53287,0 -0.97693,0.0777 -1.33217,0.23313 -0.35525,0.15542 -0.63278,0.37745 -0.84371,0.64388 -0.21093,0.27754 -0.35525,0.59948 -0.44406,0.96583 -0.0888,0.37745 -0.13322,0.766 -0.13322,1.18785 0,0.55507 0.0444,1.01023 0.13322,1.34327 0.0444,0.22203 0.14432,0.42186 0.28864,0.62168 0.14432,0.19983 0.33304,0.37745 0.55507,0.53287 0.22203,0.15542 0.47736,0.28864 0.7771,0.37745 0.29974,0.0888 0.63278,0.13322 0.99913,0.13322 0.55507,0 1.01023,-0.0888 1.38768,-0.28864 0.37745,-0.18872 0.65498,-0.42185 0.85481,-0.69939 z"
       style="fill:#000000"
       id="path3450-7" />
    <path
       inkscape:connector-curvature="0"
       d="m 150.75573,121.38023 0.0111,2.60884 c -0.26643,0.19983 -0.59948,0.29974 -1.01023,0.29974 -0.35525,0 -0.65499,-0.13322 -0.88812,-0.42185 -0.24423,-0.28864 -0.36634,-0.63279 -0.36634,-1.03244 0,-0.49956 0.12211,-0.91031 0.37745,-1.24336 0.23313,-0.31084 0.57727,-0.46626 1.02133,-0.46626 0.17762,0 0.35524,0.0222 0.52177,0.0555 0.11101,0.0333 0.22202,0.0999 0.33304,0.19982 z m 1.40988,3.7967 0,-4.30736 -0.0444,-0.0444 c -0.21092,-0.24423 -0.42185,-0.43295 -0.62168,-0.56617 -0.19982,-0.13322 -0.39965,-0.24423 -0.59947,-0.31084 -0.19983,-0.0555 -0.37745,-0.0999 -0.53287,-0.12212 -0.16652,-0.0111 -0.32194,-0.0111 -0.47736,-0.0222 -0.83261,0 -1.5098,0.27754 -2.04267,0.81041 -0.53287,0.54397 -0.7993,1.24336 -0.7993,2.08707 0,0.91031 0.25533,1.6097 0.766,2.08707 0.51066,0.48846 1.13234,0.72159 1.85394,0.72159 0.27753,0 0.54397,-0.0333 0.8104,-0.12212 0.0999,-0.0222 0.18873,-0.0555 0.27754,-0.0888 -0.0222,0.19983 -0.0444,0.36635 -0.0777,0.47736 -0.0555,0.17763 -0.13322,0.32194 -0.23313,0.42186 -0.15542,0.15542 -0.35525,0.25533 -0.59948,0.29974 -0.24423,0.0555 -0.48846,0.0777 -0.73269,0.0666 -0.25534,-0.0111 -0.48847,-0.0444 -0.7105,-0.0999 -0.22202,-0.0444 -0.39965,-0.11101 -0.51066,-0.17762 l -0.59948,1.07684 c 0.39965,0.24423 0.7771,0.36635 1.13235,0.37745 0.28863,0.0222 0.59947,0.0333 0.91031,0.0333 0.88812,0 1.58751,-0.21093 2.08707,-0.64388 0.48847,-0.41076 0.7438,-1.06574 0.7438,-1.95385 z"
       style="fill:#000000"
       id="path3452-9" />
    <path
       inkscape:connector-curvature="0"
       d="m 154.99995,119.11554 0,-1.47649 -1.42098,0 0,1.47649 1.42098,0 z m -0.0111,6.57205 0,-5.77274 -1.39878,0 0,5.77274 1.39878,0 z"
       style="fill:#000000"
       id="path3454-0" />
    <path
       inkscape:connector-curvature="0"
       d="m 160.01415,122.27945 -2.24249,-0.0111 c 0.0666,-0.35525 0.19983,-0.64388 0.38855,-0.87701 0.18873,-0.23313 0.45516,-0.35525 0.7993,-0.35525 0.31084,0 0.55508,0.12212 0.7438,0.35525 0.17762,0.23313 0.27754,0.53287 0.31084,0.88811 z m 1.14345,2.67545 -1.03243,-0.94363 -0.11102,0.16653 c -0.11101,0.15542 -0.24423,0.26643 -0.41075,0.31084 -0.17762,0.0444 -0.36635,0.0666 -0.57728,0.0666 -0.35524,0 -0.64388,-0.0777 -0.86591,-0.25534 -0.22203,-0.17762 -0.36635,-0.52177 -0.43295,-1.03243 l 3.66347,0 c 0.0222,-0.39965 0,-0.7993 -0.0666,-1.22116 -0.0777,-0.41075 -0.21093,-0.7882 -0.41075,-1.12124 -0.19983,-0.33305 -0.45516,-0.59948 -0.7771,-0.82151 -0.32194,-0.21093 -0.71049,-0.31084 -1.17676,-0.32194 -0.35524,0 -0.69939,0.0777 -1.02133,0.22203 -0.33304,0.14432 -0.61058,0.35524 -0.85481,0.62168 -0.24423,0.26643 -0.44406,0.59947 -0.58837,0.97692 -0.14432,0.38855 -0.21093,0.82151 -0.21093,1.30997 0,0.36635 0.0444,0.7216 0.15542,1.06574 0.0999,0.35525 0.25533,0.66609 0.47736,0.93252 0.22203,0.26644 0.48846,0.48846 0.82151,0.65499 0.33304,0.16652 0.72159,0.24423 1.18785,0.24423 0.51067,0 0.93252,-0.0555 1.26556,-0.18873 0.33305,-0.13321 0.61058,-0.31084 0.83261,-0.53287 l 0.13322,-0.13321 z"
       style="fill:#000000"
       id="path3456-0" />
    <path
       inkscape:connector-curvature="0"
       d="m 166.71855,124.07788 0,-0.28863 c -0.0444,-0.41076 -0.25533,-0.7438 -0.63278,-0.98803 -0.36635,-0.19983 -0.69939,-0.34415 -0.98803,-0.43296 -0.29974,-0.0777 -0.55507,-0.14432 -0.766,-0.19982 -0.21092,-0.0444 -0.37745,-0.11102 -0.48846,-0.18873 -0.12212,-0.0666 -0.17762,-0.21092 -0.17762,-0.41075 0,-0.0999 0.0222,-0.18873 0.0777,-0.25533 0.0555,-0.0666 0.12211,-0.12212 0.21092,-0.16653 0.0888,-0.0444 0.17763,-0.0888 0.28864,-0.11101 0.11102,-0.0222 0.22203,-0.0444 0.33304,-0.0444 0.21093,0 0.41076,0.0333 0.59948,0.0777 0.17762,0.0555 0.32194,0.12212 0.42186,0.19983 l 0.16652,0.14432 0.67719,-1.16565 -0.17763,-0.0888 c -0.22203,-0.0999 -0.47736,-0.19983 -0.7549,-0.26644 -0.27753,-0.0666 -0.56617,-0.11101 -0.87701,-0.12211 -0.25533,0 -0.52177,0.0444 -0.7882,0.11101 -0.26643,0.0777 -0.51067,0.17762 -0.72159,0.31084 -0.22203,0.13322 -0.39966,0.27754 -0.54397,0.45516 -0.15542,0.17762 -0.23313,0.39965 -0.25534,0.65498 l 0.0111,0.44406 c 0.0333,0.26644 0.11102,0.48847 0.23313,0.64389 0.12212,0.15542 0.27754,0.29973 0.47737,0.41075 0.19982,0.11101 0.42185,0.21093 0.66608,0.29974 0.24423,0.0888 0.51067,0.17762 0.7771,0.25533 0.0888,0.0222 0.17763,0.0555 0.28864,0.0888 0.0999,0.0333 0.19983,0.0777 0.28864,0.12212 0.0888,0.0444 0.16652,0.11101 0.23313,0.17762 0.0666,0.0666 0.0999,0.15542 0.0999,0.26643 l 0,0.0888 c 0,0.17762 -0.0999,0.29974 -0.27754,0.36634 -0.17762,0.0777 -0.41075,0.11102 -0.68828,0.11102 -0.23313,0 -0.46626,-0.0222 -0.68829,-0.0888 -0.22203,-0.0666 -0.39965,-0.15542 -0.51067,-0.28864 l -0.13322,-0.14432 -0.88811,0.93252 0.0888,0.12212 c 0.0888,0.13321 0.19983,0.23313 0.35525,0.32194 0.15542,0.0888 0.33304,0.15542 0.53287,0.21093 0.19982,0.0555 0.41075,0.0999 0.64388,0.12211 0.23313,0.0222 0.47736,0.0333 0.73269,0.0333 0.71049,0 1.24336,-0.15542 1.59861,-0.46626 0.35525,-0.31084 0.53287,-0.7327 0.55507,-1.25447 z"
       style="fill:#000000"
       id="path3458-7" />
    <path
       inkscape:connector-curvature="0"
       d="m 168.98515,125.86521 0,-1.64301 -1.58751,0 0,1.64301 1.58751,0 z"
       style="fill:#000000"
       id="path3460-1" />
    <path
       inkscape:connector-curvature="0"
       d="m 175.433,124.9993 0,-7.94862 -1.40988,0.24423 -0.0111,2.76425 c -0.34415,-0.17762 -0.7327,-0.26643 -1.15455,-0.26643 -0.7882,0 -1.43208,0.28864 -1.92055,0.84371 -0.48846,0.56617 -0.73269,1.28777 -0.73269,2.17588 0,0.93252 0.27753,1.66522 0.8326,2.19808 0.54398,0.55508 1.24337,0.82151 2.09818,0.82151 0.16652,0 0.33304,0 0.51066,-0.0222 0.17763,0 0.35525,-0.0333 0.55507,-0.0888 0.18873,-0.0444 0.38855,-0.12212 0.58838,-0.23313 0.19983,-0.11102 0.38855,-0.25534 0.58838,-0.43296 l 0.0555,-0.0555 z m -1.42098,-3.61907 0.0111,2.95299 c -0.11101,0.0555 -0.23313,0.0999 -0.35525,0.13321 -0.15542,0.0555 -0.33304,0.0777 -0.51066,0.0777 -0.46626,0 -0.83261,-0.14431 -1.09904,-0.44405 -0.27754,-0.28864 -0.41076,-0.7216 -0.41076,-1.29887 0,-0.54397 0.11102,-0.97693 0.33305,-1.28777 0.19982,-0.28864 0.53287,-0.44406 0.99913,-0.44406 0.41075,0 0.75489,0.11102 1.03243,0.31084 z"
       style="fill:#000000"
       id="path3462-3" />
    <path
       inkscape:connector-curvature="0"
       d="m 180.37401,122.27945 -2.24249,-0.0111 c 0.0666,-0.35525 0.19982,-0.64388 0.38855,-0.87701 0.18872,-0.23313 0.45516,-0.35525 0.7993,-0.35525 0.31084,0 0.55507,0.12212 0.7438,0.35525 0.17762,0.23313 0.27753,0.53287 0.31084,0.88811 z m 1.14344,2.67545 -1.03243,-0.94363 -0.11101,0.16653 c -0.11102,0.15542 -0.24423,0.26643 -0.41076,0.31084 -0.17762,0.0444 -0.36634,0.0666 -0.57727,0.0666 -0.35525,0 -0.64388,-0.0777 -0.86591,-0.25534 -0.22203,-0.17762 -0.36635,-0.52177 -0.43296,-1.03243 l 3.66347,0 c 0.0222,-0.39965 0,-0.7993 -0.0666,-1.22116 -0.0777,-0.41075 -0.21093,-0.7882 -0.41076,-1.12124 -0.19982,-0.33305 -0.45516,-0.59948 -0.7771,-0.82151 -0.32194,-0.21093 -0.71049,-0.31084 -1.17675,-0.32194 -0.35525,0 -0.69939,0.0777 -1.02133,0.22203 -0.33304,0.14432 -0.61058,0.35524 -0.85481,0.62168 -0.24423,0.26643 -0.44406,0.59947 -0.58838,0.97692 -0.14432,0.38855 -0.21093,0.82151 -0.21093,1.30997 0,0.36635 0.0444,0.7216 0.15542,1.06574 0.0999,0.35525 0.25534,0.66609 0.47737,0.93252 0.22203,0.26644 0.48846,0.48846 0.8215,0.65499 0.33305,0.16652 0.7216,0.24423 1.18786,0.24423 0.51066,0 0.93252,-0.0555 1.26556,-0.18873 0.33304,-0.13321 0.61058,-0.31084 0.83261,-0.53287 l 0.13321,-0.13321 z"
       style="fill:#000000"
       id="path3464-0" />
  </g>
  <g
     id="g5738"
     transform="matrix(0.23130817,-0.97288043,0.97288064,0.23130817,34932.631,53121.317)">
    <g
       inkscape:export-filename="C:\usr\Elektronik\ad1938-audio-card\board\extensions\audio-conn-a\con-cape-logo.png"
       inkscape:export-ydpi="400"
       inkscape:export-xdpi="400"
       id="text4000-8-7"
       style="font-style:normal;font-variant:normal;font-weight:bold;font-stretch:normal;font-size:37.42130661px;line-height:125%;font-family:Earthbound;-inkscape-font-specification:'Earthbound Bold';letter-spacing:0px;word-spacing:0px;fill:#000000;fill-opacity:1;stroke:none"
       transform="matrix(80.028924,0,0,82.529918,53593.382,22960.178)">
      <g
         style="font-style:normal;font-weight:normal;font-size:40px;line-height:125%;font-family:sans-serif;letter-spacing:0px;word-spacing:0px;fill:#000000;fill-opacity:1;stroke:none;stroke-width:1px;stroke-linecap:butt;stroke-linejoin:miter;stroke-opacity:1"
         id="text3549">
        <path
           d="m -305.3387,105.54623 0,-23.040003 8.52,0 0,-4.68 -22.24,0 0,4.68 8.52,0 0,23.040003 5.2,0 z"
           style="font-style:normal;font-variant:normal;font-weight:bold;font-stretch:condensed;font-family:Earthbound;-inkscape-font-specification:'Earthbound Bold Condensed';fill:#000000"
           id="path5744" />
        <path
           d="m -286.56245,90.906227 -1.88,0 0,-8.48 c 0.36,0 0.76,-0.04 1.24,-0.04 0.44,0 0.96,0 1.56,-0.04 l 0.6,0 c 1.92,0.08 3.32,0.44 4.2,1.16 0.88,0.72 1.32,1.76 1.32,3.12 0,0.88 -0.16,1.6 -0.44,2.16 -0.32,0.56 -0.76,1 -1.32,1.32 -0.6,0.32 -1.32,0.56 -2.2,0.64 -0.88,0.12 -1.92,0.16 -3.08,0.16 z m 14.28,14.640003 -0.4,-0.88 c -0.4,-0.76 -0.88,-1.64 -1.44,-2.6 -0.56,-0.96 -1.16,-1.92 -1.8,-2.880003 -0.64,-0.96 -1.28,-1.88 -1.92,-2.76 -0.64,-0.88 -1.16,-1.64 -1.64,-2.28 3.72,-1.4 5.6,-3.96 5.6,-7.64 0,-1.44 -0.32,-2.76 -0.88,-3.88 -0.56,-1.12 -1.4,-2.04 -2.44,-2.8 -1.08,-0.76 -2.36,-1.32 -3.84,-1.72 -1.48,-0.36 -3.12,-0.52 -4.88,-0.56 -2.72,0 -5.12,0.24 -7.16,0.68 l -0.52,0.12 0,27.200003 5.2,0 0,-10.160003 3.64,0 c 0.2,0 0.4,0 0.52,-0.04 2.32,3 4.36,6.280003 6.16,9.840003 l 0.16,0.36 5.64,0 z"
           style="font-style:normal;font-variant:normal;font-weight:bold;font-stretch:condensed;font-family:Earthbound;-inkscape-font-specification:'Earthbound Bold Condensed';fill:#000000"
           id="path5746" />
        <path
           d="m -257.39307,101.46623 c -2.44,0 -4.28,-0.8 -5.48,-2.400003 -1.24,-1.6 -1.84,-3.88 -1.84,-6.8 0,-1.96 0.16,-3.6 0.52,-4.96 0.32,-1.32 0.8,-2.4 1.44,-3.2 0.64,-0.8 1.4,-1.36 2.32,-1.72 0.88,-0.32 1.92,-0.52 3.04,-0.52 4.8,0 7.2,3.32 7.2,9.88 0,3.04 -0.6,5.4 -1.76,7.12 -1.16,1.760003 -2.96,2.600003 -5.44,2.600003 z m 0,4.68 c 1.76,0 3.44,-0.32 5,-1 1.52,-0.64 2.88,-1.6 4.04,-2.84 1.12,-1.24 2.04,-2.760003 2.68,-4.520003 0.64,-1.76 0.96,-3.8 1,-6.04 0,-2.08 -0.32,-4.04 -0.92,-5.84 -0.6,-1.76 -1.44,-3.32 -2.56,-4.6 -1.12,-1.28 -2.44,-2.28 -4,-3.04 -1.56,-0.72 -3.28,-1.08 -5.2,-1.08 -1.68,0 -3.32,0.32 -4.84,0.96 -1.56,0.64 -2.92,1.52 -4.08,2.72 -1.2,1.2 -2.12,2.64 -2.84,4.32 -0.72,1.68 -1.04,3.6 -1.04,5.68 0,2.48 0.24,4.6 0.76,6.28 0.4,1.44 1,2.68 1.8,3.800003 0.8,1.12 1.72,2.04 2.8,2.8 1.04,0.8 2.2,1.4 3.48,1.8 1.28,0.4 2.56,0.6 3.92,0.6 z"
           style="font-style:normal;font-variant:normal;font-weight:bold;font-stretch:condensed;font-family:Earthbound;-inkscape-font-specification:'Earthbound Bold Condensed';fill:#000000"
           id="path5748" />
        <path
           d="m -222.33432,105.54623 0,-4.68 -12.24,0 0,-23.040003 -5.2,0 0,27.720003 17.44,0 z"
           style="font-style:normal;font-variant:normal;font-weight:bold;font-stretch:condensed;font-family:Earthbound;-inkscape-font-specification:'Earthbound Bold Condensed';fill:#000000"
           id="path5750" />
        <path
           d="m -201.70932,105.54623 0,-4.68 -12.24,0 0,-23.040003 -5.2,0 0,27.720003 17.44,0 z"
           style="font-style:normal;font-variant:normal;font-weight:bold;font-stretch:condensed;font-family:Earthbound;-inkscape-font-specification:'Earthbound Bold Condensed';fill:#000000"
           id="path5752" />
        <path
           d="m -186.72432,84.906227 0,0.96 c 0,0.16 -0.04,0.48 -0.12,0.92 -0.08,0.44 -0.24,0.88 -0.44,1.36 -0.2,0.48 -0.48,0.88 -0.8,1.24 -0.32,0.36 -0.76,0.52 -1.28,0.52 -1.32,0 -2.4,-0.28 -3.2,-0.92 -0.8,-0.6 -1.2,-1.52 -1.2,-2.8 l 0,-1.44 c 0,-0.36 0.04,-0.72 0.2,-1.08 0.16,-0.32 0.36,-0.64 0.6,-0.92 0.24,-0.28 0.52,-0.52 0.84,-0.68 0.32,-0.16 0.64,-0.24 0.96,-0.24 l 1.8,0 c 0.32,0 0.64,0.12 1,0.32 0.32,0.24 0.6,0.48 0.84,0.8 0.2,0.32 0.4,0.64 0.56,1 0.16,0.36 0.24,0.68 0.24,0.96 z m -2.36,16.840003 -2.28,0 c -0.16,0 -0.24,0 -0.32,-0.04 l -0.08,0 c -0.32,0 -0.64,-0.08 -0.92,-0.28 -0.32,-0.2 -0.56,-0.44 -0.8,-0.76 -0.24,-0.32 -0.4,-0.64 -0.56,-1.040003 -0.16,-0.36 -0.28,-0.72 -0.28,-1.08 l 0,-1.88 c 0,-0.4 0.08,-0.84 0.24,-1.28 0.16,-0.44 0.36,-0.84 0.64,-1.16 0.24,-0.32 0.56,-0.6 0.92,-0.84 0.36,-0.2 0.76,-0.32 1.16,-0.32 l 0.2,0 c 1.6,0.24 2.8,0.6 3.6,1.12 0.8,0.52 1.24,1.32 1.24,2.44 l 0,0.64 c 0,0.2 -0.04,0.4 -0.04,0.6 l 0,0.76 c 0,0.88 -0.32,1.600003 -0.88,2.160003 -0.56,0.56 -1.2,0.88 -1.84,0.96 z m -2.28,4.6 2.24,0 c 0.84,0 1.76,-0.16 2.72,-0.56 0.96,-0.4 1.88,-0.92 2.68,-1.56 0.8,-0.64 1.48,-1.36 2.04,-2.2 0.56,-0.84 0.8,-1.72 0.84,-2.680003 l 0,-1.04 c 0,-0.16 0.04,-0.36 0.04,-0.52 l 0,-0.56 c 0,-1.44 -0.32,-2.64 -0.92,-3.52 -0.6,-0.88 -1.4,-1.64 -2.36,-2.28 0.84,-0.84 1.52,-1.8 2.04,-2.88 0.52,-1.04 0.8,-2.08 0.8,-3.04 l 0,-0.92 c 0,-0.76 -0.24,-1.56 -0.68,-2.44 -0.44,-0.88 -1.04,-1.68 -1.76,-2.4 -0.76,-0.72 -1.64,-1.32 -2.6,-1.8 -1,-0.48 -2.04,-0.72 -3.08,-0.72 l -1.8,0 c -1.04,0 -2.04,0.24 -3,0.64 -0.96,0.4 -1.84,0.96 -2.56,1.64 -0.76,0.68 -1.36,1.44 -1.8,2.32 -0.48,0.88 -0.68,1.76 -0.68,2.64 l 0,1.36 c 0,1.32 0.2,2.4 0.68,3.2 0.48,0.84 1.12,1.56 1.96,2.16 -1,0.72 -1.8,1.6 -2.4,2.64 -0.6,1.04 -0.88,2.16 -0.88,3.28 l 0,1.84 c 0,0.96 0.28,1.840003 0.8,2.720003 0.48,0.88 1.16,1.68 1.96,2.36 0.8,0.72 1.68,1.28 2.68,1.68 1,0.44 2,0.64 3.04,0.64 z"
           style="font-style:normal;font-variant:normal;font-weight:bold;font-stretch:condensed;font-family:Earthbound;-inkscape-font-specification:'Earthbound Bold Condensed';fill:#000000"
           id="path5754" />
      </g>
    </g>
  </g>
</svg>
